<svg width="215" height="215" viewBox="0 0 215 215" fill="none" xmlns="http://www.w3.org/2000/svg">
<rect width="215" height="215" rx="20" fill="white"/>
<path d="M88.3643 180.699C88.0068 180.821 87.7136 182.044 87.3132 182.502C80.9349 189.909 61.6569 198.31 51.9607 198.933C38.8394 199.77 18.968 192.807 17.5378 177.615C16.3938 165.442 17.4163 149.485 17.5092 136.919C17.5235 134.6 17.2018 132.317 17.5021 129.791C20.6912 102.691 50.1159 93.9395 73.5483 94.2401C71.8894 84.6796 67.9852 75.6631 63.1299 67.3406C60.5986 63.0041 54.063 55.297 54.2632 50.5025C54.728 39.4393 74.7997 36.6985 83.0586 35.346C86.8913 34.7235 91.5535 35.4248 94.0562 31.7036C96.3515 28.283 94.7212 22.7013 96.4016 20.118C99.9626 14.6365 115.565 14.7439 119.627 19.7459C121.321 21.8355 120.563 25.6425 121.071 28.3045C122.516 35.9257 129.466 34.6591 135.444 35.7181C147.021 37.7719 168.1 41.7578 159.177 58.2739C151.983 71.577 144.289 80.4075 142.473 96.5729C140.935 110.234 145.848 120.51 152.112 132.117L165.684 100.874C158.318 97.3243 151.919 93.1237 153.27 83.8066C153.621 81.4093 155.494 77.0799 158.512 79.0908C160.878 80.6723 158.59 83.5776 158.512 85.8461C158.297 92.079 163.453 93.1023 167.636 96.0291C169.416 91.8142 172.884 87.2272 177.718 86.4758C191.268 84.3648 197.775 98.8557 189.595 108.888C197.589 113.34 199.735 121.934 195.494 129.977C190.324 139.788 180.972 150.15 176.452 159.868C174.808 163.41 174.894 166.552 177.032 169.879C181.372 176.627 191.061 172.005 196.681 180.942C199.005 184.635 198.855 186.832 198.862 190.875C198.862 193.895 200.092 199.949 195.201 198.496C192.513 197.695 193.8 190.081 193.492 187.705C193.213 185.587 191.583 182.953 189.924 181.629C186.006 178.524 180.671 180.162 175.859 176.413C169.28 171.275 168.501 163.246 172.398 156.175C177.739 146.486 185.92 136.926 190.954 127.229C193.085 123.122 192.963 119.508 189.938 115.873C189.23 115.021 187.25 112.91 186.206 113.905L161.179 152.125C162.08 157.743 163.352 163.367 163.546 169.085C163.646 172.105 163.803 175.575 161.751 178.037C157.868 182.696 147.5 179.826 142.108 180.885L130.703 197.952C128.658 199.634 125.626 198.374 126.048 195.562L132.112 180.699H116.759V196.958C116.759 197.537 114.914 198.603 114.085 198.603C113.256 198.603 111.411 197.537 111.411 196.958V180.699H104.982V196.958C104.982 197.537 103.137 198.603 102.308 198.603C101.479 198.603 99.6337 197.537 99.6337 196.958V180.699H88.3858H88.3643ZM88.1856 139.438V175.339H134.064L135.372 173.078L149.588 138.679C145.826 130.743 140.871 123.322 138.554 114.756C134.092 98.2904 138.847 82.7761 146.677 68.278C149.087 63.8127 152.677 59.3545 154.879 55.0537C158.891 47.225 149.959 44.5272 143.96 42.8956C137.553 41.1567 129.723 41.2497 123.967 39.3248C116.452 36.8059 115.487 29.4638 115.301 22.4509C114.771 21.8999 101.571 21.8999 101.057 22.4509C100.806 24.2828 100.906 26.5227 100.642 28.2902C98.6755 41.3714 89.0723 39.6683 78.8398 41.4859C74.4636 42.2587 59.6619 45.0138 59.6119 50.8317C59.5904 53.2432 64.7102 59.655 66.1975 62.1239C76.0367 78.4539 82.9442 96.0005 77.6528 115.322C73.9774 128.739 64.0023 139.573 60.6987 153.191C67.2415 151.016 73.055 146.837 78.3607 142.465C79.798 141.284 83.9596 136.697 85.4183 136.826C86.6625 136.933 87.9711 138.221 88.1856 139.438ZM176.981 110.928C174.958 112.581 171.547 110.549 172.834 107.314C173.242 106.284 176.838 99.7359 177.432 99.0561C180.378 95.6856 184.347 100.48 181.014 103.686L184.768 105.962C193.192 97.5247 182.602 85.8747 174.293 94.834C164.203 118.8 153.12 142.522 143.724 166.774C143.367 167.689 142.837 168.627 142.823 169.622L181.551 111.372C182.251 109.919 179.391 109.16 178.347 108.516C178.154 108.516 177.446 110.549 176.989 110.921L176.981 110.928ZM64.9819 99.9577V107.636C64.9819 108.137 63.0942 109.253 62.3434 109.225C61.4496 109.196 59.6262 108.159 59.6262 107.278V100.666L53.2192 101.754L53.1263 119.343C52.4398 122.442 47.8492 121.24 47.8492 119.422V103.521C45.5109 103.843 43.3943 105.124 41.2277 106.005C40.3196 108.681 42.8938 116.438 38.3818 116.338C35.0139 116.266 35.7289 111.486 35.7075 109.232C34.2344 110.391 30.2158 113.354 29.9799 115.107L29.9298 132.561C28.7714 134.893 24.6455 133.992 24.6455 131.559V123.523L23.6015 126.227C22.6648 130.485 22.3073 135.044 22.9079 139.373C23.4728 143.431 25.8039 146.236 28.7571 148.876C36.8659 137.649 50.9954 133.641 64.1882 132.002C68.4786 124.009 72.7761 115.687 73.8773 106.506C74.0346 105.174 74.2849 102.834 74.3135 101.546C74.3206 101.11 74.149 99.6715 73.6914 99.5642C72.8905 99.3781 65.318 99.6357 65.0034 99.9363L64.9819 99.9577ZM60.6987 138.185C54.7995 138.729 48.4498 140.568 43.2013 143.359C39.626 145.255 35.3785 148.268 33.5909 151.903C39.8048 155.503 47.5417 156.29 54.5779 155.288C55.915 149.341 58.1388 143.688 60.6916 138.192L60.6987 138.185ZM82.8298 146.043L70.3377 154.794V187.483C74.7854 185.179 79.1473 182.51 82.8298 179.089V146.043ZM22.8579 151.045V177.658C22.8579 182.123 29.5437 187.898 33.2048 189.809C43.2656 195.068 54.6351 194.31 64.9819 190.338V157.471L58.3605 159.954C57.8314 160.748 58.4034 165.435 58.1746 166.917C57.6383 170.337 52.8403 169.471 52.8403 167.654V161.042H46.0544V177.3C46.0544 178.416 41.7497 180.005 40.863 177.143L40.6986 159.975C38.5391 159.882 36.2366 159.124 34.2774 158.186C34.1987 160.548 35.021 165.006 31.7961 165.543C26.9695 166.344 29.8225 157.886 28.7428 155.689C28.3281 154.837 23.7231 152.19 22.8507 151.045H22.8579ZM146.019 175.339H156.195C156.281 175.339 157.653 174.595 157.711 174.538C159.191 172.999 157.031 161.242 157.081 158.551L146.019 175.339Z" fill="black"/>
</svg>
