<svg width="53" height="43" viewBox="0 0 53 43" fill="none" xmlns="http://www.w3.org/2000/svg">
<path d="M36.5421 4.36555C36.3018 4.17016 36.2692 3.76311 36.3568 3.47614C36.4505 3.16475 37.8025 1.34115 38.0997 0.95242C38.4805 0.455816 38.9447 -0.366431 39.6635 0.181054C39.9872 0.427321 39.9974 0.830303 39.8426 1.17019C39.6105 1.68308 38.287 3.48225 37.8757 3.98089C37.5438 4.38387 37.0572 4.78278 36.54 4.36555H36.5421Z" fill="black"/>
<path d="M41.1654 6.29683C40.9578 6.47186 39.056 6.80564 38.7384 6.77919C37.9361 6.70999 37.7183 5.55803 38.6508 5.25885C38.9196 5.17337 40.4793 4.90471 40.7134 4.9271C41.3935 4.99019 41.6439 5.88978 41.1654 6.29683Z" fill="black"/>
<path d="M33.8008 3.45348C33.6278 3.28048 33.2755 1.3999 33.2979 1.10682C33.359 0.294755 34.4829 0.0769811 34.7965 0.882944C34.937 1.24115 35.1589 2.76556 35.0917 3.12377C34.9859 3.67125 34.1897 3.84018 33.8008 3.45348Z" fill="black"/>
<path d="M9.12902 2.70335C9.32042 2.90484 9.54033 3.35259 9.57291 3.63142C9.296 6.46858 9.94144 10.016 9.56068 12.7677C9.46906 13.4353 8.75641 14.1904 8.23923 14.5974C7.94196 14.8315 7.06439 15.2141 7.02367 15.5255C6.9972 15.7351 7.12749 15.9875 7.1336 16.2276C7.29446 24.4277 7.30668 32.6095 7.42478 40.8095C6.86892 43.6202 2.62765 43.549 2.25707 40.7078C1.84578 37.5551 2.70908 33.5986 2.34665 30.3483C2.35072 30.1081 2.45254 29.8863 2.45661 29.6461C2.5238 24.8694 2.48715 20.0987 2.66022 15.3342C1.61365 14.7419 0.420477 14.0174 0.13949 12.7535C0.363465 9.93259 -0.249402 6.38106 0.12321 3.64363C0.243342 2.75626 1.05371 2.24745 1.89464 2.16197C3.30364 2.02153 6.38025 2.02153 7.78926 2.16197C8.22092 2.20471 8.82564 2.38584 9.12699 2.70538L9.12902 2.70335ZM2.75795 3.7861H1.64012V12.5744C1.64012 12.7616 2.42812 13.3844 2.62563 13.5207C3.12448 13.8647 4.08146 14.1049 4.17716 14.7134L3.77195 40.2132C3.80045 41.6806 5.77754 41.8048 5.916 40.315L5.51285 14.8192C5.62891 13.9909 6.79155 13.8077 7.42682 13.2765C7.56324 13.1625 8.04581 12.7087 8.04581 12.5744V3.7861H6.92795V11.3552C6.92795 11.6361 6.44541 11.9984 6.15831 12.0147C5.94452 12.0269 5.40289 11.6951 5.40289 11.5588V3.7861H4.28505V11.5588C4.28505 11.6931 3.74345 12.0289 3.52966 12.0147C3.28939 11.9984 2.75999 11.5506 2.75999 11.3552V3.7861H2.75795Z" fill="black"/>
<path d="M50.5479 3.78557C48.5607 4.24147 47.2901 5.78826 47.0926 7.80113L46.3841 21.9177C46.4757 22.4204 47.4449 23.0086 47.8705 23.2773C48.296 23.5459 49.0168 23.5927 48.9028 24.3356C48.7175 25.5262 47.3635 24.763 46.7547 24.3926C45.026 23.3424 44.804 22.685 44.8488 20.7006C44.8814 19.2617 45.085 17.7821 45.1563 16.335C45.2968 13.5039 45.2683 10.39 45.5655 7.59965C45.7875 5.51554 46.9196 3.65328 48.8498 2.75369C49.7946 2.31408 51.7473 1.7727 52.0486 3.25233C52.2502 4.24554 52.0893 6.65935 52.075 7.80521C51.9732 16.6708 51.5192 25.5588 52.075 34.4162C51.6821 36.8993 53.6612 43.1577 49.3731 42.9073C46.1458 42.7181 47.0519 38.5804 47.0926 36.4556C47.1517 33.478 47.1191 30.5045 47.3126 27.5309C47.6546 26.7942 48.6869 26.9305 48.8111 27.7182C48.862 28.0459 48.8315 28.5832 48.8213 28.9353C48.7358 31.8681 48.5586 34.8335 48.5077 37.7663C48.4955 38.4644 48.3999 40.001 48.5342 40.5932C48.7643 41.6129 50.4584 41.674 50.6396 40.4019C50.8656 38.7981 50.3036 36.6082 50.552 34.921C50.4543 33.3518 50.3728 31.7256 50.3403 30.1544C50.157 21.36 50.4522 12.5779 50.5459 3.78557H50.5479Z" fill="black"/>
<path d="M43.6371 22.5569C43.6371 32.1837 35.8285 39.9869 26.1935 39.9869C16.5586 39.9869 8.75 32.1837 8.75 22.5569C8.75 12.9301 16.5586 5.12695 26.1935 5.12695C35.8285 5.12695 43.6371 12.9301 43.6371 22.5569ZM42.1018 22.559C42.1018 13.7809 34.9815 6.66561 26.1956 6.66561C17.4097 6.66561 10.2893 13.7809 10.2893 22.559C10.2893 31.337 17.4097 38.4523 26.1956 38.4523C34.9815 38.4523 42.1018 31.337 42.1018 22.559Z" fill="black"/>
<path d="M14.6849 23.8294C14.8987 23.5791 15.3527 23.5343 15.648 23.6727C16.0328 23.8538 16.4258 25.9176 16.6701 26.5119C21.0234 37.1034 37.117 33.4887 36.5204 22.018C35.9441 10.9482 20.3494 8.59751 16.5378 18.9244C16.3545 19.421 16.0715 20.9719 15.8781 21.212C15.595 21.5662 14.8294 21.5723 14.6279 21.1347C14.296 20.4102 15.1328 18.208 15.483 17.4651C19.313 9.34241 30.6054 8.37566 35.8423 15.6843C42.1584 24.499 34.1829 36.4114 23.6011 34.1136C19.3374 33.1875 15.2794 29.3266 14.5831 24.9386C14.5261 24.5845 14.4263 24.1326 14.6849 23.8294Z" fill="black"/>
</svg>
