<svg width="43" height="43" viewBox="0 0 43 43" fill="none" xmlns="http://www.w3.org/2000/svg">
<path d="M35.9577 32.5299C35.9359 32.5517 35.4525 32.5215 35.3284 32.5299C35.2377 32.5366 35.0498 32.4829 35.1219 32.6541C35.1521 32.7246 36.0315 33.6594 36.1641 33.7903C36.7532 34.371 37.6779 35.148 38.3627 35.6146C38.9098 35.9888 39.5022 36.2473 40.0628 36.593C38.4986 37.8568 36.6089 38.6925 34.6352 39.0802C34.2593 42.1498 30.9816 43.9673 28.2578 42.2823C26.8262 41.3962 26.207 39.7884 26.2825 38.1404C25.1547 37.5278 24.1074 36.7592 23.1391 35.9217C22.6239 35.4753 22.0499 34.5153 21.2947 34.6563C20.8315 34.7419 19.7154 35.9888 19.2422 36.3799C15.5667 39.4125 11.9383 40.1493 7.30631 38.8536C5.69517 38.4039 4.16123 37.6487 2.86729 36.5913C3.93802 36.0442 4.88121 35.4451 5.79923 34.6647C9.22289 31.7579 10.4715 26.943 16.0518 27.762C18.3057 28.0926 19.7993 29.4923 21.4356 30.9289C22.3201 30.2962 23.0887 29.5023 23.9866 28.8898C24.1175 28.8008 24.7083 28.539 24.7334 28.5038C24.7888 28.4232 24.7032 28.351 24.6462 28.299C24.475 28.1413 23.891 27.8946 23.6325 27.72C21.6488 26.3774 19.89 24.3954 19.024 22.1498C17.3709 21.9904 15.706 21.9602 14.0513 21.8024C9.30512 21.3476 4.66471 20.3004 0.0209387 19.2867C0.0796781 18.889 -0.125069 17.7813 0.13842 17.5262L6.92534 13.4212C6.98072 13.2718 7.02099 13.114 7.04617 12.9546C7.48923 10.2056 7.53119 7.21325 7.90376 4.429C8.179 2.36977 8.92583 0.634431 11.1579 0.142698C13.4471 -0.360782 14.3013 0.849258 16.1575 1.68336C19.457 3.16695 23.4747 3.16695 26.7742 1.68336C28.82 0.761989 29.8304 -0.627624 32.3561 0.313885C34.6856 1.18155 35.0615 3.59154 35.1353 5.7884C42.5432 8.81096 45.2973 17.9424 40.5864 24.5447C39.138 26.5754 36.9966 28.2268 34.6201 29.0089V31.1873H35.9611C35.9258 31.3837 36.0081 32.4813 35.9611 32.5282L35.9577 32.5299ZM8.7278 10.412H20.0796C23.0132 6.03511 28.5565 3.87013 33.6937 5.30169C33.5863 4.06481 33.5746 2.82458 32.5139 2.00055C30.5872 0.501859 29.013 2.21032 27.2995 2.97226C23.6392 4.5985 19.2187 4.5918 15.5667 2.94542C13.9606 2.22209 12.6499 0.736818 10.7652 1.77063C9.81196 2.29257 9.4226 3.21561 9.31351 4.25782L8.72612 10.4154L8.7278 10.412ZM41.5128 17.3181C41.5128 11.2126 36.5636 6.26166 30.458 6.26166C24.3525 6.26166 19.4033 11.2109 19.4033 17.3181C19.4033 23.4253 24.3525 28.3745 30.458 28.3745C36.5636 28.3745 41.5128 23.4253 41.5128 17.3181ZM19.2841 11.753H8.55997L8.39214 13.1778H9.73308V14.5188H7.84839C7.50938 14.5188 2.79009 17.585 2.05333 18.023C1.96774 18.0733 1.87711 18.1203 1.77473 18.122C1.75291 18.1505 1.82004 18.226 1.85864 18.2462C2.17416 18.4224 4.01522 18.7396 4.52374 18.8487C8.92919 19.7969 13.2205 20.443 17.7351 20.6344C17.8895 20.6411 18.4618 20.8727 18.4483 20.5924C18.4198 19.9479 18.0808 19.0652 18.0288 18.3284C17.9398 17.0429 18.111 15.7825 18.2788 14.5171H11.074V13.1761H18.6564L19.2841 11.7513V11.753ZM26.3228 29.3463C25.6699 29.4906 25.0775 29.8178 24.5354 30.1988C24.0823 30.5177 21.7042 32.6608 21.4927 32.681C21.3803 32.691 21.3031 32.6256 21.2175 32.5685C20.281 31.9526 19.3462 30.8701 18.3913 30.1988C15.8605 28.4215 12.67 28.8126 10.6578 31.1504C9.17422 32.8756 8.37872 34.2585 6.55109 35.8411C6.39501 35.9771 5.56259 36.5343 5.54413 36.5947C5.49881 36.7357 5.87307 36.8481 5.99055 36.9018C9.80022 38.6506 13.8398 38.5079 17.3004 36.1181C18.2134 35.487 19.9151 33.5956 20.7459 33.364C22.5534 32.8606 23.2515 34.2183 24.4381 35.2101C25.0271 35.7019 25.6599 36.1634 26.3211 36.5527V32.5316H24.8962V31.1907H26.1952C26.2036 31.1907 26.3211 31.0732 26.3211 31.0648V29.3479L26.3228 29.3463ZM33.1919 31.1907V29.4318C31.3559 29.9555 29.5199 29.7692 27.662 29.5158V31.0665C27.662 31.0749 27.7795 31.1923 27.7879 31.1923H33.1919V31.1907ZM33.1919 32.5299H27.662V38.8553C27.662 41.3207 30.9766 42.4233 32.5559 40.5655C32.717 40.3758 33.1919 39.5636 33.1919 39.3571V32.5282V32.5299ZM34.6168 34.2065V37.6419C35.5935 37.5127 36.4662 37.0428 37.3809 36.7189L34.6168 34.2065Z" fill="black"/>
<path d="M40.1373 17.3186C40.1373 22.6656 35.8023 27.0006 30.4554 27.0006C25.1084 27.0006 20.7734 22.6656 20.7734 17.3186C20.7734 11.9717 25.1084 7.63672 30.4554 7.63672C35.8023 7.63672 40.1373 11.9717 40.1373 17.3186ZM38.746 17.317C38.746 12.7386 35.0337 9.02633 30.4554 9.02633C25.877 9.02633 22.1647 12.7386 22.1647 17.317C22.1647 21.8953 25.877 25.6076 30.4554 25.6076C35.0337 25.6076 38.746 21.8953 38.746 17.317Z" fill="black"/>
<path d="M30.4292 10.4102V11.7091C30.4292 11.8904 29.8066 11.8216 29.6438 11.8451C27.9554 12.0884 26.2167 13.2498 25.5689 14.8508L24.3203 14.2148C25.3927 11.9088 27.885 10.3951 30.4292 10.4118V10.4102Z" fill="black"/>
<path d="M24.897 17.2822H23.556C23.5141 17.0942 23.6215 15.7869 23.7725 15.7734L25.0296 16.1057L24.8953 17.2822H24.897Z" fill="black"/>
</svg>
