<svg width="43" height="43" viewBox="0 0 43 43" fill="none" xmlns="http://www.w3.org/2000/svg">
<path d="M14.0807 12.6145C14.3139 10.6569 16.1608 8.93741 18.1 8.71934C17.325 7.88393 16.6188 6.8338 16.5097 5.66122C16.451 5.01873 16.3336 3.56769 17.3703 3.8797C17.9356 4.04913 17.7226 5.06235 17.7645 5.49515C18.1168 9.06825 23.2801 9.9154 24.8134 6.60064C26.3802 3.2087 22.6494 -0.114454 19.4118 1.86837C19.0226 2.10657 18.6452 2.70377 18.1537 2.42866C16.8117 1.68217 19.3045 0.437444 19.962 0.239497C25.1288 -1.31556 28.6247 5.07242 24.7983 8.71934C26.3047 8.94412 27.6903 9.8483 28.3613 11.2289C28.4737 11.4621 28.8176 12.4082 28.8176 12.6145V15.2532H30.7434V10.6887C30.7434 10.2878 29.0642 8.85354 28.7371 8.76966C28.6029 8.73611 28.3915 8.8267 28.1969 8.80153C26.8147 8.61701 27.0495 6.21983 28.7371 6.66605C29.4903 6.86568 29.3024 7.49643 29.5742 7.83864C29.8543 8.18924 30.8591 8.69249 31.2483 9.0951C31.5872 9.4457 31.9462 10.1201 31.9998 10.6049C32.1559 12.0375 31.8858 13.7368 31.9965 15.1979C32.4377 15.421 32.8956 15.6709 33.0315 16.191C33.1439 16.6204 33.1422 17.897 33.0097 18.3164C32.9241 18.5881 32.3773 19.1904 32.1257 19.1904H30.6595L29.9046 38.9582C30.7518 38.8659 31.3288 39.4363 31.411 40.2566C31.5134 41.2732 31.4999 42.746 30.1982 42.8936L17.0885 42.8567C16.4342 42.5598 16.5869 41.7009 17.2998 41.6355L29.866 41.6422C29.9516 41.6607 30.1546 41.5818 30.1546 41.513V40.2147H12.737V41.513C12.737 41.7395 14.2937 41.5885 14.5839 41.6758C15.1845 41.8586 15.1459 42.736 14.5202 42.8769C14.2115 42.9456 12.9567 42.9356 12.6196 42.8869C11.3916 42.7125 11.3866 41.2111 11.4822 40.2566C11.5644 39.438 12.1398 38.8659 12.9886 38.9582L12.2337 19.1904H10.7676C10.516 19.1904 9.96911 18.5865 9.88355 18.3164C9.75103 17.8987 9.75103 16.6204 9.86174 16.191C9.99762 15.6709 10.4556 15.421 10.8968 15.1979C11.0075 13.7368 10.7374 12.0375 10.8934 10.6049C10.9454 10.1184 11.3061 9.44402 11.6449 9.0951C12.0341 8.69249 13.0389 8.18924 13.3191 7.83864C13.5908 7.49811 13.4046 6.86568 14.1562 6.66605C15.8437 6.21983 16.0786 8.61701 14.6963 8.80153C14.5017 8.82837 14.2887 8.73611 14.1562 8.76966C13.8978 8.83508 12.1499 10.3029 12.1499 10.6049V15.2532H14.0756C14.1478 14.4178 13.9784 13.4315 14.0756 12.6145H14.0807ZM20.4452 9.97747H18.1839C18.5127 10.3365 18.8851 11.447 19.4118 11.4637C20.0241 11.4822 20.1583 10.3801 20.4435 9.97747H20.4452ZM24.7161 9.97747H22.4548C22.7417 10.3801 22.8742 11.4822 23.4865 11.4637C24.0132 11.447 24.3873 10.3365 24.7144 9.97747H24.7161ZM20.779 12.1549C19.8966 12.9265 18.8062 12.94 18.0178 12.0274C17.8165 11.7942 17.0784 10.474 16.8989 10.4891C16.6741 10.5076 16.0786 11.1685 15.936 11.3748C15.7246 11.6785 15.3355 12.4333 15.3355 12.7839V15.2549H16.7597C16.7597 14.7064 16.6037 13.7435 17.3871 13.7385C18.2677 13.7334 17.9725 14.656 18.0161 15.2549H20.779V12.1566V12.1549ZM22.1193 12.1549V15.2532H24.8822C24.9258 14.6544 24.6305 13.7317 25.5112 13.7368C26.2946 13.7418 26.1369 14.7047 26.1386 15.2532H27.5628V12.7823C27.5628 12.742 27.3649 12.1079 27.328 12.0123C27.182 11.6449 26.3919 10.521 25.9994 10.4874C25.8199 10.4723 25.0818 11.7925 24.8805 12.0257C24.0921 12.9383 23.0017 12.9249 22.1193 12.1532V12.1549ZM31.8338 16.5097H11.0662V17.9339H21.5758C21.7519 17.9339 22.0824 18.3499 22.0824 18.563C22.0824 18.7525 21.8543 19.1904 21.6597 19.1904H17.0113V38.9582H25.887V19.1904H24.1709C23.9763 19.1904 23.7465 18.7525 23.7482 18.563C23.7482 18.3499 24.0803 17.9339 24.2548 17.9339H31.8338V16.5097ZM15.7548 19.1904H13.4936L14.3726 38.9582H15.7548V19.1904ZM29.4047 19.1904H27.1435V38.9582H28.5257L29.4047 19.1904Z" fill="black"/>
<path d="M24.7859 26.8812C24.7859 28.7248 23.2912 30.2195 21.4476 30.2195C19.604 30.2195 18.1094 28.7248 18.1094 26.8812C18.1094 25.0376 19.604 23.543 21.4476 23.543C23.2912 23.543 24.7859 25.0376 24.7859 26.8812ZM23.5261 26.8762C23.5261 25.7288 22.5967 24.7994 21.4493 24.7994C20.3019 24.7994 19.3725 25.7288 19.3725 26.8762C19.3725 28.0236 20.3019 28.953 21.4493 28.953C22.5967 28.953 23.5261 28.0236 23.5261 26.8762Z" fill="black"/>
<path d="M8.38663 41.6382C8.64161 41.6583 8.92846 41.6046 9.17673 41.6432C9.9098 41.7573 9.93497 42.799 9.09957 42.8963C8.74058 42.9382 6.33838 42.9382 6.12702 42.851C5.81835 42.7235 5.70428 42.284 5.83513 41.9753C6.03475 41.5023 6.71918 41.6566 7.13017 41.6382V25.3059C6.64202 25.7337 6.01295 27.693 5.39394 27.8054C4.94102 27.8876 4.47803 27.1713 4.20124 26.8526C3.01356 25.4803 1.19682 23.4137 0.228895 21.9475C0.116502 21.7764 -0.0260906 21.6439 0.00410457 21.4141L6.86848 3.88907L6.84332 3.78004C4.9125 2.7014 5.75965 -0.227548 8.0008 0.0207243C9.78399 0.218671 10.3409 2.53532 8.91671 3.59886C8.81103 3.67771 8.38663 3.85553 8.38663 3.90585V41.6398V41.6382ZM8.46546 1.9918C8.46546 1.59423 8.14339 1.27215 7.74582 1.27215C7.34825 1.27215 7.02617 1.59423 7.02617 1.9918C7.02617 2.38937 7.34825 2.71146 7.74582 2.71146C8.14339 2.71146 8.46546 2.38937 8.46546 1.9918ZM7.13185 22.6672V6.79452L1.38805 21.3268L5.16581 25.9752C5.33523 26.0104 5.26813 25.9316 5.30839 25.8679C5.95088 24.8244 6.45581 23.6921 7.13352 22.6672H7.13185Z" fill="black"/>
<path d="M35.776 25.3056V41.6379C36.187 41.6547 36.8731 41.502 37.071 41.9751C37.2019 42.2854 37.0861 42.7232 36.7792 42.8507C36.5678 42.9396 34.1656 42.938 33.8066 42.896C32.9712 42.7987 32.9964 41.757 33.7294 41.6429C33.9794 41.6043 34.2646 41.658 34.5196 41.6379V3.9039C34.5196 3.85357 34.0935 3.67575 33.9895 3.59691C32.5652 2.53337 33.1239 0.216718 34.9054 0.0187712C37.1465 -0.229501 37.9937 2.69944 36.0629 3.77808L36.0377 3.88712L42.9021 21.4121C42.9339 21.6419 42.7897 21.7744 42.6773 21.9456C41.7027 23.4234 39.8977 25.4616 38.7049 26.8506C38.4315 27.1693 37.9635 27.8856 37.5122 27.8034C36.8932 27.6894 36.2642 25.7317 35.776 25.3039V25.3056ZM35.8817 1.99153C35.8817 1.59396 35.5596 1.27188 35.162 1.27188C34.7645 1.27188 34.4424 1.59396 34.4424 1.99153C34.4424 2.3891 34.7645 2.71119 35.162 2.71119C35.5596 2.71119 35.8817 2.3891 35.8817 1.99153ZM35.776 6.79425V22.6669C36.4537 23.6902 36.9587 24.8242 37.6011 25.8676C37.6414 25.9313 37.5726 26.0102 37.7437 25.9749L41.5215 21.3266L35.7777 6.79425H35.776Z" fill="black"/>
</svg>
