<svg width="46" height="43" viewBox="0 0 46 43" fill="none" xmlns="http://www.w3.org/2000/svg">
<path d="M43.778 0.0226665C44.7627 -0.1021 45.7436 0.281801 45.9624 1.33368C46.3175 3.03818 44.375 5.94044 43.3999 7.30904C42.0831 9.15943 40.5418 10.8313 39.0254 12.5128C40.035 14.6357 40.8604 16.8738 41.2002 19.2195C42.1849 25.9876 39.8277 29.1528 33.0212 29.792C29.9232 30.0818 25.017 29.195 24.6388 33.6751C24.4219 36.2607 26.9979 38.2281 25.422 40.877C23.6848 43.7985 18.0761 42.9539 15.3216 42.2207C8.0314 40.2762 2.21537 34.2836 0.537742 26.9204C-2.89814 11.8429 10.6765 -1.57243 25.7118 2.1341C28.8463 2.90766 31.5855 4.43941 34.1288 6.37617C35.8506 4.86937 37.5608 3.31075 39.4765 2.04581C40.6128 1.29529 42.4305 0.19542 43.778 0.0226665ZM44.4729 1.53139C44.2118 1.51795 43.9604 1.5237 43.7013 1.57553C40.7318 2.17057 34.9081 7.61424 32.7794 9.91187C32.1037 10.6413 30.9597 11.8544 30.4414 12.651C30.3858 12.7374 30.2399 12.9312 30.2994 13.0176C30.3378 13.0733 31.2092 13.6338 31.3916 13.7969C31.6296 14.0119 31.9002 14.2749 32.1152 14.511C32.2976 14.7106 32.9252 15.6607 32.9847 15.703C33.1153 15.7932 33.7372 15.248 33.8812 15.1348C36.7431 12.8717 43.73 5.78881 44.4287 2.30494C44.4806 2.04581 44.4863 1.79435 44.4729 1.5333V1.53139ZM19.4447 3.09192C2.00807 4.24746 -4.9424 26.4521 8.78385 37.2626C11.9222 39.7349 19.5003 42.833 23.2664 40.8271C25.4795 39.6486 23.825 37.539 23.3681 35.9958C22.7481 33.8997 23.1762 31.3468 24.8807 29.8899C27.2973 27.8264 30.7409 28.5386 33.6815 28.1508C39.296 27.4099 40.4611 24.6862 39.653 19.3308C39.3613 17.3998 38.7451 15.415 37.8142 13.699C35.9254 15.584 33.8274 17.229 31.5874 18.6801C31.2937 18.8701 30.0076 19.5343 29.9001 19.6782C29.737 19.8951 29.9155 20.0967 29.9136 20.35C29.8905 26.2736 22.3335 27.5865 18.4101 24.2831C17.9206 23.8704 16.7958 22.7417 16.8802 22.0872C17.0012 21.137 18.0607 21.5862 18.6231 21.5305C20.2528 21.3655 20.8018 19.1791 21.629 18.0159C22.775 16.4074 24.3125 15.868 26.2685 16.1464C28.0248 12.9293 30.4126 10.1153 32.9732 7.51827C29.2398 4.42022 24.3202 2.76945 19.4447 3.09192ZM31.8235 16.7606C32.0001 16.5149 29.7504 14.2326 29.2878 14.1731L27.7215 16.7145L29.284 18.277L31.8235 16.7606ZM19.3679 22.8953C19.1856 23.093 20.199 23.6439 20.3238 23.7111C22.5677 24.928 25.8519 24.9184 27.5603 22.7993C30.284 19.4229 25.5314 15.7529 23.1071 18.634C21.9227 20.041 21.5024 22.5171 19.3679 22.8953Z" fill="black"/>
<path d="M13.0414 25.2902C13.0414 27.4074 11.3254 29.1235 9.20821 29.1235C7.09102 29.1235 5.375 27.4074 5.375 25.2902C5.375 23.1731 7.09102 21.457 9.20821 21.457C11.3254 21.457 13.0414 23.1731 13.0414 25.2902ZM11.5001 25.2922C11.5001 24.0272 10.4751 23.0022 9.21013 23.0022C7.94519 23.0022 6.92017 24.0272 6.92017 25.2922C6.92017 26.5571 7.94519 27.5821 9.21013 27.5821C10.4751 27.5821 11.5001 26.5571 11.5001 25.2922Z" fill="black"/>
<path d="M19.9399 33.718C19.9399 35.8352 18.2239 37.5512 16.1067 37.5512C13.9895 37.5512 12.2734 35.8352 12.2734 33.718C12.2734 31.6008 13.9895 29.8848 16.1067 29.8848C18.2239 29.8848 19.9399 31.6008 19.9399 33.718ZM18.3985 33.7199C18.3985 32.455 17.3735 31.43 16.1086 31.43C14.8436 31.43 13.8186 32.455 13.8186 33.7199C13.8186 34.9848 14.8436 36.0098 16.1086 36.0098C17.3735 36.0098 18.3985 34.9848 18.3985 33.7199Z" fill="black"/>
<path d="M25.307 9.19259C25.307 11.3098 23.591 13.0258 21.4738 13.0258C19.3566 13.0258 17.6406 11.3098 17.6406 9.19259C17.6406 7.0754 19.3566 5.35938 21.4738 5.35938C23.591 5.35938 25.307 7.0754 25.307 9.19259ZM23.7638 9.19068C23.7638 7.92573 22.7388 6.90072 21.4738 6.90072C20.2089 6.90072 19.1839 7.92573 19.1839 9.19068C19.1839 10.4556 20.2089 11.4806 21.4738 11.4806C22.7388 11.4806 23.7638 10.4556 23.7638 9.19068Z" fill="black"/>
<path d="M15.3383 14.5598C15.3383 16.677 13.6223 18.393 11.5051 18.393C9.38789 18.393 7.67188 16.677 7.67188 14.5598C7.67188 12.4426 9.38789 10.7266 11.5051 10.7266C13.6223 10.7266 15.3383 12.4426 15.3383 14.5598ZM13.795 14.5579C13.795 13.2929 12.77 12.2679 11.5051 12.2679C10.2401 12.2679 9.21515 13.2929 9.21515 14.5579C9.21515 15.8228 10.2401 16.8478 11.5051 16.8478C12.77 16.8478 13.795 15.8228 13.795 14.5579Z" fill="black"/>
</svg>
