<svg width="43" height="43" viewBox="0 0 43 43" fill="none" xmlns="http://www.w3.org/2000/svg">
<path d="M16.7525 38.6331C16.6686 38.6617 16.5998 38.9487 16.5058 39.0561C15.0085 40.7934 10.4831 42.7641 8.20691 42.9101C5.12673 43.1065 0.461973 41.4733 0.126259 37.9097C-0.142313 35.0544 0.0977164 31.3112 0.119538 28.3636C0.122895 27.8198 0.0473576 27.2843 0.117858 26.6918C0.866501 20.335 7.77383 18.2821 13.2745 18.3526C12.8851 16.11 11.9686 13.995 10.8288 12.0429C10.2346 11.0256 8.70041 9.21781 8.74741 8.09317C8.85651 5.4981 13.5683 4.85521 15.507 4.53795C16.4067 4.39192 17.5012 4.55642 18.0887 3.68357C18.6275 2.88121 18.2448 1.57192 18.6392 0.965957C19.4752 -0.319829 23.1378 -0.294654 24.0912 0.878668C24.4891 1.36881 24.3111 2.26182 24.4303 2.88625C24.7694 4.67392 26.401 4.37681 27.8042 4.62524C30.5219 5.10699 35.4703 6.04196 33.3754 9.91611C31.6868 13.0366 29.8806 15.1079 29.4543 18.8998C29.0934 22.1042 30.2466 24.5146 31.717 27.2373L34.9029 19.9086C33.174 19.0761 31.6717 18.0908 31.9889 15.9053C32.0712 15.3429 32.511 14.3274 33.2193 14.7991C33.7749 15.17 33.2378 15.8515 33.2193 16.3836C33.169 17.8457 34.3792 18.0857 35.3612 18.7722C35.7791 17.7836 36.5933 16.7076 37.728 16.5314C40.9089 16.0362 42.4364 19.4353 40.5161 21.7886C42.3927 22.8327 42.8963 24.8487 41.9009 26.7354C40.6873 29.0367 38.4917 31.4673 37.4309 33.7468C37.0448 34.5777 37.0649 35.3146 37.5668 36.0951C38.5857 37.678 40.8602 36.5937 42.1795 38.6902C42.7251 39.5563 42.6898 40.0717 42.6915 41.0201C42.6915 41.7284 42.9802 43.1485 41.8321 42.8077C41.2009 42.6197 41.5031 40.8337 41.4309 40.2765C41.3654 39.7796 40.9827 39.1619 40.5933 38.8513C39.6734 38.1228 38.4212 38.5072 37.2915 37.6277C35.7473 36.4224 35.5643 34.5391 36.4791 32.8807C37.733 30.6079 39.6533 28.3653 40.835 26.0908C41.3352 25.1273 41.3067 24.2797 40.5966 23.4269C40.4305 23.2272 39.9655 22.732 39.7204 22.9653L33.8454 31.9306C34.0569 33.2483 34.3557 34.5676 34.401 35.9088C34.4245 36.6172 34.4615 37.4313 33.9797 38.0087C33.0683 39.1014 30.6343 38.4283 29.3687 38.6768L26.6914 42.6802C26.2113 43.0746 25.4996 42.7792 25.5986 42.1195L27.022 38.6331H23.4181V42.4468C23.4181 42.5828 22.9851 42.8329 22.7903 42.8329C22.5956 42.8329 22.1626 42.5828 22.1626 42.4468V38.6331H20.6535V42.4468C20.6535 42.5828 20.2205 42.8329 20.0257 42.8329C19.831 42.8329 19.398 42.5828 19.398 42.4468V38.6331H16.7575H16.7525ZM16.7106 28.9545V37.3759H27.4803L27.7875 36.8454L31.1245 28.7765C30.2415 26.915 29.0783 25.1743 28.5344 23.1651C27.487 19.3027 28.6032 15.6635 30.4413 12.2627C31.007 11.2153 31.8496 10.1696 32.3666 9.16075C33.3083 7.32439 31.2118 6.69156 29.8034 6.30885C28.2994 5.90095 26.4614 5.92278 25.1101 5.47124C23.3459 4.88038 23.1193 3.15816 23.0757 1.51316C22.9515 1.38391 19.8529 1.38391 19.732 1.51316C19.6732 1.94288 19.6967 2.46828 19.6346 2.88288C19.173 5.95132 16.9187 5.55182 14.5167 5.97817C13.4894 6.15946 10.0147 6.80571 10.003 8.17039C9.99794 8.73607 11.1998 10.2401 11.549 10.8192C13.8587 14.6497 15.4802 18.7655 14.238 23.2977C13.3752 26.445 11.0336 28.9864 10.2581 32.1807C11.794 31.6704 13.1587 30.6901 14.4042 29.6645C14.7416 29.3875 15.7185 28.3116 16.061 28.3418C16.353 28.367 16.6602 28.6691 16.7106 28.9545ZM37.5551 22.2687C37.08 22.6565 36.2794 22.1798 36.5815 21.421C36.6772 21.1793 37.5215 19.6434 37.6608 19.484C38.3524 18.6934 39.284 19.818 38.5018 20.57L39.383 21.1038C41.3604 19.1248 38.8744 16.392 36.9239 18.4936C34.5555 24.1152 31.9537 29.6796 29.748 35.3683C29.6641 35.5832 29.5399 35.8031 29.5365 36.0364L38.6277 22.3728C38.7922 22.032 38.1208 21.8541 37.8757 21.703C37.8304 21.703 37.6642 22.1798 37.5567 22.267L37.5551 22.2687ZM11.2636 19.6955V21.4966C11.2636 21.6141 10.8204 21.8759 10.6442 21.8692C10.4344 21.8625 10.0063 21.6191 10.0063 21.4127V19.8617L8.50234 20.1168L8.48052 24.2427C8.31938 24.9695 7.24173 24.6875 7.24173 24.2612V20.5314C6.69284 20.6069 6.19598 20.9074 5.68737 21.1139C5.47419 21.7416 6.07848 23.5612 5.0193 23.5377C4.22869 23.5209 4.39655 22.3996 4.39152 21.8709C4.04573 22.1428 3.10237 22.8378 3.04698 23.249L3.03522 27.343C2.76329 27.8903 1.79475 27.6788 1.79475 27.108V25.223L1.54969 25.8575C1.32979 26.8563 1.24587 27.9255 1.38687 28.941C1.51948 29.8928 2.06668 30.5508 2.75993 31.1702C4.66343 28.5365 7.9803 27.5965 11.0773 27.2121C12.0844 25.3372 13.0932 23.385 13.3517 21.2314C13.3887 20.9191 13.4474 20.3703 13.4541 20.0681C13.4558 19.9657 13.4155 19.6283 13.3081 19.6031C13.1201 19.5595 11.3425 19.6199 11.2686 19.6904L11.2636 19.6955ZM10.2581 28.6624C8.8733 28.79 7.38273 29.2214 6.15066 29.876C5.31137 30.3208 4.31429 31.0275 3.89465 31.8802C5.35333 32.7245 7.16956 32.9092 8.82127 32.6742C9.13517 31.2793 9.65719 29.9532 10.2564 28.6641L10.2581 28.6624ZM15.4533 30.5055L12.5208 32.5584V40.2261C13.5649 39.6856 14.5889 39.0595 15.4533 38.2571V30.5055ZM1.37511 31.6788V37.9214C1.37511 38.9688 2.94459 40.3234 3.80402 40.7716C6.16577 42.0054 8.83469 41.8274 11.2636 40.8958V33.1861L9.70922 33.7686C9.58501 33.9549 9.71929 35.0544 9.66558 35.4019C9.53969 36.2042 8.41337 36.0011 8.41337 35.5748V34.0238H6.82041V37.8375C6.82041 38.0993 5.8099 38.472 5.60176 37.8006L5.56316 33.7737C5.05623 33.7518 4.51573 33.5739 4.0558 33.354C4.03734 33.9079 4.23036 34.9537 3.47332 35.0796C2.34029 35.2676 3.01005 33.2835 2.75659 32.7682C2.65923 32.5684 1.57823 31.9474 1.37345 31.6788H1.37511ZM30.2869 37.3776H32.6755C32.6956 37.3776 33.0179 37.203 33.0313 37.1896C33.3788 36.8287 32.8719 34.0708 32.8836 33.4396L30.2869 37.3776Z" fill="black"/>
</svg>
