<svg width="48" height="43" viewBox="0 0 48 43" fill="none" xmlns="http://www.w3.org/2000/svg">
<path d="M4.4848 40.5077C4.77522 40.4635 6.16487 41.2448 6.57845 41.3165C7.01961 41.7392 6.76224 42.3807 6.14096 42.3127C5.92222 42.2888 4.40579 41.6822 4.23852 41.5462C3.79553 41.1859 3.99402 40.583 4.4848 40.5095V40.5077Z" fill="black"/>
<path d="M8.88886 41.7012C9.48441 41.8776 10.4402 41.6479 10.9586 41.7968C11.3611 41.9126 11.4402 42.5743 11.0762 42.793C10.7913 42.964 9.06348 42.9089 8.70688 42.7655C8.15544 42.5431 8.36867 41.8243 8.8907 41.703L8.88886 41.7012Z" fill="black"/>
<path d="M0.630086 32.9855C0.977492 32.8844 1.36901 33.2115 1.36534 33.5479C1.3635 33.7869 1.17237 34.3678 1.12642 34.6784C1.06024 35.1104 1.26427 35.9504 0.525345 35.9045C-0.437835 35.8438 0.122762 33.1343 0.630086 32.9855Z" fill="black"/>
<path d="M0.994377 37.4825C1.72595 37.2637 1.76459 37.8574 2.08626 38.2821C2.39323 38.6865 3.26633 39.4236 2.67261 39.8941C2.5899 39.9603 2.46123 40.0283 2.35278 40.0283C1.83443 40.0283 0.078988 37.7582 0.994377 37.4843V37.4825Z" fill="black"/>
<path d="M43.7931 24.2497C46.3242 23.5126 48.1127 26.3157 46.2231 28.1943L42.1571 30.5049L42.1406 36.8668C42.0468 37.8061 41.3777 38.8392 40.6112 39.3759C39.6591 40.0413 38.6776 39.749 38.4019 38.5892C38.0177 36.9753 38.0213 34.9606 37.7364 33.2897C37.718 33.1813 37.6886 33.1261 37.5986 33.0618L33.5308 35.3687C33.4444 35.9054 33.6999 36.3907 33.5859 36.9385C33.4242 37.7179 31.9224 38.4715 31.1835 38.3723C29.7792 38.1829 30.1284 35.8338 29.6082 34.9C29.3656 34.4643 28.1892 33.6868 27.7775 33.1519C26.8566 31.9552 27.8675 31.1005 28.9557 30.6557C30.0439 30.2108 30.3747 30.8818 31.2515 31.3946L35.3524 29.0656C35.3836 28.9333 35.2678 28.9149 35.198 28.8524C33.8653 27.665 32.2478 26.6301 30.8968 25.4463C30.099 24.3471 30.7993 23.4188 31.9555 23.1008C33.1172 22.781 33.9921 22.9887 35.0141 23.5328C36.6354 24.3985 38.2015 25.6264 39.8209 26.5253L42.4549 25.064C42.7306 24.7956 42.8519 23.3637 42.8777 22.917C43.021 20.4171 42.7141 17.9319 42.0524 15.5312C41.8814 15.4908 41.8741 15.5882 41.7932 15.6838C39.8007 17.9981 40.7987 20.9888 37.6776 22.5806C34.2899 24.3103 34.8451 20.338 34.3929 18.2793C34.1429 17.1415 33.7146 16.6084 33.2698 15.6397C33.0363 15.1324 32.7349 13.9633 32.4077 13.6563C31.9114 13.1894 29.9373 12.9615 29.1138 12.6361C27.908 12.16 26.7058 11.3053 25.5037 10.8311C24.6931 10.5112 23.899 10.355 23.2354 11.0737C22.991 11.3384 22.8972 11.4358 23.1067 11.7593C23.513 12.3862 25.7702 13.4817 26.5202 13.5773C27.8142 13.7409 30.0383 12.8494 30.2975 14.8474C30.553 16.818 29.599 19.2627 27.8546 20.2811C26.8915 20.8435 24.6324 21.5237 23.6509 20.8509C22.8255 20.2847 22.1142 18.998 21.3054 18.4245C20.4727 17.8326 19.7485 18.0606 19.2118 16.9393C18.8478 16.1801 18.8736 15.4412 18.3203 14.7096C17.767 13.978 16.1733 12.8622 15.2175 12.8751C14.4271 12.8861 13.0945 13.6232 12.2453 13.8493C10.2252 14.3879 7.88889 14.2942 8.19769 11.5443C8.47157 9.10502 10.488 9.08848 12.2232 8.41204C13.9602 7.73559 12.1202 5.5059 12.5871 4.73755C12.8279 4.34051 13.3628 4.43976 13.5558 4.88092C13.9473 5.77427 14.2856 7.50583 13.8665 8.40469C13.0356 10.1914 9.53033 9.25943 9.29689 11.7281C9.16087 13.1802 10.2215 13.1233 11.328 12.9321C13.0007 12.6417 14.3003 11.4652 16.0594 11.9211C17.5299 12.3034 19.2283 13.6343 19.7944 15.068C19.9709 15.5129 20.0573 16.3933 20.3514 16.7132C20.5628 16.943 21.6087 17.2849 22.0351 17.5973C22.5774 17.9962 22.8439 18.4613 23.2814 18.9208C23.5516 19.2057 24.2335 19.9796 24.5626 20.0256C25.2666 20.123 26.794 19.6634 27.3969 19.2719C28.645 18.4631 29.4575 16.397 29.1781 14.9449C29.0439 14.25 27.5256 14.7647 27.044 14.7702C25.761 14.7831 22.6435 13.3365 22.059 12.1582C21.6454 11.3219 22.0002 10.6086 22.6822 10.0609C24.8751 8.30543 27.7407 11.002 29.9115 11.7391C31.178 12.1692 32.8599 12.0626 33.5896 13.3843C33.8616 13.8769 33.9554 14.4945 34.1815 14.9945C34.834 16.443 35.3119 17.0018 35.6005 18.7149C35.6814 19.1984 35.834 21.8453 36.2329 21.9354C36.5178 21.9997 37.6133 21.3325 37.8724 21.1193C39.1794 20.0494 38.9864 19.0807 39.4551 17.6543C39.8595 16.4228 40.7271 15.2335 41.545 14.2427C39.1959 7.65472 33.0124 2.56301 26.1011 1.41783C12.1625 -0.890903 0.251437 10.8292 2.43146 24.8121C3.66117 32.6979 9.73251 39.2068 17.4104 41.2177C17.4251 40.8464 17.3148 40.6442 17.6971 40.4053C17.8681 40.2987 19.368 39.727 19.5647 39.6957C20.2797 39.5854 20.458 40.5211 19.8128 40.7784L18.2816 41.4016C23.8365 42.6147 29.7663 41.3722 34.369 38.0818C34.7421 37.8153 36.0141 36.6591 36.2622 36.5782C36.8266 36.3962 37.1997 36.922 36.913 37.4146C36.8119 37.5892 36.152 38.1057 35.9424 38.2785C30.6247 42.668 23.5093 43.8812 16.8829 42.2012C16.6494 42.1423 15.9821 41.8721 15.8424 41.8648C15.8204 41.8648 15.7469 42.0872 15.5263 42.1828C15.2561 42.3023 13.7341 42.6239 13.4694 42.5927C13.065 42.5449 12.8482 42.1626 13.0228 41.7912C13.1845 41.4475 13.6974 41.4714 14.0117 41.3997C14.122 41.374 14.3003 41.374 14.1477 41.2196C14.0889 41.1589 12.8463 40.6718 12.5853 40.5321C8.49912 38.3502 5.07103 34.8926 3.13364 30.6648C2.69432 31.0104 2.52152 31.7659 1.82487 31.5637C0.679712 31.2328 2.60977 29.8542 2.58588 29.4333C2.5675 29.1226 2.00501 27.8414 1.87634 27.38C-2.22637 12.6894 9.60203 -1.35964 24.7464 0.105379C36.6244 1.25423 45.5135 12.3751 43.7894 24.2386L43.7931 24.2497ZM31.314 37.2785C31.4427 37.3723 32.4371 36.8319 32.4922 36.6665C32.6319 36.251 32.0493 35.0985 32.5492 34.7106L37.7438 31.7402C38.354 31.3781 38.6463 31.8082 38.718 32.3964L39.4937 38.4109C39.6591 38.9237 40.5065 37.9918 40.6536 37.7712C40.7969 37.5561 40.9936 37.115 41.0285 36.8613L41.0561 30.0049C41.1149 29.8505 41.2491 29.7715 41.3741 29.6796C42.5781 28.812 44.3041 28.2238 45.5246 27.3157C46.3977 26.3893 45.6091 24.9702 44.3371 25.3029C42.7968 26.0547 41.3833 27.0749 39.8043 27.7366L33.9407 24.2331C33.5584 24.0861 33.1411 24.0254 32.7294 24.0658C32.4463 24.0934 31.4758 24.3269 31.7184 24.711L36.8578 28.8395C37.0821 29.3965 36.6795 29.5711 36.2916 29.8303C34.7954 30.8266 32.9408 31.595 31.4022 32.56C30.7883 32.8504 30.0291 31.6538 29.5972 31.6115C29.4887 31.6005 28.6377 32.0747 28.5973 32.1391C28.5017 32.2861 28.5715 32.3468 28.6432 32.4681C29.009 33.0728 30.3379 33.7695 30.6468 34.411C30.8398 34.8117 31.1927 37.1922 31.3122 37.2804L31.314 37.2785Z" fill="black"/>
<path d="M18.2801 21.5425C18.2875 21.5866 18.3775 21.7613 18.4345 21.776C20.4326 21.7043 24.0721 21.0425 23.0795 24.3237C22.4508 26.4026 21.0005 26.6949 19.6128 27.8309C18.3591 28.8566 17.5173 32.9759 16.7067 34.6523C16.067 35.9776 14.409 38.0878 12.7492 37.8084C11.1169 37.5345 9.84861 34.1064 9.742 32.6487C9.64826 31.3914 10.0802 29.5514 9.77508 28.4871C9.27143 26.7317 7.33588 26.853 5.95912 26.3383C4.33421 25.7317 3.07145 24.592 3.05491 22.7447C3.01447 17.9121 8.5656 13.9895 12.9606 16.5832C13.2804 16.7706 14.0083 17.471 14.216 17.5298C14.5781 17.6346 15.227 17.5096 15.6553 17.5592C16.6828 17.6769 18.2801 18.7614 18.2801 19.89C18.2801 20.3643 18.2103 21.1142 18.2801 21.5425ZM22.0207 22.9873C21.3277 22.3109 18.4198 23.4156 17.6 22.5903C16.6773 21.6602 17.7636 19.9194 16.5284 19.072C15.5523 18.4029 14.7748 18.8478 13.8704 18.6106C13.4679 18.504 13.0084 17.9526 12.6555 17.7155C8.8156 15.1292 3.53646 19.0426 4.25885 23.3586C4.60074 25.4008 7.71271 25.3953 9.10234 26.1324C11.8853 27.6103 10.6813 29.9631 10.8394 32.3785C10.9184 33.5751 11.4514 35.0457 12.1628 36.0107C12.5065 36.4776 12.7547 36.8563 13.3889 36.6614C16.0523 35.8397 16.7416 30.2113 17.9879 28.0459C18.8353 26.5736 20.4032 26.3953 21.3958 25.1233C21.7009 24.7336 22.4417 23.4027 22.0189 22.9891L22.0207 22.9873Z" fill="black"/>
<path d="M22.4816 28.7663C23.2922 28.5972 23.7976 29.2185 23.7976 29.985C23.7976 30.9371 23.2279 31.4059 22.9613 32.1834C22.5294 33.4389 22.5716 34.709 21.16 35.4296C19.5277 36.2623 18.2722 34.8745 18.8843 33.2459C19.0681 32.7569 19.4781 32.5051 19.6417 32.1687C19.8144 31.8139 19.7299 31.3415 19.8696 30.9298C20.1122 30.2129 21.761 28.9207 22.4816 28.7699V28.7663ZM22.6893 29.9409C22.5367 29.7791 21.0441 30.961 20.9228 31.2478C20.7776 31.5915 20.8824 32.0713 20.7151 32.5088C20.4798 33.1172 19.6269 33.4903 19.8641 34.2808C20.0111 34.7752 20.4339 34.5638 20.739 34.369C21.7059 33.7532 21.6121 32.6117 21.9779 31.6614C22.2058 31.0713 22.6838 30.6155 22.6893 29.9427V29.9409Z" fill="black"/>
<path d="M27.5291 35.28C28.0346 35.1495 28.4574 35.7469 28.1413 36.1715C28.0641 36.2763 26.5899 37.245 26.4263 37.3001C25.8197 37.5115 25.3896 37.0207 25.7113 36.4932C25.7682 36.3994 27.4244 35.3076 27.5291 35.28Z" fill="black"/>
<path d="M24.2199 37.8556C24.5875 38.2435 24.1721 38.6497 23.8486 38.8592C23.6629 38.9806 22.3027 39.6607 22.1704 39.668C21.7678 39.6919 21.4553 39.1221 21.7273 38.7563C21.8229 38.6258 23.514 37.7214 23.6923 37.6865C23.8339 37.6571 24.1353 37.7674 24.2199 37.8556Z" fill="black"/>
</svg>
