<svg width="45" height="43" viewBox="0 0 45 43" fill="none" xmlns="http://www.w3.org/2000/svg">
<path d="M7.48709 13.455H19.6247C19.9749 13.455 20.799 14.1258 20.799 14.4551V18.9348H43.2464V2.27576C43.2464 2.20084 42.9467 1.79137 42.8578 1.70599C42.065 0.946307 40.1188 1.6363 39.1517 1.32267C38.5994 1.14494 38.7248 0.165712 39.2894 0.0576832C39.7929 -0.0381488 41.6747 0.0036688 42.248 0.052456C43.4415 0.155258 44.3441 1.02472 44.541 2.19561L44.5497 23.5853C44.4748 24.7092 43.2952 25.8923 42.1574 25.8923H30.1069L31.0199 29.7203C31.2482 29.9904 33.529 29.6349 34.0204 29.851C34.5396 30.0792 34.2922 31.1107 33.7172 31.1107H26.0175V41.3317C26.0175 41.9084 24.9372 42.8876 24.3117 42.8441C21.9072 42.6977 19.2047 43.0723 16.8351 42.858C16.1764 42.7988 15.5527 42.4416 15.2268 41.8579C15.1815 41.7777 14.969 41.2794 14.969 41.2463V39.6363H1.17612C0.60287 39.5701 0.0139392 38.9672 0 38.38L0.00348289 14.713C-0.0575011 14.2007 0.737032 13.4515 1.17786 13.4515H6.18029V2.27576C6.18029 1.30873 7.42611 0.102986 8.39837 0.0576832H35.7209C36.4841 0.109955 36.4841 1.13797 35.8046 1.361H8.74336C8.2642 1.28782 7.48535 1.90811 7.48535 2.36288V13.455H7.48709ZM19.494 14.7601H1.43922C1.43051 14.7601 1.30854 14.882 1.30854 14.8907V38.3347H14.969V35.4633H2.91852C2.61186 35.4633 2.3958 34.8917 2.36269 34.6269C2.26686 33.8359 2.26163 31.7781 2.35921 30.9905C2.40625 30.6107 2.58921 30.2657 3.01087 30.2448C3.35238 30.2273 3.74267 30.5706 3.74267 30.8964V34.1582H14.9672V24.3711C14.9672 24.3136 15.1345 23.8972 15.1798 23.8014C15.5283 23.0609 16.3577 22.7124 17.1417 22.6758V17.1959H3.74267V27.3297C3.74267 27.9483 2.48118 28.3595 2.35224 27.0684C2.5683 23.7561 2.05952 20.0691 2.34701 16.8004C2.38883 16.3247 2.51777 15.856 3.08579 15.8874H17.7115C17.9485 15.809 18.4468 16.1714 18.4468 16.37V22.6775H19.4905V14.7618L19.494 14.7601ZM43.2464 20.2399H20.799V22.6758H24.235C24.2734 22.6758 24.6933 22.8012 24.7752 22.8309C25.4913 23.094 25.9408 23.7822 26.068 24.507L42.2462 24.5036C42.647 24.5192 43.2446 23.9512 43.2446 23.5888V20.2399H43.2464ZM24.7142 23.9774H16.274V38.7703H24.7142V23.9774ZM28.8036 25.894H26.0193V29.6785C26.0193 29.6872 26.1412 29.8092 26.1499 29.8092H29.5424C29.5703 29.8092 29.6835 29.6942 29.6382 29.6297L28.8019 25.894H28.8036ZM24.7142 40.0736H16.274C16.2932 40.6295 16.1015 41.3247 16.7706 41.5338C19.2901 41.5338 21.8358 41.6261 24.3431 41.4867C24.8797 41.201 24.6828 40.5772 24.7125 40.0736H24.7142Z" fill="black"/>
<path d="M9.25492 37.3519C8.92386 37.0191 9.07719 36.3692 9.55286 36.2647C9.80551 36.2089 11.0165 36.2002 11.2726 36.2473C11.8598 36.357 11.9452 37.3763 11.2569 37.5314C10.898 37.6116 9.50931 37.6063 9.25492 37.3519Z" fill="black"/>
<path d="M19.7314 24.6945C20.0032 24.6318 21.1497 24.6388 21.3867 24.7416C21.9181 24.9698 21.838 25.8741 21.1863 25.9752C20.9128 26.017 19.8273 26.0187 19.6025 25.9159C19.1756 25.7208 19.1983 24.8165 19.7314 24.6945Z" fill="black"/>
</svg>
