<svg width="38" height="43" viewBox="0 0 38 43" fill="none" xmlns="http://www.w3.org/2000/svg">
<path d="M3.2251 38.5255C3.39938 39.9951 4.67624 41.0508 6.10728 41.1631C9.3598 41.4194 12.9441 40.9653 16.2318 41.1597C17.4065 41.2921 17.3596 42.7181 16.2318 42.8321C12.857 42.6125 9.10678 43.127 5.77718 42.8321C3.53678 42.6327 1.72369 40.7642 1.54941 38.5289V18.3687C0.952868 15.1899 -1.51879 11.5184 1.3835 8.74851C2.08562 8.07991 2.84807 7.81012 3.74624 7.5152C12.2789 4.70507 21.2723 2.64899 29.877 0.0198297C31.5744 -0.146064 33.406 0.742056 34.2924 2.19153C34.8772 3.14835 36.0385 7.03092 36.2278 8.20223C36.2932 8.60607 36.3284 8.93284 35.9748 9.21268C27.2797 11.877 18.489 14.3152 9.75023 16.8639L8.41136 17.323H37.1444C37.4042 17.323 37.7494 18.1089 37.6907 18.3653C37.4142 24.8335 38.0493 31.5949 37.6907 38.0278C37.5533 40.5162 35.9765 42.6192 33.3775 42.8321C30.0211 43.1069 26.3144 42.6276 22.9212 42.8354C21.842 42.7064 21.8437 41.2871 22.9212 41.158C26.2223 40.9519 29.8702 41.4395 33.1311 41.1631C34.6493 41.034 36.0134 39.7739 36.0134 38.1904V26.8979C36.0134 26.8895 35.8961 26.7722 35.8877 26.7722H3.22343V38.5238L3.2251 38.5255ZM31.008 8.94959L34.4047 7.91568C33.5936 6.01377 33.6724 2.78807 31.4705 1.91671C30.7014 1.61174 30.2841 1.64023 29.4899 1.80612C28.0588 2.10607 26.5859 2.75791 25.1381 3.05954L31.008 8.94959ZM29.1547 9.54278L23.1558 3.70133L18.7839 4.9849C20.7713 6.89854 22.7285 8.86413 24.7829 10.699H25.0761L29.1547 9.54278ZM18.3851 12.5322L22.7988 11.3425C22.9329 11.2386 22.8541 11.2587 22.7988 11.1749C22.6949 11.0174 22.333 10.6973 22.1738 10.5448C20.3976 8.8658 18.6214 7.18508 16.8619 5.48761L12.5101 6.70081L18.3851 12.5322ZM16.6088 13.1388L10.5847 7.32417L6.15421 8.54072L12.1532 14.3822L16.6088 13.1388ZM10.335 14.9804L4.30927 9.16575C2.73077 9.29478 1.49746 10.8247 1.6466 12.4199L2.97207 17.0381L10.335 14.9804ZM10.5026 18.9954H3.2251V25.1016H7.07248L10.5026 18.9954ZM17.1099 18.9954H12.5503L8.9945 25.1016H13.554L17.1099 18.9954ZM23.635 18.9954H19.0755L15.5196 25.1016H20.2032L23.6333 18.9954H23.635ZM30.1601 18.9954H25.5587L22.1286 25.1016H26.73C27.8108 23.0338 29.1262 21.0816 30.1601 18.9954ZM36.015 18.9954H32.2095L28.6537 25.1016H36.015V18.9954Z" fill="black"/>
<path d="M17.1715 28.8122C17.4882 28.8022 17.8133 29.0435 18.0931 29.1859C20.0604 30.193 22.8571 31.7547 24.6702 32.9813C25.3321 33.4288 25.7627 33.8661 25.0422 34.5749C22.6275 35.8066 20.2581 37.5794 17.8417 38.7491C17.3575 38.9837 17.1178 39.1663 16.6537 38.7373C16.4258 38.5262 16.3889 38.4156 16.3604 38.1106C16.1091 35.3826 16.5531 32.2658 16.3688 29.4959C16.4492 29.1239 16.7827 28.8223 17.1715 28.8105V28.8122ZM18.0361 31.1247V36.6444L22.8051 33.9248L18.0361 31.123V31.1247Z" fill="black"/>
<path d="M19.6046 42.8283C20.0636 42.8283 20.4358 42.4562 20.4358 41.9972C20.4358 41.5381 20.0636 41.166 19.6046 41.166C19.1456 41.166 18.7734 41.5381 18.7734 41.9972C18.7734 42.4562 19.1456 42.8283 19.6046 42.8283Z" fill="black"/>
</svg>
