<svg width="46" height="43" viewBox="0 0 46 43" fill="none" xmlns="http://www.w3.org/2000/svg">
<path d="M43.5629 14.319C40.0446 13.5322 35.7955 13.3908 32.1564 12.7926C31.7144 12.719 31.2489 12.6748 30.8275 12.5068L25.1316 1.15634C24.115 -0.308142 21.8638 -0.408328 20.7735 1.00901L14.9333 12.5068L2.34524 14.319C0.200082 14.7345 -0.707476 16.9769 0.621459 18.7655L9.73249 27.1369C10.0625 27.5229 10.036 27.8176 10.0065 28.2949C9.77667 32.0784 8.2886 36.3717 7.96742 40.22C8.13832 42.2502 10.0743 43.5673 11.966 42.6038L22.8804 36.9227L33.895 42.648C35.7337 43.5379 37.6902 42.1736 37.8051 40.22C37.481 36.3893 35.987 32.0519 35.7513 28.2949C35.7307 27.9384 35.6806 27.5494 35.9399 27.2665C37.8081 25.5722 39.6851 23.8543 41.5267 22.1335C42.6199 21.111 45.5371 18.8774 45.8082 17.5249C46.1147 16.0045 45.0156 14.6431 43.5629 14.319ZM43.7456 17.6664C41.0317 20.4215 37.7757 22.8642 35.0707 25.5958C34.0717 26.6035 33.8714 27.131 33.9922 28.5925L36.0106 40.2288C35.99 40.768 35.2857 41.375 34.7524 41.0627L24.1622 35.4818C23.0984 35.0486 22.6623 35.0486 21.5986 35.4818L10.9052 41.1128C10.4073 41.2984 9.76783 40.7445 9.75015 40.2259L11.7686 28.5925C11.8835 26.9159 11.6714 26.5741 10.5428 25.4485C7.88789 22.7994 4.81157 20.336 2.08593 17.74C1.49955 17.0093 1.79715 16.3463 2.66641 16.1105C6.33498 15.1087 11.1527 15.3297 14.9038 14.3897C15.6228 14.21 16.2887 13.874 16.663 13.2081L22.0877 2.17588C22.2085 1.99024 22.4089 1.86059 22.6211 1.81933C23.0277 1.73388 23.4285 1.82817 23.6671 2.17882L29.0949 13.2081C29.472 13.874 30.135 14.21 30.854 14.3897C34.6434 15.3385 39.3374 15.1706 43.1179 16.084C43.9842 16.2932 44.4027 16.9621 43.7456 17.6664Z" fill="black"/>
<path d="M8.05422 18.595C8.05422 19.09 7.65347 19.4908 7.15843 19.4908C6.66339 19.4908 6.26562 19.09 6.26562 18.595C6.26562 18.1 6.66634 17.6992 7.15843 17.6992C7.65052 17.6992 8.05422 18.1 8.05422 18.595Z" fill="black"/>
<path d="M13.85 24.0421C12.8835 26.5084 10.1343 22.4715 8.84073 21.8615C8.46945 21.2074 8.71402 20.3764 9.53908 20.344C9.8308 20.3322 10.2934 20.7182 10.538 20.898C11.033 21.2575 13.5023 23.2553 13.7086 23.6059C13.794 23.7474 13.8913 23.8564 13.85 24.0421Z" fill="black"/>
<path d="M31.0339 29.1999C30.7333 24.9803 27.825 21.68 23.5406 21.3353L25.2585 20.631C25.506 20.41 25.9215 20.1802 26.1336 19.9622C28.4556 17.5842 27.3417 13.1083 23.9914 12.4364C18.8112 11.4022 16.28 18.0498 20.7147 20.7106L22.2175 21.3353C17.1464 21.7773 14.2999 26.209 14.8686 31.1122C14.957 31.8725 15.2576 32.008 15.9677 32.0699C20.3611 32.4648 25.3351 31.7546 29.7934 32.0699C31.3256 32.0964 31.1105 30.2901 31.0339 29.1999ZM20.2462 16.8004C20.2462 15.3212 21.4455 14.119 22.9247 14.119C24.4039 14.119 25.6032 15.3212 25.6032 16.8004C25.6032 18.2796 24.4039 19.4789 22.9247 19.4789C21.4455 19.4789 20.2462 18.2796 20.2462 16.8004ZM29.1245 30.3019H16.6366C16.0001 24.8094 22.0879 20.9287 26.6758 24.2996C27.4803 24.8919 29.1245 27.0665 29.1245 28.0242V30.3019Z" fill="black"/>
</svg>
