<svg width="53" height="24" viewBox="0 0 53 24" fill="none" xmlns="http://www.w3.org/2000/svg">
<path d="M52.11 14.1933C51.9938 13.6733 50.814 12.9139 50.5247 12.398C50.3535 11.133 50.6836 9.52962 50.4961 8.30798C50.219 6.49409 46.8243 7.14206 45.62 7.47636C45.1534 7.60636 44.0714 8.12639 43.729 8.14083C43.3521 8.15734 42.2232 7.71986 41.6893 7.64351C40.7622 7.50938 39.5253 7.67653 38.7531 7.52589C38.37 7.4516 36.4607 5.50357 35.9451 5.11768C35.5111 4.79164 34.9874 4.49448 34.584 5.0599C33.8851 6.03598 35.831 6.82014 36.259 7.52795H22.627L25.2372 1.26291H28.7828C28.8357 1.27117 28.8887 1.28148 28.9397 1.2918C29.8994 1.49816 31.2748 3.34507 32.1938 3.86715C33.0476 4.18495 33.5815 3.213 33.0068 2.52995C32.6421 2.10073 30.4577 0.274456 29.9728 0.0392081C29.9442 0.0268266 29.9157 0.0123815 29.8872 0H16.9093C13.1151 1.7396 9.56756 4.03843 5.83659 5.92867L4.51822 6.19075L4.21054 5.05578H5.88957C6.12187 5.05578 6.72705 4.60592 6.8432 4.37479C7.04493 3.97446 7.03678 2.14819 6.80041 1.76643C6.45808 1.20926 6.01183 1.201 5.45148 1.07306C4.55898 0.870832 2.10563 0.340491 1.3089 0.375572C0.75873 0.400335 0.265614 0.714 0.108714 1.26498C-0.0196589 1.71484 -0.0216966 3.37602 0.0373958 3.87541C0.202447 5.25801 1.6553 5.07022 2.68025 5.06197L2.99201 6.34139C1.3741 6.64061 0.577377 6.89856 0.442891 8.70832C0.273765 10.9803 0.273765 14.7876 0.442891 17.0576C0.495871 17.7736 0.695562 18.3618 1.09494 18.7518H6.23598L6.2319 19.1789C7.55027 25.0292 15.4992 25.0416 16.787 19.1583C16.8237 19.0242 16.8502 18.8859 16.8706 18.7518H27.554C28.2244 18.7518 28.3345 17.7468 27.6722 17.6292C27.6661 17.6292 27.662 17.6292 27.6559 17.6271H16.895L16.3183 15.7678H35.4459C35.1708 16.3415 34.9467 16.973 34.9365 17.6189C34.8 17.7613 31.6375 17.5074 31.0405 17.6416C31.0344 17.6416 31.0303 17.6436 31.0242 17.6457C30.3986 17.8025 30.5351 18.7518 31.1811 18.7518H34.8958C34.9121 18.9911 34.9508 19.2553 35.0201 19.5236C35.0201 19.5256 35.0201 19.5277 35.0201 19.5297C35.0404 19.604 35.0628 19.6783 35.0873 19.7505C35.5315 21.1785 36.4138 22.2062 37.4877 22.8335C40.3669 24.5133 44.6052 23.3082 45.4244 19.1748L50.8344 19.1418C51.4987 18.8838 52.0468 18.3143 52.1283 17.5693C52.1935 16.9936 52.218 14.6906 52.1079 14.1933H52.11ZM48.976 8.66086V11.133L45.8238 8.97039C46.8711 8.75991 47.8981 8.57625 48.976 8.66086ZM23.925 1.2464L21.3249 7.5362H15.0407C14.4946 7.5362 14.4498 5.85645 14.4498 5.85645L19.2587 1.2464H23.925ZM1.10921 4.01779V1.2464L5.9344 2.1647C6.11372 2.28851 5.90587 3.79493 5.9344 4.01779H1.10921ZM6.24616 17.6209H1.56565V15.7678H6.75558C6.48253 16.3415 6.25432 16.973 6.24616 17.6209ZM15.2588 18.7518C14.9959 20.6131 13.4147 22.0432 11.5054 22.0432C9.59609 22.0432 8.01282 20.6131 7.74792 18.7518C7.72144 18.5722 7.70921 18.3886 7.70921 18.2008C7.70921 16.0794 9.40862 14.3584 11.5054 14.3584C13.6021 14.3584 15.2995 16.0794 15.2995 18.2008C15.2995 18.3886 15.2853 18.5722 15.2588 18.7518ZM40.1998 22.0391C39.1382 22.0391 38.1784 21.5975 37.4897 20.8855C36.9395 20.318 36.5626 19.5772 36.4464 18.7518C36.4199 18.5702 36.4057 18.3865 36.4057 18.1987C36.4057 16.0794 38.1051 14.3584 40.1998 14.3584C42.2945 14.3584 43.9939 16.0794 43.9939 18.1987C43.9939 20.318 42.2945 22.0391 40.1998 22.0391ZM50.6041 17.4662C50.6041 17.4765 50.4635 17.6209 50.4513 17.6209H45.5181L45.0087 15.7678H50.6041V17.4662ZM48.976 14.2284C48.976 14.2284 48.9699 14.2263 48.9557 14.2222H43.8391C43.7535 14.2222 42.7306 13.436 42.4168 13.2936C40.1998 12.2845 38.2844 12.918 36.4179 14.2284L14.9979 14.1686C13.2415 12.5486 10.8411 12.398 8.79732 13.5619C8.59763 13.6754 7.98022 14.2222 7.9252 14.2222H1.56565V7.82923L6.17077 6.93776L15.4034 1.97898C15.4034 1.97898 16.8522 1.33514 17.5858 1.34752C17.6041 1.34752 17.6225 1.34752 17.6408 1.34958C16.8074 2.26994 15.8212 3.05204 14.9429 3.92081C14.6128 4.24685 13.1498 5.63358 13.0377 5.90597C12.838 6.40123 13.2476 7.91177 13.7509 8.64022H40.2059C40.2059 8.64022 45.6424 8.59482 50.6041 14.2284H48.976Z" fill="black"/>
<path d="M35.0907 19.7501V19.7625C35.0662 19.6841 35.0418 19.6077 35.0234 19.5293C35.0438 19.6036 35.0662 19.6779 35.0907 19.7501Z" fill="black"/>
<path d="M25.1342 11.4106C25.0201 11.5364 24.7838 11.6314 24.6106 11.6541C24.2275 11.7015 22.8378 11.7077 22.4914 11.6272C21.8862 11.489 21.6784 10.6429 22.1165 10.2611C22.3691 10.0424 24.3986 10.0383 24.7878 10.1249C25.3584 10.2529 25.5112 10.9916 25.1342 11.4085V11.4106Z" fill="black"/>
<path d="M13.8422 18.2008C13.8422 19.5071 12.7969 20.5657 11.507 20.5657C10.2172 20.5657 9.17188 19.5071 9.17188 18.2008C9.17188 16.8946 10.2172 15.8359 11.507 15.8359C12.7969 15.8359 13.8422 16.8946 13.8422 18.2008ZM12.3099 18.2029C12.3099 17.753 11.9492 17.3878 11.505 17.3878C11.0608 17.3878 10.7001 17.753 10.7001 18.2029C10.7001 18.6527 11.0608 19.018 11.505 19.018C11.9492 19.018 12.3099 18.6527 12.3099 18.2029Z" fill="black"/>
<path d="M42.5375 18.2008C42.5375 19.5071 41.4922 20.5657 40.2024 20.5657C38.9125 20.5657 37.8672 19.5071 37.8672 18.2008C37.8672 16.8946 38.9125 15.8359 40.2024 15.8359C41.4922 15.8359 42.5375 16.8946 42.5375 18.2008ZM41.0113 18.2049C41.0113 17.7551 40.6506 17.3919 40.2064 17.3919C39.7622 17.3919 39.4016 17.7571 39.4016 18.2049C39.4016 18.6527 39.7622 19.018 40.2064 19.018C40.6506 19.018 41.0113 18.6527 41.0113 18.2049Z" fill="black"/>
<path d="M16.8648 18.7517C16.8444 18.8858 16.8179 19.0241 16.7812 19.1582L16.8098 18.7517L16.8892 17.625C16.8892 17.625 16.9524 18.1574 16.8648 18.7517Z" fill="black"/>
<path d="M35.0898 19.7508V19.7632C35.0653 19.6848 35.0409 19.6084 35.0225 19.53C35.0225 19.528 35.0225 19.5259 35.0225 19.5238C34.9532 19.2556 34.9145 18.9914 34.8982 18.752C34.8473 18.1041 34.939 17.6191 34.939 17.6191L35.0205 18.752L35.0918 19.7508H35.0898Z" fill="black"/>
</svg>
