<svg width="51" height="43" viewBox="0 0 51 43" fill="none" xmlns="http://www.w3.org/2000/svg">
<path d="M34.3578 36.9309C34.2649 36.8243 33.0286 37.794 32.8311 37.9184C27.7852 41.1218 21.6984 42.0677 15.9395 40.3081C15.0488 40.0355 14.2193 39.6267 13.3208 39.3878C12.28 40.711 10.6092 41.657 8.93837 41.9334C1.32302 43.1895 -2.79472 33.2556 3.35918 28.7646C3.58037 28.6026 4.60734 28.0813 4.57179 27.9173C4.54414 27.7988 3.17354 26.4598 2.91482 26.1201C-4.49119 16.3205 3.14589 2.3913 15.3727 3.21683C18.0882 3.4005 20.6201 4.49264 22.8557 5.96396C24.8781 3.4321 27.5995 1.53024 30.7318 0.62769C41.7657 -2.55196 52.2309 6.81911 50.3014 18.1217C49.5865 22.3144 47.0546 26.0806 43.5294 28.4051C45.8914 29.282 47.89 31.014 48.5832 33.5064C50.3468 39.8578 43.7328 45.1526 37.9403 41.9769C36.1233 40.9815 34.6165 39.0026 34.3578 36.9329V36.9309ZM32.1972 12.4733L34.9996 14.6517L43.4879 3.90608C41.0646 2.09704 38.0766 1.17672 35.049 1.14709C35.4163 4.11739 34.9739 7.18644 33.6863 9.88816C33.2577 10.7887 32.6297 11.6024 32.1972 12.4733ZM24.2994 6.1733L31.2374 11.5905C31.5593 11.5372 32.6889 9.28185 32.8647 8.87304C33.5342 7.31877 34.0042 5.35568 34.0615 3.66119C34.0714 3.3768 33.9884 1.43543 33.9213 1.33866C33.8146 1.18659 33.5046 1.24387 33.3367 1.25769C30.6725 1.47099 27.4534 3.07661 25.4824 4.8422C25.2197 5.07722 24.5739 5.6697 24.3962 5.92644C24.3389 6.00938 24.2619 6.02913 24.2994 6.1733ZM18.7775 5.09104C16.1982 4.29909 13.5202 4.13714 10.8876 4.7948C11.6243 5.35173 12.5683 5.72104 13.3978 6.15948L18.1337 5.87509C18.4536 5.81189 18.6155 5.34581 18.7755 5.08907L18.7775 5.09104ZM48.9545 12.0882C48.3245 9.26408 46.709 6.5446 44.4655 4.71383L35.9357 15.3884L38.4498 17.4087C41.1594 14.3693 44.8644 12.4358 48.9525 12.0882H48.9545ZM12.4636 6.96723L9.4084 5.42678C9.27016 5.34976 9.17141 5.42086 9.04502 5.46036C8.52363 5.6223 7.49864 6.26613 7.01083 6.58804C5.01417 7.9073 3.4125 9.82101 2.40726 11.9895C3.56655 12.3825 4.53822 13.212 5.70343 13.5675L10.7652 11.2272L10.9686 11.0356L12.4656 6.96723H12.4636ZM25.8774 11.399C24.7912 9.08041 22.6879 7.05018 20.4226 5.86127C19.6702 5.46628 19.8321 5.65785 19.4134 6.3708L22.9189 10.0699C23.8412 10.6288 24.8879 10.9783 25.8794 11.397L25.8774 11.399ZM20.632 14.7327L21.9927 11.006L21.9394 10.6564L18.3094 6.9771L13.6446 7.30691L12.0805 11.4286C13.3602 12.7084 14.4998 14.1915 15.8704 15.3469L20.63 14.7346L20.632 14.7327ZM28.2453 14.553C28.433 14.7425 30.556 12.7044 30.5126 12.5346L25.6819 8.73677L27.0446 10.9724C27.5502 12.1238 28.1031 13.285 28.2453 14.553ZM26.6437 12.9987L23.0197 11.4977L21.6885 15.2541L24.3468 19.3599C24.7517 19.1545 27.3685 18.2599 27.4435 18.0387C27.485 16.3245 27.2401 14.6023 26.6456 12.9987H26.6437ZM12.353 20.4521L14.8158 16.0796L11.334 12.3746L11.0851 12.3233L6.25443 14.5589L6.85876 19.5653L12.353 20.4501V20.4521ZM1.73973 21.3329L4.32097 22.5317L5.75083 19.8339L5.12082 14.6517C5.03195 14.5036 2.22952 13.0974 2.05967 13.0757C1.84243 13.0481 1.94908 13.1093 1.90563 13.2139C0.920135 15.6352 1.08405 18.8484 1.73973 21.3329ZM28.2434 20.6654C28.7055 20.6456 29.4974 21.327 29.8766 21.0702L34.2551 15.5898L31.4487 13.2752C30.635 14.3081 29.6041 15.1494 28.5376 15.9058C28.6522 17.5035 28.6107 19.1012 28.2434 20.6654ZM49.2488 13.2712C45.4984 13.4351 41.7499 15.2916 39.3879 18.1987C39.4807 18.1967 39.5617 18.2421 39.6308 18.2994C41.667 19.9465 44.1771 22.2769 46.2962 23.6673C46.7979 23.9951 46.9934 23.375 47.258 22.9642C49.0789 20.1242 49.6497 16.5931 49.2488 13.2732V13.2712ZM23.0177 19.5811L20.6833 15.9453C20.0671 16.0618 15.9968 16.364 15.8131 16.5911L13.2556 21.2045C13.4017 21.3902 13.3681 21.327 13.5182 21.2737C13.8323 21.1611 14.1581 20.9735 14.4879 20.8609C17.2469 19.907 20.081 19.3066 23.0197 19.5811H23.0177ZM37.6974 18.2145C36.9153 17.8649 36.0443 16.7135 35.3413 16.3798C35.2504 16.3363 35.1556 16.2869 35.0608 16.3422L30.9056 21.6983L35.047 24.5106C35.4479 22.346 36.3406 20.2566 37.6598 18.4949L37.6974 18.2145ZM38.1062 28.9463C38.7105 28.8238 39.2536 28.5118 39.8599 28.3834C40.4662 28.255 41.2523 28.3025 41.823 28.0793C42.4293 27.8423 43.5313 27.0069 44.0665 26.5764C44.7222 26.0471 45.3088 25.4585 45.8933 24.8562L38.7421 19.0933L38.1635 19.7885C37.0871 21.5166 36.3722 23.4421 36.0424 25.4566C36.8185 26.5527 37.8139 27.5836 38.1062 28.9483V28.9463ZM27.2579 19.4824L26.0749 19.9248L27.1591 20.2704L27.2579 19.4824ZM27.4455 21.562C23.2626 20.2348 18.8466 20.458 14.7447 21.957L14.7309 32.2523C15.0923 33.7315 15.2068 35.3332 14.7625 36.8105C14.6795 37.0909 14.0693 38.2857 14.1502 38.4003C18.2798 40.2054 23.1204 40.5905 27.4099 39.1034L27.4455 21.562ZM12.2681 21.6528C11.492 21.7002 6.89036 20.5982 6.5487 20.8115C6.27813 20.9794 5.60271 22.9859 5.30844 23.377L6.35318 26.681C7.53024 25.2828 8.7547 24.0939 10.2655 23.0511C10.7948 22.6857 11.6835 22.2967 12.1042 21.9313C12.2049 21.8444 12.3116 21.8365 12.2681 21.6528ZM28.5396 22.0459V38.7064C29.6772 38.4181 30.6844 37.7466 31.7311 37.2371L31.8022 37.083L31.7963 23.5942C31.4586 23.3039 28.7035 21.876 28.5396 22.0459ZM13.5498 22.5396C12.8231 22.824 12.043 23.2525 11.3893 23.6811C11.0614 23.8964 10.3346 24.2854 10.2892 24.6528C10.2497 24.9806 10.2616 27.6329 10.3425 27.7653C11.5868 28.2906 12.6927 29.0885 13.5498 30.1293V22.5376V22.5396ZM5.26499 26.9753C4.93123 26.3334 4.57179 24.2084 4.18668 23.766C3.98128 23.529 2.74892 23.14 2.40726 22.9346C2.20977 23.1696 4.67646 26.76 5.26499 26.9773V26.9753ZM32.9773 24.4118V36.3404C33.2557 36.1726 33.9865 35.7223 34.1089 35.4497C34.2788 35.0686 34.2926 34.1186 34.4289 33.6012C34.8377 32.043 35.6968 30.9647 36.8225 29.8784C36.939 29.7659 37.1483 29.7718 37.1266 29.5921C36.4966 27.4295 34.7804 25.6718 32.9773 24.4138V24.4118ZM9.21091 27.3189C9.32941 26.8351 9.12401 25.9345 9.21091 25.3973C8.54931 25.9503 7.95485 26.5823 7.43544 27.2696C7.94893 27.2222 8.50783 27.4295 9.00947 27.4276C9.09834 27.4276 9.18919 27.4058 9.21091 27.3209V27.3189ZM9.30966 30.9153C9.25831 30.8422 9.80142 30.0266 9.90016 29.9732C10.1431 29.8449 10.3781 30.2616 10.5341 30.226C10.5756 30.2162 11.0713 29.6217 11.0792 29.5822C11.1444 29.2939 9.677 28.7764 9.40445 28.7014C7.55394 28.1938 5.93054 28.5375 4.27752 29.44C4.44737 29.596 4.86408 30.2873 5.03195 30.3149C5.27092 30.3544 5.55728 29.7224 5.9029 30.0305C5.96017 30.0819 6.35318 30.7119 6.35121 30.7711C6.35121 31.0516 5.71923 31.1681 5.66985 31.3695C5.61851 31.5808 6.11816 32.274 6.05102 32.592L7.03651 32.3945C7.04638 32.7362 7.22018 33.0996 7.23598 33.4314C7.24585 33.6585 7.2182 33.542 7.08588 33.5755C6.94171 33.613 6.37095 33.6348 6.34133 33.7335C6.27616 34.0416 6.42033 34.3517 6.4381 34.6242C6.446 34.7644 6.31961 35.0172 6.34726 35.0547C6.39663 35.1258 7.21228 35.1555 7.24388 35.3154C7.25572 35.3806 7.07206 36.297 7.03256 36.3306C6.90024 36.4451 6.40255 36.1607 6.24456 36.2792C6.18136 36.3266 5.73108 37.7308 5.77057 37.7999C5.79427 37.8414 6.31368 38.0922 6.33343 38.1258C6.42033 38.2759 5.90685 39.0579 5.79032 39.0915C5.53358 39.1666 5.29462 38.6985 5.06355 38.8447C5.01615 38.8743 4.39207 39.6978 4.38417 39.7551C4.35455 39.9546 5.02207 40.2212 5.19587 40.2982C7.14118 41.1593 9.25238 40.9104 11.0812 39.8854C11.1345 39.8124 10.4887 38.9928 10.3899 38.9434C10.1826 38.8407 10.1075 39.1606 9.90016 39.0579C9.75797 38.9868 9.23659 38.2324 9.31361 38.1218C9.32941 38.0981 9.5348 38.0705 9.61182 37.9737C9.83697 37.6933 9.18524 36.6604 9.20894 36.2397C8.47426 36.6248 8.63225 35.7874 8.41896 35.3075L9.01934 35.0962C8.89295 34.8573 9.15166 33.7394 9.11019 33.6802C9.06477 33.617 8.48019 33.6229 8.44464 33.4353C8.43674 33.3919 8.60658 32.6295 8.63818 32.5644C8.82185 32.199 9.26621 32.6137 9.40445 32.4913C9.4242 32.4735 9.46963 32.1121 9.52888 31.9739C9.77969 31.3715 10.1806 31.1918 9.30966 30.9153ZM44.0211 29.835C42.3207 29.205 40.7012 29.2149 39.0028 29.8429C38.9455 30.6013 39.0462 31.3932 38.991 32.1476C38.91 33.2892 38.2109 35.1772 38.7105 36.1765C39.7572 38.266 44.5583 37.9125 44.5227 35.3036C44.5089 34.2786 44.0014 32.9475 43.9243 31.8514C43.8769 31.1839 43.9066 30.4867 44.0211 29.833V29.835ZM3.69689 31.2254C3.73837 31.1661 3.99116 31.2076 3.97338 30.9844C3.96351 30.858 3.53692 30.3544 3.42633 30.3347C1.52249 31.8573 1.10183 34.721 1.9629 36.9309C2.11102 37.3141 2.99974 38.9315 3.35523 38.9947C3.49742 39.0204 4.1294 38.2798 4.17483 38.1593C4.25382 37.9559 3.75219 37.8987 3.68307 37.7683C3.68702 37.6538 4.24 36.8559 4.33875 36.8401C4.46514 36.8184 4.59351 37.0573 4.71991 37.0336C4.86013 37.006 5.11292 36.0205 5.06552 35.9533C5.02207 35.8941 4.59746 35.9059 4.56784 35.7914C4.54414 35.7045 4.73373 34.7091 4.77323 34.6677C4.79101 34.6499 5.12477 34.8355 5.26499 34.7664L5.16624 33.9784C4.54217 34.3596 4.72583 33.4057 4.47699 32.9949L4.97073 32.8942C5.00628 32.8547 4.77916 32.1555 4.61721 32.122C4.50069 32.0983 4.30912 32.2602 4.19655 32.195C4.14915 32.1674 3.65344 31.2905 3.69887 31.2293L3.69689 31.2254ZM10.6921 37.1284C11.0417 37.2094 11.2392 36.6762 11.5255 36.9329C11.5848 36.9862 11.9738 37.6083 11.9738 37.6735C11.9758 37.9579 11.413 38.0902 11.3991 38.262C11.3893 38.3884 11.9541 39.0224 12.1062 38.9947C14.3082 36.9645 14.5314 33.0443 12.5624 30.7731C12.0035 30.1293 12.037 30.2991 11.4821 30.8699C11.5571 31.018 12.0627 31.255 12.0627 31.3616C12.0627 31.4149 11.4959 32.1713 11.4169 32.1871C11.1997 32.2306 11.0219 31.8672 10.7889 31.9047L10.4986 32.7441C10.5124 32.91 11.1503 32.9435 11.1839 32.989C11.2135 33.0304 10.9666 33.933 10.937 33.9745C10.7849 34.1917 10.4294 33.9152 10.1964 33.9745V34.8612C10.3583 34.8355 10.8896 34.6795 10.9805 34.7664C11.02 34.8039 11.2174 35.8052 11.1819 35.8467C10.9429 36.1153 9.95151 35.4971 10.6901 37.1284H10.6921ZM37.9087 30.623C37.8475 30.5499 37.1918 31.095 37.1207 31.1661C32.8351 35.4241 36.7455 42.7412 42.6663 41.6392C48.0223 40.6418 49.5351 33.6387 45.1093 30.5242C44.7755 32.3708 46.1916 34.8434 45.4529 36.5379C44.4339 38.8802 40.6973 39.3167 38.7638 37.9006C36.5894 36.3088 37.5532 34.5136 37.7981 32.3353C37.8238 32.1042 37.964 30.6882 37.9087 30.623Z" fill="black"/>
<path d="M18.387 28.6496V29.7358C18.5529 29.7082 19.3349 29.7734 19.3725 29.7358C19.5956 29.5127 18.7622 28.304 20.5554 28.6496V29.7358C20.7213 29.7082 21.5034 29.7734 21.5409 29.7358C21.7641 29.5127 20.9307 28.304 22.7239 28.6496V29.7358H23.4546L23.5099 28.6496H24.6949C24.7245 28.8274 24.6534 29.6944 24.6949 29.7358C24.8983 29.9393 26.0122 29.171 25.6824 30.9188C25.5165 30.9465 24.7344 30.8793 24.6949 30.9188C24.6554 30.9583 24.7245 31.8273 24.6949 32.005H23.5099L23.4546 30.9188H22.7219V32.005C21.5291 32.0643 21.5212 32.1156 21.4817 30.9188H20.5515V32.005H19.3665V30.9188H18.4383L18.381 32.005H17.1961C17.1665 31.8293 17.2376 30.9603 17.1961 30.9188C17.1546 30.8774 16.4476 30.9623 16.4061 30.9188C16.3646 30.8754 16.3646 29.7773 16.4061 29.7339C16.4476 29.6904 17.1546 29.7773 17.1961 29.7339C17.4192 29.5107 16.5858 28.302 18.3791 28.6477L18.387 28.6496Z" fill="black"/>
</svg>
