<svg width="287" height="359" viewBox="0 0 287 359" fill="none" xmlns="http://www.w3.org/2000/svg">
<g clip-path="url(#clip0_356_80404)">
<path d="M217.941 130.26C220.168 130.555 218.776 134.6 216.85 134.072C215.034 133.575 216.226 130.03 217.941 130.26Z" fill="white"/>
<path d="M222.566 132.54C224.437 132.999 222.822 136.251 221.521 135.849C220.098 135.409 220.915 132.417 222.566 132.54Z" fill="white"/>
<path d="M216.975 138.121C217.082 138.208 217.213 138.274 217.383 138.32C217.246 138.256 217.112 138.19 216.975 138.121Z" fill="white"/>
<path d="M203.606 123.168C193.091 121.078 183.479 111.848 178.284 105.984C176.364 103.815 177.55 100.403 180.411 99.8602L183.698 99.2388C183.698 99.2388 183.421 100.931 184.006 102.255L185.118 104.457C187.33 108.391 190.27 111.73 193.548 114.755C195.492 116.547 197.552 118.23 199.648 119.856L203.606 123.168Z" fill="white"/>
<path d="M246.176 118.426C246.176 118.426 243.702 116.589 236.764 119.099C233.589 120.17 230.625 121.926 228.053 123.992C226.369 125.346 223.657 128.333 221.573 129.313C221.57 128.999 221.552 128.701 221.518 128.426C221.478 128.097 221.411 127.802 221.317 127.566C220.254 124.867 217.356 124.465 214.498 124.468C214.501 124.411 214.507 124.357 214.513 124.303C216.015 122.288 217.451 120.23 218.721 118.065C219.288 117.099 219.708 116.068 220.299 115.123C224.955 106.708 229.796 110.982 229.796 110.982C229.105 111.449 228.425 111.772 227.74 112.315C224.489 114.891 222.676 118.855 220.455 122.23C223.063 120.583 224.51 117.802 226.643 115.669C234.589 106.798 237.148 112.204 237.148 112.204C236.971 112.258 236.795 112.315 236.621 112.378C232.206 113.923 228.876 117.316 226.021 120.858C225.512 121.491 224.997 122.161 224.534 122.827C226.676 120.825 228.745 118.665 231.219 117.039C232.831 115.98 234.628 115.323 236.444 114.632C243.214 112.059 243.964 115.184 246.173 118.429L246.176 118.426Z" fill="white"/>
<path d="M189.779 125.168C189.636 125.047 189.493 124.927 189.356 124.809C189.396 124.836 189.438 124.863 189.478 124.891C189.578 124.984 189.676 125.078 189.779 125.171V125.168Z" fill="white"/>
<path d="M227.569 132.064C227.231 129.961 225.354 128.42 222.965 130.206C222.831 130.311 222.691 130.426 222.551 130.549C222.764 130.444 222.968 130.356 223.169 130.287C224.943 129.672 226.213 130.399 226.612 131.675C226.92 132.664 226.701 133.982 225.777 135.252C224.522 136.99 220.446 138.238 218.361 138.374C217.935 138.407 217.627 138.383 217.387 138.32H217.38C217.213 138.275 217.079 138.205 216.975 138.115C216.756 137.943 216.634 137.68 216.494 137.352C216.351 137.029 216.198 136.628 215.912 136.175C215.138 134.935 213.782 133.246 213.057 131.714C213.042 131.684 213.027 131.653 213.011 131.617C212.996 131.581 212.984 131.545 212.963 131.509C212.947 131.479 212.932 131.442 212.914 131.406C212.765 131.044 212.655 130.7 212.597 130.368C212.307 128.67 212.844 127.331 214.148 126.712C214.172 126.703 214.197 126.691 214.221 126.679C214.605 126.51 215.056 126.399 215.574 126.363C217.585 126.212 219.193 127.376 220.001 129.011C220.241 129.491 220.412 130.013 220.503 130.558C220.549 130.83 220.573 131.104 220.573 131.379C220.613 134.094 219.297 133.445 218.797 135.068C218.322 136.6 219.495 136.616 220.208 135.216C220.717 134.211 221.128 132.037 221.113 130.323C221.113 130.009 221.091 129.708 221.058 129.436C221.021 129.111 220.951 128.815 220.857 128.58C219.797 125.88 216.899 125.476 214.038 125.482C213.139 125.482 212.234 125.527 211.403 125.548C211.11 125.557 210.821 125.56 210.549 125.566C210.498 125.566 210.455 125.536 210.434 125.488C210.053 124.553 209.629 123.642 209.178 122.764C207.558 119.554 203.813 107.926 203.639 107.386L203.633 107.368V107.362L202.698 104.086V104.071C202.43 101.875 202.113 99.2205 203.834 97.6006C204.523 96.9491 205.425 96.753 206.217 96.3397C206.305 96.2915 206.302 96.1618 206.208 96.1195L186.562 88.1681L186.528 88.1561C186.483 88.1561 186.44 88.1561 186.397 88.1561C186.349 88.1621 186.306 88.1319 186.285 88.0897C186.263 88.0414 186.221 88.0143 186.157 88.0173C186.132 88.1078 186.111 88.1983 186.087 88.2888C185.995 88.6719 185.913 89.052 185.837 89.432C185.413 91.5948 185.255 93.7395 185.508 95.9747C186.19 101.908 189.694 107.76 193.585 112.212C197.195 116.348 201.781 119.696 204.821 124.296C204.876 124.381 204.803 124.495 204.697 124.483C203.895 124.357 203.082 124.103 202.305 123.892C196.074 122.191 190.233 119.956 185.755 115.162H185.748L183.466 112.445C183.454 112.478 183.384 112.782 183.256 113.268C183.128 113.748 182.945 114.396 182.723 115.114C182.427 116.058 182.562 117.078 183.104 117.904C184.088 119.413 186.026 121.959 189.338 124.803L189.347 124.812C189.389 124.836 189.429 124.863 189.466 124.891H189.472C189.569 124.987 189.67 125.081 189.77 125.168C192.327 127.494 195.48 129.246 198.883 130.35C200.766 130.96 202.728 131.376 204.706 131.572C204.837 131.584 204.855 131.768 204.724 131.804L203.14 132.224L203.112 132.23C198.32 132.951 193.573 131.171 189.825 128.311C189.825 128.311 189.819 128.311 189.822 128.305C189.795 128.29 189.667 128.197 189.45 128.052C188.792 127.602 187.372 126.622 185.825 125.611C184.277 124.601 182.61 123.557 181.48 122.972C176.343 119.817 170.164 122.676 170.164 122.676C173.881 122.595 177.769 123.458 180.435 124.215C176.276 124.001 172.763 126.215 172.763 126.215C175.453 125.811 178.305 125.892 180.718 126.127C180.724 126.127 180.727 126.13 180.733 126.127C180.889 126.145 181.044 126.16 181.194 126.179C179.25 126.444 177.568 127.274 176.245 128.172C176.224 128.188 176.206 128.197 176.194 128.206C176.431 128.103 176.66 128.01 176.888 127.919C176.949 127.895 177.01 127.871 177.068 127.847C185.099 124.749 187.36 129.732 187.36 129.732C187.625 130.013 187.863 130.32 188.073 130.658C188.658 131.59 189.091 132.48 189.255 133.243C189.895 136.166 192.933 138.088 195.821 138.971C196.473 139.174 197.11 139.318 197.713 139.415C197.799 139.427 197.881 139.439 197.963 139.448C202.171 140.054 211.981 141.237 212.652 141.032C213.127 140.887 213.417 140.389 213.871 140.365C214.513 140.413 216.652 139.336 217.917 138.944H217.923H217.929C217.929 138.944 223.404 139.629 225.899 136.181C225.908 136.172 225.915 136.166 225.924 136.157C227.343 135.083 227.791 133.448 227.569 132.064ZM211.351 139.038C210.915 137.955 209.568 138.151 208.377 137.988C208.219 137.964 208.249 137.735 208.405 137.75L211.36 138.018C211.4 138.018 211.436 138.042 211.451 138.069L211.665 138.401C211.683 138.428 211.689 138.456 211.683 138.489L211.576 139.014C211.555 139.128 211.39 139.149 211.351 139.038Z" fill="white"/>
<path d="M275.696 34.6501L232.106 28.035C230.552 22.4636 230.195 16.482 228.678 10.9166C226.506 2.96518 219.803 -0.99543 211.646 0.214172C182.29 4.57598 152.785 11.7763 123.362 17.2512L110.34 7.85789C104.378 3.92744 95.9714 5.25468 91.4012 10.63L65.3571 45.8623C59.6443 44.6557 54.1205 42.2063 48.4352 40.9726C40.3063 39.208 33.6642 43.2681 30.9861 50.9903C19.5362 83.9964 11.5779 119.03 0.44186 152.235C-1.28873 159.426 2.15112 166.27 9.09174 169.157L128.587 204.549C130.425 208.914 134.407 211.97 139.129 212.992L246.596 229.07C250.03 229.188 254.439 227.619 256.995 225.345C259.497 223.116 261.13 219.436 261.574 216.154L286.921 50.0039C287.692 42.9514 282.622 36.1825 275.696 34.6501ZM94.0702 12.6179C97.0774 9.11274 102.108 7.95743 106.428 9.5833C110.486 12.4188 114.539 15.2663 118.582 18.1199C114.664 18.8257 110.745 19.4954 106.83 20.1168C99.588 21.9176 95.0452 28.0983 95.6607 35.5249L101.328 64.8509C99.131 64.0697 96.8276 63.9731 94.6034 65.4603C90.5481 68.1721 91.5322 71.101 90.734 75.0556C89.4421 81.4324 85.201 87.3055 79.5248 90.5783C76.3317 92.4214 73.6444 92.4063 71.9717 96.2794C70.3386 100.056 72.118 102.964 74.8662 105.519C78.5863 108.973 82.9616 112.161 86.5537 115.684C86.7609 115.886 86.9529 116.107 87.1144 116.345L86.0114 130.562C86.112 131.21 87.9644 132.073 88.4885 132.57C94.8868 126.842 101.334 121.153 107.016 114.686C108.119 113.431 109.164 112.134 110.218 110.84L117.077 146.329L117.107 146.482L123.39 178.994C118.673 175.606 113.957 172.219 109.243 168.828C108.667 168.415 108.092 168.002 107.519 167.589C106.096 166.566 104.676 165.546 103.256 164.524H103.253C101.038 162.925 98.8202 161.329 96.6052 159.731H96.6021C89.7133 154.766 82.8275 149.791 75.9509 144.808C74.397 143.683 72.8462 142.558 71.2923 141.43C70.5672 140.905 69.8451 140.377 69.1199 139.852C68.4801 139.388 67.8403 138.923 67.2035 138.459C67.0024 138.314 66.8013 138.169 66.6033 138.021C64.0927 136.199 61.5821 134.371 59.0776 132.543C57.2252 131.195 55.3727 129.844 53.5203 128.489C52.2955 127.596 51.0706 126.7 49.8489 125.805C48.9836 125.171 48.1183 124.538 47.253 123.901C46.8203 123.587 46.3877 123.268 45.9551 122.951C40.9918 119.313 36.0377 115.669 31.0897 112.016C28.8076 108.9 27.8844 104.843 29.3378 101.16C30.1299 99.1571 31.632 97.4257 32.8782 95.652C52.6672 67.5808 74.1471 40.6076 94.0702 12.6179ZM106.459 91.3867V91.3928L107.54 96.9913C102.626 92.5421 101.273 85.3991 104.161 79.5139L105.212 84.9526L106.459 91.3867ZM103.415 75.8851C97.769 83.7038 99.5941 94.5721 107.491 100.162C107.741 100.34 107.997 100.509 108.253 100.671L108.866 103.845C107.894 103.371 106.949 102.813 106.038 102.171C97.0195 95.7878 94.9355 83.375 101.383 74.4493C101.84 73.8189 102.324 73.2216 102.839 72.6606L103.451 75.8369C103.439 75.852 103.427 75.8701 103.415 75.8851ZM89.7163 111.977L88.3026 113.938L86.374 112.203L97.6959 96.5238L99.1371 98.9309L91.1331 110.016L93.1105 111.419L100.718 100.883C102.409 102.451 104.091 104.02 106.084 105.232C107.068 105.833 108.436 106.231 109.423 106.735L109.606 107.685C109.432 107.845 109.243 107.986 109.176 108.074C104.128 114.475 98.6435 120.073 92.5925 125.524C91.8948 126.151 89.4817 128.513 88.8876 128.791C88.8175 128.824 88.6347 128.845 88.6164 128.785C88.72 128.631 88.7505 128.45 88.7657 128.272C88.8967 126.734 89.3477 116.632 89.7072 116.137L91.6968 113.38L89.7163 111.977ZM96.5564 93.9598L84.5733 110.559L76.1002 103.263C74.6773 102.017 73.7236 100.484 73.9582 98.5418C74.4214 94.7079 77.9983 94.3429 80.7618 92.7502C87.0473 89.1304 91.7272 82.6752 93.1866 75.6227C93.8722 72.3197 93.0099 68.2354 97.2572 66.9836C99.003 66.4708 100.472 67.0529 101.91 67.8493L102.26 69.6712C95.5875 75.7826 93.3634 85.5469 96.5564 93.9598ZM70.0827 144.73L69.973 145.032L67.5417 144.16L67.9042 143.173C68.6294 143.692 69.3545 144.211 70.0827 144.73ZM65.1926 141.231L58.1331 138.697C57.737 138.555 56.7895 136.199 56.4086 134.929C59.3336 137.035 62.2616 139.134 65.1926 141.231ZM10.3684 166.074C5.30456 164.177 2.47713 158.651 3.5557 153.499L34.9439 49.7324C41.6591 38.5112 53.7914 46.8064 63.2548 48.8486L27.2294 97.7726C23.6738 104.243 25.0631 111.688 30.7911 116.36C38.0943 121.705 45.4219 127.017 52.7647 132.305C52.7098 132.48 52.6702 132.673 52.6519 132.887C52.527 134.281 53.7214 134.353 54.1357 135.023C54.5592 135.711 54.7938 137.72 55.2417 138.625C55.6287 139.412 56.5579 140.434 57.3532 140.821C59.7053 141.961 62.7704 142.549 65.1987 143.632C65.3053 144.513 65.4485 145.442 66.2529 145.991C66.9171 146.443 69.0986 147.224 69.8938 147.258C70.4087 147.279 71.7798 146.724 71.9352 146.298L72.0052 146.105C76.5054 149.321 81.0055 152.533 85.5117 155.743L44.3585 140.956C44.2732 140.923 44.2336 140.097 44.1635 139.87C43.2312 136.809 38.9291 136.332 37.488 139.225C35.6721 142.86 40.1509 146.087 43.1885 143.487L43.3896 143.511L69.0559 165.863C69.4276 166.056 69.7445 165.896 70.1071 165.812C73.2118 165.076 77.8643 163.272 80.9446 162.108C81.6606 161.836 83.1687 161.492 83.3089 160.678C83.4978 159.562 80.5454 157.296 80.1158 156.207L92.3122 160.59C102.967 168.183 113.622 175.775 124.243 183.407L127.567 200.598C88.5128 189.057 49.3279 177.92 10.3684 166.074ZM80.0397 159.942L69.7658 163.477L48.5144 144.851L75.6127 154.588C76.9411 156.364 78.562 157.909 79.9452 159.637C80.0305 159.743 80.2073 159.676 80.0397 159.942ZM41.9241 141.309C41.6804 141.982 40.9278 142.329 40.2484 142.084C39.5689 141.84 39.2186 141.098 39.4654 140.425C39.7121 139.753 40.4617 139.406 41.1411 139.65C41.8205 139.894 42.1709 140.637 41.9241 141.309ZM129.398 185.742C129.343 186.074 129.303 186.535 129.23 186.997C129.124 187.69 128.944 188.381 128.53 188.647C128.551 188.119 128.542 187.6 128.444 187.072C128.399 186.825 128.353 186.574 128.304 186.327C128.033 184.861 127.759 183.398 127.485 181.932C125.196 169.694 122.838 157.468 120.449 145.249C120.279 144.374 120.108 143.499 119.938 142.624C119.907 142.468 119.877 142.311 119.846 142.154C119.115 138.419 118.381 134.685 117.643 130.951C117.403 129.735 117.165 128.519 116.924 127.304C116.51 125.201 116.093 123.099 115.678 120.996C114.813 116.613 113.945 112.234 113.076 107.851C112.903 106.97 112.729 106.092 112.555 105.211C112.375 104.3 112.193 103.386 112.013 102.472C111.821 101.498 111.626 100.524 111.434 99.5493C111.178 98.2522 110.922 96.9521 110.666 95.652C110.474 94.6868 110.282 93.7185 110.093 92.7502C109.447 89.4803 108.802 86.2075 108.162 82.9346C107.9 81.6104 107.641 80.2892 107.382 78.968C107.175 77.9062 106.967 76.8444 106.76 75.7796C106.568 74.8083 106.379 73.834 106.19 72.8627C106.011 71.9456 105.834 71.0256 105.654 70.1086C105.435 68.9774 105.215 67.8493 104.996 66.7181C102.964 56.2269 100.962 45.7296 99.0121 35.2232C98.3754 29.9022 102.022 24.8677 107.135 23.4349L122.098 20.6055L126.784 19.7186L214.599 3.11299C227.755 3.82789 225.924 18.3129 228.459 27.5705L167.995 18.509C160.555 18.3733 154.525 23.0307 152.983 30.2159C152.581 32.7286 152.182 35.2413 151.789 37.7571C151.597 38.9697 151.408 40.1793 151.219 41.3919C150.457 46.2605 149.708 51.129 148.971 56.0006C148.212 56.3234 147.362 56.5164 146.618 56.8241C143.322 58.1785 135.269 61.2553 136.162 65.8373C136.549 67.8252 140.016 70.3499 141.491 71.8853C143.06 73.5142 144.525 75.2577 145.796 77.1309C145.516 79.0373 145.232 80.9437 144.952 82.8502C136.201 85.6525 127.518 91.8573 128.694 101.935C128.819 103 129.179 103.902 129.398 104.855C130.592 110.016 131.732 116.665 133.401 121.545C134.236 123.989 136.168 125.599 138.529 126.55C138.173 128.96 137.816 131.37 137.457 133.78C134.986 150.389 132.451 166.988 129.754 183.558C129.636 184.285 129.517 185.015 129.398 185.742ZM148.578 58.5767C147.801 63.6986 147.033 68.8206 146.271 73.9456C145.04 72.383 143.681 70.8899 142.252 69.445C141.396 68.5763 138.642 66.4466 138.413 65.4542C137.865 63.0592 143.73 60.4952 145.47 59.7501C146.527 59.2976 147.59 58.9477 148.578 58.5767ZM138.435 111.953C139.139 112.104 139.916 112.188 140.65 112.137C140.625 112.3 140.601 112.466 140.577 112.629C140.443 113.555 140.309 114.481 140.171 115.404C139.986 116.677 139.797 117.947 139.611 119.217C139.37 120.864 139.126 122.508 138.883 124.152C137.396 123.379 135.891 122.239 135.607 121.051L132.996 110.131C133.472 110.517 135.641 111.157 135.897 111.464C136.558 112.261 136.204 116.007 138.127 115.211C139.413 114.68 138.636 112.93 138.435 111.953ZM137.533 109.44C137.914 107.775 139.382 106.128 140.677 105.003C141.043 104.686 141.43 104.379 141.832 104.083C141.643 105.377 141.451 106.668 141.262 107.962C141.223 108.228 141.183 108.496 141.143 108.762C141.089 109.142 141.034 109.522 140.976 109.905C139.806 109.917 138.645 109.772 137.533 109.44ZM135.23 108.677C133.746 107.881 132.506 106.958 131.872 105.347C131.199 103.628 130.903 101.724 130.873 99.8871L131.04 98.6745L131.829 101.972C132.067 102.97 133.868 102.94 134.117 101.869L132.43 94.7048C132.353 93.9628 133.73 92.355 134.227 91.7397C134.459 92.6597 134.629 94.6898 136.034 94.3941C137.917 93.996 136.086 91.061 136.201 89.8785C137.012 89.3054 137.761 88.5754 138.703 88.2134L140.26 94.735C140.44 95.4831 142.46 95.5284 142.441 94.1921L140.756 86.9676L143.307 85.8968L143.956 88.6086C143.971 88.6749 144.013 88.7383 144.074 88.7956L143.416 93.275C143.163 95.0095 142.907 96.741 142.655 98.4754C142.591 98.9007 142.527 99.3261 142.466 99.7514C142.399 100.207 142.332 100.659 142.265 101.115C139.227 102.937 136.622 105.356 135.23 108.677ZM258.238 216.169C257.33 221.933 252.443 225.74 246.602 225.758L184.021 216.371L152.596 211.659L139.425 209.683C136.957 209.059 134.864 207.747 133.356 205.961C132.314 204.727 131.549 203.27 131.132 201.654C130.937 200.902 130.815 200.118 130.775 199.307C131.281 195.937 131.79 192.571 132.295 189.202C132.466 188.052 132.64 186.9 132.81 185.751C135.223 169.679 137.621 153.601 140.04 137.524C140.546 134.145 141.055 130.767 141.567 127.391C141.674 126.661 141.783 125.934 141.896 125.207C142.228 122.996 142.56 120.788 142.898 118.58C143.124 117.087 143.346 115.594 143.575 114.104C143.608 113.871 143.642 113.642 143.678 113.41C143.712 113.187 143.745 112.964 143.782 112.74C143.825 112.463 143.864 112.188 143.907 111.911C143.962 111.552 144.017 111.193 144.071 110.834C144.138 110.387 144.208 109.944 144.275 109.498C144.309 109.271 144.346 109.048 144.379 108.822C144.726 106.538 145.071 104.258 145.421 101.978C145.491 101.528 145.558 101.076 145.628 100.626C145.668 100.352 145.711 100.08 145.753 99.8057C145.781 99.6338 145.805 99.4588 145.832 99.2869C146.046 97.8902 146.259 96.4906 146.475 95.094C147.027 91.4833 147.584 87.8756 148.142 84.2679C148.462 82.2107 148.779 80.1565 149.099 78.1022C150.253 70.6757 151.417 63.2522 152.599 55.8347C152.797 54.5769 152.998 53.319 153.2 52.0611C153.337 51.1984 153.474 50.3357 153.611 49.476C153.757 48.5681 153.903 47.6571 154.05 46.7491C154.208 45.7567 154.367 44.7613 154.528 43.7689C154.72 42.5623 154.915 41.3587 155.11 40.1521C155.738 36.2579 156.371 32.3636 157.011 28.4724C158.754 25.0306 161.962 22.349 165.935 21.9237C168.092 21.6944 170.338 22.2132 172.501 22.4938C206.79 26.9159 240.871 33.3319 275.145 37.9109C279.676 38.9335 283.033 42.8187 283.572 47.3645C275.849 103.685 266.471 159.879 258.238 216.169Z" fill="white"/>
</g>
<path d="M105.212 252.156C105.212 253.436 105.052 254.583 104.732 255.596C104.423 256.61 103.959 257.468 103.34 258.172C102.732 258.866 101.98 259.399 101.084 259.772C100.188 260.146 99.1589 260.332 97.9962 260.332C96.9402 260.332 95.8629 260.183 94.7642 259.884C94.7856 259.575 94.8122 259.271 94.8442 258.972C94.8762 258.663 94.9029 258.359 94.9242 258.06C94.9456 257.879 95.0096 257.735 95.1162 257.628C95.2336 257.511 95.4096 257.452 95.6442 257.452C95.8362 257.452 96.0869 257.5 96.3962 257.596C96.7162 257.692 97.1429 257.74 97.6762 257.74C98.3802 257.74 99.0096 257.634 99.5642 257.42C100.119 257.207 100.583 256.876 100.956 256.428C101.33 255.98 101.612 255.41 101.804 254.716C102.007 254.012 102.108 253.18 102.108 252.22V237.148H105.212V252.156ZM120.453 250.204C120.453 249.543 120.357 248.94 120.165 248.396C119.984 247.842 119.712 247.367 119.349 246.972C118.997 246.567 118.565 246.258 118.053 246.044C117.541 245.82 116.96 245.708 116.309 245.708C114.944 245.708 113.861 246.108 113.061 246.908C112.272 247.698 111.781 248.796 111.589 250.204H120.453ZM122.757 257.804C122.405 258.231 121.984 258.604 121.493 258.924C121.002 259.234 120.474 259.49 119.909 259.692C119.354 259.895 118.778 260.044 118.181 260.14C117.584 260.247 116.992 260.3 116.405 260.3C115.285 260.3 114.25 260.114 113.301 259.74C112.362 259.356 111.546 258.802 110.853 258.076C110.17 257.34 109.637 256.434 109.253 255.356C108.869 254.279 108.677 253.042 108.677 251.644C108.677 250.514 108.848 249.458 109.189 248.476C109.541 247.495 110.042 246.647 110.693 245.932C111.344 245.207 112.138 244.642 113.077 244.236C114.016 243.82 115.072 243.612 116.245 243.612C117.216 243.612 118.112 243.778 118.933 244.108C119.765 244.428 120.48 244.898 121.077 245.516C121.685 246.124 122.16 246.882 122.501 247.788C122.842 248.684 123.013 249.708 123.013 250.86C123.013 251.308 122.965 251.607 122.869 251.756C122.773 251.906 122.592 251.98 122.325 251.98H111.493C111.525 253.004 111.664 253.895 111.909 254.652C112.165 255.41 112.517 256.044 112.965 256.556C113.413 257.058 113.946 257.436 114.565 257.692C115.184 257.938 115.877 258.06 116.645 258.06C117.36 258.06 117.973 257.98 118.485 257.82C119.008 257.65 119.456 257.468 119.829 257.276C120.202 257.084 120.512 256.908 120.757 256.748C121.013 256.578 121.232 256.492 121.413 256.492C121.648 256.492 121.829 256.583 121.957 256.764L122.757 257.804ZM139.839 243.868V260.076H138.143C137.738 260.076 137.482 259.879 137.375 259.484L137.151 257.74C136.447 258.519 135.658 259.148 134.783 259.628C133.909 260.098 132.906 260.332 131.775 260.332C130.89 260.332 130.106 260.188 129.423 259.9C128.751 259.602 128.186 259.186 127.727 258.652C127.269 258.119 126.922 257.474 126.687 256.716C126.463 255.959 126.351 255.122 126.351 254.204V243.868H129.199V254.204C129.199 255.431 129.477 256.38 130.031 257.052C130.597 257.724 131.455 258.06 132.607 258.06C133.45 258.06 134.234 257.863 134.959 257.468C135.695 257.063 136.373 256.508 136.991 255.804V243.868H139.839ZM163.102 247.724C162.569 247.01 161.993 246.514 161.374 246.236C160.756 245.948 160.062 245.804 159.294 245.804C157.79 245.804 156.633 246.343 155.822 247.42C155.012 248.498 154.606 250.034 154.606 252.028C154.606 253.084 154.697 253.991 154.878 254.748C155.06 255.495 155.326 256.114 155.678 256.604C156.03 257.084 156.462 257.436 156.974 257.66C157.486 257.884 158.068 257.996 158.718 257.996C159.657 257.996 160.473 257.783 161.166 257.356C161.87 256.93 162.516 256.327 163.102 255.548V247.724ZM165.95 236.508V260.076H164.254C163.849 260.076 163.593 259.879 163.486 259.484L163.23 257.516C162.537 258.348 161.748 259.02 160.862 259.532C159.977 260.044 158.953 260.3 157.79 260.3C156.862 260.3 156.02 260.124 155.262 259.772C154.505 259.41 153.86 258.882 153.326 258.188C152.793 257.495 152.382 256.631 152.094 255.596C151.806 254.562 151.662 253.372 151.662 252.028C151.662 250.834 151.822 249.724 152.142 248.7C152.462 247.666 152.921 246.77 153.518 246.012C154.116 245.255 154.846 244.663 155.71 244.236C156.585 243.799 157.566 243.58 158.654 243.58C159.646 243.58 160.494 243.751 161.198 244.092C161.913 244.423 162.548 244.887 163.102 245.484V236.508H165.95ZM181.297 250.204C181.297 249.543 181.201 248.94 181.009 248.396C180.827 247.842 180.555 247.367 180.193 246.972C179.841 246.567 179.409 246.258 178.897 246.044C178.385 245.82 177.803 245.708 177.153 245.708C175.787 245.708 174.705 246.108 173.905 246.908C173.115 247.698 172.625 248.796 172.433 250.204H181.297ZM183.601 257.804C183.249 258.231 182.827 258.604 182.337 258.924C181.846 259.234 181.318 259.49 180.753 259.692C180.198 259.895 179.622 260.044 179.025 260.14C178.427 260.247 177.835 260.3 177.249 260.3C176.129 260.3 175.094 260.114 174.145 259.74C173.206 259.356 172.39 258.802 171.697 258.076C171.014 257.34 170.481 256.434 170.097 255.356C169.713 254.279 169.521 253.042 169.521 251.644C169.521 250.514 169.691 249.458 170.033 248.476C170.385 247.495 170.886 246.647 171.537 245.932C172.187 245.207 172.982 244.642 173.921 244.236C174.859 243.82 175.915 243.612 177.089 243.612C178.059 243.612 178.955 243.778 179.777 244.108C180.609 244.428 181.323 244.898 181.921 245.516C182.529 246.124 183.003 246.882 183.345 247.788C183.686 248.684 183.857 249.708 183.857 250.86C183.857 251.308 183.809 251.607 183.713 251.756C183.617 251.906 183.435 251.98 183.169 251.98H172.337C172.369 253.004 172.507 253.895 172.753 254.652C173.009 255.41 173.361 256.044 173.809 256.556C174.257 257.058 174.79 257.436 175.409 257.692C176.027 257.938 176.721 258.06 177.489 258.06C178.203 258.06 178.817 257.98 179.329 257.82C179.851 257.65 180.299 257.468 180.673 257.276C181.046 257.084 181.355 256.908 181.601 256.748C181.857 256.578 182.075 256.492 182.257 256.492C182.491 256.492 182.673 256.583 182.801 256.764L183.601 257.804ZM81.4652 285.116C81.9772 284.007 82.6066 283.143 83.3532 282.524C84.0999 281.895 85.0119 281.58 86.0892 281.58C86.4306 281.58 86.7559 281.618 87.0652 281.692C87.3852 281.767 87.6679 281.884 87.9132 282.044L87.7052 284.172C87.6412 284.439 87.4812 284.572 87.2252 284.572C87.0759 284.572 86.8572 284.54 86.5692 284.476C86.2812 284.412 85.9559 284.38 85.5932 284.38C85.0812 284.38 84.6226 284.455 84.2172 284.604C83.8226 284.754 83.4652 284.978 83.1452 285.276C82.8359 285.564 82.5532 285.927 82.2972 286.364C82.0519 286.791 81.8279 287.282 81.6252 287.836V298.076H78.7612V281.868H80.3932C80.7026 281.868 80.9159 281.927 81.0332 282.044C81.1506 282.162 81.2306 282.364 81.2732 282.652L81.4652 285.116ZM100.609 288.204C100.609 287.543 100.513 286.94 100.321 286.396C100.14 285.842 99.8679 285.367 99.5052 284.972C99.1532 284.567 98.7212 284.258 98.2092 284.044C97.6972 283.82 97.1159 283.708 96.4652 283.708C95.0999 283.708 94.0172 284.108 93.2172 284.908C92.4279 285.698 91.9372 286.796 91.7452 288.204H100.609ZM102.913 295.804C102.561 296.231 102.14 296.604 101.649 296.924C101.159 297.234 100.631 297.49 100.065 297.692C99.5106 297.895 98.9346 298.044 98.3372 298.14C97.7399 298.247 97.1479 298.3 96.5612 298.3C95.4412 298.3 94.4066 298.114 93.4572 297.74C92.5186 297.356 91.7026 296.802 91.0092 296.076C90.3266 295.34 89.7932 294.434 89.4092 293.356C89.0252 292.279 88.8332 291.042 88.8332 289.644C88.8332 288.514 89.0039 287.458 89.3452 286.476C89.6972 285.495 90.1986 284.647 90.8492 283.932C91.4999 283.207 92.2946 282.642 93.2332 282.236C94.1719 281.82 95.2279 281.612 96.4012 281.612C97.3719 281.612 98.2679 281.778 99.0892 282.108C99.9212 282.428 100.636 282.898 101.233 283.516C101.841 284.124 102.316 284.882 102.657 285.788C102.999 286.684 103.169 287.708 103.169 288.86C103.169 289.308 103.121 289.607 103.025 289.756C102.929 289.906 102.748 289.98 102.481 289.98H91.6492C91.6812 291.004 91.8199 291.895 92.0652 292.652C92.3212 293.41 92.6732 294.044 93.1212 294.556C93.5692 295.058 94.1026 295.436 94.7212 295.692C95.3399 295.938 96.0332 296.06 96.8012 296.06C97.5159 296.06 98.1292 295.98 98.6412 295.82C99.1639 295.65 99.6119 295.468 99.9852 295.276C100.359 295.084 100.668 294.908 100.913 294.748C101.169 294.578 101.388 294.492 101.569 294.492C101.804 294.492 101.985 294.583 102.113 294.764L102.913 295.804ZM101.121 274.892L97.3932 279.02C97.2439 279.18 97.0946 279.298 96.9452 279.372C96.8066 279.436 96.6252 279.468 96.4012 279.468H94.7052L97.0732 275.596C97.2226 275.351 97.3826 275.175 97.5532 275.068C97.7346 274.951 97.9959 274.892 98.3372 274.892H101.121ZM117.227 285.724C116.694 285.01 116.118 284.514 115.499 284.236C114.881 283.948 114.187 283.804 113.419 283.804C111.915 283.804 110.758 284.343 109.947 285.42C109.137 286.498 108.731 288.034 108.731 290.028C108.731 291.084 108.822 291.991 109.003 292.748C109.185 293.495 109.451 294.114 109.803 294.604C110.155 295.084 110.587 295.436 111.099 295.66C111.611 295.884 112.193 295.996 112.843 295.996C113.782 295.996 114.598 295.783 115.291 295.356C115.995 294.93 116.641 294.327 117.227 293.548V285.724ZM120.075 274.508V298.076H118.379C117.974 298.076 117.718 297.879 117.611 297.484L117.355 295.516C116.662 296.348 115.873 297.02 114.987 297.532C114.102 298.044 113.078 298.3 111.915 298.3C110.987 298.3 110.145 298.124 109.387 297.772C108.63 297.41 107.985 296.882 107.451 296.188C106.918 295.495 106.507 294.631 106.219 293.596C105.931 292.562 105.787 291.372 105.787 290.028C105.787 288.834 105.947 287.724 106.267 286.7C106.587 285.666 107.046 284.77 107.643 284.012C108.241 283.255 108.971 282.663 109.835 282.236C110.71 281.799 111.691 281.58 112.779 281.58C113.771 281.58 114.619 281.751 115.323 282.092C116.038 282.423 116.673 282.887 117.227 283.484V274.508H120.075ZM137.902 281.868V298.076H136.206C135.8 298.076 135.544 297.879 135.438 297.484L135.214 295.74C134.51 296.519 133.72 297.148 132.846 297.628C131.971 298.098 130.968 298.332 129.838 298.332C128.952 298.332 128.168 298.188 127.486 297.9C126.814 297.602 126.248 297.186 125.79 296.652C125.331 296.119 124.984 295.474 124.75 294.716C124.526 293.959 124.414 293.122 124.414 292.204V281.868H127.262V292.204C127.262 293.431 127.539 294.38 128.094 295.052C128.659 295.724 129.518 296.06 130.67 296.06C131.512 296.06 132.296 295.863 133.022 295.468C133.758 295.063 134.435 294.508 135.054 293.804V281.868H137.902ZM153.697 284.748C153.612 284.866 153.527 284.956 153.441 285.02C153.356 285.084 153.239 285.116 153.089 285.116C152.929 285.116 152.753 285.052 152.561 284.924C152.369 284.786 152.129 284.636 151.841 284.476C151.564 284.316 151.217 284.172 150.801 284.044C150.396 283.906 149.895 283.836 149.297 283.836C148.497 283.836 147.793 283.98 147.185 284.268C146.577 284.546 146.065 284.951 145.649 285.484C145.244 286.018 144.935 286.663 144.721 287.42C144.519 288.178 144.417 289.026 144.417 289.964C144.417 290.946 144.529 291.82 144.753 292.588C144.977 293.346 145.292 293.986 145.697 294.508C146.113 295.02 146.609 295.415 147.185 295.692C147.772 295.959 148.428 296.092 149.153 296.092C149.847 296.092 150.417 296.012 150.865 295.852C151.313 295.682 151.681 295.495 151.969 295.292C152.268 295.09 152.513 294.908 152.705 294.748C152.908 294.578 153.105 294.492 153.297 294.492C153.532 294.492 153.713 294.583 153.841 294.764L154.641 295.804C154.289 296.242 153.889 296.615 153.441 296.924C152.993 297.234 152.508 297.495 151.985 297.708C151.473 297.911 150.935 298.06 150.369 298.156C149.804 298.252 149.228 298.3 148.641 298.3C147.628 298.3 146.684 298.114 145.809 297.74C144.945 297.367 144.193 296.828 143.553 296.124C142.913 295.41 142.412 294.535 142.049 293.5C141.687 292.466 141.505 291.287 141.505 289.964C141.505 288.759 141.671 287.644 142.001 286.62C142.343 285.596 142.833 284.716 143.473 283.98C144.124 283.234 144.919 282.652 145.857 282.236C146.807 281.82 147.895 281.612 149.121 281.612C150.263 281.612 151.265 281.799 152.129 282.172C153.004 282.535 153.777 283.052 154.45 283.724L153.697 284.748ZM172.739 298.076H169.891V284.252H161.539V293.98C161.539 294.663 161.704 295.17 162.035 295.5C162.365 295.831 162.792 295.996 163.315 295.996C163.613 295.996 163.869 295.959 164.083 295.884C164.307 295.799 164.499 295.708 164.659 295.612C164.819 295.516 164.952 295.431 165.059 295.356C165.176 295.271 165.277 295.228 165.363 295.228C165.512 295.228 165.645 295.319 165.763 295.5L166.595 296.86C166.104 297.319 165.512 297.682 164.819 297.948C164.125 298.204 163.411 298.332 162.675 298.332C161.395 298.332 160.408 297.975 159.715 297.26C159.032 296.546 158.691 295.516 158.691 294.172V284.252H156.739C156.568 284.252 156.424 284.204 156.307 284.108C156.189 284.002 156.131 283.842 156.131 283.628V282.492L158.787 282.14L159.443 277.148C159.475 276.988 159.544 276.86 159.651 276.764C159.768 276.658 159.917 276.604 160.099 276.604H161.539V282.188H172.739V298.076ZM173.443 276.668C173.443 276.946 173.384 277.207 173.267 277.452C173.16 277.687 173.011 277.895 172.819 278.076C172.637 278.258 172.424 278.402 172.179 278.508C171.933 278.615 171.672 278.668 171.395 278.668C171.117 278.668 170.856 278.615 170.611 278.508C170.376 278.402 170.168 278.258 169.987 278.076C169.805 277.895 169.661 277.687 169.555 277.452C169.448 277.207 169.395 276.946 169.395 276.668C169.395 276.391 169.448 276.13 169.555 275.884C169.661 275.628 169.805 275.41 169.987 275.228C170.168 275.036 170.376 274.887 170.611 274.78C170.856 274.674 171.117 274.62 171.395 274.62C171.672 274.62 171.933 274.674 172.179 274.78C172.424 274.887 172.637 275.036 172.819 275.228C173.011 275.41 173.16 275.628 173.267 275.884C173.384 276.13 173.443 276.391 173.443 276.668ZM184.249 281.612C185.433 281.612 186.5 281.81 187.449 282.204C188.399 282.599 189.209 283.159 189.881 283.884C190.553 284.61 191.065 285.49 191.417 286.524C191.78 287.548 191.962 288.695 191.962 289.964C191.962 291.244 191.78 292.396 191.417 293.42C191.065 294.444 190.553 295.319 189.881 296.044C189.209 296.77 188.399 297.33 187.449 297.724C186.5 298.108 185.433 298.3 184.249 298.3C183.055 298.3 181.977 298.108 181.017 297.724C180.068 297.33 179.257 296.77 178.585 296.044C177.913 295.319 177.396 294.444 177.033 293.42C176.681 292.396 176.505 291.244 176.505 289.964C176.505 288.695 176.681 287.548 177.033 286.524C177.396 285.49 177.913 284.61 178.585 283.884C179.257 283.159 180.068 282.599 181.017 282.204C181.977 281.81 183.055 281.612 184.249 281.612ZM184.249 296.076C185.849 296.076 187.044 295.543 187.833 294.476C188.623 293.399 189.017 291.9 189.017 289.98C189.017 288.05 188.623 286.546 187.833 285.468C187.044 284.391 185.849 283.852 184.249 283.852C183.439 283.852 182.729 283.991 182.121 284.268C181.524 284.546 181.023 284.946 180.617 285.468C180.223 285.991 179.924 286.636 179.721 287.404C179.529 288.162 179.433 289.02 179.433 289.98C179.433 291.9 179.828 293.399 180.617 294.476C181.417 295.543 182.628 296.076 184.249 296.076ZM198.262 284.22C198.614 283.826 198.987 283.468 199.382 283.148C199.776 282.828 200.192 282.556 200.63 282.332C201.078 282.098 201.547 281.922 202.038 281.804C202.539 281.676 203.078 281.612 203.654 281.612C204.539 281.612 205.318 281.762 205.99 282.06C206.672 282.348 207.238 282.764 207.686 283.308C208.144 283.842 208.491 284.487 208.726 285.244C208.96 286.002 209.078 286.839 209.078 287.756V298.076H206.214V287.756C206.214 286.53 205.931 285.58 205.366 284.908C204.811 284.226 203.963 283.884 202.822 283.884C201.979 283.884 201.19 284.087 200.454 284.492C199.728 284.898 199.056 285.447 198.438 286.14V298.076H195.574V281.868H197.286C197.691 281.868 197.942 282.066 198.038 282.46L198.262 284.22Z" fill="white"/>
<defs>
<clipPath id="clip0_356_80404">
<rect width="287" height="229.076" fill="white"/>
</clipPath>
</defs>
</svg>
