<svg width="287" height="359" viewBox="0 0 287 359" fill="none" xmlns="http://www.w3.org/2000/svg">
<g clip-path="url(#clip0_335_80987)">
<path d="M217.941 130.26C220.168 130.555 218.776 134.6 216.85 134.072C215.034 133.575 216.226 130.03 217.941 130.26Z" fill="white"/>
<path d="M222.566 132.54C224.437 132.999 222.822 136.251 221.521 135.849C220.098 135.409 220.915 132.417 222.566 132.54Z" fill="white"/>
<path d="M216.975 138.121C217.082 138.208 217.213 138.274 217.384 138.32C217.246 138.256 217.112 138.19 216.975 138.121Z" fill="white"/>
<path d="M203.606 123.168C193.091 121.078 183.479 111.848 178.284 105.984C176.364 103.815 177.55 100.403 180.411 99.8602L183.698 99.2388C183.698 99.2388 183.421 100.931 184.006 102.255L185.118 104.457C187.33 108.391 190.27 111.73 193.548 114.755C195.492 116.547 197.552 118.23 199.648 119.856L203.606 123.168Z" fill="white"/>
<path d="M246.176 118.426C246.176 118.426 243.702 116.589 236.764 119.099C233.589 120.17 230.625 121.926 228.053 123.992C226.369 125.346 223.657 128.333 221.573 129.313C221.57 128.999 221.552 128.701 221.518 128.426C221.478 128.097 221.411 127.802 221.317 127.566C220.254 124.867 217.356 124.465 214.498 124.468C214.501 124.411 214.507 124.357 214.513 124.303C216.016 122.288 217.451 120.23 218.721 118.065C219.288 117.099 219.708 116.068 220.299 115.123C224.955 106.708 229.796 110.982 229.796 110.982C229.105 111.449 228.425 111.772 227.74 112.315C224.489 114.891 222.676 118.855 220.455 122.23C223.063 120.583 224.51 117.802 226.643 115.669C234.589 106.798 237.148 112.204 237.148 112.204C236.971 112.258 236.795 112.315 236.621 112.378C232.206 113.923 228.876 117.316 226.021 120.858C225.512 121.491 224.997 122.161 224.534 122.827C226.676 120.825 228.745 118.665 231.219 117.039C232.831 115.98 234.628 115.323 236.444 114.632C243.214 112.059 243.964 115.184 246.173 118.429L246.176 118.426Z" fill="white"/>
<path d="M189.779 125.168C189.636 125.047 189.493 124.927 189.356 124.809C189.396 124.836 189.438 124.863 189.478 124.891C189.578 124.984 189.676 125.078 189.779 125.171V125.168Z" fill="white"/>
<path d="M227.569 132.064C227.231 129.961 225.354 128.42 222.965 130.206C222.831 130.311 222.691 130.426 222.551 130.549C222.764 130.444 222.968 130.356 223.169 130.287C224.943 129.672 226.213 130.399 226.612 131.675C226.92 132.664 226.701 133.982 225.777 135.252C224.522 136.99 220.446 138.238 218.362 138.374C217.935 138.407 217.627 138.383 217.387 138.32H217.38C217.213 138.275 217.079 138.205 216.975 138.115C216.756 137.943 216.634 137.68 216.494 137.352C216.351 137.029 216.198 136.628 215.912 136.175C215.138 134.935 213.782 133.246 213.057 131.714C213.042 131.684 213.027 131.653 213.011 131.617C212.996 131.581 212.984 131.545 212.963 131.509C212.947 131.479 212.932 131.442 212.914 131.406C212.765 131.044 212.655 130.7 212.597 130.368C212.308 128.67 212.844 127.331 214.148 126.712C214.172 126.703 214.197 126.691 214.221 126.679C214.605 126.51 215.056 126.399 215.574 126.363C217.585 126.212 219.193 127.376 220.001 129.011C220.241 129.491 220.412 130.013 220.503 130.558C220.549 130.83 220.574 131.104 220.574 131.379C220.613 134.094 219.297 133.445 218.797 135.068C218.322 136.6 219.495 136.616 220.208 135.216C220.717 134.211 221.128 132.037 221.113 130.323C221.113 130.009 221.091 129.708 221.058 129.436C221.021 129.111 220.951 128.815 220.857 128.58C219.797 125.88 216.899 125.476 214.038 125.482C213.139 125.482 212.234 125.527 211.403 125.548C211.11 125.557 210.821 125.56 210.55 125.566C210.498 125.566 210.455 125.536 210.434 125.488C210.053 124.553 209.629 123.642 209.178 122.764C207.558 119.554 203.813 107.926 203.639 107.386L203.633 107.368V107.362L202.698 104.086V104.071C202.43 101.875 202.113 99.2205 203.834 97.6006C204.523 96.9491 205.425 96.753 206.217 96.3397C206.305 96.2915 206.302 96.1618 206.208 96.1195L186.562 88.1681L186.529 88.1561C186.483 88.1561 186.44 88.1561 186.398 88.1561C186.349 88.1621 186.306 88.1319 186.285 88.0897C186.263 88.0414 186.221 88.0143 186.157 88.0173C186.132 88.1078 186.111 88.1983 186.087 88.2888C185.995 88.6719 185.913 89.052 185.837 89.432C185.413 91.5948 185.255 93.7395 185.508 95.9747C186.19 101.908 189.694 107.76 193.585 112.212C197.195 116.348 201.781 119.696 204.822 124.296C204.876 124.381 204.803 124.495 204.697 124.483C203.895 124.357 203.082 124.103 202.305 123.892C196.074 122.191 190.233 119.956 185.755 115.162H185.749L183.466 112.445C183.454 112.478 183.384 112.782 183.256 113.268C183.128 113.748 182.945 114.396 182.723 115.114C182.428 116.058 182.562 117.078 183.104 117.904C184.088 119.413 186.026 121.959 189.338 124.803L189.347 124.812C189.389 124.836 189.429 124.863 189.466 124.891H189.472C189.569 124.987 189.67 125.081 189.77 125.168C192.327 127.494 195.48 129.246 198.883 130.35C200.766 130.96 202.728 131.376 204.706 131.572C204.837 131.584 204.855 131.768 204.724 131.804L203.14 132.224L203.112 132.23C198.32 132.951 193.573 131.171 189.825 128.311C189.825 128.311 189.819 128.311 189.822 128.305C189.795 128.29 189.667 128.197 189.45 128.052C188.792 127.602 187.372 126.622 185.825 125.611C184.277 124.601 182.61 123.557 181.48 122.972C176.343 119.817 170.164 122.676 170.164 122.676C173.881 122.595 177.769 123.458 180.435 124.215C176.276 124.001 172.763 126.215 172.763 126.215C175.453 125.811 178.305 125.892 180.718 126.127C180.724 126.127 180.727 126.13 180.733 126.127C180.889 126.145 181.044 126.16 181.194 126.179C179.25 126.444 177.568 127.274 176.246 128.172C176.224 128.188 176.206 128.197 176.194 128.206C176.431 128.103 176.66 128.01 176.888 127.919C176.949 127.895 177.01 127.871 177.068 127.847C185.1 124.749 187.36 129.732 187.36 129.732C187.625 130.013 187.863 130.32 188.073 130.658C188.658 131.59 189.091 132.48 189.255 133.243C189.895 136.166 192.933 138.088 195.821 138.971C196.473 139.173 197.11 139.318 197.713 139.415C197.799 139.427 197.881 139.439 197.963 139.448C202.171 140.054 211.982 141.237 212.652 141.032C213.127 140.887 213.417 140.389 213.871 140.365C214.513 140.413 216.652 139.336 217.917 138.944H217.923H217.929C217.929 138.944 223.404 139.629 225.899 136.181C225.908 136.172 225.915 136.166 225.924 136.157C227.344 135.083 227.791 133.448 227.569 132.064ZM211.351 139.038C210.915 137.955 209.568 138.151 208.377 137.988C208.219 137.964 208.249 137.735 208.405 137.75L211.36 138.018C211.4 138.018 211.436 138.042 211.451 138.069L211.665 138.401C211.683 138.428 211.689 138.456 211.683 138.489L211.576 139.014C211.555 139.128 211.39 139.149 211.351 139.038Z" fill="white"/>
<g clip-path="url(#clip1_335_80987)">
<path d="M272.549 34.6501L229.996 28.035C228.479 22.4636 228.131 16.482 226.65 10.9166C224.529 2.96518 217.986 -0.99543 210.024 0.214172C181.367 4.57598 152.564 11.7763 123.841 17.2512L111.129 7.85789C105.309 3.92744 97.1027 5.25468 92.6413 10.63L67.2173 45.8623C61.6406 44.6557 56.2483 42.2064 50.6983 40.9726C42.763 39.208 36.2791 43.2681 33.6647 50.9903C22.4874 83.9964 14.7186 119.03 3.8477 152.235C2.15831 159.426 5.51626 166.27 12.2916 169.157L128.942 204.549C130.736 208.914 134.623 211.97 139.233 212.992L244.141 229.07C247.493 229.188 251.797 227.619 254.293 225.345C256.734 223.116 258.329 219.436 258.763 216.154L283.506 50.0039C284.258 42.9514 279.309 36.1825 272.549 34.6501ZM95.2468 12.6179C98.1824 9.11274 103.093 7.95743 107.31 9.5833C111.272 12.4188 115.228 15.2663 119.175 18.1199C115.35 18.8257 111.525 19.4954 107.703 20.1168C100.633 21.9176 96.1986 28.0984 96.7994 35.5249L102.332 64.8509C100.187 64.0697 97.9385 63.9731 95.7673 65.4603C91.8086 68.1721 92.7692 71.101 91.99 75.0556C90.7289 81.4324 86.5887 87.3055 81.0477 90.5783C77.9306 92.4214 75.3073 92.4063 73.6745 96.2795C72.0803 100.056 73.8172 102.964 76.5 105.519C80.1316 108.973 84.4026 112.161 87.9093 115.684C88.1115 115.886 88.2989 116.107 88.4566 116.345L87.3799 130.562C87.478 131.21 89.2864 132.073 89.798 132.571C96.0439 126.842 102.337 121.153 107.884 114.686C108.961 113.431 109.981 112.134 111.01 110.84L117.705 146.329L117.735 146.482L123.868 178.994C119.264 175.606 114.66 172.219 110.059 168.828C109.496 168.415 108.934 168.002 108.375 167.589C106.986 166.566 105.6 165.546 104.214 164.524H104.211C102.049 162.925 99.8837 161.329 97.7214 159.731H97.7184C90.9936 154.766 84.2718 149.792 77.5589 144.808C76.042 143.683 74.5281 142.558 73.0112 141.43C72.3033 140.905 71.5984 140.377 70.8906 139.852C70.266 139.388 69.6414 138.923 69.0198 138.459C68.8234 138.314 68.6271 138.169 68.4338 138.021C65.983 136.199 63.5322 134.371 61.0874 132.543C59.279 131.195 57.4707 129.844 55.6623 128.489C54.4667 127.596 53.271 126.7 52.0783 125.805C51.2337 125.171 50.389 124.538 49.5443 123.901C49.1219 123.587 48.6996 123.268 48.2772 122.951C43.4322 119.313 38.596 115.669 33.7658 112.016C31.5381 108.9 30.6369 104.843 32.0556 101.16C32.8289 99.1572 34.2952 97.4257 35.5117 95.652C54.8295 67.5808 75.7981 40.6076 95.2468 12.6179ZM107.34 91.3867V91.3928L108.396 96.9913C103.599 92.5421 102.278 85.3991 105.098 79.514L106.124 84.9526L107.34 91.3867ZM104.369 75.8852C98.8576 83.7038 100.639 94.5721 108.348 100.162C108.592 100.34 108.842 100.509 109.092 100.671L109.69 103.845C108.741 103.371 107.819 102.813 106.93 102.171C98.1259 95.7878 96.0915 83.375 102.385 74.4493C102.831 73.8189 103.304 73.2216 103.807 72.6606L104.405 75.8369C104.393 75.852 104.381 75.8701 104.369 75.8852ZM90.9966 111.977L89.6165 113.938L87.7338 112.203L98.7862 96.5238L100.193 98.9309L92.3796 110.016L94.3099 111.419L101.737 100.883C103.387 102.451 105.029 104.02 106.974 105.232C107.935 105.833 109.27 106.231 110.234 106.735L110.413 107.685C110.243 107.845 110.059 107.986 109.993 108.074C105.065 114.475 99.7112 120.073 93.8043 125.524C93.1232 126.151 90.7676 128.513 90.1876 128.791C90.1192 128.824 89.9407 128.845 89.9229 128.785C90.024 128.631 90.0537 128.45 90.0686 128.272C90.1965 126.734 90.6367 116.632 90.9877 116.137L92.9299 113.38L90.9966 111.977ZM97.6738 93.9598L85.976 110.559L77.7046 103.263C76.3156 102.017 75.3847 100.484 75.6137 98.5418C76.0658 94.7079 79.5576 94.3429 82.2552 92.7502C88.3911 89.1304 92.9596 82.6752 94.3843 75.6227C95.0535 72.3197 94.2118 68.2354 98.3579 66.9836C100.062 66.4708 101.496 67.053 102.9 67.8493L103.242 69.6712C96.728 75.7826 94.5568 85.5469 97.6738 93.9598ZM71.8304 144.73L71.7234 145.032L69.3499 144.16L69.7038 143.173C70.4117 143.692 71.1196 144.211 71.8304 144.73ZM67.0567 141.231L60.1654 138.697C59.7787 138.555 58.8537 136.199 58.4819 134.929C61.3372 137.035 64.1955 139.134 67.0567 141.231ZM13.5378 166.074C8.59462 164.177 5.8345 158.651 6.88739 153.499L37.5283 49.7324C44.0835 38.5112 55.927 46.8065 65.1651 48.8486L29.9974 97.7726C26.5265 104.243 27.8827 111.688 33.4743 116.36C40.6036 121.705 47.7567 127.017 54.9247 132.305C54.8712 132.48 54.8325 132.673 54.8147 132.887C54.6927 134.281 55.8586 134.353 56.2631 135.023C56.6766 135.711 56.9056 137.72 57.3428 138.625C57.7205 139.412 58.6277 140.434 59.404 140.821C61.7001 141.961 64.6922 142.549 67.0627 143.632C67.1668 144.513 67.3066 145.442 68.0918 145.991C68.7402 146.443 70.8697 147.224 71.646 147.258C72.1487 147.279 73.4871 146.724 73.6388 146.298L73.7072 146.105C78.1002 149.321 82.4932 152.533 86.8921 155.743L46.7187 140.956C46.6354 140.923 46.5968 140.097 46.5284 139.87C45.6182 136.809 41.4186 136.332 40.0118 139.225C38.2391 142.86 42.6113 146.087 45.5766 143.487L45.7729 143.511L70.8281 165.863C71.191 166.056 71.5003 165.896 71.8542 165.812C74.885 165.076 79.4267 163.272 82.4337 162.108C83.1326 161.836 84.6049 161.492 84.7417 160.678C84.9261 159.562 82.0441 157.296 81.6247 156.208L93.5307 160.59C103.932 168.183 114.333 175.775 124.701 183.407L127.946 200.598C89.8218 189.057 51.5697 177.92 13.5378 166.074ZM81.5503 159.942L71.5211 163.477L50.7756 144.851L77.2287 154.588C78.5255 156.364 80.1078 157.909 81.4581 159.637C81.5414 159.743 81.7139 159.676 81.5503 159.942ZM44.3423 141.309C44.1043 141.982 43.3697 142.329 42.7064 142.084C42.0432 141.84 41.7011 141.098 41.9421 140.425C42.183 139.753 42.9146 139.406 43.5779 139.65C44.2412 139.894 44.5832 140.637 44.3423 141.309ZM129.733 185.742C129.68 186.074 129.641 186.535 129.57 186.997C129.466 187.69 129.29 188.381 128.886 188.647C128.907 188.119 128.898 187.6 128.802 187.072C128.758 186.825 128.713 186.574 128.666 186.327C128.401 184.861 128.133 183.398 127.866 181.932C125.632 169.694 123.33 157.468 120.998 145.249C120.831 144.374 120.665 143.499 120.498 142.624C120.469 142.468 120.439 142.311 120.409 142.154C119.695 138.419 118.978 134.685 118.259 130.951C118.024 129.735 117.792 128.519 117.557 127.304C117.152 125.201 116.745 123.099 116.34 120.996C115.496 116.613 114.648 112.234 113.8 107.851C113.631 106.97 113.461 106.092 113.292 105.211C113.116 104.3 112.938 103.386 112.762 102.472C112.575 101.498 112.385 100.524 112.197 99.5493C111.947 98.2522 111.697 96.9521 111.448 95.652C111.26 94.6868 111.073 93.7185 110.888 92.7502C110.258 89.4804 109.627 86.2075 109.003 82.9346C108.747 81.6104 108.494 80.2892 108.241 78.968C108.039 77.9062 107.837 76.8444 107.635 75.7796C107.447 74.8083 107.263 73.834 107.078 72.8627C106.903 71.9457 106.73 71.0256 106.555 70.1086C106.341 68.9775 106.127 67.8493 105.913 66.7181C103.929 56.2269 101.975 45.7296 100.071 35.2232C99.4494 29.9022 103.01 24.8677 108 23.4349L122.607 20.6055L127.181 19.7186L212.906 3.11299C225.749 3.82789 223.961 18.3129 226.436 27.5705L167.411 18.509C160.148 18.3733 154.262 23.0307 152.757 30.2159C152.365 32.7286 151.975 35.2413 151.591 37.7571C151.404 38.9697 151.219 40.1793 151.035 41.3919C150.291 46.2605 149.56 51.129 148.84 56.0006C148.099 56.3234 147.27 56.5164 146.544 56.8241C143.326 58.1785 135.465 61.2553 136.336 65.8373C136.714 67.8252 140.099 70.3499 141.538 71.8853C143.07 73.5142 144.501 75.2577 145.741 77.131C145.467 79.0374 145.191 80.9438 144.917 82.8502C136.375 85.6525 127.898 91.8573 129.046 101.935C129.168 103 129.519 103.902 129.733 104.855C130.899 110.016 132.012 116.665 133.642 121.545C134.457 123.989 136.342 125.599 138.647 126.55C138.299 128.96 137.951 131.37 137.6 133.78C135.188 150.389 132.714 166.988 130.081 183.558C129.965 184.285 129.849 185.015 129.733 185.742ZM148.456 58.5767C147.698 63.6986 146.948 68.8206 146.205 73.9456C145.003 72.383 143.677 70.8899 142.282 69.445C141.446 68.5763 138.757 66.4466 138.534 65.4542C137.999 63.0592 143.724 60.4952 145.423 59.7501C146.455 59.2976 147.493 58.9477 148.456 58.5767ZM138.555 111.953C139.242 112.104 140.001 112.188 140.717 112.137C140.694 112.3 140.67 112.466 140.646 112.629C140.515 113.555 140.384 114.481 140.25 115.404C140.069 116.677 139.885 117.947 139.703 119.217C139.468 120.864 139.23 122.508 138.992 124.152C137.541 123.379 136.072 122.239 135.795 121.051L133.246 110.131C133.71 110.517 135.828 111.157 136.077 111.464C136.723 112.261 136.378 116.007 138.255 115.211C139.51 114.68 138.751 112.93 138.555 111.953ZM137.675 109.44C138.046 107.775 139.48 106.128 140.744 105.003C141.101 104.686 141.479 104.379 141.871 104.083C141.687 105.377 141.5 106.668 141.315 107.962C141.277 108.228 141.238 108.496 141.199 108.762C141.146 109.142 141.092 109.522 141.036 109.905C139.893 109.917 138.76 109.772 137.675 109.44ZM135.426 108.677C133.978 107.881 132.767 106.958 132.148 105.347C131.491 103.628 131.203 101.724 131.173 99.8871L131.337 98.6745L132.107 101.972C132.339 102.97 134.097 102.94 134.341 101.869L132.693 94.7049C132.618 93.9628 133.963 92.355 134.448 91.7397C134.674 92.6597 134.84 94.6898 136.211 94.3942C138.049 93.996 136.262 91.061 136.375 89.8785C137.166 89.3054 137.898 88.5754 138.817 88.2134L140.337 94.735C140.512 95.4831 142.484 95.5284 142.466 94.1921L140.821 86.9676L143.311 85.8968L143.944 88.6086C143.959 88.675 144.001 88.7383 144.06 88.7956L143.418 93.2751C143.171 95.0095 142.921 96.741 142.674 98.4754C142.612 98.9008 142.549 99.3261 142.49 99.7514C142.425 100.207 142.359 100.659 142.294 101.115C139.328 102.937 136.785 105.356 135.426 108.677ZM255.506 216.169C254.62 221.933 249.849 225.74 244.147 225.758L183.056 216.371L152.379 211.659L139.522 209.683C137.113 209.059 135.069 207.747 133.597 205.961C132.58 204.727 131.833 203.27 131.426 201.654C131.235 200.902 131.116 200.118 131.078 199.307C131.571 195.937 132.068 192.571 132.562 189.202C132.728 188.052 132.898 186.9 133.065 185.751C135.42 169.679 137.761 153.601 140.122 137.524C140.616 134.145 141.113 130.767 141.613 127.391C141.717 126.661 141.824 125.934 141.934 125.207C142.258 122.996 142.582 120.788 142.912 118.58C143.132 117.087 143.35 115.594 143.573 114.104C143.605 113.871 143.638 113.642 143.674 113.41C143.706 113.187 143.739 112.964 143.775 112.74C143.817 112.463 143.855 112.188 143.897 111.911C143.95 111.552 144.004 111.193 144.057 110.834C144.123 110.387 144.191 109.944 144.257 109.498C144.289 109.271 144.325 109.048 144.358 108.822C144.697 106.538 145.033 104.258 145.375 101.978C145.443 101.528 145.509 101.076 145.577 100.626C145.616 100.352 145.658 100.08 145.699 99.8057C145.726 99.6338 145.75 99.4588 145.777 99.2869C145.985 97.8902 146.193 96.4906 146.404 95.094C146.942 91.4833 147.487 87.8756 148.031 84.2679C148.343 82.2107 148.653 80.1565 148.965 78.1023C150.092 70.6757 151.228 63.2522 152.382 55.8347C152.576 54.5769 152.772 53.319 152.968 52.0611C153.102 51.1984 153.236 50.3357 153.37 49.476C153.513 48.5681 153.655 47.6571 153.798 46.7491C153.953 45.7567 154.107 44.7613 154.265 43.7689C154.452 42.5623 154.643 41.3587 154.833 40.1521C155.446 36.2579 156.065 32.3636 156.689 28.4724C158.39 25.0306 161.522 22.349 165.401 21.9237C167.507 21.6944 169.699 22.2132 171.81 22.4938C205.283 26.9159 238.553 33.3319 272.01 37.9109C276.433 38.9335 279.711 42.8187 280.237 47.3645C272.697 103.685 263.543 159.879 255.506 216.169Z" fill="white"/>
<path d="M44.3425 141.309C44.1046 141.982 43.37 142.329 42.7067 142.084C42.0434 141.84 41.7014 141.098 41.9423 140.425C42.1832 139.753 42.9149 139.406 43.5782 139.65C44.2414 139.894 44.5835 140.636 44.3425 141.309Z" fill="#E30613"/>
<path d="M71.8307 144.73L71.7236 145.031L69.3501 144.16L69.7041 143.173C70.4119 143.692 71.1198 144.211 71.8307 144.73Z" fill="#E30613"/>
<path d="M81.5506 159.942L71.5214 163.477L50.7759 144.851L77.229 154.588C78.5257 156.364 80.1081 157.909 81.4584 159.637C81.5417 159.743 81.7142 159.676 81.5506 159.942Z" fill="#E30613"/>
<path d="M67.057 141.231L60.1656 138.697C59.779 138.555 58.854 136.199 58.4822 134.929C61.3375 137.035 64.1957 139.134 67.057 141.231Z" fill="#E30613"/>
<path d="M148.457 58.5767C147.698 63.6986 146.949 68.8206 146.205 73.9455C145.003 72.383 143.677 70.8899 142.282 69.445C141.446 68.5762 138.758 66.4466 138.534 65.4542C137.999 63.0591 143.725 60.4951 145.423 59.7501C146.455 59.2976 147.493 58.9477 148.457 58.5767Z" fill="#E30613"/>
<path d="M140.718 112.137C140.694 112.3 140.67 112.466 140.646 112.628C140.515 113.555 140.384 114.481 140.251 115.404C140.069 116.677 139.885 117.947 139.703 119.216C139.468 120.863 139.23 122.507 138.992 124.151C137.541 123.379 136.072 122.239 135.795 121.05L133.246 110.131C133.71 110.517 135.828 111.156 136.078 111.464C136.723 112.26 136.378 116.007 138.255 115.211C139.51 114.68 138.752 112.93 138.555 111.953C139.242 112.104 140.001 112.188 140.718 112.137Z" fill="#E30613"/>
<path d="M141.872 104.083C141.687 105.377 141.5 106.668 141.315 107.962C141.277 108.228 141.238 108.496 141.199 108.762C141.146 109.142 141.092 109.522 141.036 109.905C139.894 109.917 138.761 109.772 137.675 109.44C138.047 107.775 139.48 106.128 140.744 105.003C141.101 104.686 141.479 104.379 141.872 104.083Z" fill="#E30613"/>
<path d="M144.061 88.7958L143.418 93.2752C143.171 95.0097 142.922 96.7411 142.675 98.4756C142.612 98.9009 142.55 99.3263 142.49 99.7516C142.425 100.207 142.359 100.66 142.294 101.115C139.329 102.937 136.786 105.356 135.426 108.677C133.978 107.881 132.767 106.958 132.149 105.347C131.491 103.628 131.203 101.724 131.173 99.8873L131.337 98.6747L132.107 101.972C132.339 102.97 134.097 102.94 134.341 101.869L132.693 94.705C132.619 93.963 133.963 92.3552 134.448 91.7399C134.674 92.6599 134.84 94.69 136.212 94.3943C138.05 93.9962 136.262 91.0612 136.375 89.8787C137.166 89.3056 137.898 88.5756 138.817 88.2136L140.337 94.7352C140.512 95.4833 142.484 95.5285 142.466 94.1922L140.822 86.9678L143.311 85.897L143.945 88.6088C143.96 88.6751 144.001 88.7385 144.061 88.7958Z" fill="#E30613"/>
<path d="M108.396 96.9915C103.599 92.5423 102.278 85.3993 105.098 79.5142L106.124 84.9528L107.34 91.387V91.393L108.396 96.9915Z" fill="#E30613"/>
<path d="M109.69 103.845C108.741 103.371 107.819 102.813 106.93 102.171C98.1262 95.7879 96.0918 83.3751 102.385 74.4494C102.831 73.819 103.304 73.2217 103.807 72.6606L104.405 75.837C104.393 75.8521 104.381 75.8702 104.369 75.8852C98.8578 83.7039 100.639 94.5722 108.349 100.162C108.593 100.34 108.842 100.509 109.092 100.672L109.69 103.845Z" fill="#E30613"/>
<path d="M110.413 107.685C110.243 107.845 110.059 107.986 109.993 108.074C105.065 114.475 99.7114 120.073 93.8045 125.524C93.1234 126.152 90.7678 128.514 90.1878 128.791C90.1194 128.824 89.941 128.845 89.9231 128.785C90.0243 128.631 90.054 128.45 90.0689 128.272C90.1968 126.734 90.6369 116.632 90.9879 116.137L92.9301 113.38L90.9968 111.977L89.6168 113.938L87.7341 112.204L98.7864 96.5239L100.193 98.9311L92.3799 110.017L94.3102 111.419L101.737 100.883C103.388 102.451 105.029 104.02 106.975 105.232C107.935 105.833 109.271 106.231 110.234 106.735L110.413 107.685Z" fill="#E30613"/>
<path d="M97.674 93.9597L85.9763 110.559L77.7048 103.262C76.3159 102.017 75.3849 100.484 75.6139 98.5417C76.066 94.7078 79.5578 94.3428 82.2555 92.7501C88.3914 89.1303 92.9598 82.6751 94.3845 75.6226C95.0537 72.3196 94.212 68.2353 98.3581 66.9834C100.062 66.4707 101.496 67.0528 102.9 67.8492L103.242 69.6711C96.7282 75.7825 94.557 85.5468 97.674 93.9597Z" fill="#E30613"/>
<path d="M127.946 200.598C89.822 189.057 51.57 177.92 13.5381 166.075C8.59486 164.177 5.83475 158.651 6.88764 153.499L37.5285 49.7326C44.0838 38.5114 55.9273 46.8066 65.1653 48.8488L29.9977 97.7728C26.5267 104.243 27.883 111.688 33.4746 116.36C40.6039 121.705 47.757 127.017 54.9249 132.305C54.8714 132.48 54.8327 132.673 54.8149 132.887C54.693 134.281 55.8589 134.353 56.2634 135.023C56.6768 135.711 56.9058 137.72 57.343 138.625C57.7208 139.412 58.6279 140.435 59.4042 140.821C61.7003 141.961 64.6924 142.549 67.0629 143.632C67.167 144.513 67.3068 145.442 68.092 145.991C68.7404 146.443 70.87 147.225 71.6463 147.258C72.1489 147.279 73.4873 146.724 73.639 146.299L73.7074 146.106C78.1004 149.321 82.4934 152.534 86.8923 155.743L46.719 140.956C46.6357 140.923 46.597 140.097 46.5286 139.871C45.6185 136.809 41.4188 136.332 40.012 139.225C38.2393 142.86 42.6115 146.087 45.5768 143.487L45.7731 143.511L70.8283 165.863C71.1912 166.056 71.5005 165.897 71.8545 165.812C74.8852 165.076 79.4269 163.272 82.4339 162.108C83.1329 161.836 84.6051 161.493 84.7419 160.678C84.9263 159.562 82.0443 157.297 81.6249 156.208L93.5309 160.591C103.932 168.183 114.333 175.776 124.701 183.407L127.946 200.598Z" fill="#E30613"/>
<path d="M123.868 178.994C119.264 175.606 114.66 172.219 110.059 168.828C109.497 168.415 108.935 168.002 108.375 167.589C106.986 166.566 105.6 165.547 104.214 164.524H104.211C102.049 162.925 99.8839 161.33 97.7216 159.731H97.7187C90.9938 154.766 84.272 149.792 77.5591 144.808C76.0422 143.683 74.5283 142.558 73.0115 141.43C72.3036 140.905 71.5987 140.377 70.8908 139.852C70.2662 139.388 69.6416 138.923 69.02 138.459C68.8237 138.314 68.6274 138.169 68.4341 138.021C65.9833 136.199 63.5325 134.371 61.0876 132.543C59.2793 131.195 57.4709 129.844 55.6626 128.489C54.4669 127.596 53.2713 126.701 52.0786 125.805C51.2339 125.171 50.3892 124.538 49.5445 123.901C49.1222 123.588 48.6998 123.268 48.2775 122.951C43.4324 119.313 38.5963 115.669 33.766 112.016C31.5383 108.9 30.6371 104.843 32.0558 101.16C32.8292 99.1572 34.2955 97.4258 35.5119 95.6521C54.8298 67.5809 75.7983 40.6077 95.247 12.618C98.1826 9.11283 103.093 7.95752 107.311 9.58339C111.272 12.4189 115.228 15.2664 119.175 18.12C115.35 18.8258 111.525 19.4955 107.703 20.1169C100.633 21.9177 96.1988 28.0984 96.7996 35.525L102.332 64.851C100.187 64.0698 97.9387 63.9732 95.7675 65.4603C91.8088 68.1721 92.7695 71.1011 91.9902 75.0557C90.7291 81.4325 86.589 87.3056 81.0479 90.5784C77.9309 92.4215 75.3076 92.4064 73.6747 96.2795C72.0805 100.056 73.8175 102.964 76.5003 105.519C80.1318 108.973 84.4029 112.161 87.9095 115.684C88.1118 115.887 88.2992 116.107 88.4568 116.345L87.3801 130.562C87.4783 131.21 89.2866 132.073 89.7982 132.571C96.0441 126.842 102.338 121.153 107.885 114.686C108.961 113.431 109.982 112.134 111.011 110.84L117.706 146.329L117.735 146.483L123.868 178.994Z" fill="#E30613"/>
<path d="M226.436 27.5703L167.412 18.5088C160.148 18.3731 154.262 23.0305 152.757 30.2157C152.365 32.7284 151.975 35.2411 151.592 37.7569C151.404 38.9695 151.22 40.1791 151.035 41.3917C150.292 46.2603 149.56 51.1288 148.84 56.0004C148.1 56.3232 147.27 56.5162 146.544 56.8239C143.326 58.1783 135.465 61.2551 136.337 65.8371C136.714 67.825 140.099 70.3497 141.539 71.8851C143.07 73.514 144.501 75.2575 145.741 77.1307C145.468 79.0372 145.191 80.9436 144.917 82.85C136.375 85.6523 127.899 91.8571 129.047 101.935C129.169 103 129.52 103.902 129.734 104.855C130.9 110.016 132.012 116.664 133.642 121.545C134.457 123.988 136.342 125.599 138.648 126.549C138.3 128.96 137.952 131.37 137.601 133.78C135.188 150.389 132.714 166.988 130.082 183.558C129.966 184.285 129.85 185.015 129.734 185.741C129.68 186.073 129.641 186.535 129.57 186.996C129.466 187.69 129.29 188.381 128.886 188.646C128.907 188.118 128.898 187.6 128.803 187.072C128.758 186.824 128.713 186.574 128.666 186.327C128.401 184.861 128.134 183.398 127.866 181.932C125.632 169.694 123.33 157.468 120.998 145.248C120.832 144.374 120.665 143.499 120.499 142.624C120.469 142.467 120.439 142.31 120.409 142.154C119.696 138.419 118.979 134.685 118.259 130.95C118.024 129.735 117.792 128.519 117.557 127.304C117.153 125.201 116.745 123.099 116.341 120.996C115.496 116.613 114.648 112.233 113.801 107.85C113.631 106.97 113.461 106.092 113.292 105.211C113.116 104.3 112.938 103.386 112.763 102.472C112.575 101.498 112.385 100.523 112.197 99.5491C111.948 98.252 111.698 96.9519 111.448 95.6518C111.261 94.6866 111.073 93.7183 110.889 92.75C110.258 89.4801 109.628 86.2073 109.003 82.9344C108.747 81.6102 108.494 80.289 108.242 78.9678C108.039 77.906 107.837 76.8442 107.635 75.7794C107.448 74.8081 107.263 73.8338 107.079 72.8625C106.903 71.9455 106.731 71.0254 106.555 70.1084C106.341 68.9772 106.127 67.8491 105.913 66.7179C103.929 56.2267 101.975 45.7294 100.071 35.223C99.4497 29.902 103.01 24.8675 108.001 23.4347L122.607 20.6053L127.182 19.7184L212.906 3.11279C225.749 3.82769 223.961 18.3127 226.436 27.5703Z" fill="#E30613"/>
<path d="M272.011 37.9109C238.553 33.3319 205.283 26.9159 171.811 22.4937C169.699 22.2132 167.507 21.6944 165.401 21.9236C161.523 22.3489 158.391 25.0306 156.689 28.4724C156.065 32.3636 155.446 36.2578 154.833 40.1521C154.643 41.3587 154.453 42.5623 154.265 43.7688C154.108 44.7613 153.953 45.7567 153.798 46.7491C153.656 47.6571 153.513 48.568 153.37 49.476C153.236 50.3357 153.102 51.1984 152.969 52.0611C152.772 53.319 152.576 54.5768 152.383 55.8347C151.229 63.2522 150.092 70.6757 148.965 78.1022C148.653 80.1564 148.344 82.2106 148.031 84.2679C147.487 87.8755 146.943 91.4832 146.404 95.0939C146.193 96.4906 145.985 97.8902 145.777 99.2868C145.75 99.4588 145.726 99.6337 145.699 99.8057C145.658 100.08 145.616 100.352 145.578 100.626C145.509 101.076 145.444 101.528 145.375 101.978C145.033 104.258 144.697 106.538 144.358 108.822C144.325 109.048 144.29 109.271 144.257 109.498C144.192 109.944 144.123 110.387 144.058 110.834C144.004 111.193 143.951 111.552 143.897 111.911C143.855 112.188 143.817 112.463 143.775 112.74C143.739 112.963 143.707 113.187 143.674 113.41C143.638 113.642 143.606 113.871 143.573 114.104C143.35 115.594 143.133 117.087 142.913 118.58C142.582 120.788 142.258 122.996 141.934 125.207C141.824 125.934 141.717 126.661 141.613 127.391C141.113 130.767 140.616 134.145 140.123 137.524C137.761 153.601 135.42 169.679 133.065 185.751C132.898 186.9 132.729 188.052 132.562 189.202C132.068 192.571 131.572 195.937 131.078 199.307C131.117 200.118 131.236 200.902 131.426 201.654C131.833 203.27 132.58 204.727 133.597 205.961C135.069 207.747 137.113 209.059 139.522 209.683L152.38 211.659L183.056 216.371L244.148 225.758C249.849 225.74 254.62 221.933 255.506 216.169C263.543 159.879 272.698 103.685 280.237 47.3645C279.711 42.8187 276.433 38.9335 272.011 37.9109ZM179.532 99.86L182.741 99.2386C182.741 99.2386 182.47 100.931 183.041 102.255L184.127 104.457C186.286 108.391 189.156 111.733 192.357 114.755C194.254 116.547 196.265 118.23 198.311 119.856L202.175 123.168C191.908 121.078 182.527 111.847 177.456 105.983C175.579 103.815 176.739 100.403 179.532 99.86ZM223.961 136.157C223.961 136.157 223.946 136.172 223.94 136.178C221.502 139.626 216.157 138.941 216.157 138.941H216.151V138.944C214.917 139.336 212.829 140.413 212.201 140.365C211.758 140.389 211.475 140.887 211.011 141.032C210.357 141.234 200.78 140.051 196.672 139.445C196.595 139.436 196.515 139.424 196.431 139.412C195.843 139.315 195.221 139.17 194.584 138.968C191.765 138.085 188.8 136.163 188.175 133.24C188.014 132.477 187.592 131.584 187.021 130.652C186.816 130.317 186.584 130.009 186.325 129.729C186.325 129.729 184.118 124.746 176.278 127.844C176.218 127.868 176.159 127.892 176.099 127.916C175.879 128.007 175.653 128.1 175.421 128.203C175.436 128.191 175.454 128.182 175.475 128.169C176.763 127.271 178.404 126.441 180.302 126.176C180.156 126.157 180.005 126.142 179.853 126.124C179.847 126.127 179.841 126.124 179.838 126.124C177.482 125.886 174.699 125.808 172.072 126.212C172.072 126.212 175.502 123.995 179.561 124.212C176.959 123.455 173.164 122.592 169.535 122.673C169.535 122.673 175.567 119.814 180.582 122.969C181.688 123.551 183.312 124.598 184.823 125.608C186.334 126.619 187.723 127.599 188.362 128.049C188.573 128.197 188.701 128.29 188.728 128.302C188.728 128.308 188.731 128.308 188.731 128.308C192.389 131.171 197.023 132.951 201.702 132.23L201.729 132.224L203.275 131.804C203.403 131.768 203.385 131.584 203.257 131.572C201.327 131.373 199.412 130.96 197.574 130.35C194.251 129.246 191.176 127.494 188.678 125.168C188.669 125.159 188.657 125.15 188.648 125.141C188.517 125.029 188.392 124.921 188.267 124.809L188.258 124.803C185.028 121.959 183.134 119.413 182.176 117.904C181.643 117.081 181.513 116.058 181.801 115.117C182.018 114.399 182.197 113.751 182.322 113.271C182.447 112.789 182.515 112.481 182.527 112.451L184.755 115.165H184.758C189.133 119.959 194.834 122.194 200.917 123.895C201.675 124.106 202.469 124.36 203.251 124.486C203.356 124.498 203.427 124.384 203.373 124.299C200.405 119.696 195.929 116.348 192.404 112.212C188.603 107.763 185.186 101.911 184.52 95.9778C184.27 93.7426 184.424 91.5979 184.838 89.4351C184.912 89.052 184.992 88.6749 185.082 88.2918C185.105 88.2013 185.123 88.1108 185.147 88.0203C185.21 88.0143 185.251 88.0445 185.272 88.0927C185.293 88.135 185.335 88.1651 185.382 88.1591C185.424 88.1591 185.462 88.1621 185.51 88.1591L185.54 88.1712L204.721 96.1226C204.813 96.1648 204.816 96.2945 204.73 96.3428C203.956 96.753 203.076 96.9521 202.404 97.6036C200.726 99.2205 201.036 101.878 201.297 104.071V104.089L202.208 107.365V107.371L202.216 107.386C202.386 107.929 206.041 119.554 207.621 122.767C208.064 123.645 208.477 124.553 208.849 125.488C208.87 125.536 208.912 125.566 208.962 125.566C209.227 125.563 209.506 125.557 209.792 125.551C210.607 125.527 211.487 125.485 212.368 125.482C215.157 125.479 217.986 125.883 219.021 128.583C219.113 128.818 219.182 129.114 219.217 129.439C219.25 129.714 219.271 130.013 219.271 130.326C219.286 132.04 218.884 134.217 218.388 135.219C217.692 136.622 216.543 136.606 217.01 135.071C217.498 133.448 218.78 134.097 218.741 131.382C218.738 131.107 218.718 130.833 218.673 130.562C218.584 130.016 218.417 129.494 218.182 129.014C217.397 127.379 215.824 126.215 213.864 126.366C213.358 126.405 212.915 126.513 212.543 126.685C212.516 126.697 212.493 126.709 212.472 126.716C211.196 127.334 210.672 128.673 210.955 130.371C211.011 130.703 211.118 131.047 211.264 131.409C211.285 131.448 211.297 131.485 211.312 131.515C211.333 131.551 211.344 131.587 211.359 131.623C211.374 131.656 211.389 131.687 211.404 131.72C212.112 133.252 213.435 134.938 214.191 136.178C214.47 136.631 214.622 137.032 214.759 137.355C214.899 137.683 215.018 137.946 215.229 138.118C215.232 138.121 215.238 138.124 215.241 138.127C215.369 138.193 215.497 138.26 215.624 138.32C215.502 138.287 215.398 138.241 215.312 138.181C215.398 138.241 215.502 138.29 215.624 138.323H215.63C215.862 138.386 216.166 138.407 216.582 138.377C218.614 138.238 222.593 136.993 223.819 135.255C224.723 133.982 224.934 132.664 224.633 131.675C224.244 130.399 223.004 129.672 221.273 130.287C221.076 130.356 220.877 130.444 220.669 130.549C220.806 130.426 220.945 130.311 221.076 130.206C223.408 128.417 225.237 129.961 225.57 132.064C225.787 133.448 225.35 135.083 223.964 136.157H223.961ZM220.684 132.54C222.51 132.999 220.93 136.251 219.66 135.846C218.272 135.406 219.069 132.414 220.684 132.54ZM215.104 134.076C213.331 133.578 214.494 130.034 216.169 130.26C218.34 130.555 216.984 134.601 215.104 134.076ZM234.544 119.099C232.997 119.633 231.498 120.342 230.073 121.171C228.649 122.004 227.295 122.957 226.04 123.992C224.398 125.346 221.751 128.329 219.717 129.313C219.714 128.996 219.696 128.697 219.663 128.426C219.622 128.094 219.559 127.801 219.467 127.566C218.429 124.866 215.601 124.465 212.811 124.468C212.814 124.411 212.82 124.357 212.829 124.302C214.292 122.287 215.696 120.23 216.936 118.064C217.486 117.102 217.9 116.067 218.474 115.123C223.021 106.707 227.745 110.982 227.745 110.982C227.066 111.446 226.406 111.772 225.737 112.315C222.563 114.891 220.794 118.852 218.625 122.23C221.171 120.583 222.584 117.802 224.666 115.669C232.423 106.798 234.918 112.203 234.918 112.203C234.746 112.258 234.576 112.315 234.407 112.375C230.097 113.923 226.843 117.313 224.059 120.855C223.563 121.488 223.06 122.158 222.608 122.824C224.699 120.821 226.718 118.662 229.134 117.036C230.707 115.977 232.462 115.319 234.234 114.629C240.84 112.056 241.575 115.178 243.728 118.423C243.639 118.36 241.191 116.631 234.544 119.099Z" fill="#E30613"/>
<ellipse cx="202.5" cy="117.5" rx="41.5" ry="37.5" fill="#E30613"/>
</g>
<path d="M216.099 135.747C215.939 135.747 215.779 135.724 215.623 135.681C214.701 135.423 214.226 134.531 214.382 133.355C214.558 132.04 215.483 130.679 216.727 130.679C216.802 130.679 216.874 130.682 216.949 130.692C217.995 130.834 218.594 131.66 218.516 132.849C218.425 134.221 217.412 135.747 216.099 135.747Z" fill="#E30613"/>
<path d="M216.731 131.092C216.786 131.092 216.842 131.095 216.9 131.102C219.135 131.406 217.959 135.334 216.102 135.334C215.981 135.334 215.858 135.318 215.734 135.282C213.851 134.753 214.991 131.092 216.731 131.092ZM216.731 130.266C215.265 130.266 214.18 131.809 213.981 133.299C213.799 134.674 214.398 135.764 215.516 136.078C215.708 136.131 215.907 136.16 216.102 136.16C217.663 136.16 218.822 134.462 218.927 132.88C219.018 131.475 218.265 130.458 217.008 130.286C216.916 130.273 216.822 130.266 216.731 130.266Z" fill="white"/>
<path d="M220.969 137.673C220.845 137.673 220.722 137.653 220.601 137.617C219.816 137.369 219.409 136.53 219.568 135.479C219.734 134.366 220.552 133.183 221.735 133.183C221.78 133.183 221.826 133.183 221.875 133.19C221.898 133.19 221.92 133.196 221.94 133.2C222.81 133.418 223.256 134.138 223.139 135.123C222.995 136.325 222.034 137.673 220.966 137.673H220.969Z" fill="#E30613"/>
<path d="M221.735 133.596C221.771 133.596 221.806 133.596 221.842 133.599C223.725 134.072 222.302 137.26 220.966 137.26C220.884 137.26 220.8 137.247 220.722 137.22C219.233 136.748 220.037 133.596 221.735 133.596ZM221.735 132.77C220.308 132.77 219.363 134.102 219.164 135.417C218.975 136.679 219.49 137.696 220.48 138.01C220.637 138.06 220.803 138.086 220.969 138.086C222.021 138.086 223.338 136.89 223.546 135.175C223.689 133.979 223.113 133.071 222.041 132.8C221.999 132.79 221.953 132.78 221.907 132.777C221.849 132.773 221.793 132.77 221.735 132.77Z" fill="white"/>
<path d="M216.297 140.343C216.262 140.343 216.226 140.339 216.193 140.329C216.011 140.28 215.858 140.21 215.724 140.118C215.701 140.105 215.659 140.072 215.617 140.039C215.604 140.029 215.591 140.015 215.578 140.006C215.424 139.85 215.418 139.602 215.561 139.441C215.643 139.348 215.753 139.302 215.867 139.302C215.929 139.302 215.994 139.318 216.053 139.348C216.056 139.348 216.066 139.355 216.066 139.355C216.203 139.424 216.337 139.497 216.473 139.559C216.666 139.649 216.757 139.873 216.685 140.075C216.627 140.24 216.47 140.346 216.304 140.346L216.297 140.343Z" fill="white"/>
<path d="M215.867 139.712C215.867 139.712 215.877 139.712 215.88 139.718C216.021 139.791 216.161 139.864 216.301 139.93C216.167 139.893 216.053 139.844 215.959 139.778C215.926 139.758 215.897 139.735 215.867 139.712ZM215.867 138.886C215.639 138.886 215.415 138.982 215.255 139.167C214.972 139.494 214.985 139.989 215.291 140.297C215.317 140.323 215.343 140.346 215.369 140.366C215.402 140.392 215.454 140.432 215.516 140.472C215.682 140.584 215.871 140.667 216.089 140.729C216.161 140.749 216.229 140.759 216.301 140.759C216.636 140.759 216.946 140.548 217.066 140.214C217.21 139.811 217.027 139.365 216.643 139.183C216.512 139.12 216.382 139.054 216.249 138.985C216.249 138.985 216.223 138.972 216.206 138.965C216.099 138.915 215.981 138.889 215.864 138.889L215.867 138.886Z" fill="white"/>
<path d="M201.569 123.747C201.543 123.747 201.517 123.747 201.488 123.74C189.968 121.395 179.439 110.858 174.188 104.786C173.126 103.56 172.803 101.904 173.328 100.361C173.852 98.8152 175.11 97.7084 176.693 97.4011L180.208 96.7205C180.234 96.7172 180.26 96.7139 180.283 96.7139C180.387 96.7139 180.491 96.7535 180.566 96.8295C180.661 96.922 180.706 97.0575 180.684 97.1929C180.684 97.2095 180.416 98.9474 180.983 100.266L182.163 102.658C184.254 106.467 187.18 110.125 191.089 113.819C192.926 115.553 194.988 117.321 197.585 119.383L201.83 123.02C201.973 123.142 202.015 123.344 201.934 123.516C201.866 123.661 201.722 123.75 201.569 123.75V123.747Z" fill="#E30613"/>
<path d="M180.283 97.1236C180.283 97.1236 179.986 98.9772 180.612 100.428L181.801 102.84C184.166 107.148 187.31 110.809 190.815 114.119C192.894 116.082 195.096 117.926 197.337 119.706L201.569 123.334C190.323 121.044 180.048 110.934 174.494 104.511C172.438 102.136 173.709 98.399 176.768 97.8042L180.283 97.1236ZM180.283 96.2976C180.231 96.2976 180.182 96.3009 180.13 96.3108L176.615 96.9915C174.885 97.3285 173.513 98.5377 172.94 100.223C172.37 101.908 172.722 103.715 173.881 105.053C179.165 111.166 189.77 121.771 201.41 124.14C201.462 124.15 201.517 124.157 201.569 124.157C201.875 124.157 202.165 123.978 202.302 123.691C202.465 123.351 202.377 122.944 202.094 122.7L197.862 119.072C197.862 119.072 197.846 119.059 197.839 119.052C195.252 116.997 193.197 115.236 191.369 113.511C187.496 109.851 184.599 106.233 182.521 102.45L181.351 100.074C180.843 98.8747 181.084 97.2657 181.088 97.2492C181.13 96.9849 181.042 96.7139 180.85 96.5256C180.697 96.3736 180.491 96.291 180.283 96.291V96.2976Z" fill="white"/>
<path d="M220.783 130.477C220.708 130.477 220.634 130.457 220.568 130.414C220.451 130.338 220.379 130.209 220.376 130.067C220.376 129.734 220.353 129.42 220.321 129.142C220.278 128.795 220.213 128.511 220.132 128.303C219.07 125.541 216.06 125.171 213.251 125.171H213.219C213.108 125.171 213.001 125.124 212.922 125.042C212.844 124.959 212.805 124.85 212.812 124.735C212.815 124.655 212.825 124.583 212.834 124.507C212.844 124.444 212.87 124.381 212.909 124.328C214.792 121.735 216.213 119.577 217.386 117.532C217.653 117.063 217.9 116.561 218.135 116.078C218.425 115.49 218.721 114.879 219.073 114.301C220.526 111.608 222.976 108.38 226.318 108.38C228.39 108.38 229.785 109.622 229.843 109.675C229.938 109.761 229.987 109.883 229.977 110.012C229.967 110.141 229.902 110.257 229.798 110.326C229.511 110.524 229.224 110.699 228.947 110.868C228.491 111.149 228.061 111.413 227.625 111.766C225.077 113.835 223.341 116.792 221.663 119.65C221.51 119.914 221.354 120.178 221.194 120.446C222.038 119.597 222.784 118.632 223.559 117.631C224.292 116.683 225.051 115.702 225.908 114.826C229.211 111.046 232.091 109.12 234.45 109.12C236.808 109.12 237.756 111.063 237.795 111.145C237.844 111.254 237.848 111.38 237.799 111.489C237.75 111.598 237.659 111.681 237.548 111.717C237.365 111.776 237.183 111.836 237.001 111.902C233.248 113.25 230.224 115.963 227.836 118.665C228.798 117.809 229.798 116.993 230.866 116.273C232.537 115.15 234.411 114.42 236.225 113.716L236.531 113.597C238.375 112.88 239.884 112.53 241.138 112.53C244.102 112.53 245.311 114.509 246.591 116.6C246.852 117.026 247.122 117.469 247.416 117.909C247.526 118.074 247.504 118.295 247.364 118.434C247.285 118.513 247.181 118.553 247.077 118.553C246.995 118.553 246.914 118.53 246.842 118.477C246.806 118.45 245.927 117.843 243.829 117.843C241.946 117.843 239.701 118.322 237.154 119.267C235.541 119.822 233.919 120.575 232.319 121.507C230.811 122.389 229.345 123.413 227.957 124.56C227.39 125.025 226.7 125.686 225.967 126.387C224.351 127.93 222.52 129.681 220.95 130.441C220.894 130.467 220.836 130.48 220.774 130.48L220.783 130.477Z" fill="#E30613"/>
<path d="M226.322 108.796C228.263 108.796 229.576 109.986 229.576 109.986C228.833 110.494 228.11 110.851 227.377 111.446C223.901 114.268 221.963 118.606 219.588 122.306C222.376 120.502 223.924 117.456 226.204 115.12C230.032 110.742 232.694 109.536 234.456 109.536C236.606 109.536 237.434 111.324 237.434 111.324C237.245 111.383 237.059 111.446 236.874 111.512C232.153 113.207 228.589 116.921 225.54 120.8C224.996 121.493 224.445 122.227 223.95 122.957C226.24 120.763 228.452 118.398 231.098 116.617C232.821 115.457 234.743 114.737 236.685 113.98C238.555 113.25 239.998 112.939 241.144 112.939C244.438 112.939 245.334 115.5 247.083 118.137C247.025 118.097 246.08 117.426 243.839 117.426C242.259 117.426 240.034 117.757 237.023 118.877C235.329 119.461 233.687 120.238 232.127 121.147C230.566 122.058 229.084 123.102 227.709 124.236C225.911 125.719 223.012 128.987 220.783 130.064C220.78 129.717 220.761 129.39 220.725 129.093C220.679 128.729 220.611 128.409 220.51 128.151C219.376 125.204 216.297 124.758 213.251 124.758C213.242 124.758 213.229 124.758 213.219 124.758C213.222 124.695 213.229 124.636 213.238 124.576C214.841 122.369 216.379 120.116 217.737 117.743C218.34 116.689 218.793 115.556 219.422 114.522C221.891 109.949 224.413 108.796 226.322 108.796ZM226.322 107.97C224.367 107.97 221.464 109.034 218.718 114.106C218.363 114.694 218.063 115.305 217.773 115.896C217.529 116.395 217.298 116.868 217.034 117.327C215.871 119.356 214.457 121.503 212.584 124.084C212.509 124.189 212.457 124.312 212.437 124.437C212.421 124.526 212.414 124.616 212.408 124.708C212.395 124.936 212.476 125.158 212.629 125.323C212.782 125.488 212.997 125.58 213.219 125.58H213.251C217.083 125.58 218.966 126.41 219.751 128.448C219.822 128.63 219.878 128.878 219.917 129.195C219.949 129.456 219.966 129.753 219.969 130.071C219.969 130.351 220.116 130.612 220.353 130.764C220.484 130.847 220.634 130.89 220.783 130.89C220.904 130.89 221.021 130.864 221.135 130.811C222.764 130.024 224.621 128.25 226.256 126.684C226.983 125.99 227.67 125.333 228.224 124.877C229.596 123.747 231.045 122.732 232.534 121.863C234.111 120.945 235.711 120.205 237.287 119.66C237.294 119.66 237.3 119.656 237.304 119.653C239.806 118.725 242.001 118.256 243.839 118.256C245.806 118.256 246.611 118.811 246.617 118.814C246.758 118.913 246.92 118.963 247.083 118.963C247.292 118.963 247.497 118.883 247.653 118.725C247.934 118.447 247.979 118.004 247.758 117.674C247.471 117.241 247.204 116.802 246.943 116.379C245.601 114.185 244.334 112.11 241.144 112.11C239.838 112.11 238.284 112.467 236.391 113.207L236.085 113.326C234.87 113.798 233.626 114.281 232.43 114.889C234.303 113.461 235.854 112.751 237.144 112.289C237.317 112.226 237.496 112.166 237.675 112.11C237.9 112.041 238.082 111.872 238.18 111.654C238.274 111.436 238.271 111.185 238.173 110.97C238.131 110.878 237.098 108.707 234.46 108.707C233.218 108.707 231.85 109.203 230.368 110.184C230.381 110.138 230.387 110.088 230.391 110.039C230.407 109.784 230.309 109.536 230.12 109.368C230.058 109.312 228.55 107.97 226.325 107.97H226.322ZM224.849 115.388C225.742 114.162 226.732 113.029 227.885 112.09C228.061 111.948 228.237 111.819 228.416 111.697C227.514 112.493 226.579 113.445 225.608 114.555C225.344 114.826 225.093 115.104 224.846 115.388H224.849Z" fill="white"/>
<path d="M186.782 125.937C186.684 125.937 186.583 125.901 186.505 125.828C186.505 125.828 186.489 125.812 186.482 125.805C186.339 125.683 186.199 125.564 186.062 125.438C185.903 125.296 185.88 125.052 186.007 124.88C186.085 124.774 186.209 124.715 186.333 124.715C186.407 124.715 186.486 124.735 186.554 124.781C186.593 124.807 186.629 124.83 186.665 124.857C186.691 124.87 186.714 124.887 186.737 124.906C186.763 124.93 186.785 124.953 186.811 124.979C186.899 125.065 186.974 125.138 187.049 125.207C187.049 125.207 187.069 125.224 187.072 125.23C187.228 125.389 187.232 125.647 187.079 125.808C186.997 125.894 186.893 125.937 186.785 125.937H186.782Z" fill="white"/>
<path d="M186.333 125.131C186.378 125.161 186.421 125.191 186.46 125.22H186.466C186.492 125.244 186.515 125.27 186.541 125.296C186.616 125.369 186.694 125.442 186.772 125.514C186.766 125.508 186.756 125.501 186.75 125.495C186.606 125.372 186.469 125.253 186.333 125.131ZM186.772 125.514C186.772 125.514 186.779 125.521 186.782 125.524L186.772 125.514ZM186.333 124.305C186.085 124.305 185.841 124.421 185.681 124.632C185.424 124.976 185.473 125.465 185.792 125.749C185.929 125.871 186.065 125.99 186.209 126.112C186.215 126.119 186.222 126.122 186.228 126.129C186.385 126.274 186.583 126.347 186.779 126.347C186.994 126.347 187.206 126.261 187.365 126.093C187.672 125.769 187.668 125.257 187.356 124.94C187.346 124.93 187.333 124.92 187.323 124.906C187.251 124.84 187.183 124.774 187.114 124.708L187.105 124.698C187.072 124.662 187.036 124.629 187.004 124.599C186.965 124.566 186.922 124.533 186.88 124.51C186.847 124.487 186.811 124.464 186.776 124.441C186.639 124.351 186.486 124.308 186.336 124.308L186.333 124.305Z" fill="white"/>
<path d="M210.912 143.34C208.915 143.34 199.579 142.177 195.48 141.572C195.415 141.565 195.337 141.552 195.256 141.542L195.216 141.536C194.513 141.42 193.812 141.252 193.128 141.037C189.177 139.798 186.447 137.336 185.831 134.455C185.678 133.722 185.267 132.81 184.619 131.749C184.41 131.406 184.169 131.089 183.906 130.801C183.876 130.768 183.85 130.728 183.831 130.689C183.778 130.57 182.459 127.755 178.315 127.755C176.836 127.755 175.165 128.118 173.344 128.838L173.152 128.918C172.914 129.014 172.669 129.116 172.422 129.228C172.37 129.251 172.314 129.261 172.259 129.261C172.119 129.261 171.985 129.189 171.91 129.06C171.806 128.881 171.845 128.653 172.005 128.525C172.034 128.501 172.067 128.482 172.103 128.459C173.096 127.765 174.119 127.22 175.158 126.83C174.416 126.787 173.689 126.767 172.986 126.767C171.435 126.767 169.975 126.869 168.653 127.074C168.633 127.074 168.61 127.077 168.591 127.077C168.425 127.077 168.272 126.972 168.21 126.81C168.141 126.628 168.21 126.42 168.373 126.318C168.493 126.242 170.891 124.712 174.145 124.206C171.822 123.661 169.047 123.199 166.34 123.199C166.167 123.199 165.991 123.199 165.818 123.205C165.818 123.205 165.812 123.205 165.809 123.205C165.62 123.205 165.457 123.073 165.411 122.885C165.369 122.693 165.46 122.498 165.636 122.416C165.75 122.359 168.503 121.074 171.972 121.074C174.272 121.074 176.341 121.642 178.12 122.759C179.123 123.284 180.654 124.239 182.775 125.657C184.332 126.698 185.756 127.699 186.522 128.237L186.851 128.468C186.932 128.525 186.987 128.568 187.017 128.584C187.053 128.604 187.085 128.627 187.111 128.657C190.718 131.468 194.839 133.015 198.728 133.015C199.484 133.015 200.24 132.959 200.976 132.843L201.279 132.76C199.621 132.509 197.982 132.113 196.389 131.584C192.623 130.332 189.203 128.34 186.495 125.819C186.476 125.802 186.463 125.789 186.45 125.776C186.411 125.743 186.355 125.686 186.297 125.634C186.297 125.634 186.206 125.544 186.202 125.541C186.17 125.518 186.137 125.492 186.098 125.468C186.082 125.459 186.056 125.439 186.043 125.425C182.511 122.316 180.429 119.551 179.306 117.78C178.661 116.782 178.491 115.543 178.849 114.38C179.107 113.531 179.299 112.821 179.416 112.375C179.495 112.074 179.55 111.839 179.589 111.684C179.625 111.536 179.651 111.446 179.657 111.43C179.71 111.294 179.83 111.199 179.973 111.175C179.996 111.172 180.016 111.169 180.039 111.169C180.159 111.169 180.273 111.222 180.351 111.317L182.765 114.258C182.765 114.258 182.775 114.268 182.782 114.275C187.678 119.64 194.093 121.986 200.292 123.717C200.461 123.764 200.637 123.813 200.81 123.866C201.256 123.995 201.712 124.124 202.165 124.229C200.243 121.414 197.764 118.973 195.363 116.61C193.737 115.011 192.056 113.356 190.555 111.592C187.668 108.215 182.697 101.382 181.821 93.585C181.563 91.2722 181.677 88.8867 182.176 86.2931C182.26 85.8569 182.348 85.4439 182.446 85.0243C182.459 84.9682 182.508 84.7699 182.521 84.7171C182.563 84.5486 182.707 84.4296 182.876 84.4131C182.889 84.4131 182.918 84.4131 182.931 84.4131C183.075 84.4131 183.208 84.4693 183.306 84.5651C183.358 84.5651 183.42 84.575 183.462 84.5948L204.508 93.3173C204.71 93.4098 204.83 93.5916 204.84 93.7997C204.846 94.0079 204.742 94.1995 204.563 94.3019C204.267 94.4605 203.97 94.5861 203.68 94.7083C203.097 94.9561 202.543 95.1907 202.1 95.6202C200.403 97.2557 200.742 100.084 201.012 102.357L201.989 105.876C201.993 105.889 201.999 105.906 202.002 105.912C202.045 106.044 206.163 119.168 207.899 122.7C208.375 123.641 208.808 124.596 209.189 125.535C209.391 125.535 209.906 125.521 209.906 125.521C210.157 125.515 210.42 125.505 210.688 125.495C211.352 125.472 212.043 125.449 212.737 125.445H212.773C215.854 125.445 219.171 125.881 220.406 129.106C220.52 129.397 220.604 129.757 220.647 130.147C220.686 130.487 220.708 130.827 220.708 131.164C220.725 133.094 220.282 135.532 219.699 136.709C219.285 137.544 218.685 138.063 218.132 138.063C217.871 138.063 217.646 137.948 217.496 137.743C217.33 137.515 217.187 137.069 217.438 136.243C217.682 135.43 218.092 135.057 218.457 134.729C218.93 134.303 219.34 133.933 219.317 132.328C219.317 132.033 219.291 131.753 219.249 131.492C219.158 130.937 218.992 130.405 218.747 129.912C217.939 128.231 216.447 127.226 214.753 127.226C214.643 127.226 214.529 127.229 214.411 127.239C213.91 127.279 213.47 127.385 213.102 127.553C213.066 127.57 213.036 127.583 213.01 127.593C211.812 128.184 211.31 129.443 211.593 131.148C211.645 131.459 211.746 131.796 211.899 132.179C211.913 132.209 211.926 132.235 211.939 132.261C211.961 132.308 211.984 132.354 212 132.403L212.053 132.519C212.548 133.593 213.352 134.769 214.059 135.81C214.437 136.365 214.792 136.887 215.082 137.359C215.362 137.809 215.532 138.219 215.669 138.549L215.734 138.704C215.871 139.028 215.975 139.253 216.125 139.378C216.141 139.391 216.161 139.408 216.174 139.421C216.245 139.467 216.314 139.5 216.389 139.524C216.398 139.524 216.408 139.527 216.418 139.53C216.565 139.57 216.747 139.59 216.972 139.59C217.079 139.59 217.197 139.586 217.324 139.576C219.555 139.424 223.732 138.05 224.947 136.329C225.787 135.146 226.1 133.814 225.781 132.767C225.494 131.832 224.771 131.297 223.79 131.297C223.425 131.297 223.035 131.369 222.624 131.518C222.432 131.587 222.23 131.673 222.012 131.786C221.953 131.815 221.891 131.829 221.829 131.829C221.699 131.829 221.569 131.763 221.49 131.647C221.376 131.475 221.402 131.244 221.555 131.108C221.712 130.966 221.872 130.837 222.018 130.715C222.842 130.084 223.653 129.764 224.442 129.764C226.022 129.764 227.289 131.065 227.595 133.008C227.823 134.462 227.446 136.494 225.716 137.858C223.706 140.66 220.083 141.08 218.099 141.08C217.526 141.08 217.105 141.043 216.929 141.027C216.431 141.192 215.796 141.46 215.18 141.717C213.903 142.256 213.092 142.58 212.6 142.58C212.587 142.58 212.571 142.58 212.558 142.58C212.424 142.596 212.274 142.715 212.105 142.851C211.903 143.013 211.671 143.194 211.372 143.29C211.274 143.32 211.137 143.333 210.919 143.333L210.912 143.34Z" fill="#E30613"/>
<path d="M182.932 84.8359C182.99 84.8359 183.029 84.869 183.052 84.9152C183.072 84.9582 183.114 84.9879 183.16 84.9879C183.163 84.9879 183.169 84.9879 183.173 84.9879C183.202 84.9879 183.231 84.9879 183.264 84.9879C183.28 84.9879 183.296 84.9879 183.313 84.9879L183.345 85.0011L204.355 93.7104C204.456 93.7567 204.459 93.8988 204.364 93.9516C203.517 94.401 202.553 94.619 201.817 95.3327C199.979 97.1036 200.318 100.014 200.605 102.416V102.436L201.602 106.024V106.031L201.612 106.048C201.797 106.642 205.801 119.376 207.531 122.895C208.016 123.856 208.469 124.85 208.876 125.875C208.899 125.928 208.945 125.961 209 125.961C209.29 125.957 209.596 125.951 209.909 125.944C210.802 125.918 211.766 125.871 212.73 125.868C212.74 125.868 212.753 125.868 212.763 125.868C215.809 125.868 218.887 126.317 220.018 129.265C220.119 129.522 220.194 129.846 220.233 130.203C220.269 130.504 220.292 130.831 220.292 131.174C220.308 133.051 219.868 135.436 219.324 136.533C218.953 137.28 218.467 137.66 218.122 137.66C217.757 137.66 217.552 137.237 217.816 136.371C218.35 134.594 219.754 135.304 219.712 132.331C219.708 132.03 219.686 131.729 219.637 131.432C219.539 130.834 219.357 130.262 219.099 129.737C218.288 128.052 216.715 126.823 214.74 126.823C214.617 126.823 214.493 126.826 214.369 126.836C213.815 126.879 213.33 126.998 212.922 127.186C212.893 127.2 212.867 127.213 212.844 127.219C211.447 127.897 210.873 129.364 211.183 131.224C211.245 131.587 211.362 131.964 211.522 132.36C211.544 132.403 211.557 132.443 211.574 132.476C211.597 132.516 211.61 132.555 211.626 132.595C211.642 132.631 211.658 132.664 211.675 132.701C212.45 134.379 213.9 136.226 214.727 137.584C215.034 138.08 215.2 138.519 215.35 138.873C215.503 139.233 215.633 139.52 215.864 139.709C215.868 139.712 215.874 139.715 215.877 139.718C215.9 139.742 215.926 139.761 215.955 139.778C216.05 139.844 216.164 139.897 216.298 139.933H216.304C216.48 139.983 216.698 140.006 216.965 140.006C217.083 140.006 217.21 140.003 217.347 139.993C219.572 139.841 223.93 138.476 225.273 136.573C226.263 135.179 226.494 133.735 226.165 132.651C225.843 131.601 224.996 130.887 223.787 130.887C223.39 130.887 222.953 130.963 222.484 131.131C222.269 131.207 222.051 131.303 221.823 131.419C221.973 131.283 222.126 131.158 222.269 131.042C223.054 130.438 223.79 130.183 224.439 130.183C225.901 130.183 226.937 131.485 227.191 133.077C227.429 134.594 226.95 136.385 225.432 137.561C225.426 137.568 225.416 137.577 225.41 137.584C223.497 140.287 219.956 140.67 218.096 140.67C217.356 140.67 216.884 140.61 216.884 140.61H216.877V140.614C215.555 141.033 213.336 142.173 212.597 142.173C212.58 142.173 212.564 142.173 212.548 142.173C212.062 142.2 211.753 142.745 211.245 142.903C211.189 142.92 211.075 142.93 210.912 142.93C208.945 142.93 199.693 141.78 195.539 141.166C195.454 141.156 195.366 141.142 195.275 141.129C194.63 141.023 193.949 140.865 193.252 140.644C190.164 139.675 186.916 137.571 186.232 134.369C186.056 133.533 185.593 132.555 184.968 131.534C184.743 131.168 184.489 130.831 184.205 130.523C184.205 130.523 182.798 127.348 178.319 127.348C176.927 127.348 175.237 127.656 173.201 128.458C173.135 128.485 173.07 128.511 173.005 128.538C172.764 128.637 172.516 128.739 172.262 128.852C172.279 128.838 172.298 128.828 172.321 128.815C173.732 127.831 175.53 126.922 177.608 126.631C177.449 126.612 177.283 126.595 177.116 126.575C177.116 126.575 177.113 126.575 177.11 126.575C177.107 126.575 177.103 126.575 177.1 126.575C175.82 126.446 174.422 126.36 172.989 126.36C171.555 126.36 170.044 126.45 168.594 126.671C168.594 126.671 172.008 124.464 176.178 124.464C176.383 124.464 176.589 124.471 176.797 124.48C174.074 123.687 170.155 122.789 166.343 122.789C166.167 122.789 165.991 122.789 165.815 122.795C165.815 122.795 168.558 121.494 171.979 121.494C173.865 121.494 175.96 121.89 177.915 123.119C179.126 123.757 180.905 124.903 182.56 126.01C184.215 127.117 185.736 128.191 186.437 128.683C186.668 128.845 186.808 128.947 186.838 128.961C186.838 128.967 186.841 128.967 186.841 128.967C190.245 131.63 194.418 133.438 198.741 133.438C199.507 133.438 200.279 133.381 201.048 133.262L201.077 133.256L202.771 132.797C202.911 132.757 202.892 132.555 202.752 132.542C200.637 132.324 198.539 131.871 196.526 131.204C192.887 129.995 189.519 128.075 186.782 125.528C186.772 125.518 186.759 125.508 186.75 125.498C186.678 125.435 186.61 125.366 186.541 125.3C186.515 125.273 186.492 125.247 186.466 125.224H186.46C186.421 125.194 186.378 125.164 186.333 125.135L186.323 125.128C182.785 122.012 180.71 119.224 179.661 117.572C179.078 116.67 178.934 115.55 179.25 114.519C179.488 113.733 179.684 113.022 179.82 112.497C179.957 111.968 180.032 111.631 180.045 111.598L182.485 114.572H182.488C187.281 119.822 193.526 122.27 200.188 124.134C201.019 124.365 201.888 124.642 202.745 124.781C202.752 124.781 202.755 124.781 202.762 124.781C202.866 124.781 202.934 124.662 202.879 124.576C199.628 119.534 194.725 115.867 190.864 111.337C186.701 106.464 182.958 100.054 182.228 93.5551C181.954 91.1069 182.124 88.7577 182.576 86.3888C182.658 85.9692 182.746 85.5562 182.844 85.1366C182.87 85.0375 182.889 84.9383 182.915 84.8392C182.922 84.8392 182.928 84.8392 182.932 84.8392M209.961 140.796C210.017 140.796 210.075 140.756 210.091 140.69L210.206 140.115C210.212 140.075 210.206 140.046 210.186 140.016L209.958 139.652C209.942 139.626 209.903 139.603 209.86 139.599L206.697 139.305C206.697 139.305 206.687 139.305 206.681 139.305C206.528 139.305 206.505 139.54 206.671 139.566C207.945 139.745 209.381 139.53 209.85 140.716C209.87 140.772 209.916 140.796 209.961 140.796ZM182.932 84.0099C182.902 84.0099 182.87 84.0099 182.837 84.0132C182.498 84.0463 182.215 84.2908 182.127 84.6245C182.111 84.6839 182.098 84.7401 182.085 84.7996C182.075 84.8392 182.065 84.8822 182.055 84.9218C182.055 84.9284 182.052 84.9383 182.049 84.9449C181.948 85.3712 181.86 85.7908 181.775 86.2269C181.27 88.8668 181.153 91.2919 181.417 93.6443C182.306 101.551 187.33 108.459 190.245 111.876C191.76 113.653 193.448 115.312 195.08 116.921C197.197 119.006 199.377 121.15 201.172 123.555C201.09 123.532 201.009 123.509 200.927 123.486C200.751 123.436 200.576 123.387 200.403 123.337C194.262 121.619 187.916 119.3 183.085 114.01C183.081 114.004 183.075 114 183.072 113.994L180.671 111.07C180.514 110.878 180.283 110.772 180.045 110.772C180.003 110.772 179.96 110.776 179.918 110.782C179.635 110.828 179.397 111.02 179.289 111.291C179.263 111.36 179.25 111.407 179.205 111.605C179.169 111.757 179.11 111.991 179.035 112.289C178.921 112.731 178.729 113.435 178.475 114.278C178.084 115.553 178.27 116.921 178.983 118.024C180.117 119.812 182.225 122.61 185.792 125.752C185.818 125.776 185.844 125.795 185.873 125.815C185.877 125.815 185.89 125.825 185.893 125.828C185.916 125.842 185.935 125.855 185.955 125.871L185.968 125.885C185.968 125.885 185.978 125.895 185.981 125.898L186.03 125.944C186.088 126 186.147 126.06 186.209 126.113C186.215 126.119 186.225 126.126 186.232 126.136C188.981 128.696 192.454 130.718 196.272 131.987C196.972 132.218 197.683 132.427 198.396 132.605C194.705 132.516 190.812 131.016 187.388 128.349C187.343 128.306 187.294 128.27 187.238 128.237C187.209 128.217 187.157 128.181 187.092 128.135L186.899 127.999L186.756 127.9C185.991 127.362 184.564 126.36 183.006 125.316C180.895 123.902 179.358 122.947 178.315 122.396C176.478 121.246 174.344 120.664 171.979 120.664C168.418 120.664 165.587 121.986 165.47 122.042C165.121 122.207 164.936 122.597 165.02 122.977C165.105 123.35 165.437 123.615 165.812 123.615C165.818 123.615 165.825 123.615 165.832 123.615C166.001 123.611 166.17 123.608 166.343 123.608C168.327 123.608 170.35 123.863 172.204 124.213C169.855 124.884 168.255 125.904 168.158 125.967C167.832 126.179 167.698 126.588 167.832 126.955C167.952 127.282 168.259 127.49 168.594 127.49C168.633 127.49 168.676 127.49 168.718 127.48C170.021 127.279 171.461 127.176 172.989 127.176C173.122 127.176 173.259 127.176 173.396 127.176C172.888 127.447 172.386 127.758 171.888 128.102C171.852 128.125 171.803 128.154 171.751 128.194C171.432 128.452 171.353 128.911 171.562 129.265C171.715 129.519 171.982 129.664 172.259 129.664C172.367 129.664 172.477 129.641 172.585 129.595C172.832 129.486 173.074 129.387 173.308 129.291L173.5 129.212C175.266 128.515 176.888 128.158 178.315 128.158C182.176 128.158 183.41 130.741 183.463 130.854C183.498 130.933 183.55 131.009 183.609 131.075C183.853 131.343 184.078 131.64 184.274 131.957C184.899 132.978 185.287 133.841 185.433 134.528C186.082 137.561 188.913 140.135 193.011 141.42C193.711 141.641 194.428 141.813 195.145 141.932L195.197 141.939C195.278 141.952 195.357 141.962 195.432 141.972C199.654 142.593 208.863 143.743 210.909 143.743C211.173 143.743 211.339 143.726 211.479 143.683C211.857 143.564 212.128 143.35 212.349 143.174C212.427 143.112 212.541 143.022 212.6 142.993C213.177 142.993 214.014 142.649 215.33 142.097C215.907 141.856 216.5 141.605 216.972 141.443C217.19 141.463 217.584 141.489 218.096 141.489C220.148 141.489 223.885 141.053 226.009 138.146C227.547 136.907 228.306 134.921 227.996 132.942C227.661 130.827 226.198 129.351 224.439 129.351C223.562 129.351 222.666 129.697 221.777 130.378C221.771 130.381 221.767 130.385 221.761 130.391C221.608 130.514 221.445 130.649 221.279 130.798C221.207 130.864 221.145 130.94 221.103 131.022C221.096 130.722 221.077 130.408 221.041 130.097C220.995 129.678 220.904 129.281 220.774 128.954C219.441 125.482 215.793 125.036 212.763 125.036H212.73C212.027 125.036 211.336 125.062 210.665 125.085C210.401 125.095 210.14 125.105 209.883 125.112H209.844C209.71 125.115 209.58 125.118 209.45 125.121C209.091 124.256 208.691 123.38 208.251 122.511C206.528 119.002 202.423 105.922 202.384 105.79C202.38 105.773 202.374 105.76 202.367 105.747L201.406 102.281C201.133 99.9946 200.833 97.4109 202.374 95.9241C202.765 95.5441 203.283 95.3261 203.833 95.0915C204.13 94.9659 204.436 94.8371 204.739 94.6752C204.746 94.6752 204.749 94.6686 204.755 94.6653C205.071 94.4869 205.257 94.1499 205.244 93.7864C205.231 93.4197 205.016 93.0992 204.687 92.9505C204.677 92.9472 204.667 92.9439 204.661 92.9373L183.651 84.228L183.612 84.2115C183.567 84.1916 183.518 84.1784 183.469 84.1685C183.316 84.0595 183.13 84 182.928 84L182.932 84.0099ZM213.164 127.983C213.196 127.969 213.222 127.956 213.242 127.95C213.242 127.95 213.258 127.943 213.261 127.94C213.584 127.791 213.978 127.695 214.431 127.662C214.535 127.656 214.639 127.649 214.74 127.649C216.275 127.649 217.63 128.564 218.366 130.101C218.591 130.563 218.747 131.055 218.832 131.567C218.871 131.809 218.894 132.07 218.897 132.341C218.917 133.761 218.624 134.026 218.174 134.429C217.79 134.776 217.314 135.205 217.037 136.13C216.796 136.927 216.835 137.554 217.158 137.997C217.386 138.308 217.734 138.486 218.122 138.486C218.839 138.486 219.562 137.895 220.054 136.903C220.601 135.803 221.028 133.659 221.099 131.792C221.116 131.822 221.132 131.852 221.152 131.881C221.308 132.116 221.562 132.245 221.826 132.245C221.95 132.245 222.074 132.215 222.191 132.159C222.393 132.056 222.579 131.974 222.754 131.911C223.123 131.779 223.471 131.713 223.787 131.713C224.589 131.713 225.155 132.132 225.39 132.896C225.67 133.818 225.38 135.014 224.615 136.091C223.507 137.663 219.474 139.021 217.294 139.17C217.174 139.18 217.066 139.183 216.969 139.183C216.783 139.183 216.63 139.167 216.519 139.137C216.506 139.134 216.496 139.13 216.483 139.127C216.447 139.114 216.428 139.104 216.421 139.097C216.418 139.094 216.412 139.091 216.405 139.087C216.395 139.077 216.382 139.068 216.372 139.061C216.288 138.985 216.18 138.731 216.102 138.546L216.04 138.394C215.897 138.05 215.721 137.624 215.424 137.145C215.135 136.669 214.776 136.14 214.395 135.582C213.695 134.558 212.903 133.395 212.421 132.351L212.395 132.294L212.382 132.268C212.369 132.228 212.346 132.169 212.31 132.103C212.3 132.076 212.287 132.05 212.274 132.02C212.134 131.667 212.043 131.363 211.997 131.085C211.854 130.219 211.815 128.667 213.173 127.983H213.164Z" fill="white"/>
</g>
<path d="M105.212 252.156C105.212 253.436 105.052 254.583 104.732 255.596C104.423 256.61 103.959 257.468 103.34 258.172C102.732 258.866 101.98 259.399 101.084 259.772C100.188 260.146 99.1589 260.332 97.9962 260.332C96.9402 260.332 95.8629 260.183 94.7642 259.884C94.7855 259.575 94.8122 259.271 94.8442 258.972C94.8762 258.663 94.9029 258.359 94.9242 258.06C94.9455 257.879 95.0095 257.735 95.1162 257.628C95.2335 257.511 95.4095 257.452 95.6442 257.452C95.8362 257.452 96.0869 257.5 96.3962 257.596C96.7162 257.692 97.1429 257.74 97.6762 257.74C98.3802 257.74 99.0095 257.634 99.5642 257.42C100.119 257.207 100.583 256.876 100.956 256.428C101.33 255.98 101.612 255.41 101.804 254.716C102.007 254.012 102.108 253.18 102.108 252.22V237.148H105.212V252.156ZM120.453 250.204C120.453 249.543 120.357 248.94 120.165 248.396C119.984 247.842 119.712 247.367 119.349 246.972C118.997 246.567 118.565 246.258 118.053 246.044C117.541 245.82 116.96 245.708 116.309 245.708C114.944 245.708 113.861 246.108 113.061 246.908C112.272 247.698 111.781 248.796 111.589 250.204H120.453ZM122.757 257.804C122.405 258.231 121.984 258.604 121.493 258.924C121.002 259.234 120.474 259.49 119.909 259.692C119.354 259.895 118.778 260.044 118.181 260.14C117.584 260.247 116.992 260.3 116.405 260.3C115.285 260.3 114.25 260.114 113.301 259.74C112.362 259.356 111.546 258.802 110.853 258.076C110.17 257.34 109.637 256.434 109.253 255.356C108.869 254.279 108.677 253.042 108.677 251.644C108.677 250.514 108.848 249.458 109.189 248.476C109.541 247.495 110.042 246.647 110.693 245.932C111.344 245.207 112.138 244.642 113.077 244.236C114.016 243.82 115.072 243.612 116.245 243.612C117.216 243.612 118.112 243.778 118.933 244.108C119.765 244.428 120.48 244.898 121.077 245.516C121.685 246.124 122.16 246.882 122.501 247.788C122.842 248.684 123.013 249.708 123.013 250.86C123.013 251.308 122.965 251.607 122.869 251.756C122.773 251.906 122.592 251.98 122.325 251.98H111.493C111.525 253.004 111.664 253.895 111.909 254.652C112.165 255.41 112.517 256.044 112.965 256.556C113.413 257.058 113.946 257.436 114.565 257.692C115.184 257.938 115.877 258.06 116.645 258.06C117.36 258.06 117.973 257.98 118.485 257.82C119.008 257.65 119.456 257.468 119.829 257.276C120.202 257.084 120.512 256.908 120.757 256.748C121.013 256.578 121.232 256.492 121.413 256.492C121.648 256.492 121.829 256.583 121.957 256.764L122.757 257.804ZM139.839 243.868V260.076H138.143C137.738 260.076 137.482 259.879 137.375 259.484L137.151 257.74C136.447 258.519 135.658 259.148 134.783 259.628C133.909 260.098 132.906 260.332 131.775 260.332C130.89 260.332 130.106 260.188 129.423 259.9C128.751 259.602 128.186 259.186 127.727 258.652C127.269 258.119 126.922 257.474 126.687 256.716C126.463 255.959 126.351 255.122 126.351 254.204V243.868H129.199V254.204C129.199 255.431 129.477 256.38 130.031 257.052C130.597 257.724 131.455 258.06 132.607 258.06C133.45 258.06 134.234 257.863 134.959 257.468C135.695 257.063 136.373 256.508 136.991 255.804V243.868H139.839ZM163.102 247.724C162.569 247.01 161.993 246.514 161.374 246.236C160.756 245.948 160.062 245.804 159.294 245.804C157.79 245.804 156.633 246.343 155.822 247.42C155.012 248.498 154.606 250.034 154.606 252.028C154.606 253.084 154.697 253.991 154.878 254.748C155.06 255.495 155.326 256.114 155.678 256.604C156.03 257.084 156.462 257.436 156.974 257.66C157.486 257.884 158.068 257.996 158.718 257.996C159.657 257.996 160.473 257.783 161.166 257.356C161.87 256.93 162.516 256.327 163.102 255.548V247.724ZM165.95 236.508V260.076H164.254C163.849 260.076 163.593 259.879 163.486 259.484L163.23 257.516C162.537 258.348 161.748 259.02 160.862 259.532C159.977 260.044 158.953 260.3 157.79 260.3C156.862 260.3 156.02 260.124 155.262 259.772C154.505 259.41 153.86 258.882 153.326 258.188C152.793 257.495 152.382 256.631 152.094 255.596C151.806 254.562 151.662 253.372 151.662 252.028C151.662 250.834 151.822 249.724 152.142 248.7C152.462 247.666 152.921 246.77 153.518 246.012C154.116 245.255 154.846 244.663 155.71 244.236C156.585 243.799 157.566 243.58 158.654 243.58C159.646 243.58 160.494 243.751 161.198 244.092C161.913 244.423 162.548 244.887 163.102 245.484V236.508H165.95ZM181.297 250.204C181.297 249.543 181.201 248.94 181.009 248.396C180.827 247.842 180.555 247.367 180.193 246.972C179.841 246.567 179.409 246.258 178.897 246.044C178.385 245.82 177.803 245.708 177.153 245.708C175.787 245.708 174.705 246.108 173.905 246.908C173.115 247.698 172.625 248.796 172.433 250.204H181.297ZM183.601 257.804C183.249 258.231 182.827 258.604 182.337 258.924C181.846 259.234 181.318 259.49 180.753 259.692C180.198 259.895 179.622 260.044 179.025 260.14C178.427 260.247 177.835 260.3 177.249 260.3C176.129 260.3 175.094 260.114 174.145 259.74C173.206 259.356 172.39 258.802 171.697 258.076C171.014 257.34 170.481 256.434 170.097 255.356C169.713 254.279 169.521 253.042 169.521 251.644C169.521 250.514 169.691 249.458 170.033 248.476C170.385 247.495 170.886 246.647 171.537 245.932C172.187 245.207 172.982 244.642 173.921 244.236C174.859 243.82 175.915 243.612 177.089 243.612C178.059 243.612 178.955 243.778 179.777 244.108C180.609 244.428 181.323 244.898 181.921 245.516C182.529 246.124 183.003 246.882 183.345 247.788C183.686 248.684 183.857 249.708 183.857 250.86C183.857 251.308 183.809 251.607 183.713 251.756C183.617 251.906 183.435 251.98 183.169 251.98H172.337C172.369 253.004 172.507 253.895 172.753 254.652C173.009 255.41 173.361 256.044 173.809 256.556C174.257 257.058 174.79 257.436 175.409 257.692C176.027 257.938 176.721 258.06 177.489 258.06C178.203 258.06 178.817 257.98 179.329 257.82C179.851 257.65 180.299 257.468 180.673 257.276C181.046 257.084 181.355 256.908 181.601 256.748C181.857 256.578 182.075 256.492 182.257 256.492C182.491 256.492 182.673 256.583 182.801 256.764L183.601 257.804ZM81.4652 285.116C81.9772 284.007 82.6065 283.143 83.3532 282.524C84.0999 281.895 85.0119 281.58 86.0892 281.58C86.4305 281.58 86.7559 281.618 87.0652 281.692C87.3852 281.767 87.6679 281.884 87.9132 282.044L87.7052 284.172C87.6412 284.439 87.4812 284.572 87.2252 284.572C87.0759 284.572 86.8572 284.54 86.5692 284.476C86.2812 284.412 85.9559 284.38 85.5932 284.38C85.0812 284.38 84.6225 284.455 84.2172 284.604C83.8225 284.754 83.4652 284.978 83.1452 285.276C82.8359 285.564 82.5532 285.927 82.2972 286.364C82.0519 286.791 81.8279 287.282 81.6252 287.836V298.076H78.7612V281.868H80.3932C80.7025 281.868 80.9159 281.927 81.0332 282.044C81.1505 282.162 81.2305 282.364 81.2732 282.652L81.4652 285.116ZM100.609 288.204C100.609 287.543 100.513 286.94 100.321 286.396C100.14 285.842 99.8679 285.367 99.5052 284.972C99.1532 284.567 98.7212 284.258 98.2092 284.044C97.6972 283.82 97.1159 283.708 96.4652 283.708C95.0999 283.708 94.0172 284.108 93.2172 284.908C92.4279 285.698 91.9372 286.796 91.7452 288.204H100.609ZM102.913 295.804C102.561 296.231 102.14 296.604 101.649 296.924C101.159 297.234 100.631 297.49 100.065 297.692C99.5105 297.895 98.9345 298.044 98.3372 298.14C97.7399 298.247 97.1479 298.3 96.5612 298.3C95.4412 298.3 94.4065 298.114 93.4572 297.74C92.5185 297.356 91.7025 296.802 91.0092 296.076C90.3265 295.34 89.7932 294.434 89.4092 293.356C89.0252 292.279 88.8332 291.042 88.8332 289.644C88.8332 288.514 89.0039 287.458 89.3452 286.476C89.6972 285.495 90.1985 284.647 90.8492 283.932C91.4999 283.207 92.2945 282.642 93.2332 282.236C94.1719 281.82 95.2279 281.612 96.4012 281.612C97.3719 281.612 98.2679 281.778 99.0892 282.108C99.9212 282.428 100.636 282.898 101.233 283.516C101.841 284.124 102.316 284.882 102.657 285.788C102.999 286.684 103.169 287.708 103.169 288.86C103.169 289.308 103.121 289.607 103.025 289.756C102.929 289.906 102.748 289.98 102.481 289.98H91.6492C91.6812 291.004 91.8199 291.895 92.0652 292.652C92.3212 293.41 92.6732 294.044 93.1212 294.556C93.5692 295.058 94.1025 295.436 94.7212 295.692C95.3399 295.938 96.0332 296.06 96.8012 296.06C97.5159 296.06 98.1292 295.98 98.6412 295.82C99.1639 295.65 99.6119 295.468 99.9852 295.276C100.359 295.084 100.668 294.908 100.913 294.748C101.169 294.578 101.388 294.492 101.569 294.492C101.804 294.492 101.985 294.583 102.113 294.764L102.913 295.804ZM101.121 274.892L97.3932 279.02C97.2439 279.18 97.0945 279.298 96.9452 279.372C96.8065 279.436 96.6252 279.468 96.4012 279.468H94.7052L97.0732 275.596C97.2225 275.351 97.3825 275.175 97.5532 275.068C97.7345 274.951 97.9959 274.892 98.3372 274.892H101.121ZM117.227 285.724C116.694 285.01 116.118 284.514 115.499 284.236C114.881 283.948 114.187 283.804 113.419 283.804C111.915 283.804 110.758 284.343 109.947 285.42C109.137 286.498 108.731 288.034 108.731 290.028C108.731 291.084 108.822 291.991 109.003 292.748C109.185 293.495 109.451 294.114 109.803 294.604C110.155 295.084 110.587 295.436 111.099 295.66C111.611 295.884 112.193 295.996 112.843 295.996C113.782 295.996 114.598 295.783 115.291 295.356C115.995 294.93 116.641 294.327 117.227 293.548V285.724ZM120.075 274.508V298.076H118.379C117.974 298.076 117.718 297.879 117.611 297.484L117.355 295.516C116.662 296.348 115.873 297.02 114.987 297.532C114.102 298.044 113.078 298.3 111.915 298.3C110.987 298.3 110.145 298.124 109.387 297.772C108.63 297.41 107.985 296.882 107.451 296.188C106.918 295.495 106.507 294.631 106.219 293.596C105.931 292.562 105.787 291.372 105.787 290.028C105.787 288.834 105.947 287.724 106.267 286.7C106.587 285.666 107.046 284.77 107.643 284.012C108.241 283.255 108.971 282.663 109.835 282.236C110.71 281.799 111.691 281.58 112.779 281.58C113.771 281.58 114.619 281.751 115.323 282.092C116.038 282.423 116.673 282.887 117.227 283.484V274.508H120.075ZM137.902 281.868V298.076H136.206C135.8 298.076 135.544 297.879 135.438 297.484L135.214 295.74C134.51 296.519 133.72 297.148 132.846 297.628C131.971 298.098 130.968 298.332 129.838 298.332C128.952 298.332 128.168 298.188 127.486 297.9C126.814 297.602 126.248 297.186 125.79 296.652C125.331 296.119 124.984 295.474 124.75 294.716C124.526 293.959 124.414 293.122 124.414 292.204V281.868H127.262V292.204C127.262 293.431 127.539 294.38 128.094 295.052C128.659 295.724 129.518 296.06 130.67 296.06C131.512 296.06 132.296 295.863 133.022 295.468C133.758 295.063 134.435 294.508 135.054 293.804V281.868H137.902ZM153.697 284.748C153.612 284.866 153.527 284.956 153.441 285.02C153.356 285.084 153.239 285.116 153.089 285.116C152.929 285.116 152.753 285.052 152.561 284.924C152.369 284.786 152.129 284.636 151.841 284.476C151.564 284.316 151.217 284.172 150.801 284.044C150.396 283.906 149.895 283.836 149.297 283.836C148.497 283.836 147.793 283.98 147.185 284.268C146.577 284.546 146.065 284.951 145.649 285.484C145.244 286.018 144.935 286.663 144.721 287.42C144.519 288.178 144.417 289.026 144.417 289.964C144.417 290.946 144.529 291.82 144.753 292.588C144.977 293.346 145.292 293.986 145.697 294.508C146.113 295.02 146.609 295.415 147.185 295.692C147.772 295.959 148.428 296.092 149.153 296.092C149.847 296.092 150.417 296.012 150.865 295.852C151.313 295.682 151.681 295.495 151.969 295.292C152.268 295.09 152.513 294.908 152.705 294.748C152.908 294.578 153.105 294.492 153.297 294.492C153.532 294.492 153.713 294.583 153.841 294.764L154.641 295.804C154.289 296.242 153.889 296.615 153.441 296.924C152.993 297.234 152.508 297.495 151.985 297.708C151.473 297.911 150.935 298.06 150.369 298.156C149.804 298.252 149.228 298.3 148.641 298.3C147.628 298.3 146.684 298.114 145.809 297.74C144.945 297.367 144.193 296.828 143.553 296.124C142.913 295.41 142.412 294.535 142.049 293.5C141.687 292.466 141.505 291.287 141.505 289.964C141.505 288.759 141.671 287.644 142.001 286.62C142.343 285.596 142.833 284.716 143.473 283.98C144.124 283.234 144.919 282.652 145.857 282.236C146.807 281.82 147.895 281.612 149.121 281.612C150.263 281.612 151.265 281.799 152.129 282.172C153.004 282.535 153.777 283.052 154.449 283.724L153.697 284.748ZM172.739 298.076H169.891V284.252H161.539V293.98C161.539 294.663 161.704 295.17 162.035 295.5C162.365 295.831 162.792 295.996 163.315 295.996C163.613 295.996 163.869 295.959 164.083 295.884C164.307 295.799 164.499 295.708 164.659 295.612C164.819 295.516 164.952 295.431 165.059 295.356C165.176 295.271 165.277 295.228 165.363 295.228C165.512 295.228 165.645 295.319 165.763 295.5L166.595 296.86C166.104 297.319 165.512 297.682 164.819 297.948C164.125 298.204 163.411 298.332 162.675 298.332C161.395 298.332 160.408 297.975 159.715 297.26C159.032 296.546 158.691 295.516 158.691 294.172V284.252H156.739C156.568 284.252 156.424 284.204 156.307 284.108C156.189 284.002 156.131 283.842 156.131 283.628V282.492L158.787 282.14L159.443 277.148C159.475 276.988 159.544 276.86 159.651 276.764C159.768 276.658 159.917 276.604 160.099 276.604H161.539V282.188H172.739V298.076ZM173.443 276.668C173.443 276.946 173.384 277.207 173.267 277.452C173.16 277.687 173.011 277.895 172.819 278.076C172.637 278.258 172.424 278.402 172.179 278.508C171.933 278.615 171.672 278.668 171.395 278.668C171.117 278.668 170.856 278.615 170.611 278.508C170.376 278.402 170.168 278.258 169.987 278.076C169.805 277.895 169.661 277.687 169.555 277.452C169.448 277.207 169.395 276.946 169.395 276.668C169.395 276.391 169.448 276.13 169.555 275.884C169.661 275.628 169.805 275.41 169.987 275.228C170.168 275.036 170.376 274.887 170.611 274.78C170.856 274.674 171.117 274.62 171.395 274.62C171.672 274.62 171.933 274.674 172.179 274.78C172.424 274.887 172.637 275.036 172.819 275.228C173.011 275.41 173.16 275.628 173.267 275.884C173.384 276.13 173.443 276.391 173.443 276.668ZM184.249 281.612C185.433 281.612 186.5 281.81 187.449 282.204C188.399 282.599 189.209 283.159 189.881 283.884C190.553 284.61 191.065 285.49 191.417 286.524C191.78 287.548 191.961 288.695 191.961 289.964C191.961 291.244 191.78 292.396 191.417 293.42C191.065 294.444 190.553 295.319 189.881 296.044C189.209 296.77 188.399 297.33 187.449 297.724C186.5 298.108 185.433 298.3 184.249 298.3C183.055 298.3 181.977 298.108 181.017 297.724C180.068 297.33 179.257 296.77 178.585 296.044C177.913 295.319 177.396 294.444 177.033 293.42C176.681 292.396 176.505 291.244 176.505 289.964C176.505 288.695 176.681 287.548 177.033 286.524C177.396 285.49 177.913 284.61 178.585 283.884C179.257 283.159 180.068 282.599 181.017 282.204C181.977 281.81 183.055 281.612 184.249 281.612ZM184.249 296.076C185.849 296.076 187.044 295.543 187.833 294.476C188.623 293.399 189.017 291.9 189.017 289.98C189.017 288.05 188.623 286.546 187.833 285.468C187.044 284.391 185.849 283.852 184.249 283.852C183.439 283.852 182.729 283.991 182.121 284.268C181.524 284.546 181.023 284.946 180.617 285.468C180.223 285.991 179.924 286.636 179.721 287.404C179.529 288.162 179.433 289.02 179.433 289.98C179.433 291.9 179.828 293.399 180.617 294.476C181.417 295.543 182.628 296.076 184.249 296.076ZM198.262 284.22C198.614 283.826 198.987 283.468 199.382 283.148C199.776 282.828 200.192 282.556 200.63 282.332C201.078 282.098 201.547 281.922 202.038 281.804C202.539 281.676 203.078 281.612 203.654 281.612C204.539 281.612 205.318 281.762 205.99 282.06C206.672 282.348 207.238 282.764 207.686 283.308C208.144 283.842 208.491 284.487 208.726 285.244C208.96 286.002 209.078 286.839 209.078 287.756V298.076H206.214V287.756C206.214 286.53 205.931 285.58 205.366 284.908C204.811 284.226 203.963 283.884 202.822 283.884C201.979 283.884 201.19 284.087 200.454 284.492C199.728 284.898 199.056 285.447 198.438 286.14V298.076H195.574V281.868H197.286C197.691 281.868 197.942 282.066 198.038 282.46L198.262 284.22Z" fill="white"/>
<defs>
<clipPath id="clip0_335_80987">
<rect width="287" height="229.076" fill="white"/>
</clipPath>
<clipPath id="clip1_335_80987">
<rect width="280.167" height="229.076" fill="white" transform="translate(3.41667)"/>
</clipPath>
</defs>
</svg>
