<svg width="32" height="33" viewBox="0 0 32 33" fill="none" xmlns="http://www.w3.org/2000/svg">
<path d="M14.8866 0.376953L13.0008 0.646985C6.64372 1.82861 1.47757 7.02125 0.284174 13.3717L0.0143147 15.2588C0.0481243 15.9981 -0.0307655 16.7756 0.0143147 17.5099C0.850817 31.0673 17.6629 37.3914 27.3471 27.6959C37.0132 18.0193 30.6543 1.21211 17.1363 0.376953H14.8866ZM2.02668 16.3847C2.02668 8.65648 8.28792 2.39123 16.0112 2.39123C23.7344 2.39123 29.9956 8.65585 29.9956 16.3847C29.9956 24.1135 23.7344 30.3781 16.0112 30.3781C8.28792 30.3781 2.02668 24.1128 2.02668 16.3847Z" fill="#421318"/>
<path d="M8.44464 17.9576H26.2678C26.2859 17.9576 26.5333 17.7925 26.5796 17.7547C27.1401 17.2973 27.1401 16.4562 26.5796 15.9995C26.5333 15.9616 26.2859 15.7965 26.2678 15.7965H8.44464L11.8123 12.1157C12.4766 11.1374 11.3718 9.89644 10.445 10.5676L5.2313 16.2005C4.92321 16.576 4.92259 17.1782 5.2313 17.5544L10.41 23.1574C11.3143 23.8773 12.4585 22.6804 11.8398 21.677L8.44464 17.9576Z" fill="#421318"/>
</svg>
