<svg width="32" height="33" viewBox="0 0 32 33" fill="none" xmlns="http://www.w3.org/2000/svg">
<path d="M17.1134 0.376953L18.9992 0.646985C25.3563 1.82861 30.5224 7.02125 31.7158 13.3717L31.9857 15.2588C31.9519 15.9981 32.0308 16.7756 31.9857 17.5099C31.1492 31.0673 14.3371 37.3914 4.65286 27.6959C-5.01325 18.0193 1.34567 1.21211 14.8637 0.376953H17.1134ZM29.9733 16.3847C29.9733 8.65648 23.7121 2.39123 15.9888 2.39123C8.26559 2.39123 2.00435 8.65585 2.00435 16.3847C2.00435 24.1135 8.26559 30.3781 15.9888 30.3781C23.7121 30.3781 29.9733 24.1128 29.9733 16.3847Z" fill="#421318"/>
<path d="M23.5554 17.9576H5.73225C5.71413 17.9576 5.46666 17.7925 5.42041 17.7547C4.85986 17.2973 4.85986 16.4562 5.42041 15.9995C5.46666 15.9616 5.71413 15.7965 5.73225 15.7965H23.5554L20.1877 12.1157C19.5234 11.1374 20.6282 9.89644 21.555 10.5676L26.7687 16.2005C27.0768 16.576 27.0774 17.1782 26.7687 17.5544L21.59 23.1574C20.6857 23.8773 19.5415 22.6804 20.1602 21.677L23.5554 17.9576Z" fill="#421318"/>
</svg>
