<svg width="53" height="22" viewBox="0 0 53 22" fill="none" xmlns="http://www.w3.org/2000/svg">
<path d="M16.5123 8.7248C16.5123 11.2279 15.4471 13.4715 13.7631 15L11.2354 12.8212C12.2059 12.2796 12.4714 11.3821 12.8095 10.3883H8.47949V7H16.3381C16.4531 7.55741 16.5123 8.13409 16.5123 8.7248Z" fill="#5A7AB8"/>
<path d="M13.4999 14.8153C12.1361 16.1754 10.353 17 8.40188 17C5.35451 17 2.71825 14.9888 1.45068 12.0634L4.04454 10C4.70523 12.0168 6.40837 13.4534 8.40188 13.4534C9.39048 13.4534 10.3073 13.1007 11.061 12.4963L13.4999 14.8153Z" fill="#57A55C"/>
<path d="M4.46317 10.1641L1.39295 12C0.788557 10.9476 0.446777 9.76073 0.446777 8.50581C0.446777 7.25089 0.790487 6.05573 1.40067 5L4.41296 6.97036C4.21987 7.45174 4.11559 7.96799 4.11559 8.50581C4.11559 9.09011 4.23917 9.64785 4.46317 10.1641Z" fill="#F0BE42"/>
<path d="M13.4999 2.20465L11.27 4.63251C10.4774 3.90983 9.4656 3.47622 8.36447 3.47622C6.33434 3.47622 4.60793 4.95086 3.98428 7L1.45068 4.82828C2.71423 1.96681 5.33552 0 8.36447 0C10.3361 0 12.1356 0.834292 13.4999 2.20465Z" fill="#D6503F"/>
<path d="M28.6943 0.463879C28.5972 0.417669 28.5001 0.375013 28.3996 0.335912C27.8604 0.122635 27.2744 0.00533194 26.6625 0H20.5288V17H22.9542V10.1396H26.6642C29.3774 10.1236 31.5739 7.84328 31.5739 5.06001C31.5739 3.01965 30.3967 1.26189 28.6978 0.462101L28.6943 0.463879ZM26.6607 7.8966H22.9507V2.2643H27.108C28.4204 2.48468 29.4224 3.65238 29.4224 5.06179C29.4224 6.62405 28.1846 7.89482 26.6607 7.8966Z" fill="#606469"/>
<path d="M41.5501 8.42551C41.4 7.79529 41.1644 7.2255 40.8013 6.75412C39.8728 5.54548 38.0907 4.94979 36.3504 5.00331C36.3033 5.00504 36.2544 5.00677 36.2056 5.00849C36.1357 5.01195 36.0694 5.01713 35.9996 5.02231C35.9455 5.02576 35.8949 5.03266 35.8425 5.03784C35.7832 5.04302 35.7221 5.05166 35.6627 5.05856C35.6104 5.06374 35.5615 5.07238 35.5109 5.07928C35.4655 5.08792 35.4219 5.09482 35.3765 5.10346C35.3346 5.11209 35.2909 5.119 35.2491 5.12763C35.1216 5.15353 34.9977 5.18288 34.8738 5.21569C34.8214 5.2295 34.7708 5.24332 34.7167 5.25885C34.612 5.28993 34.5037 5.32619 34.4008 5.36245C34.3484 5.37972 34.2978 5.40044 34.2454 5.42116C34.1285 5.46605 34.0133 5.51785 33.9016 5.57138C33.8178 5.61109 33.7358 5.65425 33.6555 5.69742C33.5368 5.76476 33.4233 5.83555 33.3116 5.91152C33.2819 5.93052 33.2523 5.95124 33.2226 5.97196C33.1772 6.00476 33.1318 6.0393 33.0882 6.07383C33.0533 6.10145 33.0184 6.12908 32.9835 6.16016C32.9503 6.18779 32.9154 6.21714 32.8822 6.24822C32.8386 6.28793 32.7967 6.32592 32.7548 6.36736C32.7391 6.3829 32.7234 6.40016 32.7077 6.4157C32.6902 6.43297 32.6745 6.44851 32.6606 6.4675C32.6309 6.49858 32.6012 6.52966 32.5733 6.56419C32.5611 6.57628 32.5506 6.59009 32.5401 6.60391C32.5122 6.63671 32.4843 6.67125 32.4581 6.70578C32.4284 6.74376 32.4005 6.78002 32.3726 6.81974C32.3394 6.86636 32.3062 6.91125 32.2766 6.96132C32.2486 7.00449 32.2207 7.04938 32.1945 7.09427C32.1683 7.13916 32.1422 7.18578 32.1195 7.23413L33.9696 8.41515C34.2053 8.29601 34.4758 7.82291 34.776 7.62608C36.724 6.35354 39.7 7.33773 39.5237 9.87243C36.8723 8.60681 31.8943 9.1507 31.5906 12.7197C31.2467 16.741 36.2457 18.181 38.9704 15.9157C38.9896 15.8984 39.0123 15.8811 39.0315 15.8621C39.2008 15.7206 39.3561 15.5617 39.5027 15.389V17H41.6147V9.03329C41.5903 8.82954 41.5676 8.6258 41.5432 8.42206L41.5501 8.42551ZM39.4521 12.4313C39.1658 13.9801 37.4379 15.1266 35.8827 14.9643C32.8927 14.65 33.5647 11.2486 36.7083 11.1035C37.5932 11.0621 39.6616 11.2935 39.4538 12.4313H39.4521Z" fill="#606469"/>
<path d="M52.6598 5L52.4082 5.62044L45.7808 22H43.5078L44.0527 20.6369L45.9375 15.9307L41.6147 5H43.9061L44.0844 5.44343L44.1177 5.5292L47.1156 12.8832L47.1989 13.0858C47.3522 12.7792 47.6855 11.8394 48.0755 10.7062L48.0838 10.6861L50.1668 5.03467L50.1702 5.00182H52.6598V5Z" fill="#606469"/>
</svg>
