<svg width="411" height="570" viewBox="0 0 411 570" fill="none" xmlns="http://www.w3.org/2000/svg">
<rect width="411" height="570" fill="#EFEFEF"/>
<rect x="18.5" y="23.5" width="79" height="79" stroke="black"/>
<rect x="18.5" y="551.5" width="79" height="14" stroke="black"/>
<rect x="377.5" y="551.5" width="15" height="14" stroke="black"/>
<rect x="111.5" y="23.5" width="281" height="79" stroke="black"/>
<rect x="18.5" y="111.5" width="374" height="79" stroke="black"/>
<rect x="18.5" y="199.5" width="374" height="342" stroke="black"/>
<path d="M48.7045 66V60.1818H49.4091V65.375H52.1136V66H48.7045ZM54.8864 66.0909C54.4924 66.0909 54.1468 65.9972 53.8494 65.8097C53.554 65.6222 53.3229 65.3598 53.1562 65.0227C52.9915 64.6856 52.9091 64.2917 52.9091 63.8409C52.9091 63.3864 52.9915 62.9896 53.1562 62.6506C53.3229 62.3116 53.554 62.0483 53.8494 61.8608C54.1468 61.6733 54.4924 61.5795 54.8864 61.5795C55.2803 61.5795 55.625 61.6733 55.9205 61.8608C56.2178 62.0483 56.4489 62.3116 56.6136 62.6506C56.7803 62.9896 56.8636 63.3864 56.8636 63.8409C56.8636 64.2917 56.7803 64.6856 56.6136 65.0227C56.4489 65.3598 56.2178 65.6222 55.9205 65.8097C55.625 65.9972 55.2803 66.0909 54.8864 66.0909ZM54.8864 65.4886C55.1856 65.4886 55.4318 65.4119 55.625 65.2585C55.8182 65.1051 55.9612 64.9034 56.054 64.6534C56.1468 64.4034 56.1932 64.1326 56.1932 63.8409C56.1932 63.5492 56.1468 63.2775 56.054 63.0256C55.9612 62.7737 55.8182 62.5701 55.625 62.4148C55.4318 62.2595 55.1856 62.1818 54.8864 62.1818C54.5871 62.1818 54.3409 62.2595 54.1477 62.4148C53.9545 62.5701 53.8116 62.7737 53.7188 63.0256C53.6259 63.2775 53.5795 63.5492 53.5795 63.8409C53.5795 64.1326 53.6259 64.4034 53.7188 64.6534C53.8116 64.9034 53.9545 65.1051 54.1477 65.2585C54.3409 65.4119 54.5871 65.4886 54.8864 65.4886ZM59.6484 67.7273C59.3246 67.7273 59.0462 67.6856 58.8132 67.6023C58.5803 67.5208 58.3861 67.4129 58.2308 67.2784C58.0774 67.1458 57.9553 67.0038 57.8643 66.8523L58.3984 66.4773C58.459 66.5568 58.5357 66.6477 58.6286 66.75C58.7214 66.8542 58.8482 66.9441 59.0092 67.0199C59.1721 67.0975 59.3852 67.1364 59.6484 67.1364C60.0007 67.1364 60.2914 67.0511 60.5206 66.8807C60.7498 66.7102 60.8643 66.4432 60.8643 66.0795V65.1932H60.8075C60.7583 65.2727 60.6882 65.3712 60.5973 65.4886C60.5083 65.6042 60.3795 65.7074 60.2109 65.7983C60.0443 65.8873 59.8189 65.9318 59.5348 65.9318C59.1825 65.9318 58.8662 65.8485 58.5859 65.6818C58.3075 65.5152 58.0869 65.2727 57.924 64.9545C57.763 64.6364 57.6825 64.25 57.6825 63.7955C57.6825 63.3485 57.7611 62.9593 57.9183 62.6278C58.0755 62.2945 58.2943 62.0369 58.5746 61.8551C58.8549 61.6714 59.1787 61.5795 59.5462 61.5795C59.8303 61.5795 60.0556 61.6269 60.2223 61.7216C60.3909 61.8144 60.5196 61.9205 60.6087 62.0398C60.6996 62.1572 60.7696 62.2538 60.8189 62.3295H60.8871V61.6364H61.5348V66.125C61.5348 66.5 61.4496 66.8049 61.2791 67.0398C61.1106 67.2765 60.8833 67.4498 60.5973 67.5597C60.3132 67.6714 59.9969 67.7273 59.6484 67.7273ZM59.6257 65.3295C59.8946 65.3295 60.1219 65.268 60.3075 65.1449C60.4931 65.0218 60.6342 64.8447 60.7308 64.6136C60.8274 64.3826 60.8757 64.1061 60.8757 63.7841C60.8757 63.4697 60.8284 63.1922 60.7337 62.9517C60.639 62.7112 60.4988 62.5227 60.3132 62.3864C60.1276 62.25 59.8984 62.1818 59.6257 62.1818C59.3416 62.1818 59.1049 62.2538 58.9155 62.3977C58.728 62.5417 58.5869 62.7348 58.4922 62.9773C58.3994 63.2197 58.353 63.4886 58.353 63.7841C58.353 64.0871 58.4003 64.3551 58.495 64.5881C58.5916 64.8191 58.7337 65.0009 58.9212 65.1335C59.1106 65.2642 59.3454 65.3295 59.6257 65.3295ZM64.5348 66.0909C64.1409 66.0909 63.7952 65.9972 63.4979 65.8097C63.2024 65.6222 62.9714 65.3598 62.8047 65.0227C62.6399 64.6856 62.5575 64.2917 62.5575 63.8409C62.5575 63.3864 62.6399 62.9896 62.8047 62.6506C62.9714 62.3116 63.2024 62.0483 63.4979 61.8608C63.7952 61.6733 64.1409 61.5795 64.5348 61.5795C64.9287 61.5795 65.2734 61.6733 65.5689 61.8608C65.8662 62.0483 66.0973 62.3116 66.2621 62.6506C66.4287 62.9896 66.5121 63.3864 66.5121 63.8409C66.5121 64.2917 66.4287 64.6856 66.2621 65.0227C66.0973 65.3598 65.8662 65.6222 65.5689 65.8097C65.2734 65.9972 64.9287 66.0909 64.5348 66.0909ZM64.5348 65.4886C64.834 65.4886 65.0803 65.4119 65.2734 65.2585C65.4666 65.1051 65.6096 64.9034 65.7024 64.6534C65.7952 64.4034 65.8416 64.1326 65.8416 63.8409C65.8416 63.5492 65.7952 63.2775 65.7024 63.0256C65.6096 62.7737 65.4666 62.5701 65.2734 62.4148C65.0803 62.2595 64.834 62.1818 64.5348 62.1818C64.2356 62.1818 63.9893 62.2595 63.7962 62.4148C63.603 62.5701 63.46 62.7737 63.3672 63.0256C63.2744 63.2775 63.228 63.5492 63.228 63.8409C63.228 64.1326 63.2744 64.4034 63.3672 64.6534C63.46 64.9034 63.603 65.1051 63.7962 65.2585C63.9893 65.4119 64.2356 65.4886 64.5348 65.4886Z" fill="black"/>
<path d="M223.793 60.8068V60.1818H228.156V60.8068H226.327V66H225.622V60.8068H223.793ZM229.153 66V61.6364H229.823V66H229.153ZM229.494 60.9091C229.363 60.9091 229.25 60.8646 229.156 60.7756C229.063 60.6866 229.016 60.5795 229.016 60.4545C229.016 60.3295 229.063 60.2225 229.156 60.1335C229.25 60.0445 229.363 60 229.494 60C229.624 60 229.736 60.0445 229.829 60.1335C229.924 60.2225 229.971 60.3295 229.971 60.4545C229.971 60.5795 229.924 60.6866 229.829 60.7756C229.736 60.8646 229.624 60.9091 229.494 60.9091ZM232.949 61.6364V62.2045H230.688V61.6364H232.949ZM231.347 60.5909H232.017V64.75C232.017 64.9394 232.045 65.0814 232.099 65.1761C232.156 65.2689 232.228 65.3314 232.315 65.3636C232.404 65.3939 232.498 65.4091 232.597 65.4091C232.67 65.4091 232.731 65.4053 232.778 65.3977C232.826 65.3883 232.864 65.3807 232.892 65.375L233.028 65.9773C232.983 65.9943 232.92 66.0114 232.838 66.0284C232.757 66.0473 232.653 66.0568 232.528 66.0568C232.339 66.0568 232.153 66.0161 231.972 65.9347C231.792 65.8532 231.642 65.7292 231.523 65.5625C231.405 65.3958 231.347 65.1856 231.347 64.9318V60.5909ZM233.957 66V61.6364H234.605V62.2955H234.651C234.73 62.0795 234.874 61.9044 235.082 61.7699C235.291 61.6354 235.526 61.5682 235.787 61.5682C235.836 61.5682 235.898 61.5691 235.972 61.571C236.045 61.5729 236.101 61.5758 236.139 61.5795V62.2614C236.116 62.2557 236.064 62.2472 235.983 62.2358C235.903 62.2225 235.819 62.2159 235.73 62.2159C235.518 62.2159 235.329 62.2604 235.162 62.3494C234.997 62.4366 234.866 62.5578 234.77 62.7131C234.675 62.8665 234.628 63.0417 234.628 63.2386V66H233.957ZM238.631 66.0909C238.21 66.0909 237.848 65.9981 237.543 65.8125C237.24 65.625 237.006 65.3636 236.841 65.0284C236.678 64.6913 236.597 64.2992 236.597 63.8523C236.597 63.4053 236.678 63.0114 236.841 62.6705C237.006 62.3277 237.235 62.0606 237.528 61.8693C237.824 61.6761 238.169 61.5795 238.562 61.5795C238.79 61.5795 239.014 61.6174 239.236 61.6932C239.457 61.7689 239.659 61.892 239.841 62.0625C240.023 62.2311 240.168 62.4545 240.276 62.733C240.384 63.0114 240.438 63.3542 240.438 63.7614V64.0455H237.074V63.4659H239.756C239.756 63.2197 239.706 63 239.608 62.8068C239.511 62.6136 239.373 62.4612 239.193 62.3494C239.015 62.2377 238.805 62.1818 238.562 62.1818C238.295 62.1818 238.064 62.2481 237.869 62.3807C237.676 62.5114 237.527 62.6818 237.423 62.892C237.319 63.1023 237.267 63.3277 237.267 63.5682V63.9545C237.267 64.2841 237.324 64.5634 237.438 64.7926C237.553 65.0199 237.713 65.1932 237.918 65.3125C238.122 65.4299 238.36 65.4886 238.631 65.4886C238.807 65.4886 238.966 65.464 239.108 65.4148C239.252 65.3636 239.376 65.2879 239.48 65.1875C239.584 65.0852 239.665 64.9583 239.722 64.8068L240.369 64.9886C240.301 65.2083 240.187 65.4015 240.026 65.5682C239.865 65.733 239.666 65.8617 239.429 65.9545C239.192 66.0455 238.926 66.0909 238.631 66.0909ZM245.355 66.0909C244.991 66.0909 244.67 65.9991 244.392 65.8153C244.114 65.6297 243.896 65.3684 243.739 65.0312C243.581 64.6922 243.503 64.2917 243.503 63.8295C243.503 63.3712 243.581 62.9735 243.739 62.6364C243.896 62.2992 244.115 62.0388 244.395 61.8551C244.675 61.6714 244.999 61.5795 245.366 61.5795C245.651 61.5795 245.875 61.6269 246.04 61.7216C246.206 61.8144 246.333 61.9205 246.42 62.0398C246.509 62.1572 246.579 62.2538 246.628 62.3295H246.685V60.1818H247.355V66H246.707V65.3295H246.628C246.579 65.4091 246.509 65.5095 246.418 65.6307C246.327 65.75 246.197 65.857 246.028 65.9517C245.86 66.0445 245.635 66.0909 245.355 66.0909ZM245.446 65.4886C245.715 65.4886 245.942 65.4186 246.128 65.2784C246.313 65.1364 246.455 64.9403 246.551 64.6903C246.648 64.4384 246.696 64.1477 246.696 63.8182C246.696 63.4924 246.649 63.2074 246.554 62.9631C246.459 62.7169 246.319 62.5256 246.134 62.3892C245.948 62.2509 245.719 62.1818 245.446 62.1818C245.162 62.1818 244.925 62.2547 244.736 62.4006C244.548 62.5445 244.407 62.7405 244.312 62.9886C244.22 63.2348 244.173 63.5114 244.173 63.8182C244.173 64.1288 244.221 64.411 244.315 64.6648C244.412 64.9167 244.554 65.1174 244.741 65.267C244.931 65.4148 245.166 65.4886 245.446 65.4886ZM251.426 64.2159V61.6364H252.097V66H251.426V65.2614H251.381C251.278 65.483 251.119 65.6714 250.903 65.8267C250.688 65.9801 250.415 66.0568 250.085 66.0568C249.812 66.0568 249.57 65.9972 249.358 65.8778C249.146 65.7566 248.979 65.5748 248.858 65.3324C248.737 65.0881 248.676 64.7803 248.676 64.4091V61.6364H249.347V64.3636C249.347 64.6818 249.436 64.9356 249.614 65.125C249.794 65.3144 250.023 65.4091 250.301 65.4091C250.468 65.4091 250.637 65.3665 250.81 65.2812C250.984 65.196 251.13 65.0653 251.247 64.8892C251.366 64.7131 251.426 64.4886 251.426 64.2159ZM255.575 61.6364H256.245V66.3182C256.245 66.5871 256.199 66.8201 256.106 67.017C256.015 67.214 255.877 67.3665 255.691 67.4744C255.507 67.5824 255.275 67.6364 254.995 67.6364C254.972 67.6364 254.95 67.6364 254.927 67.6364C254.904 67.6364 254.881 67.6364 254.859 67.6364V67.0114C254.881 67.0114 254.902 67.0114 254.921 67.0114C254.94 67.0114 254.961 67.0114 254.984 67.0114C255.188 67.0114 255.338 66.9508 255.433 66.8295C255.527 66.7102 255.575 66.5398 255.575 66.3182V61.6364ZM255.904 60.9091C255.773 60.9091 255.661 60.8646 255.566 60.7756C255.473 60.6866 255.427 60.5795 255.427 60.4545C255.427 60.3295 255.473 60.2225 255.566 60.1335C255.661 60.0445 255.773 60 255.904 60C256.035 60 256.147 60.0445 256.239 60.1335C256.334 60.2225 256.381 60.3295 256.381 60.4545C256.381 60.5795 256.334 60.6866 256.239 60.7756C256.147 60.8646 256.035 60.9091 255.904 60.9091ZM259.246 66.0909C258.852 66.0909 258.506 65.9972 258.209 65.8097C257.913 65.6222 257.682 65.3598 257.516 65.0227C257.351 64.6856 257.268 64.2917 257.268 63.8409C257.268 63.3864 257.351 62.9896 257.516 62.6506C257.682 62.3116 257.913 62.0483 258.209 61.8608C258.506 61.6733 258.852 61.5795 259.246 61.5795C259.64 61.5795 259.984 61.6733 260.28 61.8608C260.577 62.0483 260.808 62.3116 260.973 62.6506C261.14 62.9896 261.223 63.3864 261.223 63.8409C261.223 64.2917 261.14 64.6856 260.973 65.0227C260.808 65.3598 260.577 65.6222 260.28 65.8097C259.984 65.9972 259.64 66.0909 259.246 66.0909ZM259.246 65.4886C259.545 65.4886 259.791 65.4119 259.984 65.2585C260.178 65.1051 260.321 64.9034 260.413 64.6534C260.506 64.4034 260.553 64.1326 260.553 63.8409C260.553 63.5492 260.506 63.2775 260.413 63.0256C260.321 62.7737 260.178 62.5701 259.984 62.4148C259.791 62.2595 259.545 62.1818 259.246 62.1818C258.946 62.1818 258.7 62.2595 258.507 62.4148C258.314 62.5701 258.171 62.7737 258.078 63.0256C257.985 63.2775 257.939 63.5492 257.939 63.8409C257.939 64.1326 257.985 64.4034 258.078 64.6534C258.171 64.9034 258.314 65.1051 258.507 65.2585C258.7 65.4119 258.946 65.4886 259.246 65.4886ZM264.996 64.2159V61.6364H265.667V66H264.996V65.2614H264.951C264.849 65.483 264.69 65.6714 264.474 65.8267C264.258 65.9801 263.985 66.0568 263.656 66.0568C263.383 66.0568 263.14 65.9972 262.928 65.8778C262.716 65.7566 262.549 65.5748 262.428 65.3324C262.307 65.0881 262.246 64.7803 262.246 64.4091V61.6364H262.917V64.3636C262.917 64.6818 263.006 64.9356 263.184 65.125C263.364 65.3144 263.593 65.4091 263.871 65.4091C264.038 65.4091 264.208 65.3665 264.38 65.2812C264.554 65.196 264.7 65.0653 264.817 64.8892C264.937 64.7131 264.996 64.4886 264.996 64.2159ZM266.895 66V61.6364H267.543V62.2955H267.588C267.668 62.0795 267.812 61.9044 268.02 61.7699C268.228 61.6354 268.463 61.5682 268.724 61.5682C268.774 61.5682 268.835 61.5691 268.909 61.571C268.983 61.5729 269.039 61.5758 269.077 61.5795V62.2614C269.054 62.2557 269.002 62.2472 268.92 62.2358C268.841 62.2225 268.757 62.2159 268.668 62.2159C268.455 62.2159 268.266 62.2604 268.099 62.3494C267.935 62.4366 267.804 62.5578 267.707 62.7131C267.613 62.8665 267.565 63.0417 267.565 63.2386V66H266.895ZM270.542 63.375V66H269.871V61.6364H270.519V62.3182H270.576C270.678 62.0966 270.834 61.9186 271.042 61.7841C271.25 61.6477 271.519 61.5795 271.849 61.5795C272.144 61.5795 272.403 61.6402 272.624 61.7614C272.846 61.8807 273.018 62.0625 273.141 62.3068C273.264 62.5492 273.326 62.8561 273.326 63.2273V66H272.656V63.2727C272.656 62.9299 272.567 62.6629 272.388 62.4716C272.21 62.2784 271.966 62.1818 271.656 62.1818C271.442 62.1818 271.25 62.2282 271.082 62.321C270.915 62.4138 270.783 62.5492 270.687 62.7273C270.59 62.9053 270.542 63.1212 270.542 63.375ZM275.835 66.1023C275.559 66.1023 275.308 66.0502 275.082 65.946C274.857 65.84 274.678 65.6875 274.545 65.4886C274.413 65.2879 274.347 65.0455 274.347 64.7614C274.347 64.5114 274.396 64.3087 274.494 64.1534C274.593 63.9962 274.724 63.8731 274.889 63.7841C275.054 63.6951 275.236 63.6288 275.435 63.5852C275.635 63.5398 275.837 63.5038 276.04 63.4773C276.305 63.4432 276.52 63.4176 276.685 63.4006C276.851 63.3816 276.973 63.3504 277.048 63.3068C277.126 63.2633 277.165 63.1875 277.165 63.0795V63.0568C277.165 62.7765 277.088 62.5587 276.935 62.4034C276.783 62.2481 276.553 62.1705 276.244 62.1705C275.924 62.1705 275.673 62.2405 275.491 62.3807C275.31 62.5208 275.182 62.6705 275.108 62.8295L274.472 62.6023C274.585 62.3371 274.737 62.1307 274.926 61.983C275.117 61.8333 275.326 61.7292 275.551 61.6705C275.778 61.6098 276.002 61.5795 276.222 61.5795C276.362 61.5795 276.523 61.5966 276.705 61.6307C276.888 61.6629 277.065 61.7301 277.236 61.8324C277.408 61.9347 277.551 62.089 277.665 62.2955C277.778 62.5019 277.835 62.7784 277.835 63.125V66H277.165V65.4091H277.131C277.085 65.5038 277.009 65.6051 276.903 65.7131C276.797 65.821 276.656 65.9129 276.48 65.9886C276.304 66.0644 276.089 66.1023 275.835 66.1023ZM275.938 65.5C276.203 65.5 276.426 65.4479 276.608 65.3438C276.792 65.2396 276.93 65.1051 277.023 64.9403C277.117 64.7756 277.165 64.6023 277.165 64.4205V63.8068C277.136 63.8409 277.074 63.8722 276.977 63.9006C276.883 63.9271 276.773 63.9508 276.648 63.9716C276.525 63.9905 276.404 64.0076 276.287 64.0227C276.171 64.036 276.078 64.0473 276.006 64.0568C275.831 64.0795 275.669 64.1165 275.517 64.1676C275.367 64.2169 275.246 64.2917 275.153 64.392C275.063 64.4905 275.017 64.625 275.017 64.7955C275.017 65.0284 275.103 65.2045 275.276 65.3239C275.45 65.4413 275.67 65.5 275.938 65.5ZM279.729 60.1818V66H279.059V60.1818H279.729ZM239.099 75.6023V71.8523H239.736V75.6023H239.099ZM237.543 74.0455V73.4091H241.293V74.0455H237.543ZM248.009 72.6136L247.407 72.7841C247.369 72.6837 247.313 72.5862 247.239 72.4915C247.167 72.3949 247.069 72.3153 246.944 72.2528C246.819 72.1903 246.659 72.1591 246.464 72.1591C246.197 72.1591 245.974 72.2206 245.796 72.3438C245.62 72.465 245.532 72.6193 245.532 72.8068C245.532 72.9735 245.593 73.1051 245.714 73.2017C245.835 73.2983 246.024 73.3788 246.282 73.4432L246.93 73.6023C247.32 73.697 247.611 73.8419 247.802 74.0369C247.993 74.2301 248.089 74.4792 248.089 74.7841C248.089 75.0341 248.017 75.2576 247.873 75.4545C247.731 75.6515 247.532 75.8068 247.276 75.9205C247.021 76.0341 246.723 76.0909 246.384 76.0909C245.939 76.0909 245.571 75.9943 245.279 75.8011C244.987 75.608 244.803 75.3258 244.725 74.9545L245.362 74.7955C245.422 75.0303 245.537 75.2064 245.705 75.3239C245.876 75.4413 246.098 75.5 246.373 75.5C246.685 75.5 246.933 75.4337 247.117 75.3011C247.303 75.1667 247.396 75.0057 247.396 74.8182C247.396 74.6667 247.343 74.5398 247.237 74.4375C247.13 74.3333 246.968 74.2557 246.748 74.2045L246.021 74.0341C245.621 73.9394 245.327 73.7926 245.14 73.5938C244.954 73.393 244.862 73.142 244.862 72.8409C244.862 72.5947 244.931 72.3769 245.069 72.1875C245.209 71.9981 245.399 71.8494 245.64 71.7415C245.882 71.6335 246.157 71.5795 246.464 71.5795C246.896 71.5795 247.235 71.6742 247.481 71.8636C247.729 72.053 247.905 72.303 248.009 72.6136ZM249.768 70.1818V76H249.098V70.1818H249.768ZM252.769 76.0909C252.375 76.0909 252.03 75.9972 251.732 75.8097C251.437 75.6222 251.206 75.3598 251.039 75.0227C250.874 74.6856 250.792 74.2917 250.792 73.8409C250.792 73.3864 250.874 72.9896 251.039 72.6506C251.206 72.3116 251.437 72.0483 251.732 71.8608C252.03 71.6733 252.375 71.5795 252.769 71.5795C253.163 71.5795 253.508 71.6733 253.803 71.8608C254.101 72.0483 254.332 72.3116 254.496 72.6506C254.663 72.9896 254.746 73.3864 254.746 73.8409C254.746 74.2917 254.663 74.6856 254.496 75.0227C254.332 75.3598 254.101 75.6222 253.803 75.8097C253.508 75.9972 253.163 76.0909 252.769 76.0909ZM252.769 75.4886C253.068 75.4886 253.315 75.4119 253.508 75.2585C253.701 75.1051 253.844 74.9034 253.937 74.6534C254.03 74.4034 254.076 74.1326 254.076 73.8409C254.076 73.5492 254.03 73.2775 253.937 73.0256C253.844 72.7737 253.701 72.5701 253.508 72.4148C253.315 72.2595 253.068 72.1818 252.769 72.1818C252.47 72.1818 252.224 72.2595 252.031 72.4148C251.837 72.5701 251.694 72.7737 251.602 73.0256C251.509 73.2775 251.462 73.5492 251.462 73.8409C251.462 74.1326 251.509 74.4034 251.602 74.6534C251.694 74.9034 251.837 75.1051 252.031 75.2585C252.224 75.4119 252.47 75.4886 252.769 75.4886ZM257.531 77.7273C257.207 77.7273 256.929 77.6856 256.696 77.6023C256.463 77.5208 256.269 77.4129 256.114 77.2784C255.96 77.1458 255.838 77.0038 255.747 76.8523L256.281 76.4773C256.342 76.5568 256.419 76.6477 256.511 76.75C256.604 76.8542 256.731 76.9441 256.892 77.0199C257.055 77.0975 257.268 77.1364 257.531 77.1364C257.884 77.1364 258.174 77.0511 258.403 76.8807C258.633 76.7102 258.747 76.4432 258.747 76.0795V75.1932H258.69C258.641 75.2727 258.571 75.3712 258.48 75.4886C258.391 75.6042 258.262 75.7074 258.094 75.7983C257.927 75.8873 257.702 75.9318 257.418 75.9318C257.065 75.9318 256.749 75.8485 256.469 75.6818C256.19 75.5152 255.97 75.2727 255.807 74.9545C255.646 74.6364 255.565 74.25 255.565 73.7955C255.565 73.3485 255.644 72.9593 255.801 72.6278C255.958 72.2945 256.177 72.0369 256.457 71.8551C256.738 71.6714 257.062 71.5795 257.429 71.5795C257.713 71.5795 257.938 71.6269 258.105 71.7216C258.274 71.8144 258.402 71.9205 258.491 72.0398C258.582 72.1572 258.652 72.2538 258.702 72.3295H258.77V71.6364H259.418V76.125C259.418 76.5 259.332 76.8049 259.162 77.0398C258.993 77.2765 258.766 77.4498 258.48 77.5597C258.196 77.6714 257.88 77.7273 257.531 77.7273ZM257.509 75.3295C257.777 75.3295 258.005 75.268 258.19 75.1449C258.376 75.0218 258.517 74.8447 258.614 74.6136C258.71 74.3826 258.759 74.1061 258.759 73.7841C258.759 73.4697 258.711 73.1922 258.616 72.9517C258.522 72.7112 258.382 72.5227 258.196 72.3864C258.01 72.25 257.781 72.1818 257.509 72.1818C257.224 72.1818 256.988 72.2538 256.798 72.3977C256.611 72.5417 256.47 72.7348 256.375 72.9773C256.282 73.2197 256.236 73.4886 256.236 73.7841C256.236 74.0871 256.283 74.3551 256.378 74.5881C256.474 74.8191 256.616 75.0009 256.804 75.1335C256.993 75.2642 257.228 75.3295 257.509 75.3295ZM261.929 76.1023C261.652 76.1023 261.402 76.0502 261.176 75.946C260.951 75.84 260.772 75.6875 260.639 75.4886C260.507 75.2879 260.44 75.0455 260.44 74.7614C260.44 74.5114 260.49 74.3087 260.588 74.1534C260.687 73.9962 260.818 73.8731 260.983 73.7841C261.148 73.6951 261.33 73.6288 261.528 73.5852C261.729 73.5398 261.931 73.5038 262.134 73.4773C262.399 73.4432 262.614 73.4176 262.778 73.4006C262.945 73.3816 263.066 73.3504 263.142 73.3068C263.22 73.2633 263.259 73.1875 263.259 73.0795V73.0568C263.259 72.7765 263.182 72.5587 263.028 72.4034C262.877 72.2481 262.647 72.1705 262.338 72.1705C262.018 72.1705 261.767 72.2405 261.585 72.3807C261.403 72.5208 261.276 72.6705 261.202 72.8295L260.565 72.6023C260.679 72.3371 260.83 72.1307 261.02 71.983C261.211 71.8333 261.42 71.7292 261.645 71.6705C261.872 71.6098 262.096 71.5795 262.315 71.5795C262.455 71.5795 262.616 71.5966 262.798 71.6307C262.982 71.6629 263.159 71.7301 263.33 71.8324C263.502 71.9347 263.645 72.089 263.759 72.2955C263.872 72.5019 263.929 72.7784 263.929 73.125V76H263.259V75.4091H263.224C263.179 75.5038 263.103 75.6051 262.997 75.7131C262.891 75.821 262.75 75.9129 262.574 75.9886C262.398 76.0644 262.183 76.1023 261.929 76.1023ZM262.031 75.5C262.296 75.5 262.52 75.4479 262.702 75.3438C262.885 75.2396 263.024 75.1051 263.116 74.9403C263.211 74.7756 263.259 74.6023 263.259 74.4205V73.8068C263.23 73.8409 263.168 73.8722 263.071 73.9006C262.976 73.9271 262.866 73.9508 262.741 73.9716C262.618 73.9905 262.498 74.0076 262.381 74.0227C262.265 74.036 262.171 74.0473 262.099 74.0568C261.925 74.0795 261.762 74.1165 261.611 74.1676C261.461 74.2169 261.34 74.2917 261.247 74.392C261.156 74.4905 261.111 74.625 261.111 74.7955C261.111 75.0284 261.197 75.2045 261.369 75.3239C261.544 75.4413 261.764 75.5 262.031 75.5ZM265.823 73.375V76H265.153V71.6364H265.8V72.3182H265.857C265.96 72.0966 266.115 71.9186 266.323 71.7841C266.531 71.6477 266.8 71.5795 267.13 71.5795C267.425 71.5795 267.684 71.6402 267.906 71.7614C268.127 71.8807 268.299 72.0625 268.423 72.3068C268.546 72.5492 268.607 72.8561 268.607 73.2273V76H267.937V73.2727C267.937 72.9299 267.848 72.6629 267.67 72.4716C267.492 72.2784 267.247 72.1818 266.937 72.1818C266.723 72.1818 266.531 72.2282 266.363 72.321C266.196 72.4138 266.065 72.5492 265.968 72.7273C265.871 72.9053 265.823 73.1212 265.823 73.375Z" fill="black"/>
<path d="M178.777 366V365.489L181.913 360.807H178.743V360.182H182.754V360.693L179.618 365.375H182.788V366H178.777ZM185.652 366.091C185.258 366.091 184.912 365.997 184.615 365.81C184.32 365.622 184.089 365.36 183.922 365.023C183.757 364.686 183.675 364.292 183.675 363.841C183.675 363.386 183.757 362.99 183.922 362.651C184.089 362.312 184.32 362.048 184.615 361.861C184.912 361.673 185.258 361.58 185.652 361.58C186.046 361.58 186.391 361.673 186.686 361.861C186.983 362.048 187.214 362.312 187.379 362.651C187.546 362.99 187.629 363.386 187.629 363.841C187.629 364.292 187.546 364.686 187.379 365.023C187.214 365.36 186.983 365.622 186.686 365.81C186.391 365.997 186.046 366.091 185.652 366.091ZM185.652 365.489C185.951 365.489 186.197 365.412 186.391 365.259C186.584 365.105 186.727 364.903 186.82 364.653C186.912 364.403 186.959 364.133 186.959 363.841C186.959 363.549 186.912 363.277 186.82 363.026C186.727 362.774 186.584 362.57 186.391 362.415C186.197 362.259 185.951 362.182 185.652 362.182C185.353 362.182 185.107 362.259 184.913 362.415C184.72 362.57 184.577 362.774 184.484 363.026C184.392 363.277 184.345 363.549 184.345 363.841C184.345 364.133 184.392 364.403 184.484 364.653C184.577 364.903 184.72 365.105 184.913 365.259C185.107 365.412 185.353 365.489 185.652 365.489ZM189.323 363.375V366H188.653V361.636H189.3V362.318H189.357C189.46 362.097 189.615 361.919 189.823 361.784C190.031 361.648 190.3 361.58 190.63 361.58C190.925 361.58 191.184 361.64 191.406 361.761C191.627 361.881 191.799 362.062 191.923 362.307C192.046 362.549 192.107 362.856 192.107 363.227V366H191.437V363.273C191.437 362.93 191.348 362.663 191.17 362.472C190.992 362.278 190.747 362.182 190.437 362.182C190.223 362.182 190.031 362.228 189.863 362.321C189.696 362.414 189.565 362.549 189.468 362.727C189.371 362.905 189.323 363.121 189.323 363.375ZM195.162 366.091C194.741 366.091 194.379 365.998 194.074 365.812C193.771 365.625 193.537 365.364 193.372 365.028C193.209 364.691 193.128 364.299 193.128 363.852C193.128 363.405 193.209 363.011 193.372 362.67C193.537 362.328 193.766 362.061 194.06 361.869C194.355 361.676 194.7 361.58 195.094 361.58C195.321 361.58 195.545 361.617 195.767 361.693C195.989 361.769 196.19 361.892 196.372 362.062C196.554 362.231 196.699 362.455 196.807 362.733C196.915 363.011 196.969 363.354 196.969 363.761V364.045H193.605V363.466H196.287C196.287 363.22 196.238 363 196.139 362.807C196.043 362.614 195.904 362.461 195.724 362.349C195.546 362.238 195.336 362.182 195.094 362.182C194.827 362.182 194.596 362.248 194.401 362.381C194.207 362.511 194.059 362.682 193.955 362.892C193.85 363.102 193.798 363.328 193.798 363.568V363.955C193.798 364.284 193.855 364.563 193.969 364.793C194.084 365.02 194.244 365.193 194.449 365.312C194.653 365.43 194.891 365.489 195.162 365.489C195.338 365.489 195.497 365.464 195.639 365.415C195.783 365.364 195.907 365.288 196.011 365.188C196.116 365.085 196.196 364.958 196.253 364.807L196.901 364.989C196.832 365.208 196.718 365.402 196.557 365.568C196.396 365.733 196.197 365.862 195.96 365.955C195.723 366.045 195.457 366.091 195.162 366.091ZM201.886 366.091C201.523 366.091 201.202 365.999 200.923 365.815C200.645 365.63 200.427 365.368 200.27 365.031C200.113 364.692 200.034 364.292 200.034 363.83C200.034 363.371 200.113 362.973 200.27 362.636C200.427 362.299 200.646 362.039 200.926 361.855C201.206 361.671 201.53 361.58 201.898 361.58C202.182 361.58 202.406 361.627 202.571 361.722C202.738 361.814 202.865 361.92 202.952 362.04C203.041 362.157 203.11 362.254 203.159 362.33H203.216V360.182H203.886V366H203.239V365.33H203.159C203.11 365.409 203.04 365.509 202.949 365.631C202.858 365.75 202.728 365.857 202.56 365.952C202.391 366.045 202.167 366.091 201.886 366.091ZM201.977 365.489C202.246 365.489 202.473 365.419 202.659 365.278C202.845 365.136 202.986 364.94 203.082 364.69C203.179 364.438 203.227 364.148 203.227 363.818C203.227 363.492 203.18 363.207 203.085 362.963C202.991 362.717 202.85 362.526 202.665 362.389C202.479 362.251 202.25 362.182 201.977 362.182C201.693 362.182 201.456 362.255 201.267 362.401C201.08 362.545 200.938 362.741 200.844 362.989C200.751 363.235 200.705 363.511 200.705 363.818C200.705 364.129 200.752 364.411 200.847 364.665C200.943 364.917 201.085 365.117 201.273 365.267C201.462 365.415 201.697 365.489 201.977 365.489ZM207.037 366.091C206.616 366.091 206.254 365.998 205.949 365.812C205.646 365.625 205.412 365.364 205.247 365.028C205.084 364.691 205.003 364.299 205.003 363.852C205.003 363.405 205.084 363.011 205.247 362.67C205.412 362.328 205.641 362.061 205.935 361.869C206.23 361.676 206.575 361.58 206.969 361.58C207.196 361.58 207.42 361.617 207.642 361.693C207.864 361.769 208.065 361.892 208.247 362.062C208.429 362.231 208.574 362.455 208.682 362.733C208.79 363.011 208.844 363.354 208.844 363.761V364.045H205.48V363.466H208.162C208.162 363.22 208.113 363 208.014 362.807C207.918 362.614 207.779 362.461 207.599 362.349C207.421 362.238 207.211 362.182 206.969 362.182C206.702 362.182 206.471 362.248 206.276 362.381C206.082 362.511 205.934 362.682 205.83 362.892C205.725 363.102 205.673 363.328 205.673 363.568V363.955C205.673 364.284 205.73 364.563 205.844 364.793C205.959 365.02 206.119 365.193 206.324 365.312C206.528 365.43 206.766 365.489 207.037 365.489C207.213 365.489 207.372 365.464 207.514 365.415C207.658 365.364 207.782 365.288 207.886 365.188C207.991 365.085 208.071 364.958 208.128 364.807L208.776 364.989C208.707 365.208 208.593 365.402 208.432 365.568C208.271 365.733 208.072 365.862 207.835 365.955C207.598 366.045 207.332 366.091 207.037 366.091ZM214.011 361.636V362.205H211.75V361.636H214.011ZM212.409 360.591H213.08V364.75C213.08 364.939 213.107 365.081 213.162 365.176C213.219 365.269 213.291 365.331 213.378 365.364C213.467 365.394 213.561 365.409 213.659 365.409C213.733 365.409 213.794 365.405 213.841 365.398C213.888 365.388 213.926 365.381 213.955 365.375L214.091 365.977C214.045 365.994 213.982 366.011 213.901 366.028C213.819 366.047 213.716 366.057 213.591 366.057C213.402 366.057 213.216 366.016 213.034 365.935C212.854 365.853 212.705 365.729 212.585 365.562C212.468 365.396 212.409 365.186 212.409 364.932V360.591ZM216.803 366.091C216.382 366.091 216.019 365.998 215.714 365.812C215.411 365.625 215.178 365.364 215.013 365.028C214.85 364.691 214.768 364.299 214.768 363.852C214.768 363.405 214.85 363.011 215.013 362.67C215.178 362.328 215.407 362.061 215.7 361.869C215.996 361.676 216.34 361.58 216.734 361.58C216.962 361.58 217.186 361.617 217.408 361.693C217.629 361.769 217.831 361.892 218.013 362.062C218.195 362.231 218.339 362.455 218.447 362.733C218.555 363.011 218.609 363.354 218.609 363.761V364.045H215.246V363.466H217.928C217.928 363.22 217.878 363 217.78 362.807C217.683 362.614 217.545 362.461 217.365 362.349C217.187 362.238 216.977 362.182 216.734 362.182C216.467 362.182 216.236 362.248 216.041 362.381C215.848 362.511 215.699 362.682 215.595 362.892C215.491 363.102 215.439 363.328 215.439 363.568V363.955C215.439 364.284 215.496 364.563 215.609 364.793C215.725 365.02 215.885 365.193 216.089 365.312C216.294 365.43 216.532 365.489 216.803 365.489C216.979 365.489 217.138 365.464 217.28 365.415C217.424 365.364 217.548 365.288 217.652 365.188C217.756 365.085 217.837 364.958 217.893 364.807L218.541 364.989C218.473 365.208 218.358 365.402 218.197 365.568C218.036 365.733 217.838 365.862 217.601 365.955C217.364 366.045 217.098 366.091 216.803 366.091ZM220.012 361.636L221.058 363.42L222.103 361.636H222.876L221.467 363.818L222.876 366H222.103L221.058 364.307L220.012 366H219.239L220.626 363.818L219.239 361.636H220.012ZM225.73 361.636V362.205H223.469V361.636H225.73ZM224.128 360.591H224.798V364.75C224.798 364.939 224.826 365.081 224.881 365.176C224.938 365.269 225.009 365.331 225.097 365.364C225.186 365.394 225.279 365.409 225.378 365.409C225.452 365.409 225.512 365.405 225.56 365.398C225.607 365.388 225.645 365.381 225.673 365.375L225.81 365.977C225.764 365.994 225.701 366.011 225.619 366.028C225.538 366.047 225.435 366.057 225.31 366.057C225.12 366.057 224.935 366.016 224.753 365.935C224.573 365.853 224.423 365.729 224.304 365.562C224.187 365.396 224.128 365.186 224.128 364.932V360.591ZM228.521 366.091C228.101 366.091 227.738 365.998 227.433 365.812C227.13 365.625 226.896 365.364 226.732 365.028C226.569 364.691 226.487 364.299 226.487 363.852C226.487 363.405 226.569 363.011 226.732 362.67C226.896 362.328 227.125 362.061 227.419 361.869C227.714 361.676 228.059 361.58 228.453 361.58C228.68 361.58 228.905 361.617 229.126 361.693C229.348 361.769 229.55 361.892 229.732 362.062C229.913 362.231 230.058 362.455 230.166 362.733C230.274 363.011 230.328 363.354 230.328 363.761V364.045H226.964V363.466H229.646C229.646 363.22 229.597 363 229.499 362.807C229.402 362.614 229.264 362.461 229.084 362.349C228.906 362.238 228.696 362.182 228.453 362.182C228.186 362.182 227.955 362.248 227.76 362.381C227.567 362.511 227.418 362.682 227.314 362.892C227.21 363.102 227.158 363.328 227.158 363.568V363.955C227.158 364.284 227.214 364.563 227.328 364.793C227.444 365.02 227.604 365.193 227.808 365.312C228.013 365.43 228.25 365.489 228.521 365.489C228.697 365.489 228.857 365.464 228.999 365.415C229.143 365.364 229.267 365.288 229.371 365.188C229.475 365.085 229.555 364.958 229.612 364.807L230.26 364.989C230.192 365.208 230.077 365.402 229.916 365.568C229.755 365.733 229.556 365.862 229.32 365.955C229.083 366.045 228.817 366.091 228.521 366.091Z" fill="black"/>
<path d="M193.324 144.807V144.182H197.688V144.807H195.858V150H195.153V144.807H193.324ZM199.354 147.375V150H198.684V144.182H199.354V146.318H199.411C199.513 146.093 199.667 145.914 199.871 145.781C200.078 145.647 200.353 145.58 200.695 145.58C200.993 145.58 201.253 145.639 201.477 145.759C201.7 145.876 201.873 146.057 201.996 146.301C202.121 146.544 202.184 146.852 202.184 147.227V150H201.513V147.273C201.513 146.926 201.424 146.658 201.244 146.469C201.066 146.277 200.818 146.182 200.502 146.182C200.282 146.182 200.085 146.228 199.911 146.321C199.739 146.414 199.603 146.549 199.502 146.727C199.404 146.905 199.354 147.121 199.354 147.375ZM205.24 150.091C204.82 150.091 204.457 149.998 204.152 149.812C203.849 149.625 203.615 149.364 203.45 149.028C203.287 148.691 203.206 148.299 203.206 147.852C203.206 147.405 203.287 147.011 203.45 146.67C203.615 146.328 203.844 146.061 204.138 145.869C204.433 145.676 204.778 145.58 205.172 145.58C205.399 145.58 205.624 145.617 205.845 145.693C206.067 145.769 206.268 145.892 206.45 146.062C206.632 146.231 206.777 146.455 206.885 146.733C206.993 147.011 207.047 147.354 207.047 147.761V148.045H203.683V147.466H206.365C206.365 147.22 206.316 147 206.217 146.807C206.121 146.614 205.982 146.461 205.803 146.349C205.625 146.238 205.414 146.182 205.172 146.182C204.905 146.182 204.674 146.248 204.479 146.381C204.286 146.511 204.137 146.682 204.033 146.892C203.929 147.102 203.876 147.328 203.876 147.568V147.955C203.876 148.284 203.933 148.563 204.047 148.793C204.162 149.02 204.322 149.193 204.527 149.312C204.732 149.43 204.969 149.489 205.24 149.489C205.416 149.489 205.575 149.464 205.717 149.415C205.861 149.364 205.985 149.288 206.089 149.188C206.194 149.085 206.274 148.958 206.331 148.807L206.979 148.989C206.911 149.208 206.796 149.402 206.635 149.568C206.474 149.733 206.275 149.862 206.038 149.955C205.802 150.045 205.536 150.091 205.24 150.091ZM204.854 145.045L203.967 143.727H204.751L205.445 145.045H204.854ZM208.067 150V145.636H208.714V146.318H208.771C208.862 146.085 209.009 145.904 209.212 145.776C209.414 145.645 209.658 145.58 209.942 145.58C210.23 145.58 210.469 145.645 210.661 145.776C210.854 145.904 211.004 146.085 211.112 146.318H211.158C211.269 146.093 211.437 145.914 211.661 145.781C211.884 145.647 212.152 145.58 212.464 145.58C212.855 145.58 213.174 145.702 213.422 145.946C213.67 146.188 213.794 146.566 213.794 147.08V150H213.124V147.08C213.124 146.758 213.036 146.527 212.859 146.389C212.683 146.251 212.476 146.182 212.237 146.182C211.93 146.182 211.693 146.275 211.524 146.46C211.356 146.644 211.271 146.877 211.271 147.159V150H210.589V147.011C210.589 146.763 210.509 146.563 210.348 146.412C210.187 146.259 209.98 146.182 209.726 146.182C209.552 146.182 209.389 146.228 209.237 146.321C209.088 146.414 208.966 146.543 208.874 146.707C208.783 146.87 208.737 147.059 208.737 147.273V150H208.067ZM216.849 150.091C216.429 150.091 216.066 149.998 215.761 149.812C215.458 149.625 215.224 149.364 215.06 149.028C214.897 148.691 214.815 148.299 214.815 147.852C214.815 147.405 214.897 147.011 215.06 146.67C215.224 146.328 215.454 146.061 215.747 145.869C216.043 145.676 216.387 145.58 216.781 145.58C217.009 145.58 217.233 145.617 217.455 145.693C217.676 145.769 217.878 145.892 218.06 146.062C218.241 146.231 218.386 146.455 218.494 146.733C218.602 147.011 218.656 147.354 218.656 147.761V148.045H215.293V147.466H217.974C217.974 147.22 217.925 147 217.827 146.807C217.73 146.614 217.592 146.461 217.412 146.349C217.234 146.238 217.024 146.182 216.781 146.182C216.514 146.182 216.283 146.248 216.088 146.381C215.895 146.511 215.746 146.682 215.642 146.892C215.538 147.102 215.486 147.328 215.486 147.568V147.955C215.486 148.284 215.543 148.563 215.656 148.793C215.772 149.02 215.932 149.193 216.136 149.312C216.341 149.43 216.579 149.489 216.849 149.489C217.026 149.489 217.185 149.464 217.327 149.415C217.471 149.364 217.595 149.288 217.699 149.188C217.803 149.085 217.884 148.958 217.94 148.807L218.588 148.989C218.52 149.208 218.405 149.402 218.244 149.568C218.083 149.733 217.884 149.862 217.648 149.955C217.411 150.045 217.145 150.091 216.849 150.091ZM192.967 159.602V155.852H193.603V159.602H192.967ZM191.41 158.045V157.409H195.16V158.045H191.41ZM200.07 160.102C199.793 160.102 199.542 160.05 199.317 159.946C199.091 159.84 198.912 159.688 198.78 159.489C198.647 159.288 198.581 159.045 198.581 158.761C198.581 158.511 198.63 158.309 198.729 158.153C198.827 157.996 198.959 157.873 199.124 157.784C199.288 157.695 199.47 157.629 199.669 157.585C199.87 157.54 200.071 157.504 200.274 157.477C200.539 157.443 200.754 157.418 200.919 157.401C201.086 157.382 201.207 157.35 201.283 157.307C201.36 157.263 201.399 157.187 201.399 157.08V157.057C201.399 156.777 201.322 156.559 201.169 156.403C201.018 156.248 200.787 156.17 200.479 156.17C200.159 156.17 199.908 156.241 199.726 156.381C199.544 156.521 199.416 156.67 199.342 156.83L198.706 156.602C198.82 156.337 198.971 156.131 199.161 155.983C199.352 155.833 199.56 155.729 199.786 155.67C200.013 155.61 200.236 155.58 200.456 155.58C200.596 155.58 200.757 155.597 200.939 155.631C201.123 155.663 201.3 155.73 201.47 155.832C201.643 155.935 201.786 156.089 201.899 156.295C202.013 156.502 202.07 156.778 202.07 157.125V160H201.399V159.409H201.365C201.32 159.504 201.244 159.605 201.138 159.713C201.032 159.821 200.891 159.913 200.714 159.989C200.538 160.064 200.323 160.102 200.07 160.102ZM200.172 159.5C200.437 159.5 200.661 159.448 200.842 159.344C201.026 159.24 201.164 159.105 201.257 158.94C201.352 158.776 201.399 158.602 201.399 158.42V157.807C201.371 157.841 201.308 157.872 201.212 157.901C201.117 157.927 201.007 157.951 200.882 157.972C200.759 157.991 200.639 158.008 200.521 158.023C200.406 158.036 200.312 158.047 200.24 158.057C200.066 158.08 199.903 158.116 199.751 158.168C199.602 158.217 199.481 158.292 199.388 158.392C199.297 158.491 199.251 158.625 199.251 158.795C199.251 159.028 199.338 159.205 199.51 159.324C199.684 159.441 199.905 159.5 200.172 159.5ZM203.964 157.375V160H203.293V155.636H203.941V156.318H203.998C204.1 156.097 204.255 155.919 204.464 155.784C204.672 155.648 204.941 155.58 205.271 155.58C205.566 155.58 205.825 155.64 206.046 155.761C206.268 155.881 206.44 156.062 206.563 156.307C206.686 156.549 206.748 156.856 206.748 157.227V160H206.077V157.273C206.077 156.93 205.988 156.663 205.81 156.472C205.632 156.278 205.388 156.182 205.077 156.182C204.863 156.182 204.672 156.228 204.504 156.321C204.337 156.414 204.205 156.549 204.109 156.727C204.012 156.905 203.964 157.121 203.964 157.375ZM208.643 157.375V160H207.973V155.636H208.621V156.318H208.678C208.78 156.097 208.935 155.919 209.143 155.784C209.352 155.648 209.621 155.58 209.95 155.58C210.246 155.58 210.504 155.64 210.726 155.761C210.947 155.881 211.12 156.062 211.243 156.307C211.366 156.549 211.428 156.856 211.428 157.227V160H210.757V157.273C210.757 156.93 210.668 156.663 210.49 156.472C210.312 156.278 210.068 156.182 209.757 156.182C209.543 156.182 209.352 156.228 209.183 156.321C209.017 156.414 208.885 156.549 208.788 156.727C208.692 156.905 208.643 157.121 208.643 157.375ZM214.482 160.091C214.062 160.091 213.699 159.998 213.394 159.812C213.091 159.625 212.857 159.364 212.692 159.028C212.53 158.691 212.448 158.299 212.448 157.852C212.448 157.405 212.53 157.011 212.692 156.67C212.857 156.328 213.086 156.061 213.38 155.869C213.675 155.676 214.02 155.58 214.414 155.58C214.641 155.58 214.866 155.617 215.087 155.693C215.309 155.769 215.511 155.892 215.692 156.062C215.874 156.231 216.019 156.455 216.127 156.733C216.235 157.011 216.289 157.354 216.289 157.761V158.045H212.925V157.466H215.607C215.607 157.22 215.558 157 215.46 156.807C215.363 156.614 215.225 156.461 215.045 156.349C214.867 156.238 214.656 156.182 214.414 156.182C214.147 156.182 213.916 156.248 213.721 156.381C213.528 156.511 213.379 156.682 213.275 156.892C213.171 157.102 213.119 157.328 213.119 157.568V157.955C213.119 158.284 213.175 158.563 213.289 158.793C213.405 159.02 213.565 159.193 213.769 159.312C213.974 159.43 214.211 159.489 214.482 159.489C214.658 159.489 214.817 159.464 214.96 159.415C215.103 159.364 215.228 159.288 215.332 159.188C215.436 159.085 215.516 158.958 215.573 158.807L216.221 158.989C216.153 159.208 216.038 159.402 215.877 159.568C215.716 159.733 215.517 159.862 215.281 159.955C215.044 160.045 214.778 160.091 214.482 160.091ZM214.073 155.045L214.766 153.727H215.55L214.664 155.045H214.073ZM219.138 160.091C218.718 160.091 218.355 159.998 218.05 159.812C217.747 159.625 217.513 159.364 217.349 159.028C217.186 158.691 217.104 158.299 217.104 157.852C217.104 157.405 217.186 157.011 217.349 156.67C217.513 156.328 217.743 156.061 218.036 155.869C218.332 155.676 218.676 155.58 219.07 155.58C219.298 155.58 219.522 155.617 219.744 155.693C219.965 155.769 220.167 155.892 220.349 156.062C220.531 156.231 220.675 156.455 220.783 156.733C220.891 157.011 220.945 157.354 220.945 157.761V158.045H217.582V157.466H220.263C220.263 157.22 220.214 157 220.116 156.807C220.019 156.614 219.881 156.461 219.701 156.349C219.523 156.238 219.313 156.182 219.07 156.182C218.803 156.182 218.572 156.248 218.377 156.381C218.184 156.511 218.035 156.682 217.931 156.892C217.827 157.102 217.775 157.328 217.775 157.568V157.955C217.775 158.284 217.832 158.563 217.945 158.793C218.061 159.02 218.221 159.193 218.425 159.312C218.63 159.43 218.868 159.489 219.138 159.489C219.315 159.489 219.474 159.464 219.616 159.415C219.76 159.364 219.884 159.288 219.988 159.188C220.092 159.085 220.173 158.958 220.229 158.807L220.877 158.989C220.809 159.208 220.694 159.402 220.533 159.568C220.372 159.733 220.174 159.862 219.937 159.955C219.7 160.045 219.434 160.091 219.138 160.091Z" fill="black"/>
<path d="M44.8239 556.807V556.182H49.1875V556.807H47.358V562H46.6534V556.807H44.8239ZM50.8544 559.375V562H50.1839V556.182H50.8544V558.318H50.9112C51.0135 558.093 51.1669 557.914 51.3714 557.781C51.5779 557.647 51.8525 557.58 52.1953 557.58C52.4927 557.58 52.7531 557.639 52.9766 557.759C53.2 557.876 53.3733 558.057 53.4964 558.301C53.6214 558.544 53.6839 558.852 53.6839 559.227V562H53.0135V559.273C53.0135 558.926 52.9235 558.658 52.7436 558.469C52.5656 558.277 52.3184 558.182 52.0021 558.182C51.7824 558.182 51.5855 558.228 51.4112 558.321C51.2389 558.414 51.1025 558.549 51.0021 558.727C50.9036 558.905 50.8544 559.121 50.8544 559.375ZM56.7401 562.091C56.3196 562.091 55.9569 561.998 55.652 561.812C55.349 561.625 55.1151 561.364 54.9503 561.028C54.7874 560.691 54.706 560.299 54.706 559.852C54.706 559.405 54.7874 559.011 54.9503 558.67C55.1151 558.328 55.3442 558.061 55.6378 557.869C55.9332 557.676 56.2779 557.58 56.6719 557.58C56.8991 557.58 57.1236 557.617 57.3452 557.693C57.5668 557.769 57.7685 557.892 57.9503 558.062C58.1321 558.231 58.277 558.455 58.3849 558.733C58.4929 559.011 58.5469 559.354 58.5469 559.761V560.045H55.1832V559.466H57.8651C57.8651 559.22 57.8158 559 57.7173 558.807C57.6207 558.614 57.4825 558.461 57.3026 558.349C57.1245 558.238 56.9143 558.182 56.6719 558.182C56.4048 558.182 56.1738 558.248 55.9787 558.381C55.7855 558.511 55.6368 558.682 55.5327 558.892C55.4285 559.102 55.3764 559.328 55.3764 559.568V559.955C55.3764 560.284 55.4332 560.563 55.5469 560.793C55.6624 561.02 55.8224 561.193 56.027 561.312C56.2315 561.43 56.4692 561.489 56.7401 561.489C56.9162 561.489 57.0753 561.464 57.2173 561.415C57.3613 561.364 57.4853 561.288 57.5895 561.188C57.6937 561.085 57.7741 560.958 57.831 560.807L58.4787 560.989C58.4105 561.208 58.2959 561.402 58.1349 561.568C57.974 561.733 57.7751 561.862 57.5384 561.955C57.3016 562.045 57.0355 562.091 56.7401 562.091ZM56.3537 557.045L55.4673 555.727H56.2514L56.9446 557.045H56.3537ZM59.5668 562V557.636H60.2145V558.318H60.2713C60.3622 558.085 60.509 557.904 60.7116 557.776C60.9143 557.645 61.1577 557.58 61.4418 557.58C61.7296 557.58 61.9692 557.645 62.1605 557.776C62.3537 557.904 62.5043 558.085 62.6122 558.318H62.6577C62.7694 558.093 62.937 557.914 63.1605 557.781C63.384 557.647 63.652 557.58 63.9645 557.58C64.3546 557.58 64.6738 557.702 64.9219 557.946C65.17 558.188 65.294 558.566 65.294 559.08V562H64.6236V559.08C64.6236 558.758 64.5355 558.527 64.3594 558.389C64.1832 558.251 63.9759 558.182 63.7372 558.182C63.4304 558.182 63.1927 558.275 63.0241 558.46C62.8556 558.644 62.7713 558.877 62.7713 559.159V562H62.0895V559.011C62.0895 558.763 62.009 558.563 61.848 558.412C61.687 558.259 61.4796 558.182 61.2259 558.182C61.0516 558.182 60.8887 558.228 60.7372 558.321C60.5876 558.414 60.4664 558.543 60.3736 558.707C60.2827 558.87 60.2372 559.059 60.2372 559.273V562H59.5668ZM68.3494 562.091C67.929 562.091 67.5663 561.998 67.2614 561.812C66.9583 561.625 66.7244 561.364 66.5597 561.028C66.3968 560.691 66.3153 560.299 66.3153 559.852C66.3153 559.405 66.3968 559.011 66.5597 558.67C66.7244 558.328 66.9536 558.061 67.2472 557.869C67.5426 557.676 67.8873 557.58 68.2812 557.58C68.5085 557.58 68.733 557.617 68.9545 557.693C69.1761 557.769 69.3778 557.892 69.5597 558.062C69.7415 558.231 69.8864 558.455 69.9943 558.733C70.1023 559.011 70.1562 559.354 70.1562 559.761V560.045H66.7926V559.466H69.4744C69.4744 559.22 69.4252 559 69.3267 558.807C69.2301 558.614 69.0919 558.461 68.9119 558.349C68.7339 558.238 68.5237 558.182 68.2812 558.182C68.0142 558.182 67.7831 558.248 67.5881 558.381C67.3949 558.511 67.2462 558.682 67.142 558.892C67.0379 559.102 66.9858 559.328 66.9858 559.568V559.955C66.9858 560.284 67.0426 560.563 67.1562 560.793C67.2718 561.02 67.4318 561.193 67.6364 561.312C67.8409 561.43 68.0786 561.489 68.3494 561.489C68.5256 561.489 68.6847 561.464 68.8267 561.415C68.9706 561.364 69.0947 561.288 69.1989 561.188C69.303 561.085 69.3835 560.958 69.4403 560.807L70.0881 560.989C70.0199 561.208 69.9053 561.402 69.7443 561.568C69.5833 561.733 69.3845 561.862 69.1477 561.955C68.911 562.045 68.6449 562.091 68.3494 562.091Z" fill="black"/>
<path d="M381.628 559.375V562H380.957V557.636H381.605V558.318H381.662C381.764 558.097 381.92 557.919 382.128 557.784C382.336 557.648 382.605 557.58 382.935 557.58C383.23 557.58 383.489 557.64 383.71 557.761C383.932 557.881 384.104 558.062 384.227 558.307C384.35 558.549 384.412 558.856 384.412 559.227V562H383.741V559.273C383.741 558.93 383.652 558.663 383.474 558.472C383.296 558.278 383.052 558.182 382.741 558.182C382.527 558.182 382.336 558.228 382.168 558.321C382.001 558.414 381.869 558.549 381.773 558.727C381.676 558.905 381.628 559.121 381.628 559.375ZM386.842 558.75C386.601 558.75 386.381 558.691 386.183 558.574C385.986 558.456 385.828 558.299 385.711 558.102C385.594 557.903 385.535 557.684 385.535 557.443C385.535 557.203 385.594 556.984 385.711 556.787C385.828 556.588 385.986 556.43 386.183 556.312C386.381 556.195 386.601 556.136 386.842 556.136C387.082 556.136 387.301 556.195 387.498 556.312C387.697 556.43 387.855 556.588 387.972 556.787C388.09 556.984 388.148 557.203 388.148 557.443C388.148 557.684 388.09 557.903 387.972 558.102C387.855 558.299 387.697 558.456 387.498 558.574C387.301 558.691 387.082 558.75 386.842 558.75ZM386.842 558.182C386.978 558.182 387.102 558.149 387.214 558.082C387.326 558.016 387.415 557.927 387.481 557.815C387.547 557.704 387.58 557.58 387.58 557.443C387.58 557.307 387.547 557.183 387.481 557.071C387.415 556.959 387.326 556.87 387.214 556.804C387.102 556.738 386.978 556.705 386.842 556.705C386.705 556.705 386.581 556.738 386.469 556.804C386.358 556.87 386.269 556.959 386.202 557.071C386.136 557.183 386.103 557.307 386.103 557.443C386.103 557.58 386.136 557.704 386.202 557.815C386.269 557.927 386.358 558.016 386.469 558.082C386.581 558.149 386.705 558.182 386.842 558.182Z" fill="black"/>
</svg>
