<svg width="411" height="570" viewBox="0 0 411 570" fill="none" xmlns="http://www.w3.org/2000/svg">
<rect width="411" height="570" fill="#EFEFEF"/>
<rect x="18.5" y="535.5" width="80" height="13" stroke="black"/>
<rect x="18.5" y="16.5" width="80" height="13" stroke="black"/>
<path d="M30.9176 21.8068V21.1818H35.2812V21.8068H33.4517V27H32.7472V21.8068H30.9176ZM36.2777 27V22.6364H36.9482V27H36.2777ZM36.6186 21.9091C36.4879 21.9091 36.3752 21.8646 36.2805 21.7756C36.1877 21.6866 36.1413 21.5795 36.1413 21.4545C36.1413 21.3295 36.1877 21.2225 36.2805 21.1335C36.3752 21.0445 36.4879 21 36.6186 21C36.7493 21 36.861 21.0445 36.9538 21.1335C37.0485 21.2225 37.0959 21.3295 37.0959 21.4545C37.0959 21.5795 37.0485 21.6866 36.9538 21.7756C36.861 21.8646 36.7493 21.9091 36.6186 21.9091ZM40.0739 22.6364V23.2045H37.8125V22.6364H40.0739ZM38.4716 21.5909H39.142V25.75C39.142 25.9394 39.1695 26.0814 39.2244 26.1761C39.2813 26.2689 39.3532 26.3314 39.4403 26.3636C39.5294 26.3939 39.6231 26.4091 39.7216 26.4091C39.7955 26.4091 39.8561 26.4053 39.9034 26.3977C39.9508 26.3883 39.9886 26.3807 40.017 26.375L40.1534 26.9773C40.108 26.9943 40.0445 27.0114 39.9631 27.0284C39.8816 27.0473 39.7784 27.0568 39.6534 27.0568C39.464 27.0568 39.2784 27.0161 39.0966 26.9347C38.9167 26.8532 38.767 26.7292 38.6477 26.5625C38.5303 26.3958 38.4716 26.1856 38.4716 25.9318V21.5909ZM41.0824 27V22.6364H41.7301V23.2955H41.7756C41.8551 23.0795 41.9991 22.9044 42.2074 22.7699C42.4157 22.6354 42.6506 22.5682 42.9119 22.5682C42.9612 22.5682 43.0227 22.5691 43.0966 22.571C43.1705 22.5729 43.2263 22.5758 43.2642 22.5795V23.2614C43.2415 23.2557 43.1894 23.2472 43.108 23.2358C43.0284 23.2225 42.9441 23.2159 42.8551 23.2159C42.643 23.2159 42.4536 23.2604 42.2869 23.3494C42.1222 23.4366 41.9915 23.5578 41.8949 23.7131C41.8002 23.8665 41.7528 24.0417 41.7528 24.2386V27H41.0824ZM45.7557 27.0909C45.3352 27.0909 44.9725 26.9981 44.6676 26.8125C44.3646 26.625 44.1307 26.3636 43.9659 26.0284C43.803 25.6913 43.7216 25.2992 43.7216 24.8523C43.7216 24.4053 43.803 24.0114 43.9659 23.6705C44.1307 23.3277 44.3598 23.0606 44.6534 22.8693C44.9489 22.6761 45.2936 22.5795 45.6875 22.5795C45.9148 22.5795 46.1392 22.6174 46.3608 22.6932C46.5824 22.7689 46.7841 22.892 46.9659 23.0625C47.1477 23.2311 47.2926 23.4545 47.4006 23.733C47.5085 24.0114 47.5625 24.3542 47.5625 24.7614V25.0455H44.1989V24.4659H46.8807C46.8807 24.2197 46.8314 24 46.733 23.8068C46.6364 23.6136 46.4981 23.4612 46.3182 23.3494C46.1402 23.2377 45.9299 23.1818 45.6875 23.1818C45.4205 23.1818 45.1894 23.2481 44.9943 23.3807C44.8011 23.5114 44.6525 23.6818 44.5483 23.892C44.4441 24.1023 44.392 24.3277 44.392 24.5682V24.9545C44.392 25.2841 44.4489 25.5634 44.5625 25.7926C44.678 26.0199 44.8381 26.1932 45.0426 26.3125C45.2472 26.4299 45.4848 26.4886 45.7557 26.4886C45.9318 26.4886 46.0909 26.464 46.233 26.4148C46.3769 26.3636 46.5009 26.2879 46.6051 26.1875C46.7093 26.0852 46.7898 25.9583 46.8466 25.8068L47.4943 25.9886C47.4261 26.2083 47.3116 26.4015 47.1506 26.5682C46.9896 26.733 46.7907 26.8617 46.554 26.9545C46.3172 27.0455 46.0511 27.0909 45.7557 27.0909ZM52.4801 27.0909C52.1165 27.0909 51.7955 26.9991 51.517 26.8153C51.2386 26.6297 51.0208 26.3684 50.8636 26.0312C50.7064 25.6922 50.6278 25.2917 50.6278 24.8295C50.6278 24.3712 50.7064 23.9735 50.8636 23.6364C51.0208 23.2992 51.2396 23.0388 51.5199 22.8551C51.8002 22.6714 52.1241 22.5795 52.4915 22.5795C52.7756 22.5795 53 22.6269 53.1648 22.7216C53.3314 22.8144 53.4583 22.9205 53.5455 23.0398C53.6345 23.1572 53.7036 23.2538 53.7528 23.3295H53.8097V21.1818H54.4801V27H53.8324V26.3295H53.7528C53.7036 26.4091 53.6335 26.5095 53.5426 26.6307C53.4517 26.75 53.322 26.857 53.1534 26.9517C52.9848 27.0445 52.7604 27.0909 52.4801 27.0909ZM52.571 26.4886C52.84 26.4886 53.0672 26.4186 53.2528 26.2784C53.4384 26.1364 53.5795 25.9403 53.6761 25.6903C53.7727 25.4384 53.821 25.1477 53.821 24.8182C53.821 24.4924 53.7737 24.2074 53.679 23.9631C53.5843 23.7169 53.4441 23.5256 53.2585 23.3892C53.0729 23.2509 52.8438 23.1818 52.571 23.1818C52.2869 23.1818 52.0502 23.2547 51.8608 23.4006C51.6733 23.5445 51.5322 23.7405 51.4375 23.9886C51.3447 24.2348 51.2983 24.5114 51.2983 24.8182C51.2983 25.1288 51.3456 25.411 51.4403 25.6648C51.5369 25.9167 51.679 26.1174 51.8665 26.267C52.0559 26.4148 52.2907 26.4886 52.571 26.4886ZM58.5511 25.2159V22.6364H59.2216V27H58.5511V26.2614H58.5057C58.4034 26.483 58.2443 26.6714 58.0284 26.8267C57.8125 26.9801 57.5398 27.0568 57.2102 27.0568C56.9375 27.0568 56.6951 26.9972 56.483 26.8778C56.2708 26.7566 56.1042 26.5748 55.983 26.3324C55.8617 26.0881 55.8011 25.7803 55.8011 25.4091V22.6364H56.4716V25.3636C56.4716 25.6818 56.5606 25.9356 56.7386 26.125C56.9186 26.3144 57.1477 26.4091 57.4261 26.4091C57.5928 26.4091 57.7623 26.3665 57.9347 26.2812C58.1089 26.196 58.2547 26.0653 58.3722 25.8892C58.4915 25.7131 58.5511 25.4886 58.5511 25.2159ZM62.6996 22.6364H63.37V27.3182C63.37 27.5871 63.3236 27.8201 63.2308 28.017C63.1399 28.214 63.0017 28.3665 62.8161 28.4744C62.6323 28.5824 62.4003 28.6364 62.12 28.6364C62.0973 28.6364 62.0746 28.6364 62.0518 28.6364C62.0291 28.6364 62.0064 28.6364 61.9837 28.6364V28.0114C62.0064 28.0114 62.0272 28.0114 62.0462 28.0114C62.0651 28.0114 62.0859 28.0114 62.1087 28.0114C62.3132 28.0114 62.4628 27.9508 62.5575 27.8295C62.6522 27.7102 62.6996 27.5398 62.6996 27.3182V22.6364ZM63.0291 21.9091C62.8984 21.9091 62.7857 21.8646 62.6911 21.7756C62.5982 21.6866 62.5518 21.5795 62.5518 21.4545C62.5518 21.3295 62.5982 21.2225 62.6911 21.1335C62.7857 21.0445 62.8984 21 63.0291 21C63.1598 21 63.2715 21.0445 63.3643 21.1335C63.459 21.2225 63.5064 21.3295 63.5064 21.4545C63.5064 21.5795 63.459 21.6866 63.3643 21.7756C63.2715 21.8646 63.1598 21.9091 63.0291 21.9091ZM66.3707 27.0909C65.9768 27.0909 65.6312 26.9972 65.3338 26.8097C65.0384 26.6222 64.8073 26.3598 64.6406 26.0227C64.4759 25.6856 64.3935 25.2917 64.3935 24.8409C64.3935 24.3864 64.4759 23.9896 64.6406 23.6506C64.8073 23.3116 65.0384 23.0483 65.3338 22.8608C65.6312 22.6733 65.9768 22.5795 66.3707 22.5795C66.7647 22.5795 67.1094 22.6733 67.4048 22.8608C67.7022 23.0483 67.9332 23.3116 68.098 23.6506C68.2647 23.9896 68.348 24.3864 68.348 24.8409C68.348 25.2917 68.2647 25.6856 68.098 26.0227C67.9332 26.3598 67.7022 26.6222 67.4048 26.8097C67.1094 26.9972 66.7647 27.0909 66.3707 27.0909ZM66.3707 26.4886C66.67 26.4886 66.9162 26.4119 67.1094 26.2585C67.3026 26.1051 67.4455 25.9034 67.5384 25.6534C67.6312 25.4034 67.6776 25.1326 67.6776 24.8409C67.6776 24.5492 67.6312 24.2775 67.5384 24.0256C67.4455 23.7737 67.3026 23.5701 67.1094 23.4148C66.9162 23.2595 66.67 23.1818 66.3707 23.1818C66.0715 23.1818 65.8253 23.2595 65.6321 23.4148C65.4389 23.5701 65.2959 23.7737 65.2031 24.0256C65.1103 24.2775 65.0639 24.5492 65.0639 24.8409C65.0639 25.1326 65.1103 25.4034 65.2031 25.6534C65.2959 25.9034 65.4389 26.1051 65.6321 26.2585C65.8253 26.4119 66.0715 26.4886 66.3707 26.4886ZM72.1214 25.2159V22.6364H72.7919V27H72.1214V26.2614H72.076C71.9737 26.483 71.8146 26.6714 71.5987 26.8267C71.3828 26.9801 71.1101 27.0568 70.7805 27.0568C70.5078 27.0568 70.2654 26.9972 70.0533 26.8778C69.8411 26.7566 69.6745 26.5748 69.5533 26.3324C69.4321 26.0881 69.3714 25.7803 69.3714 25.4091V22.6364H70.0419V25.3636C70.0419 25.6818 70.1309 25.9356 70.3089 26.125C70.4889 26.3144 70.718 26.4091 70.9964 26.4091C71.1631 26.4091 71.3326 26.3665 71.505 26.2812C71.6792 26.196 71.825 26.0653 71.9425 25.8892C72.0618 25.7131 72.1214 25.4886 72.1214 25.2159ZM74.0199 27V22.6364H74.6676V23.2955H74.7131C74.7926 23.0795 74.9366 22.9044 75.1449 22.7699C75.3532 22.6354 75.5881 22.5682 75.8494 22.5682C75.8987 22.5682 75.9602 22.5691 76.0341 22.571C76.108 22.5729 76.1638 22.5758 76.2017 22.5795V23.2614C76.179 23.2557 76.1269 23.2472 76.0455 23.2358C75.9659 23.2225 75.8816 23.2159 75.7926 23.2159C75.5805 23.2159 75.3911 23.2604 75.2244 23.3494C75.0597 23.4366 74.929 23.5578 74.8324 23.7131C74.7377 23.8665 74.6903 24.0417 74.6903 24.2386V27H74.0199ZM77.6669 24.375V27H76.9964V22.6364H77.6442V23.3182H77.701C77.8033 23.0966 77.9586 22.9186 78.1669 22.7841C78.3752 22.6477 78.6442 22.5795 78.9737 22.5795C79.2692 22.5795 79.5277 22.6402 79.7493 22.7614C79.9709 22.8807 80.1432 23.0625 80.2663 23.3068C80.3894 23.5492 80.451 23.8561 80.451 24.2273V27H79.7805V24.2727C79.7805 23.9299 79.6915 23.6629 79.5135 23.4716C79.3355 23.2784 79.0911 23.1818 78.7805 23.1818C78.5665 23.1818 78.3752 23.2282 78.2067 23.321C78.04 23.4138 77.9084 23.5492 77.8118 23.7273C77.7152 23.9053 77.6669 24.1212 77.6669 24.375ZM82.9602 27.1023C82.6837 27.1023 82.4328 27.0502 82.2074 26.946C81.982 26.84 81.803 26.6875 81.6705 26.4886C81.5379 26.2879 81.4716 26.0455 81.4716 25.7614C81.4716 25.5114 81.5208 25.3087 81.6193 25.1534C81.7178 24.9962 81.8494 24.8731 82.0142 24.7841C82.179 24.6951 82.3608 24.6288 82.5597 24.5852C82.7604 24.5398 82.9621 24.5038 83.1648 24.4773C83.4299 24.4432 83.6449 24.4176 83.8097 24.4006C83.9763 24.3816 84.0975 24.3504 84.1733 24.3068C84.2509 24.2633 84.2898 24.1875 84.2898 24.0795V24.0568C84.2898 23.7765 84.2131 23.5587 84.0597 23.4034C83.9081 23.2481 83.678 23.1705 83.3693 23.1705C83.0492 23.1705 82.7983 23.2405 82.6165 23.3807C82.4347 23.5208 82.3068 23.6705 82.233 23.8295L81.5966 23.6023C81.7102 23.3371 81.8617 23.1307 82.0511 22.983C82.2424 22.8333 82.4508 22.7292 82.6761 22.6705C82.9034 22.6098 83.1269 22.5795 83.3466 22.5795C83.4867 22.5795 83.6477 22.5966 83.8295 22.6307C84.0133 22.6629 84.1903 22.7301 84.3608 22.8324C84.5331 22.9347 84.6761 23.089 84.7898 23.2955C84.9034 23.5019 84.9602 23.7784 84.9602 24.125V27H84.2898V26.4091H84.2557C84.2102 26.5038 84.1345 26.6051 84.0284 26.7131C83.9223 26.821 83.7813 26.9129 83.6051 26.9886C83.429 27.0644 83.214 27.1023 82.9602 27.1023ZM83.0625 26.5C83.3277 26.5 83.5511 26.4479 83.733 26.3438C83.9167 26.2396 84.0549 26.1051 84.1477 25.9403C84.2424 25.7756 84.2898 25.6023 84.2898 25.4205V24.8068C84.2614 24.8409 84.1989 24.8722 84.1023 24.9006C84.0076 24.9271 83.8977 24.9508 83.7727 24.9716C83.6496 24.9905 83.5294 25.0076 83.4119 25.0227C83.2964 25.036 83.2027 25.0473 83.1307 25.0568C82.9564 25.0795 82.7936 25.1165 82.642 25.1676C82.4924 25.2169 82.3712 25.2917 82.2784 25.392C82.1875 25.4905 82.142 25.625 82.142 25.7955C82.142 26.0284 82.2282 26.2045 82.4006 26.3239C82.5748 26.4413 82.7955 26.5 83.0625 26.5ZM86.8544 21.1818V27H86.1839V21.1818H86.8544Z" fill="black"/>
<rect x="380.5" y="535.5" width="15" height="13" stroke="black"/>
<path d="M30.5213 545H29.7827L31.919 539.182H32.6463L34.7827 545H34.044L32.3054 540.102H32.2599L30.5213 545ZM30.794 542.727H33.7713V543.352H30.794V542.727ZM36.2685 542.375V545H35.598V540.636H36.2457V541.318H36.3026C36.4048 541.097 36.5601 540.919 36.7685 540.784C36.9768 540.648 37.2457 540.58 37.5753 540.58C37.8707 540.58 38.1293 540.64 38.3509 540.761C38.5724 540.881 38.7448 541.062 38.8679 541.307C38.991 541.549 39.0526 541.856 39.0526 542.227V545H38.3821V542.273C38.3821 541.93 38.2931 541.663 38.1151 541.472C37.937 541.278 37.6927 541.182 37.3821 541.182C37.1681 541.182 36.9768 541.228 36.8082 541.321C36.6416 541.414 36.5099 541.549 36.4134 541.727C36.3168 541.905 36.2685 542.121 36.2685 542.375ZM40.9482 542.375V545H40.2777V540.636H40.9254V541.318H40.9822C41.0845 541.097 41.2398 540.919 41.4482 540.784C41.6565 540.648 41.9254 540.58 42.255 540.58C42.5504 540.58 42.8089 540.64 43.0305 540.761C43.2521 540.881 43.4245 541.062 43.5476 541.307C43.6707 541.549 43.7322 541.856 43.7322 542.227V545H43.0618V542.273C43.0618 541.93 42.9728 541.663 42.7947 541.472C42.6167 541.278 42.3724 541.182 42.0618 541.182C41.8478 541.182 41.6565 541.228 41.4879 541.321C41.3213 541.414 41.1896 541.549 41.093 541.727C40.9964 541.905 40.9482 542.121 40.9482 542.375ZM46.7869 545.091C46.3665 545.091 46.0038 544.998 45.6989 544.812C45.3958 544.625 45.1619 544.364 44.9972 544.028C44.8343 543.691 44.7528 543.299 44.7528 542.852C44.7528 542.405 44.8343 542.011 44.9972 541.67C45.1619 541.328 45.3911 541.061 45.6847 540.869C45.9801 540.676 46.3248 540.58 46.7188 540.58C46.946 540.58 47.1705 540.617 47.392 540.693C47.6136 540.769 47.8153 540.892 47.9972 541.062C48.179 541.231 48.3239 541.455 48.4318 541.733C48.5398 542.011 48.5938 542.354 48.5938 542.761V543.045H45.2301V542.466H47.9119C47.9119 542.22 47.8627 542 47.7642 541.807C47.6676 541.614 47.5294 541.461 47.3494 541.349C47.1714 541.238 46.9612 541.182 46.7188 541.182C46.4517 541.182 46.2206 541.248 46.0256 541.381C45.8324 541.511 45.6837 541.682 45.5795 541.892C45.4754 542.102 45.4233 542.328 45.4233 542.568V542.955C45.4233 543.284 45.4801 543.563 45.5938 543.793C45.7093 544.02 45.8693 544.193 46.0739 544.312C46.2784 544.43 46.5161 544.489 46.7869 544.489C46.9631 544.489 47.1222 544.464 47.2642 544.415C47.4081 544.364 47.5322 544.288 47.6364 544.188C47.7405 544.085 47.821 543.958 47.8778 543.807L48.5256 543.989C48.4574 544.208 48.3428 544.402 48.1818 544.568C48.0208 544.733 47.822 544.862 47.5852 544.955C47.3485 545.045 47.0824 545.091 46.7869 545.091ZM46.3778 540.045L47.071 538.727H47.8551L46.9688 540.045H46.3778ZM51.4432 545.091C51.0227 545.091 50.66 544.998 50.3551 544.812C50.0521 544.625 49.8182 544.364 49.6534 544.028C49.4905 543.691 49.4091 543.299 49.4091 542.852C49.4091 542.405 49.4905 542.011 49.6534 541.67C49.8182 541.328 50.0473 541.061 50.3409 540.869C50.6364 540.676 50.9811 540.58 51.375 540.58C51.6023 540.58 51.8267 540.617 52.0483 540.693C52.2699 540.769 52.4716 540.892 52.6534 541.062C52.8352 541.231 52.9801 541.455 53.0881 541.733C53.196 542.011 53.25 542.354 53.25 542.761V543.045H49.8864V542.466H52.5682C52.5682 542.22 52.5189 542 52.4205 541.807C52.3239 541.614 52.1856 541.461 52.0057 541.349C51.8277 541.238 51.6174 541.182 51.375 541.182C51.108 541.182 50.8769 541.248 50.6818 541.381C50.4886 541.511 50.34 541.682 50.2358 541.892C50.1316 542.102 50.0795 542.328 50.0795 542.568V542.955C50.0795 543.284 50.1364 543.563 50.25 543.793C50.3655 544.02 50.5256 544.193 50.7301 544.312C50.9347 544.43 51.1723 544.489 51.4432 544.489C51.6193 544.489 51.7784 544.464 51.9205 544.415C52.0644 544.364 52.1884 544.288 52.2926 544.188C52.3968 544.085 52.4773 543.958 52.5341 543.807L53.1818 543.989C53.1136 544.208 52.9991 544.402 52.8381 544.568C52.6771 544.733 52.4782 544.862 52.2415 544.955C52.0047 545.045 51.7386 545.091 51.4432 545.091ZM58.2244 544.602V540.852H58.8608V544.602H58.2244ZM56.6676 543.045V542.409H60.4176V543.045H56.6676ZM65.9411 540.636V541.205H63.6797V540.636H65.9411ZM64.3388 539.591H65.0092V543.75C65.0092 543.939 65.0367 544.081 65.0916 544.176C65.1484 544.269 65.2204 544.331 65.3075 544.364C65.3965 544.394 65.4903 544.409 65.5888 544.409C65.6626 544.409 65.7232 544.405 65.7706 544.398C65.8179 544.388 65.8558 544.381 65.8842 544.375L66.0206 544.977C65.9751 544.994 65.9117 545.011 65.8303 545.028C65.7488 545.047 65.6456 545.057 65.5206 545.057C65.3312 545.057 65.1456 545.016 64.9638 544.935C64.7839 544.853 64.6342 544.729 64.5149 544.562C64.3975 544.396 64.3388 544.186 64.3388 543.932V539.591ZM67.7138 542.375V545H67.0433V539.182H67.7138V541.318H67.7706C67.8729 541.093 68.0263 540.914 68.2308 540.781C68.4373 540.647 68.7119 540.58 69.0547 540.58C69.352 540.58 69.6125 540.639 69.8359 540.759C70.0594 540.876 70.2327 541.057 70.3558 541.301C70.4808 541.544 70.5433 541.852 70.5433 542.227V545H69.8729V542.273C69.8729 541.926 69.7829 541.658 69.603 541.469C69.425 541.277 69.1778 541.182 68.8615 541.182C68.6418 541.182 68.4448 541.228 68.2706 541.321C68.0982 541.414 67.9619 541.549 67.8615 541.727C67.763 541.905 67.7138 542.121 67.7138 542.375ZM73.5994 545.091C73.179 545.091 72.8163 544.998 72.5114 544.812C72.2083 544.625 71.9744 544.364 71.8097 544.028C71.6468 543.691 71.5653 543.299 71.5653 542.852C71.5653 542.405 71.6468 542.011 71.8097 541.67C71.9744 541.328 72.2036 541.061 72.4972 540.869C72.7926 540.676 73.1373 540.58 73.5312 540.58C73.7585 540.58 73.983 540.617 74.2045 540.693C74.4261 540.769 74.6278 540.892 74.8097 541.062C74.9915 541.231 75.1364 541.455 75.2443 541.733C75.3523 542.011 75.4062 542.354 75.4062 542.761V543.045H72.0426V542.466H74.7244C74.7244 542.22 74.6752 542 74.5767 541.807C74.4801 541.614 74.3419 541.461 74.1619 541.349C73.9839 541.238 73.7737 541.182 73.5312 541.182C73.2642 541.182 73.0331 541.248 72.8381 541.381C72.6449 541.511 72.4962 541.682 72.392 541.892C72.2879 542.102 72.2358 542.328 72.2358 542.568V542.955C72.2358 543.284 72.2926 543.563 72.4062 543.793C72.5218 544.02 72.6818 544.193 72.8864 544.312C73.0909 544.43 73.3286 544.489 73.5994 544.489C73.7756 544.489 73.9347 544.464 74.0767 544.415C74.2206 544.364 74.3447 544.288 74.4489 544.188C74.553 544.085 74.6335 543.958 74.6903 543.807L75.3381 543.989C75.2699 544.208 75.1553 544.402 74.9943 544.568C74.8333 544.733 74.6345 544.862 74.3977 544.955C74.161 545.045 73.8949 545.091 73.5994 545.091ZM73.2131 540.045L72.3267 538.727H73.1108L73.804 540.045H73.2131ZM76.4261 545V540.636H77.0739V541.318H77.1307C77.2216 541.085 77.3684 540.904 77.571 540.776C77.7737 540.645 78.017 540.58 78.3011 540.58C78.589 540.58 78.8286 540.645 79.0199 540.776C79.2131 540.904 79.3636 541.085 79.4716 541.318H79.517C79.6288 541.093 79.7964 540.914 80.0199 540.781C80.2434 540.647 80.5114 540.58 80.8239 540.58C81.214 540.58 81.5331 540.702 81.7812 540.946C82.0294 541.188 82.1534 541.566 82.1534 542.08V545H81.483V542.08C81.483 541.758 81.3949 541.527 81.2188 541.389C81.0426 541.251 80.8352 541.182 80.5966 541.182C80.2898 541.182 80.0521 541.275 79.8835 541.46C79.715 541.644 79.6307 541.877 79.6307 542.159V545H78.9489V542.011C78.9489 541.763 78.8684 541.563 78.7074 541.412C78.5464 541.259 78.339 541.182 78.0852 541.182C77.911 541.182 77.7481 541.228 77.5966 541.321C77.447 541.414 77.3258 541.543 77.233 541.707C77.142 541.87 77.0966 542.059 77.0966 542.273V545H76.4261ZM85.2088 545.091C84.7884 545.091 84.4257 544.998 84.1207 544.812C83.8177 544.625 83.5838 544.364 83.419 544.028C83.2562 543.691 83.1747 543.299 83.1747 542.852C83.1747 542.405 83.2562 542.011 83.419 541.67C83.5838 541.328 83.813 541.061 84.1065 540.869C84.402 540.676 84.7467 540.58 85.1406 540.58C85.3679 540.58 85.5923 540.617 85.8139 540.693C86.0355 540.769 86.2372 540.892 86.419 541.062C86.6009 541.231 86.7457 541.455 86.8537 541.733C86.9616 542.011 87.0156 542.354 87.0156 542.761V543.045H83.652V542.466H86.3338C86.3338 542.22 86.2846 542 86.1861 541.807C86.0895 541.614 85.9512 541.461 85.7713 541.349C85.5933 541.238 85.383 541.182 85.1406 541.182C84.8736 541.182 84.6425 541.248 84.4474 541.381C84.2543 541.511 84.1056 541.682 84.0014 541.892C83.8973 542.102 83.8452 542.328 83.8452 542.568V542.955C83.8452 543.284 83.902 543.563 84.0156 543.793C84.1312 544.02 84.2912 544.193 84.4957 544.312C84.7003 544.43 84.938 544.489 85.2088 544.489C85.3849 544.489 85.544 544.464 85.6861 544.415C85.83 544.364 85.9541 544.288 86.0582 544.188C86.1624 544.085 86.2429 543.958 86.2997 543.807L86.9474 543.989C86.8793 544.208 86.7647 544.402 86.6037 544.568C86.4427 544.733 86.2438 544.862 86.0071 544.955C85.7704 545.045 85.5043 545.091 85.2088 545.091Z" fill="black"/>
<path d="M384.628 542.375V545H383.957V540.636H384.605V541.318H384.662C384.764 541.097 384.92 540.919 385.128 540.784C385.336 540.648 385.605 540.58 385.935 540.58C386.23 540.58 386.489 540.64 386.71 540.761C386.932 540.881 387.104 541.062 387.227 541.307C387.35 541.549 387.412 541.856 387.412 542.227V545H386.741V542.273C386.741 541.93 386.652 541.663 386.474 541.472C386.296 541.278 386.052 541.182 385.741 541.182C385.527 541.182 385.336 541.228 385.168 541.321C385.001 541.414 384.869 541.549 384.773 541.727C384.676 541.905 384.628 542.121 384.628 542.375ZM389.842 541.75C389.601 541.75 389.381 541.691 389.183 541.574C388.986 541.456 388.828 541.299 388.711 541.102C388.594 540.903 388.535 540.684 388.535 540.443C388.535 540.203 388.594 539.984 388.711 539.787C388.828 539.588 388.986 539.43 389.183 539.312C389.381 539.195 389.601 539.136 389.842 539.136C390.082 539.136 390.301 539.195 390.498 539.312C390.697 539.43 390.855 539.588 390.972 539.787C391.09 539.984 391.148 540.203 391.148 540.443C391.148 540.684 391.09 540.903 390.972 541.102C390.855 541.299 390.697 541.456 390.498 541.574C390.301 541.691 390.082 541.75 389.842 541.75ZM389.842 541.182C389.978 541.182 390.102 541.149 390.214 541.082C390.326 541.016 390.415 540.927 390.481 540.815C390.547 540.704 390.58 540.58 390.58 540.443C390.58 540.307 390.547 540.183 390.481 540.071C390.415 539.959 390.326 539.87 390.214 539.804C390.102 539.738 389.978 539.705 389.842 539.705C389.705 539.705 389.581 539.738 389.469 539.804C389.358 539.87 389.269 539.959 389.202 540.071C389.136 540.183 389.103 540.307 389.103 540.443C389.103 540.58 389.136 540.704 389.202 540.815C389.269 540.927 389.358 541.016 389.469 541.082C389.581 541.149 389.705 541.182 389.842 541.182Z" fill="black"/>
<rect x="18.5" y="47.5" width="377" height="478" stroke="black"/>
<path d="M158.359 276V275.489L161.495 270.807H158.325V270.182H162.336V270.693L159.2 275.375H162.37V276H158.359ZM165.234 276.091C164.84 276.091 164.494 275.997 164.197 275.81C163.902 275.622 163.671 275.36 163.504 275.023C163.339 274.686 163.257 274.292 163.257 273.841C163.257 273.386 163.339 272.99 163.504 272.651C163.671 272.312 163.902 272.048 164.197 271.861C164.494 271.673 164.84 271.58 165.234 271.58C165.628 271.58 165.973 271.673 166.268 271.861C166.565 272.048 166.797 272.312 166.961 272.651C167.128 272.99 167.211 273.386 167.211 273.841C167.211 274.292 167.128 274.686 166.961 275.023C166.797 275.36 166.565 275.622 166.268 275.81C165.973 275.997 165.628 276.091 165.234 276.091ZM165.234 275.489C165.533 275.489 165.779 275.412 165.973 275.259C166.166 275.105 166.309 274.903 166.402 274.653C166.494 274.403 166.541 274.133 166.541 273.841C166.541 273.549 166.494 273.277 166.402 273.026C166.309 272.774 166.166 272.57 165.973 272.415C165.779 272.259 165.533 272.182 165.234 272.182C164.935 272.182 164.689 272.259 164.495 272.415C164.302 272.57 164.159 272.774 164.066 273.026C163.974 273.277 163.927 273.549 163.927 273.841C163.927 274.133 163.974 274.403 164.066 274.653C164.159 274.903 164.302 275.105 164.495 275.259C164.689 275.412 164.935 275.489 165.234 275.489ZM168.905 273.375V276H168.235V271.636H168.882V272.318H168.939C169.042 272.097 169.197 271.919 169.405 271.784C169.614 271.648 169.882 271.58 170.212 271.58C170.507 271.58 170.766 271.64 170.988 271.761C171.209 271.881 171.382 272.062 171.505 272.307C171.628 272.549 171.689 272.856 171.689 273.227V276H171.019V273.273C171.019 272.93 170.93 272.663 170.752 272.472C170.574 272.278 170.329 272.182 170.019 272.182C169.805 272.182 169.614 272.228 169.445 272.321C169.278 272.414 169.147 272.549 169.05 272.727C168.953 272.905 168.905 273.121 168.905 273.375ZM174.744 276.091C174.324 276.091 173.961 275.998 173.656 275.812C173.353 275.625 173.119 275.364 172.954 275.028C172.791 274.691 172.71 274.299 172.71 273.852C172.71 273.405 172.791 273.011 172.954 272.67C173.119 272.328 173.348 272.061 173.642 271.869C173.937 271.676 174.282 271.58 174.676 271.58C174.903 271.58 175.127 271.617 175.349 271.693C175.571 271.769 175.772 271.892 175.954 272.062C176.136 272.231 176.281 272.455 176.389 272.733C176.497 273.011 176.551 273.354 176.551 273.761V274.045H173.187V273.466H175.869C175.869 273.22 175.82 273 175.721 272.807C175.625 272.614 175.486 272.461 175.306 272.349C175.128 272.238 174.918 272.182 174.676 272.182C174.409 272.182 174.178 272.248 173.983 272.381C173.789 272.511 173.641 272.682 173.537 272.892C173.432 273.102 173.38 273.328 173.38 273.568V273.955C173.38 274.284 173.437 274.563 173.551 274.793C173.666 275.02 173.826 275.193 174.031 275.312C174.235 275.43 174.473 275.489 174.744 275.489C174.92 275.489 175.079 275.464 175.221 275.415C175.365 275.364 175.489 275.288 175.593 275.188C175.698 275.085 175.778 274.958 175.835 274.807L176.483 274.989C176.414 275.208 176.3 275.402 176.139 275.568C175.978 275.733 175.779 275.862 175.542 275.955C175.306 276.045 175.039 276.091 174.744 276.091ZM181.468 276.091C181.105 276.091 180.784 275.999 180.505 275.815C180.227 275.63 180.009 275.368 179.852 275.031C179.695 274.692 179.616 274.292 179.616 273.83C179.616 273.371 179.695 272.973 179.852 272.636C180.009 272.299 180.228 272.039 180.508 271.855C180.788 271.671 181.112 271.58 181.48 271.58C181.764 271.58 181.988 271.627 182.153 271.722C182.32 271.814 182.447 271.92 182.534 272.04C182.623 272.157 182.692 272.254 182.741 272.33H182.798V270.182H183.468V276H182.821V275.33H182.741C182.692 275.409 182.622 275.509 182.531 275.631C182.44 275.75 182.31 275.857 182.142 275.952C181.973 276.045 181.749 276.091 181.468 276.091ZM181.559 275.489C181.828 275.489 182.056 275.419 182.241 275.278C182.427 275.136 182.568 274.94 182.664 274.69C182.761 274.438 182.809 274.148 182.809 273.818C182.809 273.492 182.762 273.207 182.667 272.963C182.573 272.717 182.432 272.526 182.247 272.389C182.061 272.251 181.832 272.182 181.559 272.182C181.275 272.182 181.038 272.255 180.849 272.401C180.662 272.545 180.52 272.741 180.426 272.989C180.333 273.235 180.287 273.511 180.287 273.818C180.287 274.129 180.334 274.411 180.429 274.665C180.525 274.917 180.667 275.117 180.855 275.267C181.044 275.415 181.279 275.489 181.559 275.489ZM186.619 276.091C186.199 276.091 185.836 275.998 185.531 275.812C185.228 275.625 184.994 275.364 184.829 275.028C184.666 274.691 184.585 274.299 184.585 273.852C184.585 273.405 184.666 273.011 184.829 272.67C184.994 272.328 185.223 272.061 185.517 271.869C185.812 271.676 186.157 271.58 186.551 271.58C186.778 271.58 187.002 271.617 187.224 271.693C187.446 271.769 187.647 271.892 187.829 272.062C188.011 272.231 188.156 272.455 188.264 272.733C188.372 273.011 188.426 273.354 188.426 273.761V274.045H185.062V273.466H187.744C187.744 273.22 187.695 273 187.596 272.807C187.5 272.614 187.361 272.461 187.181 272.349C187.003 272.238 186.793 272.182 186.551 272.182C186.284 272.182 186.053 272.248 185.858 272.381C185.664 272.511 185.516 272.682 185.412 272.892C185.307 273.102 185.255 273.328 185.255 273.568V273.955C185.255 274.284 185.312 274.563 185.426 274.793C185.541 275.02 185.701 275.193 185.906 275.312C186.11 275.43 186.348 275.489 186.619 275.489C186.795 275.489 186.954 275.464 187.096 275.415C187.24 275.364 187.364 275.288 187.468 275.188C187.573 275.085 187.653 274.958 187.71 274.807L188.358 274.989C188.289 275.208 188.175 275.402 188.014 275.568C187.853 275.733 187.654 275.862 187.417 275.955C187.181 276.045 186.914 276.091 186.619 276.091ZM191.696 277.636V271.636H192.343V272.33H192.423C192.472 272.254 192.54 272.157 192.627 272.04C192.717 271.92 192.843 271.814 193.008 271.722C193.175 271.627 193.4 271.58 193.684 271.58C194.052 271.58 194.376 271.671 194.656 271.855C194.936 272.039 195.155 272.299 195.312 272.636C195.469 272.973 195.548 273.371 195.548 273.83C195.548 274.292 195.469 274.692 195.312 275.031C195.155 275.368 194.937 275.63 194.659 275.815C194.38 275.999 194.059 276.091 193.696 276.091C193.415 276.091 193.191 276.045 193.022 275.952C192.854 275.857 192.724 275.75 192.633 275.631C192.542 275.509 192.472 275.409 192.423 275.33H192.366V277.636H191.696ZM192.355 273.818C192.355 274.148 192.403 274.438 192.5 274.69C192.596 274.94 192.737 275.136 192.923 275.278C193.109 275.419 193.336 275.489 193.605 275.489C193.885 275.489 194.119 275.415 194.306 275.267C194.496 275.117 194.638 274.917 194.733 274.665C194.829 274.411 194.877 274.129 194.877 273.818C194.877 273.511 194.83 273.235 194.735 272.989C194.643 272.741 194.502 272.545 194.312 272.401C194.125 272.255 193.889 272.182 193.605 272.182C193.332 272.182 193.103 272.251 192.917 272.389C192.732 272.526 192.592 272.717 192.497 272.963C192.402 273.207 192.355 273.492 192.355 273.818ZM198.4 276.091C197.98 276.091 197.617 275.998 197.312 275.812C197.009 275.625 196.775 275.364 196.61 275.028C196.448 274.691 196.366 274.299 196.366 273.852C196.366 273.405 196.448 273.011 196.61 272.67C196.775 272.328 197.004 272.061 197.298 271.869C197.593 271.676 197.938 271.58 198.332 271.58C198.559 271.58 198.784 271.617 199.005 271.693C199.227 271.769 199.429 271.892 199.61 272.062C199.792 272.231 199.937 272.455 200.045 272.733C200.153 273.011 200.207 273.354 200.207 273.761V274.045H196.843V273.466H199.525C199.525 273.22 199.476 273 199.377 272.807C199.281 272.614 199.143 272.461 198.963 272.349C198.785 272.238 198.574 272.182 198.332 272.182C198.065 272.182 197.834 272.248 197.639 272.381C197.446 272.511 197.297 272.682 197.193 272.892C197.089 273.102 197.037 273.328 197.037 273.568V273.955C197.037 274.284 197.093 274.563 197.207 274.793C197.323 275.02 197.483 275.193 197.687 275.312C197.892 275.43 198.129 275.489 198.4 275.489C198.576 275.489 198.735 275.464 198.877 275.415C199.021 275.364 199.145 275.288 199.25 275.188C199.354 275.085 199.434 274.958 199.491 274.807L200.139 274.989C200.071 275.208 199.956 275.402 199.795 275.568C199.634 275.733 199.435 275.862 199.199 275.955C198.962 276.045 198.696 276.091 198.4 276.091ZM201.227 276V271.636H201.875V272.295H201.92C202 272.08 202.144 271.904 202.352 271.77C202.56 271.635 202.795 271.568 203.056 271.568C203.106 271.568 203.167 271.569 203.241 271.571C203.315 271.573 203.371 271.576 203.409 271.58V272.261C203.386 272.256 203.334 272.247 203.252 272.236C203.173 272.223 203.089 272.216 203 272.216C202.788 272.216 202.598 272.26 202.431 272.349C202.267 272.437 202.136 272.558 202.039 272.713C201.945 272.866 201.897 273.042 201.897 273.239V276H201.227ZM207.294 272.614L206.692 272.784C206.654 272.684 206.598 272.586 206.525 272.491C206.453 272.395 206.354 272.315 206.229 272.253C206.104 272.19 205.944 272.159 205.749 272.159C205.482 272.159 205.259 272.221 205.081 272.344C204.905 272.465 204.817 272.619 204.817 272.807C204.817 272.973 204.878 273.105 204.999 273.202C205.12 273.298 205.31 273.379 205.567 273.443L206.215 273.602C206.605 273.697 206.896 273.842 207.087 274.037C207.278 274.23 207.374 274.479 207.374 274.784C207.374 275.034 207.302 275.258 207.158 275.455C207.016 275.652 206.817 275.807 206.561 275.92C206.306 276.034 206.008 276.091 205.669 276.091C205.224 276.091 204.856 275.994 204.564 275.801C204.273 275.608 204.088 275.326 204.01 274.955L204.647 274.795C204.707 275.03 204.822 275.206 204.99 275.324C205.161 275.441 205.383 275.5 205.658 275.5C205.971 275.5 206.219 275.434 206.402 275.301C206.588 275.167 206.681 275.006 206.681 274.818C206.681 274.667 206.628 274.54 206.522 274.438C206.416 274.333 206.253 274.256 206.033 274.205L205.306 274.034C204.906 273.939 204.613 273.793 204.425 273.594C204.239 273.393 204.147 273.142 204.147 272.841C204.147 272.595 204.216 272.377 204.354 272.188C204.494 271.998 204.685 271.849 204.925 271.741C205.167 271.634 205.442 271.58 205.749 271.58C206.181 271.58 206.52 271.674 206.766 271.864C207.014 272.053 207.19 272.303 207.294 272.614ZM210.156 276.091C209.762 276.091 209.416 275.997 209.119 275.81C208.824 275.622 208.592 275.36 208.426 275.023C208.261 274.686 208.179 274.292 208.179 273.841C208.179 273.386 208.261 272.99 208.426 272.651C208.592 272.312 208.824 272.048 209.119 271.861C209.416 271.673 209.762 271.58 210.156 271.58C210.55 271.58 210.895 271.673 211.19 271.861C211.487 272.048 211.718 272.312 211.883 272.651C212.05 272.99 212.133 273.386 212.133 273.841C212.133 274.292 212.05 274.686 211.883 275.023C211.718 275.36 211.487 275.622 211.19 275.81C210.895 275.997 210.55 276.091 210.156 276.091ZM210.156 275.489C210.455 275.489 210.701 275.412 210.895 275.259C211.088 275.105 211.231 274.903 211.324 274.653C211.416 274.403 211.463 274.133 211.463 273.841C211.463 273.549 211.416 273.277 211.324 273.026C211.231 272.774 211.088 272.57 210.895 272.415C210.701 272.259 210.455 272.182 210.156 272.182C209.857 272.182 209.61 272.259 209.417 272.415C209.224 272.57 209.081 272.774 208.988 273.026C208.895 273.277 208.849 273.549 208.849 273.841C208.849 274.133 208.895 274.403 208.988 274.653C209.081 274.903 209.224 275.105 209.417 275.259C209.61 275.412 209.857 275.489 210.156 275.489ZM213.827 273.375V276H213.157V271.636H213.804V272.318H213.861C213.963 272.097 214.119 271.919 214.327 271.784C214.535 271.648 214.804 271.58 215.134 271.58C215.429 271.58 215.688 271.64 215.909 271.761C216.131 271.881 216.303 272.062 216.426 272.307C216.55 272.549 216.611 272.856 216.611 273.227V276H215.941V273.273C215.941 272.93 215.852 272.663 215.674 272.472C215.496 272.278 215.251 272.182 214.941 272.182C214.727 272.182 214.535 272.228 214.367 272.321C214.2 272.414 214.069 272.549 213.972 272.727C213.875 272.905 213.827 273.121 213.827 273.375ZM218.507 273.375V276H217.836V271.636H218.484V272.318H218.541C218.643 272.097 218.798 271.919 219.007 271.784C219.215 271.648 219.484 271.58 219.814 271.58C220.109 271.58 220.368 271.64 220.589 271.761C220.811 271.881 220.983 272.062 221.106 272.307C221.229 272.549 221.291 272.856 221.291 273.227V276H220.62V273.273C220.62 272.93 220.531 272.663 220.353 272.472C220.175 272.278 219.931 272.182 219.62 272.182C219.406 272.182 219.215 272.228 219.047 272.321C218.88 272.414 218.748 272.549 218.652 272.727C218.555 272.905 218.507 273.121 218.507 273.375ZM223.8 276.102C223.524 276.102 223.273 276.05 223.047 275.946C222.822 275.84 222.643 275.688 222.51 275.489C222.378 275.288 222.311 275.045 222.311 274.761C222.311 274.511 222.361 274.309 222.459 274.153C222.558 273.996 222.689 273.873 222.854 273.784C223.019 273.695 223.201 273.629 223.4 273.585C223.6 273.54 223.802 273.504 224.005 273.477C224.27 273.443 224.485 273.418 224.65 273.401C224.816 273.382 224.937 273.35 225.013 273.307C225.091 273.263 225.13 273.187 225.13 273.08V273.057C225.13 272.777 225.053 272.559 224.9 272.403C224.748 272.248 224.518 272.17 224.209 272.17C223.889 272.17 223.638 272.241 223.456 272.381C223.275 272.521 223.147 272.67 223.073 272.83L222.436 272.602C222.55 272.337 222.702 272.131 222.891 271.983C223.082 271.833 223.291 271.729 223.516 271.67C223.743 271.61 223.967 271.58 224.186 271.58C224.327 271.58 224.488 271.597 224.669 271.631C224.853 271.663 225.03 271.73 225.201 271.832C225.373 271.935 225.516 272.089 225.63 272.295C225.743 272.502 225.8 272.778 225.8 273.125V276H225.13V275.409H225.096C225.05 275.504 224.974 275.605 224.868 275.713C224.762 275.821 224.621 275.913 224.445 275.989C224.269 276.064 224.054 276.102 223.8 276.102ZM223.902 275.5C224.167 275.5 224.391 275.448 224.573 275.344C224.757 275.24 224.895 275.105 224.988 274.94C225.082 274.776 225.13 274.602 225.13 274.42V273.807C225.101 273.841 225.039 273.872 224.942 273.901C224.847 273.927 224.738 273.951 224.613 273.972C224.489 273.991 224.369 274.008 224.252 274.023C224.136 274.036 224.042 274.047 223.971 274.057C223.796 274.08 223.633 274.116 223.482 274.168C223.332 274.217 223.211 274.292 223.118 274.392C223.027 274.491 222.982 274.625 222.982 274.795C222.982 275.028 223.068 275.205 223.24 275.324C223.415 275.441 223.635 275.5 223.902 275.5ZM227.694 270.182V276H227.024V270.182H227.694ZM228.922 276V271.636H229.593V276H228.922ZM229.263 270.909C229.132 270.909 229.02 270.865 228.925 270.776C228.832 270.687 228.786 270.58 228.786 270.455C228.786 270.33 228.832 270.223 228.925 270.134C229.02 270.045 229.132 270 229.263 270C229.394 270 229.506 270.045 229.598 270.134C229.693 270.223 229.74 270.33 229.74 270.455C229.74 270.58 229.693 270.687 229.598 270.776C229.506 270.865 229.394 270.909 229.263 270.909ZM233.912 272.614L233.309 272.784C233.271 272.684 233.216 272.586 233.142 272.491C233.07 272.395 232.971 272.315 232.846 272.253C232.721 272.19 232.561 272.159 232.366 272.159C232.099 272.159 231.877 272.221 231.699 272.344C231.522 272.465 231.434 272.619 231.434 272.807C231.434 272.973 231.495 273.105 231.616 273.202C231.737 273.298 231.927 273.379 232.184 273.443L232.832 273.602C233.222 273.697 233.513 273.842 233.704 274.037C233.895 274.23 233.991 274.479 233.991 274.784C233.991 275.034 233.919 275.258 233.775 275.455C233.633 275.652 233.434 275.807 233.179 275.92C232.923 276.034 232.626 276.091 232.287 276.091C231.842 276.091 231.473 275.994 231.181 275.801C230.89 275.608 230.705 275.326 230.627 274.955L231.264 274.795C231.324 275.03 231.439 275.206 231.608 275.324C231.778 275.441 232.001 275.5 232.275 275.5C232.588 275.5 232.836 275.434 233.02 275.301C233.205 275.167 233.298 275.006 233.298 274.818C233.298 274.667 233.245 274.54 233.139 274.438C233.033 274.333 232.87 274.256 232.65 274.205L231.923 274.034C231.523 273.939 231.23 273.793 231.042 273.594C230.857 273.393 230.764 273.142 230.764 272.841C230.764 272.595 230.833 272.377 230.971 272.188C231.111 271.998 231.302 271.849 231.542 271.741C231.785 271.634 232.059 271.58 232.366 271.58C232.798 271.58 233.137 271.674 233.383 271.864C233.631 272.053 233.807 272.303 233.912 272.614ZM236.284 276.102C236.008 276.102 235.757 276.05 235.532 275.946C235.306 275.84 235.127 275.688 234.995 275.489C234.862 275.288 234.796 275.045 234.796 274.761C234.796 274.511 234.845 274.309 234.944 274.153C235.042 273.996 235.174 273.873 235.338 273.784C235.503 273.695 235.685 273.629 235.884 273.585C236.085 273.54 236.286 273.504 236.489 273.477C236.754 273.443 236.969 273.418 237.134 273.401C237.301 273.382 237.422 273.35 237.498 273.307C237.575 273.263 237.614 273.187 237.614 273.08V273.057C237.614 272.777 237.537 272.559 237.384 272.403C237.232 272.248 237.002 272.17 236.694 272.17C236.373 272.17 236.123 272.241 235.941 272.381C235.759 272.521 235.631 272.67 235.557 272.83L234.921 272.602C235.034 272.337 235.186 272.131 235.375 271.983C235.567 271.833 235.775 271.729 236 271.67C236.228 271.61 236.451 271.58 236.671 271.58C236.811 271.58 236.972 271.597 237.154 271.631C237.337 271.663 237.515 271.73 237.685 271.832C237.857 271.935 238 272.089 238.114 272.295C238.228 272.502 238.284 272.778 238.284 273.125V276H237.614V275.409H237.58C237.534 275.504 237.459 275.605 237.353 275.713C237.247 275.821 237.105 275.913 236.929 275.989C236.753 276.064 236.538 276.102 236.284 276.102ZM236.387 275.5C236.652 275.5 236.875 275.448 237.057 275.344C237.241 275.24 237.379 275.105 237.472 274.94C237.567 274.776 237.614 274.602 237.614 274.42V273.807C237.586 273.841 237.523 273.872 237.426 273.901C237.332 273.927 237.222 273.951 237.097 273.972C236.974 273.991 236.854 274.008 236.736 274.023C236.621 274.036 236.527 274.047 236.455 274.057C236.281 274.08 236.118 274.116 235.966 274.168C235.817 274.217 235.695 274.292 235.603 274.392C235.512 274.491 235.466 274.625 235.466 274.795C235.466 275.028 235.552 275.205 235.725 275.324C235.899 275.441 236.12 275.5 236.387 275.5ZM241.406 271.636V272.205H239.145V271.636H241.406ZM239.804 270.591H240.474V274.75C240.474 274.939 240.502 275.081 240.556 275.176C240.613 275.269 240.685 275.331 240.772 275.364C240.861 275.394 240.955 275.409 241.054 275.409C241.127 275.409 241.188 275.405 241.235 275.398C241.283 275.388 241.321 275.381 241.349 275.375L241.485 275.977C241.44 275.994 241.377 276.011 241.295 276.028C241.214 276.047 241.11 276.057 240.985 276.057C240.796 276.057 240.61 276.016 240.429 275.935C240.249 275.853 240.099 275.729 239.98 275.562C239.862 275.396 239.804 275.186 239.804 274.932V270.591ZM242.414 276V271.636H243.085V276H242.414ZM242.755 270.909C242.625 270.909 242.512 270.865 242.417 270.776C242.324 270.687 242.278 270.58 242.278 270.455C242.278 270.33 242.324 270.223 242.417 270.134C242.512 270.045 242.625 270 242.755 270C242.886 270 242.998 270.045 243.091 270.134C243.185 270.223 243.233 270.33 243.233 270.455C243.233 270.58 243.185 270.687 243.091 270.776C242.998 270.865 242.886 270.909 242.755 270.909ZM246.086 276.091C245.692 276.091 245.346 275.997 245.049 275.81C244.753 275.622 244.522 275.36 244.355 275.023C244.191 274.686 244.108 274.292 244.108 273.841C244.108 273.386 244.191 272.99 244.355 272.651C244.522 272.312 244.753 272.048 245.049 271.861C245.346 271.673 245.692 271.58 246.086 271.58C246.48 271.58 246.824 271.673 247.12 271.861C247.417 272.048 247.648 272.312 247.813 272.651C247.98 272.99 248.063 273.386 248.063 273.841C248.063 274.292 247.98 274.686 247.813 275.023C247.648 275.36 247.417 275.622 247.12 275.81C246.824 275.997 246.48 276.091 246.086 276.091ZM246.086 275.489C246.385 275.489 246.631 275.412 246.824 275.259C247.017 275.105 247.16 274.903 247.253 274.653C247.346 274.403 247.392 274.133 247.392 273.841C247.392 273.549 247.346 273.277 247.253 273.026C247.16 272.774 247.017 272.57 246.824 272.415C246.631 272.259 246.385 272.182 246.086 272.182C245.786 272.182 245.54 272.259 245.347 272.415C245.154 272.57 245.011 272.774 244.918 273.026C244.825 273.277 244.779 273.549 244.779 273.841C244.779 274.133 244.825 274.403 244.918 274.653C245.011 274.903 245.154 275.105 245.347 275.259C245.54 275.412 245.786 275.489 246.086 275.489ZM249.757 273.375V276H249.086V271.636H249.734V272.318H249.791C249.893 272.097 250.048 271.919 250.257 271.784C250.465 271.648 250.734 271.58 251.064 271.58C251.359 271.58 251.618 271.64 251.839 271.761C252.061 271.881 252.233 272.062 252.356 272.307C252.479 272.549 252.541 272.856 252.541 273.227V276H251.87V273.273C251.87 272.93 251.781 272.663 251.603 272.472C251.425 272.278 251.181 272.182 250.87 272.182C250.656 272.182 250.465 272.228 250.297 272.321C250.13 272.414 249.998 272.549 249.902 272.727C249.805 272.905 249.757 273.121 249.757 273.375Z" fill="black"/>
</svg>
