<svg width="411" height="570" viewBox="0 0 411 570" fill="none" xmlns="http://www.w3.org/2000/svg">
<rect width="411" height="570" fill="#EFEFEF"/>
<rect x="18.5" y="535.5" width="80" height="13" stroke="black"/>
<rect x="18.5" y="16.5" width="80" height="13" stroke="black"/>
<path d="M30.9176 21.8068V21.1818H35.2812V21.8068H33.4517V27H32.7472V21.8068H30.9176ZM36.2777 27V22.6364H36.9482V27H36.2777ZM36.6186 21.9091C36.4879 21.9091 36.3752 21.8646 36.2805 21.7756C36.1877 21.6866 36.1413 21.5795 36.1413 21.4545C36.1413 21.3295 36.1877 21.2225 36.2805 21.1335C36.3752 21.0445 36.4879 21 36.6186 21C36.7493 21 36.861 21.0445 36.9538 21.1335C37.0485 21.2225 37.0959 21.3295 37.0959 21.4545C37.0959 21.5795 37.0485 21.6866 36.9538 21.7756C36.861 21.8646 36.7493 21.9091 36.6186 21.9091ZM40.0739 22.6364V23.2045H37.8125V22.6364H40.0739ZM38.4716 21.5909H39.142V25.75C39.142 25.9394 39.1695 26.0814 39.2244 26.1761C39.2813 26.2689 39.3532 26.3314 39.4403 26.3636C39.5294 26.3939 39.6231 26.4091 39.7216 26.4091C39.7955 26.4091 39.8561 26.4053 39.9034 26.3977C39.9508 26.3883 39.9886 26.3807 40.017 26.375L40.1534 26.9773C40.108 26.9943 40.0445 27.0114 39.9631 27.0284C39.8816 27.0473 39.7784 27.0568 39.6534 27.0568C39.464 27.0568 39.2784 27.0161 39.0966 26.9347C38.9167 26.8532 38.767 26.7292 38.6477 26.5625C38.5303 26.3958 38.4716 26.1856 38.4716 25.9318V21.5909ZM41.0824 27V22.6364H41.7301V23.2955H41.7756C41.8551 23.0795 41.9991 22.9044 42.2074 22.7699C42.4157 22.6354 42.6506 22.5682 42.9119 22.5682C42.9612 22.5682 43.0227 22.5691 43.0966 22.571C43.1705 22.5729 43.2263 22.5758 43.2642 22.5795V23.2614C43.2415 23.2557 43.1894 23.2472 43.108 23.2358C43.0284 23.2225 42.9441 23.2159 42.8551 23.2159C42.643 23.2159 42.4536 23.2604 42.2869 23.3494C42.1222 23.4366 41.9915 23.5578 41.8949 23.7131C41.8002 23.8665 41.7528 24.0417 41.7528 24.2386V27H41.0824ZM45.7557 27.0909C45.3352 27.0909 44.9725 26.9981 44.6676 26.8125C44.3646 26.625 44.1307 26.3636 43.9659 26.0284C43.803 25.6913 43.7216 25.2992 43.7216 24.8523C43.7216 24.4053 43.803 24.0114 43.9659 23.6705C44.1307 23.3277 44.3598 23.0606 44.6534 22.8693C44.9489 22.6761 45.2936 22.5795 45.6875 22.5795C45.9148 22.5795 46.1392 22.6174 46.3608 22.6932C46.5824 22.7689 46.7841 22.892 46.9659 23.0625C47.1477 23.2311 47.2926 23.4545 47.4006 23.733C47.5085 24.0114 47.5625 24.3542 47.5625 24.7614V25.0455H44.1989V24.4659H46.8807C46.8807 24.2197 46.8314 24 46.733 23.8068C46.6364 23.6136 46.4981 23.4612 46.3182 23.3494C46.1402 23.2377 45.9299 23.1818 45.6875 23.1818C45.4205 23.1818 45.1894 23.2481 44.9943 23.3807C44.8011 23.5114 44.6525 23.6818 44.5483 23.892C44.4441 24.1023 44.392 24.3277 44.392 24.5682V24.9545C44.392 25.2841 44.4489 25.5634 44.5625 25.7926C44.678 26.0199 44.8381 26.1932 45.0426 26.3125C45.2472 26.4299 45.4848 26.4886 45.7557 26.4886C45.9318 26.4886 46.0909 26.464 46.233 26.4148C46.3769 26.3636 46.5009 26.2879 46.6051 26.1875C46.7093 26.0852 46.7898 25.9583 46.8466 25.8068L47.4943 25.9886C47.4261 26.2083 47.3116 26.4015 47.1506 26.5682C46.9896 26.733 46.7907 26.8617 46.554 26.9545C46.3172 27.0455 46.0511 27.0909 45.7557 27.0909ZM52.4801 27.0909C52.1165 27.0909 51.7955 26.9991 51.517 26.8153C51.2386 26.6297 51.0208 26.3684 50.8636 26.0312C50.7064 25.6922 50.6278 25.2917 50.6278 24.8295C50.6278 24.3712 50.7064 23.9735 50.8636 23.6364C51.0208 23.2992 51.2396 23.0388 51.5199 22.8551C51.8002 22.6714 52.1241 22.5795 52.4915 22.5795C52.7756 22.5795 53 22.6269 53.1648 22.7216C53.3314 22.8144 53.4583 22.9205 53.5455 23.0398C53.6345 23.1572 53.7036 23.2538 53.7528 23.3295H53.8097V21.1818H54.4801V27H53.8324V26.3295H53.7528C53.7036 26.4091 53.6335 26.5095 53.5426 26.6307C53.4517 26.75 53.322 26.857 53.1534 26.9517C52.9848 27.0445 52.7604 27.0909 52.4801 27.0909ZM52.571 26.4886C52.84 26.4886 53.0672 26.4186 53.2528 26.2784C53.4384 26.1364 53.5795 25.9403 53.6761 25.6903C53.7727 25.4384 53.821 25.1477 53.821 24.8182C53.821 24.4924 53.7737 24.2074 53.679 23.9631C53.5843 23.7169 53.4441 23.5256 53.2585 23.3892C53.0729 23.2509 52.8438 23.1818 52.571 23.1818C52.2869 23.1818 52.0502 23.2547 51.8608 23.4006C51.6733 23.5445 51.5322 23.7405 51.4375 23.9886C51.3447 24.2348 51.2983 24.5114 51.2983 24.8182C51.2983 25.1288 51.3456 25.411 51.4403 25.6648C51.5369 25.9167 51.679 26.1174 51.8665 26.267C52.0559 26.4148 52.2907 26.4886 52.571 26.4886ZM58.5511 25.2159V22.6364H59.2216V27H58.5511V26.2614H58.5057C58.4034 26.483 58.2443 26.6714 58.0284 26.8267C57.8125 26.9801 57.5398 27.0568 57.2102 27.0568C56.9375 27.0568 56.6951 26.9972 56.483 26.8778C56.2708 26.7566 56.1042 26.5748 55.983 26.3324C55.8617 26.0881 55.8011 25.7803 55.8011 25.4091V22.6364H56.4716V25.3636C56.4716 25.6818 56.5606 25.9356 56.7386 26.125C56.9186 26.3144 57.1477 26.4091 57.4261 26.4091C57.5928 26.4091 57.7623 26.3665 57.9347 26.2812C58.1089 26.196 58.2547 26.0653 58.3722 25.8892C58.4915 25.7131 58.5511 25.4886 58.5511 25.2159ZM62.6996 22.6364H63.37V27.3182C63.37 27.5871 63.3236 27.8201 63.2308 28.017C63.1399 28.214 63.0017 28.3665 62.8161 28.4744C62.6323 28.5824 62.4003 28.6364 62.12 28.6364C62.0973 28.6364 62.0746 28.6364 62.0518 28.6364C62.0291 28.6364 62.0064 28.6364 61.9837 28.6364V28.0114C62.0064 28.0114 62.0272 28.0114 62.0462 28.0114C62.0651 28.0114 62.0859 28.0114 62.1087 28.0114C62.3132 28.0114 62.4628 27.9508 62.5575 27.8295C62.6522 27.7102 62.6996 27.5398 62.6996 27.3182V22.6364ZM63.0291 21.9091C62.8984 21.9091 62.7857 21.8646 62.6911 21.7756C62.5982 21.6866 62.5518 21.5795 62.5518 21.4545C62.5518 21.3295 62.5982 21.2225 62.6911 21.1335C62.7857 21.0445 62.8984 21 63.0291 21C63.1598 21 63.2715 21.0445 63.3643 21.1335C63.459 21.2225 63.5064 21.3295 63.5064 21.4545C63.5064 21.5795 63.459 21.6866 63.3643 21.7756C63.2715 21.8646 63.1598 21.9091 63.0291 21.9091ZM66.3707 27.0909C65.9768 27.0909 65.6312 26.9972 65.3338 26.8097C65.0384 26.6222 64.8073 26.3598 64.6406 26.0227C64.4759 25.6856 64.3935 25.2917 64.3935 24.8409C64.3935 24.3864 64.4759 23.9896 64.6406 23.6506C64.8073 23.3116 65.0384 23.0483 65.3338 22.8608C65.6312 22.6733 65.9768 22.5795 66.3707 22.5795C66.7647 22.5795 67.1094 22.6733 67.4048 22.8608C67.7022 23.0483 67.9332 23.3116 68.098 23.6506C68.2647 23.9896 68.348 24.3864 68.348 24.8409C68.348 25.2917 68.2647 25.6856 68.098 26.0227C67.9332 26.3598 67.7022 26.6222 67.4048 26.8097C67.1094 26.9972 66.7647 27.0909 66.3707 27.0909ZM66.3707 26.4886C66.67 26.4886 66.9162 26.4119 67.1094 26.2585C67.3026 26.1051 67.4455 25.9034 67.5384 25.6534C67.6312 25.4034 67.6776 25.1326 67.6776 24.8409C67.6776 24.5492 67.6312 24.2775 67.5384 24.0256C67.4455 23.7737 67.3026 23.5701 67.1094 23.4148C66.9162 23.2595 66.67 23.1818 66.3707 23.1818C66.0715 23.1818 65.8253 23.2595 65.6321 23.4148C65.4389 23.5701 65.2959 23.7737 65.2031 24.0256C65.1103 24.2775 65.0639 24.5492 65.0639 24.8409C65.0639 25.1326 65.1103 25.4034 65.2031 25.6534C65.2959 25.9034 65.4389 26.1051 65.6321 26.2585C65.8253 26.4119 66.0715 26.4886 66.3707 26.4886ZM72.1214 25.2159V22.6364H72.7919V27H72.1214V26.2614H72.076C71.9737 26.483 71.8146 26.6714 71.5987 26.8267C71.3828 26.9801 71.1101 27.0568 70.7805 27.0568C70.5078 27.0568 70.2654 26.9972 70.0533 26.8778C69.8411 26.7566 69.6745 26.5748 69.5533 26.3324C69.4321 26.0881 69.3714 25.7803 69.3714 25.4091V22.6364H70.0419V25.3636C70.0419 25.6818 70.1309 25.9356 70.3089 26.125C70.4889 26.3144 70.718 26.4091 70.9964 26.4091C71.1631 26.4091 71.3326 26.3665 71.505 26.2812C71.6792 26.196 71.825 26.0653 71.9425 25.8892C72.0618 25.7131 72.1214 25.4886 72.1214 25.2159ZM74.0199 27V22.6364H74.6676V23.2955H74.7131C74.7926 23.0795 74.9366 22.9044 75.1449 22.7699C75.3532 22.6354 75.5881 22.5682 75.8494 22.5682C75.8987 22.5682 75.9602 22.5691 76.0341 22.571C76.108 22.5729 76.1638 22.5758 76.2017 22.5795V23.2614C76.179 23.2557 76.1269 23.2472 76.0455 23.2358C75.9659 23.2225 75.8816 23.2159 75.7926 23.2159C75.5805 23.2159 75.3911 23.2604 75.2244 23.3494C75.0597 23.4366 74.929 23.5578 74.8324 23.7131C74.7377 23.8665 74.6903 24.0417 74.6903 24.2386V27H74.0199ZM77.6669 24.375V27H76.9964V22.6364H77.6442V23.3182H77.701C77.8033 23.0966 77.9586 22.9186 78.1669 22.7841C78.3752 22.6477 78.6442 22.5795 78.9737 22.5795C79.2692 22.5795 79.5277 22.6402 79.7493 22.7614C79.9709 22.8807 80.1432 23.0625 80.2663 23.3068C80.3894 23.5492 80.451 23.8561 80.451 24.2273V27H79.7805V24.2727C79.7805 23.9299 79.6915 23.6629 79.5135 23.4716C79.3355 23.2784 79.0911 23.1818 78.7805 23.1818C78.5665 23.1818 78.3752 23.2282 78.2067 23.321C78.04 23.4138 77.9084 23.5492 77.8118 23.7273C77.7152 23.9053 77.6669 24.1212 77.6669 24.375ZM82.9602 27.1023C82.6837 27.1023 82.4328 27.0502 82.2074 26.946C81.982 26.84 81.803 26.6875 81.6705 26.4886C81.5379 26.2879 81.4716 26.0455 81.4716 25.7614C81.4716 25.5114 81.5208 25.3087 81.6193 25.1534C81.7178 24.9962 81.8494 24.8731 82.0142 24.7841C82.179 24.6951 82.3608 24.6288 82.5597 24.5852C82.7604 24.5398 82.9621 24.5038 83.1648 24.4773C83.4299 24.4432 83.6449 24.4176 83.8097 24.4006C83.9763 24.3816 84.0975 24.3504 84.1733 24.3068C84.2509 24.2633 84.2898 24.1875 84.2898 24.0795V24.0568C84.2898 23.7765 84.2131 23.5587 84.0597 23.4034C83.9081 23.2481 83.678 23.1705 83.3693 23.1705C83.0492 23.1705 82.7983 23.2405 82.6165 23.3807C82.4347 23.5208 82.3068 23.6705 82.233 23.8295L81.5966 23.6023C81.7102 23.3371 81.8617 23.1307 82.0511 22.983C82.2424 22.8333 82.4508 22.7292 82.6761 22.6705C82.9034 22.6098 83.1269 22.5795 83.3466 22.5795C83.4867 22.5795 83.6477 22.5966 83.8295 22.6307C84.0133 22.6629 84.1903 22.7301 84.3608 22.8324C84.5331 22.9347 84.6761 23.089 84.7898 23.2955C84.9034 23.5019 84.9602 23.7784 84.9602 24.125V27H84.2898V26.4091H84.2557C84.2102 26.5038 84.1345 26.6051 84.0284 26.7131C83.9223 26.821 83.7813 26.9129 83.6051 26.9886C83.429 27.0644 83.214 27.1023 82.9602 27.1023ZM83.0625 26.5C83.3277 26.5 83.5511 26.4479 83.733 26.3438C83.9167 26.2396 84.0549 26.1051 84.1477 25.9403C84.2424 25.7756 84.2898 25.6023 84.2898 25.4205V24.8068C84.2614 24.8409 84.1989 24.8722 84.1023 24.9006C84.0076 24.9271 83.8977 24.9508 83.7727 24.9716C83.6496 24.9905 83.5294 25.0076 83.4119 25.0227C83.2964 25.036 83.2027 25.0473 83.1307 25.0568C82.9564 25.0795 82.7936 25.1165 82.642 25.1676C82.4924 25.2169 82.3712 25.2917 82.2784 25.392C82.1875 25.4905 82.142 25.625 82.142 25.7955C82.142 26.0284 82.2282 26.2045 82.4006 26.3239C82.5748 26.4413 82.7955 26.5 83.0625 26.5ZM86.8544 21.1818V27H86.1839V21.1818H86.8544Z" fill="black"/>
<rect x="380.5" y="535.5" width="15" height="13" stroke="black"/>
<path d="M30.5213 545H29.7827L31.919 539.182H32.6463L34.7827 545H34.044L32.3054 540.102H32.2599L30.5213 545ZM30.794 542.727H33.7713V543.352H30.794V542.727ZM36.2685 542.375V545H35.598V540.636H36.2457V541.318H36.3026C36.4048 541.097 36.5601 540.919 36.7685 540.784C36.9768 540.648 37.2457 540.58 37.5753 540.58C37.8707 540.58 38.1293 540.64 38.3509 540.761C38.5724 540.881 38.7448 541.062 38.8679 541.307C38.991 541.549 39.0526 541.856 39.0526 542.227V545H38.3821V542.273C38.3821 541.93 38.2931 541.663 38.1151 541.472C37.937 541.278 37.6927 541.182 37.3821 541.182C37.1681 541.182 36.9768 541.228 36.8082 541.321C36.6416 541.414 36.5099 541.549 36.4134 541.727C36.3168 541.905 36.2685 542.121 36.2685 542.375ZM40.9482 542.375V545H40.2777V540.636H40.9254V541.318H40.9822C41.0845 541.097 41.2398 540.919 41.4482 540.784C41.6565 540.648 41.9254 540.58 42.255 540.58C42.5504 540.58 42.8089 540.64 43.0305 540.761C43.2521 540.881 43.4245 541.062 43.5476 541.307C43.6707 541.549 43.7322 541.856 43.7322 542.227V545H43.0618V542.273C43.0618 541.93 42.9728 541.663 42.7947 541.472C42.6167 541.278 42.3724 541.182 42.0618 541.182C41.8478 541.182 41.6565 541.228 41.4879 541.321C41.3213 541.414 41.1896 541.549 41.093 541.727C40.9964 541.905 40.9482 542.121 40.9482 542.375ZM46.7869 545.091C46.3665 545.091 46.0038 544.998 45.6989 544.812C45.3958 544.625 45.1619 544.364 44.9972 544.028C44.8343 543.691 44.7528 543.299 44.7528 542.852C44.7528 542.405 44.8343 542.011 44.9972 541.67C45.1619 541.328 45.3911 541.061 45.6847 540.869C45.9801 540.676 46.3248 540.58 46.7188 540.58C46.946 540.58 47.1705 540.617 47.392 540.693C47.6136 540.769 47.8153 540.892 47.9972 541.062C48.179 541.231 48.3239 541.455 48.4318 541.733C48.5398 542.011 48.5938 542.354 48.5938 542.761V543.045H45.2301V542.466H47.9119C47.9119 542.22 47.8627 542 47.7642 541.807C47.6676 541.614 47.5294 541.461 47.3494 541.349C47.1714 541.238 46.9612 541.182 46.7188 541.182C46.4517 541.182 46.2206 541.248 46.0256 541.381C45.8324 541.511 45.6837 541.682 45.5795 541.892C45.4754 542.102 45.4233 542.328 45.4233 542.568V542.955C45.4233 543.284 45.4801 543.563 45.5938 543.793C45.7093 544.02 45.8693 544.193 46.0739 544.312C46.2784 544.43 46.5161 544.489 46.7869 544.489C46.9631 544.489 47.1222 544.464 47.2642 544.415C47.4081 544.364 47.5322 544.288 47.6364 544.188C47.7405 544.085 47.821 543.958 47.8778 543.807L48.5256 543.989C48.4574 544.208 48.3428 544.402 48.1818 544.568C48.0208 544.733 47.822 544.862 47.5852 544.955C47.3485 545.045 47.0824 545.091 46.7869 545.091ZM46.3778 540.045L47.071 538.727H47.8551L46.9688 540.045H46.3778ZM51.4432 545.091C51.0227 545.091 50.66 544.998 50.3551 544.812C50.0521 544.625 49.8182 544.364 49.6534 544.028C49.4905 543.691 49.4091 543.299 49.4091 542.852C49.4091 542.405 49.4905 542.011 49.6534 541.67C49.8182 541.328 50.0473 541.061 50.3409 540.869C50.6364 540.676 50.9811 540.58 51.375 540.58C51.6023 540.58 51.8267 540.617 52.0483 540.693C52.2699 540.769 52.4716 540.892 52.6534 541.062C52.8352 541.231 52.9801 541.455 53.0881 541.733C53.196 542.011 53.25 542.354 53.25 542.761V543.045H49.8864V542.466H52.5682C52.5682 542.22 52.5189 542 52.4205 541.807C52.3239 541.614 52.1856 541.461 52.0057 541.349C51.8277 541.238 51.6174 541.182 51.375 541.182C51.108 541.182 50.8769 541.248 50.6818 541.381C50.4886 541.511 50.34 541.682 50.2358 541.892C50.1316 542.102 50.0795 542.328 50.0795 542.568V542.955C50.0795 543.284 50.1364 543.563 50.25 543.793C50.3655 544.02 50.5256 544.193 50.7301 544.312C50.9347 544.43 51.1723 544.489 51.4432 544.489C51.6193 544.489 51.7784 544.464 51.9205 544.415C52.0644 544.364 52.1884 544.288 52.2926 544.188C52.3968 544.085 52.4773 543.958 52.5341 543.807L53.1818 543.989C53.1136 544.208 52.9991 544.402 52.8381 544.568C52.6771 544.733 52.4782 544.862 52.2415 544.955C52.0047 545.045 51.7386 545.091 51.4432 545.091ZM58.2244 544.602V540.852H58.8608V544.602H58.2244ZM56.6676 543.045V542.409H60.4176V543.045H56.6676ZM65.9411 540.636V541.205H63.6797V540.636H65.9411ZM64.3388 539.591H65.0092V543.75C65.0092 543.939 65.0367 544.081 65.0916 544.176C65.1484 544.269 65.2204 544.331 65.3075 544.364C65.3965 544.394 65.4903 544.409 65.5888 544.409C65.6626 544.409 65.7232 544.405 65.7706 544.398C65.8179 544.388 65.8558 544.381 65.8842 544.375L66.0206 544.977C65.9751 544.994 65.9117 545.011 65.8303 545.028C65.7488 545.047 65.6456 545.057 65.5206 545.057C65.3312 545.057 65.1456 545.016 64.9638 544.935C64.7839 544.853 64.6342 544.729 64.5149 544.562C64.3975 544.396 64.3388 544.186 64.3388 543.932V539.591ZM67.7138 542.375V545H67.0433V539.182H67.7138V541.318H67.7706C67.8729 541.093 68.0263 540.914 68.2308 540.781C68.4373 540.647 68.7119 540.58 69.0547 540.58C69.352 540.58 69.6125 540.639 69.8359 540.759C70.0594 540.876 70.2327 541.057 70.3558 541.301C70.4808 541.544 70.5433 541.852 70.5433 542.227V545H69.8729V542.273C69.8729 541.926 69.7829 541.658 69.603 541.469C69.425 541.277 69.1778 541.182 68.8615 541.182C68.6418 541.182 68.4448 541.228 68.2706 541.321C68.0982 541.414 67.9619 541.549 67.8615 541.727C67.763 541.905 67.7138 542.121 67.7138 542.375ZM73.5994 545.091C73.179 545.091 72.8163 544.998 72.5114 544.812C72.2083 544.625 71.9744 544.364 71.8097 544.028C71.6468 543.691 71.5653 543.299 71.5653 542.852C71.5653 542.405 71.6468 542.011 71.8097 541.67C71.9744 541.328 72.2036 541.061 72.4972 540.869C72.7926 540.676 73.1373 540.58 73.5312 540.58C73.7585 540.58 73.983 540.617 74.2045 540.693C74.4261 540.769 74.6278 540.892 74.8097 541.062C74.9915 541.231 75.1364 541.455 75.2443 541.733C75.3523 542.011 75.4062 542.354 75.4062 542.761V543.045H72.0426V542.466H74.7244C74.7244 542.22 74.6752 542 74.5767 541.807C74.4801 541.614 74.3419 541.461 74.1619 541.349C73.9839 541.238 73.7737 541.182 73.5312 541.182C73.2642 541.182 73.0331 541.248 72.8381 541.381C72.6449 541.511 72.4962 541.682 72.392 541.892C72.2879 542.102 72.2358 542.328 72.2358 542.568V542.955C72.2358 543.284 72.2926 543.563 72.4062 543.793C72.5218 544.02 72.6818 544.193 72.8864 544.312C73.0909 544.43 73.3286 544.489 73.5994 544.489C73.7756 544.489 73.9347 544.464 74.0767 544.415C74.2206 544.364 74.3447 544.288 74.4489 544.188C74.553 544.085 74.6335 543.958 74.6903 543.807L75.3381 543.989C75.2699 544.208 75.1553 544.402 74.9943 544.568C74.8333 544.733 74.6345 544.862 74.3977 544.955C74.161 545.045 73.8949 545.091 73.5994 545.091ZM73.2131 540.045L72.3267 538.727H73.1108L73.804 540.045H73.2131ZM76.4261 545V540.636H77.0739V541.318H77.1307C77.2216 541.085 77.3684 540.904 77.571 540.776C77.7737 540.645 78.017 540.58 78.3011 540.58C78.589 540.58 78.8286 540.645 79.0199 540.776C79.2131 540.904 79.3636 541.085 79.4716 541.318H79.517C79.6288 541.093 79.7964 540.914 80.0199 540.781C80.2434 540.647 80.5114 540.58 80.8239 540.58C81.214 540.58 81.5331 540.702 81.7812 540.946C82.0294 541.188 82.1534 541.566 82.1534 542.08V545H81.483V542.08C81.483 541.758 81.3949 541.527 81.2188 541.389C81.0426 541.251 80.8352 541.182 80.5966 541.182C80.2898 541.182 80.0521 541.275 79.8835 541.46C79.715 541.644 79.6307 541.877 79.6307 542.159V545H78.9489V542.011C78.9489 541.763 78.8684 541.563 78.7074 541.412C78.5464 541.259 78.339 541.182 78.0852 541.182C77.911 541.182 77.7481 541.228 77.5966 541.321C77.447 541.414 77.3258 541.543 77.233 541.707C77.142 541.87 77.0966 542.059 77.0966 542.273V545H76.4261ZM85.2088 545.091C84.7884 545.091 84.4257 544.998 84.1207 544.812C83.8177 544.625 83.5838 544.364 83.419 544.028C83.2562 543.691 83.1747 543.299 83.1747 542.852C83.1747 542.405 83.2562 542.011 83.419 541.67C83.5838 541.328 83.813 541.061 84.1065 540.869C84.402 540.676 84.7467 540.58 85.1406 540.58C85.3679 540.58 85.5923 540.617 85.8139 540.693C86.0355 540.769 86.2372 540.892 86.419 541.062C86.6009 541.231 86.7457 541.455 86.8537 541.733C86.9616 542.011 87.0156 542.354 87.0156 542.761V543.045H83.652V542.466H86.3338C86.3338 542.22 86.2846 542 86.1861 541.807C86.0895 541.614 85.9512 541.461 85.7713 541.349C85.5933 541.238 85.383 541.182 85.1406 541.182C84.8736 541.182 84.6425 541.248 84.4474 541.381C84.2543 541.511 84.1056 541.682 84.0014 541.892C83.8973 542.102 83.8452 542.328 83.8452 542.568V542.955C83.8452 543.284 83.902 543.563 84.0156 543.793C84.1312 544.02 84.2912 544.193 84.4957 544.312C84.7003 544.43 84.938 544.489 85.2088 544.489C85.3849 544.489 85.544 544.464 85.6861 544.415C85.83 544.364 85.9541 544.288 86.0582 544.188C86.1624 544.085 86.2429 543.958 86.2997 543.807L86.9474 543.989C86.8793 544.208 86.7647 544.402 86.6037 544.568C86.4427 544.733 86.2438 544.862 86.0071 544.955C85.7704 545.045 85.5043 545.091 85.2088 545.091Z" fill="black"/>
<path d="M384.628 542.375V545H383.957V540.636H384.605V541.318H384.662C384.764 541.097 384.92 540.919 385.128 540.784C385.336 540.648 385.605 540.58 385.935 540.58C386.23 540.58 386.489 540.64 386.71 540.761C386.932 540.881 387.104 541.062 387.227 541.307C387.35 541.549 387.412 541.856 387.412 542.227V545H386.741V542.273C386.741 541.93 386.652 541.663 386.474 541.472C386.296 541.278 386.052 541.182 385.741 541.182C385.527 541.182 385.336 541.228 385.168 541.321C385.001 541.414 384.869 541.549 384.773 541.727C384.676 541.905 384.628 542.121 384.628 542.375ZM389.842 541.75C389.601 541.75 389.381 541.691 389.183 541.574C388.986 541.456 388.828 541.299 388.711 541.102C388.594 540.903 388.535 540.684 388.535 540.443C388.535 540.203 388.594 539.984 388.711 539.787C388.828 539.588 388.986 539.43 389.183 539.312C389.381 539.195 389.601 539.136 389.842 539.136C390.082 539.136 390.301 539.195 390.498 539.312C390.697 539.43 390.855 539.588 390.972 539.787C391.09 539.984 391.148 540.203 391.148 540.443C391.148 540.684 391.09 540.903 390.972 541.102C390.855 541.299 390.697 541.456 390.498 541.574C390.301 541.691 390.082 541.75 389.842 541.75ZM389.842 541.182C389.978 541.182 390.102 541.149 390.214 541.082C390.326 541.016 390.415 540.927 390.481 540.815C390.547 540.704 390.58 540.58 390.58 540.443C390.58 540.307 390.547 540.183 390.481 540.071C390.415 539.959 390.326 539.87 390.214 539.804C390.102 539.738 389.978 539.705 389.842 539.705C389.705 539.705 389.581 539.738 389.469 539.804C389.358 539.87 389.269 539.959 389.202 540.071C389.136 540.183 389.103 540.307 389.103 540.443C389.103 540.58 389.136 540.704 389.202 540.815C389.269 540.927 389.358 541.016 389.469 541.082C389.581 541.149 389.705 541.182 389.842 541.182Z" fill="black"/>
<rect x="18.5" y="47.5" width="377" height="478" stroke="black"/>
<path d="M181.777 276V275.489L184.913 270.807H181.743V270.182H185.754V270.693L182.618 275.375H185.788V276H181.777ZM188.652 276.091C188.258 276.091 187.912 275.997 187.615 275.81C187.32 275.622 187.089 275.36 186.922 275.023C186.757 274.686 186.675 274.292 186.675 273.841C186.675 273.386 186.757 272.99 186.922 272.651C187.089 272.312 187.32 272.048 187.615 271.861C187.912 271.673 188.258 271.58 188.652 271.58C189.046 271.58 189.391 271.673 189.686 271.861C189.983 272.048 190.214 272.312 190.379 272.651C190.546 272.99 190.629 273.386 190.629 273.841C190.629 274.292 190.546 274.686 190.379 275.023C190.214 275.36 189.983 275.622 189.686 275.81C189.391 275.997 189.046 276.091 188.652 276.091ZM188.652 275.489C188.951 275.489 189.197 275.412 189.391 275.259C189.584 275.105 189.727 274.903 189.82 274.653C189.912 274.403 189.959 274.133 189.959 273.841C189.959 273.549 189.912 273.277 189.82 273.026C189.727 272.774 189.584 272.57 189.391 272.415C189.197 272.259 188.951 272.182 188.652 272.182C188.353 272.182 188.107 272.259 187.913 272.415C187.72 272.57 187.577 272.774 187.484 273.026C187.392 273.277 187.345 273.549 187.345 273.841C187.345 274.133 187.392 274.403 187.484 274.653C187.577 274.903 187.72 275.105 187.913 275.259C188.107 275.412 188.353 275.489 188.652 275.489ZM192.323 273.375V276H191.653V271.636H192.3V272.318H192.357C192.46 272.097 192.615 271.919 192.823 271.784C193.031 271.648 193.3 271.58 193.63 271.58C193.925 271.58 194.184 271.64 194.406 271.761C194.627 271.881 194.799 272.062 194.923 272.307C195.046 272.549 195.107 272.856 195.107 273.227V276H194.437V273.273C194.437 272.93 194.348 272.663 194.17 272.472C193.992 272.278 193.747 272.182 193.437 272.182C193.223 272.182 193.031 272.228 192.863 272.321C192.696 272.414 192.565 272.549 192.468 272.727C192.371 272.905 192.323 273.121 192.323 273.375ZM198.162 276.091C197.741 276.091 197.379 275.998 197.074 275.812C196.771 275.625 196.537 275.364 196.372 275.028C196.209 274.691 196.128 274.299 196.128 273.852C196.128 273.405 196.209 273.011 196.372 272.67C196.537 272.328 196.766 272.061 197.06 271.869C197.355 271.676 197.7 271.58 198.094 271.58C198.321 271.58 198.545 271.617 198.767 271.693C198.989 271.769 199.19 271.892 199.372 272.062C199.554 272.231 199.699 272.455 199.807 272.733C199.915 273.011 199.969 273.354 199.969 273.761V274.045H196.605V273.466H199.287C199.287 273.22 199.238 273 199.139 272.807C199.043 272.614 198.904 272.461 198.724 272.349C198.546 272.238 198.336 272.182 198.094 272.182C197.827 272.182 197.596 272.248 197.401 272.381C197.207 272.511 197.059 272.682 196.955 272.892C196.85 273.102 196.798 273.328 196.798 273.568V273.955C196.798 274.284 196.855 274.563 196.969 274.793C197.084 275.02 197.244 275.193 197.449 275.312C197.653 275.43 197.891 275.489 198.162 275.489C198.338 275.489 198.497 275.464 198.639 275.415C198.783 275.364 198.907 275.288 199.011 275.188C199.116 275.085 199.196 274.958 199.253 274.807L199.901 274.989C199.832 275.208 199.718 275.402 199.557 275.568C199.396 275.733 199.197 275.862 198.96 275.955C198.723 276.045 198.457 276.091 198.162 276.091ZM204.886 276.091C204.523 276.091 204.202 275.999 203.923 275.815C203.645 275.63 203.427 275.368 203.27 275.031C203.113 274.692 203.034 274.292 203.034 273.83C203.034 273.371 203.113 272.973 203.27 272.636C203.427 272.299 203.646 272.039 203.926 271.855C204.206 271.671 204.53 271.58 204.898 271.58C205.182 271.58 205.406 271.627 205.571 271.722C205.738 271.814 205.865 271.92 205.952 272.04C206.041 272.157 206.11 272.254 206.159 272.33H206.216V270.182H206.886V276H206.239V275.33H206.159C206.11 275.409 206.04 275.509 205.949 275.631C205.858 275.75 205.728 275.857 205.56 275.952C205.391 276.045 205.167 276.091 204.886 276.091ZM204.977 275.489C205.246 275.489 205.473 275.419 205.659 275.278C205.845 275.136 205.986 274.94 206.082 274.69C206.179 274.438 206.227 274.148 206.227 273.818C206.227 273.492 206.18 273.207 206.085 272.963C205.991 272.717 205.85 272.526 205.665 272.389C205.479 272.251 205.25 272.182 204.977 272.182C204.693 272.182 204.456 272.255 204.267 272.401C204.08 272.545 203.938 272.741 203.844 272.989C203.751 273.235 203.705 273.511 203.705 273.818C203.705 274.129 203.752 274.411 203.847 274.665C203.943 274.917 204.085 275.117 204.273 275.267C204.462 275.415 204.697 275.489 204.977 275.489ZM210.037 276.091C209.616 276.091 209.254 275.998 208.949 275.812C208.646 275.625 208.412 275.364 208.247 275.028C208.084 274.691 208.003 274.299 208.003 273.852C208.003 273.405 208.084 273.011 208.247 272.67C208.412 272.328 208.641 272.061 208.935 271.869C209.23 271.676 209.575 271.58 209.969 271.58C210.196 271.58 210.42 271.617 210.642 271.693C210.864 271.769 211.065 271.892 211.247 272.062C211.429 272.231 211.574 272.455 211.682 272.733C211.79 273.011 211.844 273.354 211.844 273.761V274.045H208.48V273.466H211.162C211.162 273.22 211.113 273 211.014 272.807C210.918 272.614 210.779 272.461 210.599 272.349C210.421 272.238 210.211 272.182 209.969 272.182C209.702 272.182 209.471 272.248 209.276 272.381C209.082 272.511 208.934 272.682 208.83 272.892C208.725 273.102 208.673 273.328 208.673 273.568V273.955C208.673 274.284 208.73 274.563 208.844 274.793C208.959 275.02 209.119 275.193 209.324 275.312C209.528 275.43 209.766 275.489 210.037 275.489C210.213 275.489 210.372 275.464 210.514 275.415C210.658 275.364 210.782 275.288 210.886 275.188C210.991 275.085 211.071 274.958 211.128 274.807L211.776 274.989C211.707 275.208 211.593 275.402 211.432 275.568C211.271 275.733 211.072 275.862 210.835 275.955C210.598 276.045 210.332 276.091 210.037 276.091ZM217.011 271.636V272.205H214.75V271.636H217.011ZM215.409 270.591H216.08V274.75C216.08 274.939 216.107 275.081 216.162 275.176C216.219 275.269 216.291 275.331 216.378 275.364C216.467 275.394 216.561 275.409 216.659 275.409C216.733 275.409 216.794 275.405 216.841 275.398C216.888 275.388 216.926 275.381 216.955 275.375L217.091 275.977C217.045 275.994 216.982 276.011 216.901 276.028C216.819 276.047 216.716 276.057 216.591 276.057C216.402 276.057 216.216 276.016 216.034 275.935C215.854 275.853 215.705 275.729 215.585 275.562C215.468 275.396 215.409 275.186 215.409 274.932V270.591ZM219.803 276.091C219.382 276.091 219.019 275.998 218.714 275.812C218.411 275.625 218.178 275.364 218.013 275.028C217.85 274.691 217.768 274.299 217.768 273.852C217.768 273.405 217.85 273.011 218.013 272.67C218.178 272.328 218.407 272.061 218.7 271.869C218.996 271.676 219.34 271.58 219.734 271.58C219.962 271.58 220.186 271.617 220.408 271.693C220.629 271.769 220.831 271.892 221.013 272.062C221.195 272.231 221.339 272.455 221.447 272.733C221.555 273.011 221.609 273.354 221.609 273.761V274.045H218.246V273.466H220.928C220.928 273.22 220.878 273 220.78 272.807C220.683 272.614 220.545 272.461 220.365 272.349C220.187 272.238 219.977 272.182 219.734 272.182C219.467 272.182 219.236 272.248 219.041 272.381C218.848 272.511 218.699 272.682 218.595 272.892C218.491 273.102 218.439 273.328 218.439 273.568V273.955C218.439 274.284 218.496 274.563 218.609 274.793C218.725 275.02 218.885 275.193 219.089 275.312C219.294 275.43 219.532 275.489 219.803 275.489C219.979 275.489 220.138 275.464 220.28 275.415C220.424 275.364 220.548 275.288 220.652 275.188C220.756 275.085 220.837 274.958 220.893 274.807L221.541 274.989C221.473 275.208 221.358 275.402 221.197 275.568C221.036 275.733 220.838 275.862 220.601 275.955C220.364 276.045 220.098 276.091 219.803 276.091ZM223.012 271.636L224.058 273.42L225.103 271.636H225.876L224.467 273.818L225.876 276H225.103L224.058 274.307L223.012 276H222.239L223.626 273.818L222.239 271.636H223.012ZM228.73 271.636V272.205H226.469V271.636H228.73ZM227.128 270.591H227.798V274.75C227.798 274.939 227.826 275.081 227.881 275.176C227.938 275.269 228.009 275.331 228.097 275.364C228.186 275.394 228.279 275.409 228.378 275.409C228.452 275.409 228.512 275.405 228.56 275.398C228.607 275.388 228.645 275.381 228.673 275.375L228.81 275.977C228.764 275.994 228.701 276.011 228.619 276.028C228.538 276.047 228.435 276.057 228.31 276.057C228.12 276.057 227.935 276.016 227.753 275.935C227.573 275.853 227.423 275.729 227.304 275.562C227.187 275.396 227.128 275.186 227.128 274.932V270.591ZM231.521 276.091C231.101 276.091 230.738 275.998 230.433 275.812C230.13 275.625 229.896 275.364 229.732 275.028C229.569 274.691 229.487 274.299 229.487 273.852C229.487 273.405 229.569 273.011 229.732 272.67C229.896 272.328 230.125 272.061 230.419 271.869C230.714 271.676 231.059 271.58 231.453 271.58C231.68 271.58 231.905 271.617 232.126 271.693C232.348 271.769 232.55 271.892 232.732 272.062C232.913 272.231 233.058 272.455 233.166 272.733C233.274 273.011 233.328 273.354 233.328 273.761V274.045H229.964V273.466H232.646C232.646 273.22 232.597 273 232.499 272.807C232.402 272.614 232.264 272.461 232.084 272.349C231.906 272.238 231.696 272.182 231.453 272.182C231.186 272.182 230.955 272.248 230.76 272.381C230.567 272.511 230.418 272.682 230.314 272.892C230.21 273.102 230.158 273.328 230.158 273.568V273.955C230.158 274.284 230.214 274.563 230.328 274.793C230.444 275.02 230.604 275.193 230.808 275.312C231.013 275.43 231.25 275.489 231.521 275.489C231.697 275.489 231.857 275.464 231.999 275.415C232.143 275.364 232.267 275.288 232.371 275.188C232.475 275.085 232.555 274.958 232.612 274.807L233.26 274.989C233.192 275.208 233.077 275.402 232.916 275.568C232.755 275.733 232.556 275.862 232.32 275.955C232.083 276.045 231.817 276.091 231.521 276.091Z" fill="black"/>
</svg>
