<svg width="48" height="42" viewBox="0 0 48 42" fill="none" xmlns="http://www.w3.org/2000/svg">
<path d="M0 15.0357C0.238367 14.4943 0.548057 14.1034 1.1787 14.0174C2.68679 13.8135 4.65191 14.2175 6.13936 14.0136C6.24259 13.9996 6.343 14.0052 6.42277 13.9229L17.184 0.477134C18.435 -0.709507 20.2218 0.552877 19.5198 2.05745L10.0227 14.0099H37.9342L28.4877 2.19304C27.6731 0.637036 29.4637 -0.765613 30.7719 0.477134L41.5331 13.9229C41.6129 14.0052 41.7133 13.9996 41.8165 14.0136C43.2768 14.2128 45.194 13.8378 46.6918 14.009C47.1967 14.0669 47.7016 14.3989 47.8667 14.8908C48.0319 15.3826 48.0235 17.7568 47.9559 18.3478C47.8752 19.0585 47.3262 19.5822 46.6017 19.6111C31.3875 19.5616 16.1573 19.6934 0.953468 19.5448C0.451396 19.382 0.231798 19.0174 0.000938453 18.5816V15.0357H0Z" fill="white"/>
<path d="M9.45952 42.0001C8.93117 41.7467 8.56048 41.4372 8.42722 40.8359L3.18408 22.407H44.7698L39.5266 40.8359C39.3934 41.4372 39.0227 41.7467 38.4943 42.0001H9.45952ZM14.5882 25.2254C13.6544 25.3769 13.4395 26.2054 13.4996 27.0133C13.7032 29.7251 14.6482 32.7277 14.9401 35.4685C15.3202 36.498 16.6959 36.7477 17.3688 35.8369C17.6635 35.4385 17.6316 35.0654 17.5959 34.5951C17.3923 31.8833 16.4472 28.8807 16.1554 26.1399C15.9461 25.5134 15.2357 25.1206 14.5872 25.2254H14.5882ZM23.7672 25.2263C23.1863 25.3095 22.6579 25.8921 22.58 26.4737C22.7471 29.2089 22.3285 32.262 22.5678 34.9598C22.7292 36.7767 25.0144 36.8833 25.3729 35.1346C25.2058 32.3985 25.6244 29.3464 25.3851 26.6486C25.31 25.8042 24.6559 25.0982 23.7662 25.2263H23.7672ZM32.9443 25.2272C32.477 25.3077 31.9843 25.749 31.8717 26.2128C31.6211 28.9368 30.6047 31.9936 30.4415 34.6774C30.3185 36.7009 32.6036 36.9253 33.1076 35.4685C33.3751 32.7258 34.3933 29.6353 34.5584 26.931C34.6194 25.923 34.0648 25.0346 32.9434 25.2272H32.9443Z" fill="white"/>
</svg>
