<svg width="91" height="60" viewBox="0 0 91 60" fill="none" xmlns="http://www.w3.org/2000/svg">
<path d="M63.3602 34.9759C66.1813 34.1464 66.6946 39.7738 64.1103 40.1636C61.6717 40.5313 61.1878 35.6157 63.3602 34.9759Z" fill="white"/>
<path d="M70.1109 35.2647C72.5966 34.822 72.4142 39.6096 70.6419 39.817C68.7033 40.0435 68.0679 35.9943 70.1109 35.2647Z" fill="white"/>
<path d="M66.4412 44.9854C66.6162 45.0339 66.8089 45.0457 67.0354 45.0104C66.8383 45.0059 66.6412 44.9986 66.4412 44.9854Z" fill="white"/>
<path d="M42.3989 34.0533C28.6996 37.1347 12.2379 31.1087 2.86869 26.7976C-0.595132 25.2033 -1.01432 20.448 2.11562 18.2697L5.71329 15.7649C5.71329 15.7649 6.2928 17.9579 7.70481 19.2449L10.2199 21.3114C14.9825 24.8841 20.2981 27.3492 25.8447 29.2539C29.1334 30.3836 32.5017 31.3161 35.8846 32.1647L42.3989 34.0548V34.0533Z" fill="white"/>
<path d="M90.7471 5.63095C90.7471 5.63095 86.7994 4.7308 79.857 11.4614H79.8555C76.6373 14.4457 74.0354 18.1478 72.0748 22.0131C70.7908 24.5474 69.1552 29.5968 67.1916 31.8928C67.0181 31.5148 66.8371 31.1632 66.6489 30.8514C66.4224 30.4749 66.1856 30.1557 65.9473 29.9204C63.2233 27.2273 59.5403 28.2863 56.1265 29.8145C56.1 29.7439 56.078 29.6747 56.0574 29.6056C56.7678 26.3712 57.3767 23.1222 57.7297 19.8289C57.8871 18.3625 57.8356 16.8887 58.0312 15.4356C59.0682 2.78782 67.1548 5.37061 67.1548 5.37061C66.5783 6.30312 65.9414 7.05619 65.4148 8.07695C62.9144 12.9204 62.8821 18.6729 62.0422 23.9355C64.2735 20.557 64.5073 16.4254 65.9076 12.713C70.6348 -2.23656 76.602 2.92755 76.602 2.92755C76.4197 3.08787 76.2417 3.25113 76.0666 3.41734C71.6203 7.63717 69.4626 13.5088 67.9594 19.3083C67.6902 20.3437 67.4358 21.4292 67.2416 22.4794C68.7242 18.917 70.0333 15.2076 72.1174 11.9247C73.4736 9.78754 75.2709 8.03283 77.0712 6.23105C83.7797 -0.484794 86.3596 2.88931 90.7471 5.63095Z" fill="white"/>
<path d="M26.9391 43.8383C26.7023 43.7691 26.4685 43.7 26.2375 43.6294C26.3008 43.6397 26.364 43.65 26.4273 43.6617H26.4302C26.5994 43.7221 26.7685 43.7809 26.9391 43.8383Z" fill="white"/>
<path d="M75.846 32.0202C74.3104 29.664 71.2349 28.8035 69.3434 32.235C69.2346 32.4321 69.1287 32.6439 69.0286 32.8704C69.2257 32.6306 69.4258 32.4159 69.6258 32.2262C71.4143 30.5362 73.3294 30.7377 74.4899 32.0658C75.393 33.0954 75.8401 34.8045 75.4224 36.8343C74.8517 39.6009 70.6539 43.2825 68.2344 44.5591C67.7417 44.8195 67.3578 44.9621 67.0386 45.0107H67.0357C66.8091 45.046 66.6165 45.0342 66.4414 44.9857H66.44C65.7325 44.7915 65.2986 43.9987 64.1263 43.2045C62.529 42.1205 60.0021 40.8026 58.3062 39.3406C58.2724 39.3112 58.2371 39.2818 58.2047 39.2509C58.165 39.217 58.1268 39.1818 58.0885 39.1465C58.0503 39.1126 58.0121 39.0773 57.9753 39.0435C57.6002 38.689 57.2781 38.3287 57.034 37.961C55.772 36.0592 55.6896 34.1588 56.9251 32.7189C56.9457 32.6939 56.9692 32.6674 56.9913 32.6424C57.362 32.2306 57.8429 31.857 58.4386 31.5349C60.7611 30.2788 63.31 30.8289 65.1574 32.3732C65.7031 32.8263 66.187 33.3675 66.5856 33.975C66.7856 34.2765 66.9636 34.5957 67.1166 34.9281C68.6227 38.1831 66.7032 38.1066 66.9768 40.3319C67.2357 42.4382 68.6462 41.8263 68.7448 39.7598C68.8154 38.2772 68.1388 35.4252 67.1974 33.3646C67.0239 32.9866 66.843 32.6351 66.6547 32.3232C66.4282 31.9467 66.1914 31.6275 65.9531 31.3922C63.2291 28.6991 59.5461 29.7581 56.1323 31.2863C55.0527 31.7702 53.9996 32.2997 53.0127 32.7733C52.667 32.9395 52.3287 33.0984 52.0007 33.2454C51.9419 33.2719 51.8728 33.2602 51.8272 33.2146C50.8638 32.2865 49.871 31.4143 48.8532 30.5935C45.1908 27.5783 34.4522 15.5351 33.9506 14.9718L33.9359 14.9556L33.933 14.9512L31.0516 11.4873L31.0413 11.4682C29.5411 8.95897 27.7319 5.92463 28.9159 3.04914C29.3896 1.90041 30.3603 1.17823 31.084 0.257488C31.1678 0.151588 31.0884 -0.00432088 30.9545 9.16397e-05L3.18363 0.867886L3.13657 0.876711C3.08215 0.895832 3.03067 0.919366 2.98507 0.942899C2.92771 0.973787 2.86152 0.963491 2.81298 0.922307C2.75856 0.876711 2.69679 0.85759 2.61736 0.900245C2.63942 1.02232 2.66149 1.14293 2.68502 1.26501C2.78209 1.77392 2.88652 2.27842 3.00272 2.77703C3.65724 5.61722 4.62358 8.29121 6.13266 10.8519C10.1451 17.659 17.4846 22.8613 24.5299 26.1604C31.0795 29.2301 38.3631 30.8244 44.4759 34.7663C44.5907 34.8413 44.5612 35.0193 44.4289 35.0546C43.4008 35.3311 42.2947 35.4576 41.2475 35.6164C32.8843 36.8843 24.6946 37.2961 16.758 33.9014C16.7551 33.9 16.7521 33.9 16.7492 33.8985L12.5573 31.8364C12.5573 31.8364 12.5573 31.8364 12.5588 31.8393C12.5735 31.9202 12.8691 33.4867 13.1074 35.4561C13.2633 36.749 13.9781 37.9124 15.0695 38.6214C17.058 39.9157 20.744 41.9587 26.2346 43.6281L26.2478 43.631C26.3111 43.6413 26.3729 43.6516 26.4346 43.6634H26.4376C26.6067 43.7237 26.7759 43.7825 26.9465 43.8399H26.948C33.6432 46.0873 41.3048 45.8976 48.2486 43.6134C48.4163 43.559 48.534 43.7752 48.3972 43.8855L46.7293 45.2357L46.6998 45.2563C41.3578 48.6804 34.7228 49.0643 28.6983 47.6023C28.6983 47.6023 28.6968 47.6023 28.6924 47.6008C28.6541 47.5935 28.4467 47.5523 28.1099 47.4876H28.1085C26.0581 47.0949 19.1775 45.8079 15.8402 45.6049C8.00063 44.5282 2.15552 51.2779 2.15552 51.2779C6.55479 49.1996 11.6674 48.1671 15.2636 47.6626C10.1731 49.6188 7.16372 54.1652 7.16372 54.1652C10.3657 52.1119 14.084 50.6352 17.2257 49.6291C11.6615 53.0988 10.1172 60 10.1172 60C12.5602 56.6877 15.8093 53.7931 18.523 51.6795C21.2441 49.5615 25.0168 49.4306 27.8687 51.3676C29.0674 52.1825 30.0661 53.0268 30.6765 53.8607C33.0122 57.0554 37.6836 57.7526 41.6137 57.2834C42.4947 57.1789 43.339 57.0142 44.1097 56.8068C44.2156 56.7789 44.3215 56.7494 44.4245 56.7186C49.7842 55.2065 62.1495 51.4044 62.8423 50.7999C63.3306 50.3748 63.4071 49.6203 63.9366 49.3497C64.7367 49.0628 66.7106 46.6271 68.0138 45.474H68.0152L68.0226 45.4711C68.0226 45.4711 74.9414 43.3766 76.0681 37.8815C76.071 37.8683 76.0754 37.8551 76.0828 37.8418C77.2036 35.7885 76.8609 33.5779 75.8445 32.0202H75.846ZM60.2051 49.0937C59.099 48.0171 57.6002 48.9702 56.0838 49.407C55.8867 49.4629 55.797 49.1702 55.9911 49.104L59.6726 47.8523C59.7197 47.8362 59.7697 47.842 59.8109 47.8685L60.2419 48.1495C60.2771 48.1715 60.3007 48.2068 60.311 48.248L60.4669 48.9437C60.5007 49.0952 60.3169 49.2026 60.2051 49.0937Z" fill="white"/>
</svg>
