<svg width="160" height="185" viewBox="0 0 160 185" fill="none" xmlns="http://www.w3.org/2000/svg">
<g clip-path="url(#clip0_126_18678)">
<path d="M143.781 79.9683V90.9009H138.634C138.6 90.9009 138.166 90.4658 138.166 90.4314V79.9683H143.778H143.781Z" fill="white"/>
<path d="M135.363 0C140.266 1.40531 144.038 5.65879 143.784 10.9326H138.638C137.988 10.4381 138.244 9.55234 137.931 8.82935C137.147 7.0015 135.703 5.76208 133.663 5.60559L25.725 5.61498C24.3438 5.45848 21.5219 8.06253 21.5219 9.21432V37.4832H15.9094V8.59148C15.9094 8.29101 17.1313 5.58055 17.4094 5.09542C18.9125 2.47259 21.5375 0.938959 24.3313 0H135.366H135.363Z" fill="white"/>
<path d="M58.6375 21.2422H26.5125V26.8634H58.6375V21.2422Z" fill="white"/>
<path d="M42.7281 10.6196H37.1156V16.2409H42.7281V10.6196Z" fill="white"/>
<path d="M32.125 10.6196H26.5125V16.2409H32.125V10.6196Z" fill="white"/>
<path d="M53.3313 10.6196H47.7188V16.2409H53.3313V10.6196Z" fill="white"/>
<path d="M58.6438 45.1326C58.5187 43.3924 57.0344 42.4628 55.3719 42.4722H3.2625C1.79687 42.5974 0.878125 42.8823 0 44.0466V78.4093L1.125 79.6237C10.7375 80.0525 20.4219 80.0556 30.1125 80.0056L29.4688 78.7912C29.3875 78.6409 29.2031 76.3499 29.2125 75.943C29.2125 75.8272 29.2219 75.7114 29.2313 75.5987C29.2625 75.1699 29.325 74.7505 29.4219 74.3468H5.61562V48.106H53.0219V74.3468H46.5312L49.4906 79.9305C51.6625 79.9367 53.8312 79.9524 56 79.9837C57.6969 80.0463 58.4937 78.8694 58.6562 77.3358C59.7156 67.2921 57.8188 55.3767 58.6438 45.1326Z" fill="white"/>
<path d="M29.3038 52.2738L23.8522 68.6685L29.2424 70.4664L34.694 54.0718L29.3038 52.2738Z" fill="white"/>
<path d="M48.05 61.383C48.05 63.599 43.4281 66.926 41.9531 68.6475C41.9375 68.6662 41.925 68.685 41.9094 68.7007C41.825 68.7163 41.6031 68.5723 41.3031 68.3282C40.1937 67.4331 38.0469 65.2015 38.0469 64.8196L41.1531 61.3392L38.0813 57.6773L41.6875 54.0654C43.2594 55.4081 48.0562 59.2954 48.0562 61.383H48.05Z" fill="white"/>
<path d="M16.7313 54.0622C17.2719 53.9652 19.9501 57.1044 20.5657 57.6741L17.4907 61.336L20.5657 64.7726L16.6907 68.7131C15.2657 66.8477 10.6001 63.6959 10.5751 61.383C10.5501 59.07 15.2469 55.8932 16.7313 54.0591V54.0622Z" fill="white"/>
<path d="M65.7218 15.9967L157.053 15.9153C158.097 15.8684 158.975 16.3347 159.453 17.258C160.006 35.4551 159.516 53.7742 159.703 72.015C159.75 73.0604 159.284 73.9399 158.362 74.4188C127.822 74.9759 97.1625 74.4782 66.575 74.6691C64.2843 74.6285 63.7843 73.0573 63.6156 71.0729C62.2218 54.6005 64.6937 36.1843 63.6156 19.5084C63.6906 18.1626 64.2218 16.3316 65.7218 15.9967ZM154.075 21.5554H69.2406V56.228L93.0937 42.4722L94.9781 43.1013L117.869 57.9619C124.844 54.9322 131.325 50.7038 138.319 47.7836L139.803 48.1905L154.075 56.228V21.5554ZM154.075 69.0354V62.9447L138.328 53.8399L119.059 63.796L116.872 63.9744L93.1031 48.7445L69.2406 62.7913V69.0385H154.075V69.0354Z" fill="white"/>
<path d="M135.834 35.9713C135.834 41.1888 131.613 45.4172 126.403 45.4172C121.194 45.4172 116.972 41.1888 116.972 35.9713C116.972 30.7538 121.194 26.5254 126.403 26.5254C131.613 26.5254 135.834 30.7538 135.834 35.9713ZM130.241 35.9932C130.241 33.8806 128.531 32.1685 126.422 32.1685C124.313 32.1685 122.603 33.8806 122.603 35.9932C122.603 38.1059 124.313 39.8179 126.422 39.8179C128.531 39.8179 130.241 38.1059 130.241 35.9932Z" fill="white"/>
<path d="M21.5219 85.2793H15.9062V117.285C16.6469 116.81 17.4781 116.412 18.4 116.108C18.7344 115.188 19.2625 114.334 19.9969 113.736C19.7594 111.498 20.3406 109.442 21.5219 107.783V85.2793ZM27.4688 156.615C27.0406 155.855 26.6187 155.085 26.2 154.312H9.2C8.11563 154.312 5.61562 151.811 5.61562 150.718V144.005H20.9313C20.675 143.495 20.4219 142.985 20.1688 142.474C18.7719 139.676 17.3687 136.884 15.9062 134.155V138.381H2.34062C1.65 138.381 0.596875 139.586 0 139.942V151.814C1.44688 155.911 4.46875 159.182 8.8875 159.936H29.4094C28.7469 158.85 28.1 157.739 27.4688 156.615ZM138.169 138.384V150.722C138.169 150.853 137.019 152.756 136.816 152.959C134.375 155.423 129.837 154.634 128.375 151.47C127.028 148.553 128.878 140.991 127.113 139.304C126.916 139.116 125.375 138.384 125.225 138.384H89.9219C89.6531 139.77 89.3594 141.163 89.175 142.54C89.1094 143.032 89.0563 143.52 89.025 144.008H122.262V150.722C122.262 151.582 123.231 153.404 123.509 154.315H92.6188C93.0875 155.1 93.5281 155.87 93.8937 156.609C94.2 157.225 94.4562 157.817 94.625 158.368C94.7906 158.903 94.5969 159.441 94.4 159.948H133.972C137.256 159.851 140.672 157.651 142.281 154.844C142.559 154.359 143.781 151.648 143.781 151.348V138.384H138.169Z" fill="white"/>
<path d="M33.0032 85.4519L28.0813 85.4582C27.0469 85.8713 26.6438 86.8572 26.5032 87.9245C26.875 93.1733 26.6219 98.7476 26.4094 104.294C26.4407 104.284 26.475 104.272 26.5063 104.262C27.175 104.053 27.8844 103.902 28.6219 103.824C28.1407 102.325 28.0782 100.829 28.3594 99.4424C28.8188 97.1858 30.1844 95.2077 32.125 93.937V90.901H35.8907L33.0032 85.4519ZM98.5782 87.9151C98.6125 87.2328 98.3032 86.4941 97.8251 86.0153C97.5407 85.7305 97.1313 85.5364 96.7657 85.3643L52.4094 85.4269L54.7875 89.912L55.3125 90.9041H92.9438V117.142H83.9313L85.9563 120.96C86.1657 121.342 86.3782 121.74 86.5938 122.15C86.6907 122.334 86.7907 122.525 86.8876 122.716C90.2344 122.672 93.5782 122.613 96.9188 122.528C98.0907 121.843 98.4532 121.135 98.5719 119.812C99.4969 109.693 97.8344 98.1873 98.5782 87.9151Z" fill="white"/>
<path d="M94.625 158.368C94.4563 157.817 94.2 157.226 93.8938 156.609C93.5282 155.87 93.0875 155.101 92.6188 154.315C92.1532 153.523 91.6594 152.722 91.2 151.939C90.6532 151.004 90.15 150.096 89.7875 149.263C89.5 148.6 89.3031 147.921 89.175 147.235C88.9813 146.18 88.9532 145.101 89.025 144.008C89.0563 143.52 89.1094 143.032 89.175 142.54C89.3594 141.163 89.6532 139.77 89.9219 138.384C90.2532 136.684 90.5469 134.988 90.5657 133.329C90.575 132.271 90.4719 131.229 90.1938 130.212C90.0719 129.767 89.8625 129.179 89.5875 128.497C88.9313 126.863 87.9125 124.697 86.8875 122.716C86.7907 122.525 86.6907 122.334 86.5938 122.149C86.3782 121.739 86.1656 121.342 85.9563 120.96L83.9313 117.142L82.625 114.681L81.2813 112.146L78.3 106.522L77.0406 104.149L77.0157 104.162C76.5375 103.283 76.0157 102.381 75.4875 101.524C74.3719 99.7082 73.2407 98.1057 72.4438 97.389C71.8282 96.8381 71.1844 96.3968 70.5157 96.0619C70.4063 96.0056 70.2938 95.9524 70.1813 95.9023H63.4813C62.0125 96.5032 60.6344 97.4735 59.4657 98.7317L57.9657 95.9023L55.3125 90.9039L54.7875 89.9117L52.4094 85.4266L51.9844 84.6285L49.4907 79.9306L46.5313 74.3469L44.6125 70.7319C44.55 70.6161 42.8875 69.2421 42.5938 69.0387C42.3813 68.8947 42.1719 68.7664 41.9532 68.6474C41.9375 68.6662 41.925 68.685 41.9094 68.7007C41.825 68.7163 41.6032 68.5723 41.3032 68.3282C40.45 67.9589 39.5625 67.7523 38.6719 67.6897C36.9032 67.5676 35.1219 68.0152 33.5907 68.8978C32.8782 69.3047 32.2157 69.8086 31.6407 70.3939C30.575 71.4643 29.7813 72.8133 29.4282 74.3469C29.3313 74.7507 29.2688 75.1701 29.2375 75.5989C29.2282 75.7115 29.2219 75.8274 29.2188 75.9432C29.2094 76.35 29.3938 78.6411 29.475 78.7913L30.1188 80.0057L32.075 83.6927L33.0094 85.4548L35.8969 90.9039L36.7157 92.4469C35.5969 92.5095 34.5469 92.7568 33.5907 93.1605C33.075 93.3765 32.5875 93.6363 32.1313 93.9399C30.1907 95.2106 28.825 97.1887 28.3657 99.4453C28.0844 100.832 28.1469 102.328 28.6282 103.827C27.8907 103.905 27.1813 104.056 26.5125 104.265C26.4813 104.275 26.4469 104.287 26.4157 104.297C24.3625 104.954 22.6657 106.181 21.5282 107.783C20.3469 109.442 19.7657 111.498 20.0032 113.736C19.2688 114.334 18.7407 115.189 18.4063 116.109C17.4844 116.412 16.6532 116.81 15.9125 117.286C12.2125 119.677 10.8813 124.093 12.9844 128.941C13.9938 130.644 14.9657 132.387 15.9125 134.159C17.375 136.888 18.7782 139.68 20.175 142.478C20.4282 142.988 20.6813 143.498 20.9375 144.008C21.4625 145.063 21.9875 146.121 22.5157 147.173C23.3157 148.769 24.1188 150.359 24.9438 151.93C25.3594 152.731 25.7813 153.526 26.2063 154.315C26.625 155.088 27.0469 155.858 27.475 156.619C28.1063 157.742 28.7532 158.853 29.4156 159.942C29.4531 160.005 29.4938 160.071 29.5313 160.133C32.3657 164.794 36.8375 168.136 39.6032 172.453C41.1813 174.919 44.9875 184.102 47.1 184.894C47.6719 185.107 48.2344 184.981 48.7657 184.734L94.2594 160.334C94.3032 160.208 94.3563 160.08 94.4063 159.949C94.6032 159.442 94.7969 158.903 94.6313 158.368H94.625ZM85.3563 159.942L48.9063 179.338C46.9781 175.842 45.3375 172.152 42.9813 168.919C40.7281 165.82 37.2938 163.072 35.1375 159.939C35.025 159.773 34.9157 159.608 34.8094 159.442C34.2219 158.515 33.6469 157.573 33.0844 156.612C32.6407 155.855 32.2032 155.088 31.775 154.312C31.3375 153.526 30.9094 152.731 30.4844 151.93C29.6563 150.368 28.8469 148.778 28.0469 147.176C27.5219 146.124 27.0032 145.066 26.4844 144.005C26.2344 143.498 25.9875 142.991 25.7375 142.481C25.0688 141.113 24.4032 139.742 23.7282 138.381C23.0032 136.91 22.2688 135.448 21.5219 134.002C21.3188 133.605 21.1125 133.21 20.9063 132.819C19.9438 130.985 18.9563 129.185 17.9219 127.436C17.65 126.966 17.3688 126.5 17.0875 126.04C16.3907 124.375 16.8344 122.829 17.8188 121.814C18.7438 120.86 20.1469 120.378 21.5219 120.716C22.0188 120.838 22.5125 121.07 22.9813 121.423C23.3938 121.733 23.7813 122.14 24.1344 122.656C25.3188 124.39 26.3 126.434 27.2813 128.494C28.0719 130.159 28.8625 131.836 29.7594 133.367C30.0313 133.827 30.3094 134.278 30.6032 134.706C31.8719 136.168 34.3469 134.985 34.5719 133.148C34.6157 132.803 34.5781 132.434 34.4375 132.055L32.575 128.494L29.5875 122.778L26.8625 117.561L26.2813 116.447L24.8063 113.624C24.7469 113.323 24.7219 113.032 24.7219 112.753C24.7313 111.464 25.35 110.4 26.2407 109.708C27.8594 108.453 30.375 108.412 31.7875 110.441C31.9 110.603 32.0157 110.769 32.125 110.938C32.5282 111.542 32.9125 112.174 33.2875 112.829C34.0719 114.19 34.8094 115.649 35.5282 117.138C36.3219 118.782 37.0938 120.465 37.8907 122.115C37.9907 122.321 38.0907 122.528 38.1938 122.735C39.2094 124.803 40.2719 126.8 41.4688 128.572C43.0781 130.45 46.4844 128.891 45.4344 126.187C44.9907 125.044 44.475 123.893 43.9032 122.735C42.9938 120.885 41.9469 119.016 40.8594 117.138C39.8938 115.476 38.8938 113.808 37.9219 112.143C37.65 111.677 37.3813 111.21 37.1157 110.747C35.8563 108.544 34.6813 106.35 33.7375 104.187C33.7282 104.162 33.7157 104.137 33.7063 104.112C32.925 102.309 32.5907 100.716 33.3063 99.4422C33.3875 99.3045 33.4782 99.1668 33.5844 99.0353C33.9907 98.5251 34.5969 98.0776 35.45 97.6957C36.05 97.4265 36.6031 97.3201 37.1157 97.3452C37.6938 97.3639 38.2188 97.5517 38.7 97.8522C39.4813 98.3436 40.15 99.1417 40.7344 100.04C41.05 100.525 41.3594 101.02 41.6625 101.52C42.6313 103.12 43.5407 104.797 44.4188 106.519C45.3625 108.362 46.275 110.253 47.1907 112.143C48.0063 113.821 48.825 115.498 49.675 117.138C49.7219 117.232 49.7688 117.326 49.8188 117.42C50.7782 119.264 51.775 121.057 52.8563 122.753C52.875 122.782 52.8907 122.81 52.9094 122.838C53.4032 123.408 54.1094 123.57 54.7875 123.442C55.2719 123.351 55.7407 123.113 56.1063 122.766C56.6063 122.306 56.9188 121.649 56.8375 120.907C56.2938 119.789 55.7438 118.675 55.1844 117.561C55.1157 117.42 55.0438 117.279 54.9719 117.138C54.3032 115.793 53.6219 114.453 52.9375 113.113C52.7719 112.791 52.6063 112.466 52.4375 112.143C51.475 110.265 50.4969 108.39 49.5125 106.519C48.6344 104.851 47.7532 103.185 46.8625 101.52C45.8657 99.6456 44.8625 97.7708 43.8563 95.8992C42.9625 94.2341 42.0657 92.5659 41.1719 90.9008C40.1969 89.0823 39.2219 87.2639 38.2563 85.4423C37.2844 83.6207 36.3188 81.796 35.3625 79.9682C35.0125 79.3015 34.6657 78.6348 34.3188 77.9682C34.0094 76.9917 33.9907 76.0934 34.1844 75.3234C34.2719 74.9698 34.4032 74.6411 34.575 74.3438C35.2875 73.0825 36.6563 72.3626 38.1 72.4815C39.1813 72.5723 40.2969 73.1357 41.2125 74.3L41.2344 74.3438L44.2032 79.9243L47.1344 85.4298L49.6875 90.2341L50.0407 90.9008L53.0188 96.497L55.6907 101.52L57.1907 104.337L58.35 106.519L61.3407 112.143L61.6532 112.732L64 117.138L64.225 117.561L65.3875 119.749L66.9938 122.769C66.9938 122.769 67.0125 122.788 67.025 122.797C67.7782 123.526 69.2094 124.015 70.5282 124.049C71.7563 124.084 72.8938 123.721 73.3188 122.797C73.4938 122.422 73.5469 121.949 73.4407 121.373C73.0563 119.276 71.3657 119.639 70.4032 119.013C70.2813 118.932 70.1688 118.838 70.075 118.719C69.8032 118.381 69.4438 117.83 69.0313 117.138C68.3625 116.024 67.55 114.547 66.7469 113.016C66.5938 112.725 66.4407 112.434 66.2907 112.143C65.1657 109.968 64.1094 107.805 63.5375 106.519C63.4563 106.34 63.3844 106.178 63.325 106.034C63.075 105.439 62.9344 104.872 62.8907 104.34C62.7969 103.223 63.1157 102.262 63.675 101.52C65.0032 99.752 67.6813 99.245 69.2875 100.913C69.45 101.082 69.6125 101.286 69.775 101.511C69.7782 101.514 69.7782 101.517 69.7813 101.52C70.6532 102.735 71.5344 104.7 72.4344 106.594L74.2282 109.974L75.3782 112.143L78.0282 117.138L80.4532 121.711C80.6063 122.049 80.775 122.403 80.9594 122.769C81.1125 123.076 81.275 123.389 81.4438 123.705C82.85 126.346 84.6875 129.254 85.3 130.791C85.5688 131.461 85.7 132.24 85.7313 133.088C85.7938 134.666 85.5188 136.494 85.175 138.381C84.9219 139.761 84.6282 141.173 84.4 142.534C84.3157 143.032 84.2407 143.523 84.1813 144.005C84.0344 145.157 83.9688 146.249 84.0469 147.229C84.1157 148.096 84.3 148.875 84.6469 149.529L85.9219 151.933L87.1813 154.312L88.4 156.609L89.1094 157.946L85.3532 159.942H85.3563Z" fill="white"/>
<path d="M63.4813 95.9023C62.0126 96.5033 60.6344 97.4735 59.4657 98.7317L57.9657 95.9023H63.4813Z" fill="white"/>
<path d="M77.35 95.9023V101.524H75.4875C74.3719 99.7083 73.2407 98.1058 72.4438 97.389C71.8282 96.8382 71.1844 96.3969 70.5156 96.062C70.4063 96.0056 70.2938 95.9524 70.1813 95.9023H77.35Z" fill="white"/>
<path d="M87.9532 106.519V112.146H81.2813L78.3 106.519H87.9532Z" fill="white"/>
<path d="M87.9532 95.8989H82.3407V101.52H87.9532V95.8989Z" fill="white"/>
<path d="M105.644 95.9649L157.053 95.8836C158.631 95.8116 159.778 96.9665 159.703 98.5377C158.953 108.894 160.65 120.541 159.703 130.741C159.578 132.084 159.344 132.566 158.113 133.21L106.494 133.398C104.513 133.489 103.75 131.824 103.544 130.105C104.2 120.221 102.675 109.229 103.531 99.4798C103.65 98.1308 104.091 96.3123 105.638 95.9681L105.644 95.9649ZM154.075 101.524H109.163V127.764H154.075V101.524Z" fill="white"/>
<path d="M149.084 106.522H125.069V112.143H149.084V106.522Z" fill="white"/>
<path d="M149.084 117.142H125.069V122.763H149.084V117.142Z" fill="white"/>
<path d="M119.766 106.522V112.143H114.619C114.585 112.143 114.15 111.708 114.15 111.674V106.989C114.15 106.954 114.585 106.519 114.619 106.519H119.766V106.522Z" fill="white"/>
<path d="M119.766 117.142V122.763H114.619C114.585 122.763 114.15 122.328 114.15 122.294V117.608C114.15 117.574 114.585 117.139 114.619 117.139H119.766V117.142Z" fill="white"/>
<path d="M41.3 68.3281C41.6 68.5723 41.8219 68.7162 41.9063 68.7006C41.9219 68.6849 41.9344 68.6662 41.95 68.6474C41.7344 68.5284 41.5219 68.422 41.3 68.3281ZM65.3907 95.342C64.7438 95.4578 64.1063 95.6456 63.4813 95.9022H70.1813C68.6375 95.2043 66.9938 95.0509 65.3907 95.342Z" fill="white"/>
</g>
<defs>
<clipPath id="clip0_126_18678">
<rect width="160" height="185" fill="white"/>
</clipPath>
</defs>
</svg>
