<svg width="148" height="176" viewBox="0 0 148 176" fill="none" xmlns="http://www.w3.org/2000/svg">
<g clip-path="url(#clip0_126_18643)">
<path d="M69.8888 88.15C75.2653 85.661 81.4464 88.6326 82.4845 94.4466C88.1797 92.1627 94.2094 94.8756 95.4116 101.046C102.101 98.7905 107.755 102.298 108.313 109.39C107.761 121.081 109.008 133.375 108.313 144.993C107.985 150.482 105.578 155.574 105.158 160.729C104.918 163.672 105.868 173.647 104.357 175.353C103.95 175.811 103.391 175.969 102.798 176L50.6923 175.83C50.2063 175.385 49.5658 174.956 49.4333 174.256C48.9064 171.495 49.6794 166.924 49.4365 163.861C48.9222 157.328 41.4632 153.321 40.0654 147.097C39.4722 144.454 39.2608 136.012 39.6804 133.35C40.0181 131.208 42.6464 130.069 44.0757 132.066C45.423 133.949 44.3849 142.388 44.6973 145.296C45.24 150.334 54.1441 156.722 54.1441 161.665V171.268H100.113C100.179 167.243 99.8952 163.18 100.466 159.186C101.041 155.164 102.959 150.864 103.274 146.88C104.24 134.627 102.517 121.141 103.278 108.756C102.845 104.075 95.9953 103.702 95.3895 109.084C94.9067 113.4 95.806 118.469 95.3232 122.87C94.8057 125.132 90.9911 124.87 90.6503 122.324L90.5178 101.362C89.2715 97.2448 83.2859 97.6959 82.7874 101.835C82.0144 108.21 83.4374 116.024 82.7306 122.558C82.1848 124.993 78.4111 125.217 78.0672 122.315C77.1521 114.586 78.7077 105.065 78.0829 97.1091C77.8463 94.0807 76.9029 91.986 73.4921 92.2226C70.8732 92.4056 70.1002 94.4813 69.8888 96.8094C69.1378 105.131 70.4946 114.441 69.8162 122.87C69.3555 124.857 66.1719 124.955 65.3989 123.012C64.8498 106.775 65.3074 90.4118 65.1654 74.1276C64.2598 69.1938 58.1639 69.2285 57.2804 74.1276L57.2205 129.482C56.4979 131.816 51.9007 134.744 50.8121 131.293C50.0833 128.98 52.3046 128.671 52.557 127.337C53.005 124.98 52.8157 115.548 52.5759 112.848C52.1121 107.589 45.8805 107.478 44.8361 111.116C43.9905 114.062 45.6439 121.794 44.0662 123.886C42.7726 125.599 40.1348 124.804 39.7278 122.548C39.2576 119.933 39.4596 111.917 40.3557 109.469C42.2362 104.327 47.6411 102.819 52.5633 104.519V72.5629C52.5633 72.4304 53.3963 70.4178 53.5635 70.0992C56.6367 64.323 65.5124 64.2032 68.7592 69.9067C68.9611 70.2601 69.8825 72.3894 69.8825 72.5629V88.1468L69.8888 88.15Z" fill="white"/>
<path d="M45.8805 15.2999C45.6628 14.2588 44.6909 13.8803 43.7191 14.0033C42.7536 14.1263 41.5452 14.732 40.526 15.3377C40.1348 15.568 39.7751 15.7983 39.4627 16.0033C37.8283 17.0854 36.339 18.3851 34.8687 19.6753C34.6383 19.8804 34.4048 20.0854 34.1745 20.2873C33.7864 19.9908 33.392 19.7069 32.9913 19.4324C30.8078 17.9214 28.4667 16.7384 25.8446 16.0917C10.974 12.4228 -2.45791 25.6944 0.943442 40.6063C1.60604 43.518 2.92494 46.2152 4.72974 48.5213C7.43694 51.9882 11.239 54.5845 15.568 55.7391C16.6092 56.0167 18.0638 56.3101 19.5594 56.4047C20.1841 56.4457 20.8152 56.4489 21.4241 56.4047C23.1816 56.2754 24.7719 55.7328 25.5607 54.411C27.1194 51.7895 24.5699 49.8431 24.7845 47.2878C25.1568 42.8556 30.0127 43.7325 33.0765 43.4455C39.8129 42.8145 42.1415 39.6852 41.1697 32.991C40.8321 30.6724 40.018 28.4578 39.0178 26.3568C39.6015 25.7101 40.1884 25.0666 40.7627 24.4104C41.6714 23.382 42.5485 22.3284 43.3436 21.2085C43.7601 20.6249 44.3533 19.7605 44.8676 18.8299C45.5429 17.6027 46.0792 16.2589 45.8805 15.2999ZM39.6362 33.1014C40.4345 38.3981 39.2828 41.0921 33.7296 41.824C30.8205 42.2089 27.4128 41.5022 25.0243 43.5433C23.3362 44.9849 22.9134 47.5118 23.5255 49.5844C23.9799 51.1081 25.6143 53.1964 23.4277 54.3605C19.6982 56.3448 12.2045 53.2816 9.09975 50.8368C7.25393 49.3825 5.78675 47.7232 4.67294 45.9345C0.653159 39.4864 1.21164 31.3822 5.16516 25.3915C6.59764 23.2148 8.48448 21.3157 10.7594 19.8772C13.271 18.2904 16.2559 17.262 19.6446 17.0381C23.2857 16.7983 26.949 17.6658 30.1137 19.4261C31.1455 19.9971 32.1236 20.6627 33.0291 21.4167C30.4955 23.9846 28.1322 26.7701 26.3937 29.95C24.4595 29.6787 22.9387 30.2118 21.8059 31.8017C20.9887 32.95 20.4429 35.1141 18.8337 35.275C18.2752 35.3318 17.2277 34.887 17.1078 35.827C17.0257 36.4737 18.1364 37.5905 18.6223 38.0006C22.5032 41.2688 29.978 39.9691 30.0001 34.1109C30.0001 33.8585 29.8266 33.6598 29.9875 33.4453C30.0948 33.3033 31.3663 32.6472 31.6566 32.4579C33.8716 31.0225 35.9477 29.3947 37.8157 27.5304C38.737 29.2275 39.3491 31.1897 39.6362 33.1014ZM27.8325 30.5146L29.3817 28.0004C29.8423 28.0572 32.0668 30.3159 31.8933 30.5588L29.3785 32.0604L27.8325 30.5146ZM27.6747 36.5305C25.9835 38.6284 22.7336 38.6378 20.5154 37.4327C20.3924 37.3665 19.389 36.8207 19.5689 36.6252C21.6829 36.2529 22.0994 33.8018 23.27 32.4106C25.668 29.5619 30.3724 33.1898 27.6747 36.5305ZM39.9454 23.0602C37.7778 25.5209 35.3451 27.8301 33.9284 28.9468C33.7864 29.0604 33.1711 29.5998 33.0418 29.5115C32.9818 29.4705 32.3602 28.5304 32.1804 28.3316C31.9658 28.0982 31.6976 27.8395 31.4641 27.625C31.2843 27.4641 30.4229 26.9089 30.385 26.8553C30.3251 26.7701 30.4702 26.5777 30.5239 26.4925C31.0382 25.7038 32.1678 24.5051 32.8367 23.7827C33.6444 22.912 34.9886 21.5839 36.5062 20.2432C38.3363 18.6248 40.4156 16.9907 42.1068 16.1232C42.6684 15.833 43.189 15.6279 43.6434 15.5365C43.899 15.486 44.1451 15.4828 44.4038 15.4954C44.4196 15.7541 44.4133 16.0002 44.3628 16.2589C44.2808 16.6595 44.1198 17.1043 43.8863 17.587C43.1196 19.1864 41.6114 21.1675 39.9454 23.0602Z" fill="white"/>
<path d="M13.312 38.9945C13.312 41.0892 11.6145 42.7864 9.51941 42.7864C7.42433 42.7864 5.72681 41.0892 5.72681 38.9945C5.72681 36.8998 7.42433 35.2026 9.51941 35.2026C11.6145 35.2026 13.312 36.8998 13.312 38.9945ZM11.788 38.9945C11.788 37.7453 10.7752 36.7295 9.52257 36.7295C8.26994 36.7295 7.2571 37.7421 7.2571 38.9945C7.2571 40.2469 8.26994 41.2595 9.52257 41.2595C10.7752 41.2595 11.788 40.2469 11.788 38.9945Z" fill="white"/>
<path d="M20.1368 47.3319C20.1368 49.4266 18.4393 51.1238 16.3442 51.1238C14.2492 51.1238 12.5516 49.4266 12.5516 47.3319C12.5516 45.2372 14.2492 43.54 16.3442 43.54C18.4393 43.54 20.1368 45.2372 20.1368 47.3319ZM18.6129 47.3319C18.6129 46.0827 17.6 45.0669 16.3474 45.0669C15.0948 45.0669 14.0819 46.0795 14.0819 47.3319C14.0819 48.5843 15.0948 49.5969 16.3474 49.5969C17.6 49.5969 18.6129 48.5843 18.6129 47.3319Z" fill="white"/>
<path d="M25.447 23.0726C25.447 25.1673 23.7495 26.8645 21.6544 26.8645C19.5593 26.8645 17.8618 25.1673 17.8618 23.0726C17.8618 20.978 19.5593 19.2808 21.6544 19.2808C23.7495 19.2808 25.447 20.978 25.447 23.0726ZM23.9199 23.0726C23.9199 21.8202 22.9039 20.8076 21.6544 20.8076C20.4049 20.8076 19.389 21.8202 19.389 23.0726C19.389 24.325 20.4049 25.3377 21.6544 25.3377C22.9039 25.3377 23.9199 24.325 23.9199 23.0726Z" fill="white"/>
<path d="M15.5869 28.3788C15.5869 30.4735 13.8894 32.1706 11.7943 32.1706C9.69923 32.1706 8.00171 30.4735 8.00171 28.3788C8.00171 26.2841 9.69923 24.5869 11.7943 24.5869C13.8894 24.5869 15.5869 26.2841 15.5869 28.3788ZM14.0598 28.3788C14.0598 27.1264 13.0438 26.1138 11.7943 26.1138C10.5448 26.1138 9.52885 27.1264 9.52885 28.3788C9.52885 29.6312 10.5448 30.6438 11.7943 30.6438C13.0438 30.6438 14.0598 29.6312 14.0598 28.3788Z" fill="white"/>
<path d="M46.3316 23.7451V52.0831C46.3316 57.0517 42.3055 61.0738 37.3392 61.0738H8.99245C4.02609 61.0738 0 57.0517 0 52.0831V23.7451C0 18.7797 4.02609 14.7544 8.99245 14.7544H37.3392C38.4625 14.7544 39.5352 14.9594 40.526 15.338C40.1347 15.5683 39.775 15.7986 39.4627 16.0036C37.8283 17.0857 36.339 18.3854 34.8686 19.6756C34.266 19.5274 33.6381 19.4422 32.9913 19.4327C30.8078 17.9216 28.4666 16.7387 25.8446 16.092C10.9739 12.4231 -2.45794 25.6947 0.943419 40.6066C1.60602 43.5183 2.92491 46.2155 4.72971 48.5216C5.21878 52.957 8.97983 56.405 13.5486 56.405H19.5594C20.1841 56.446 20.8152 56.4492 21.4241 56.405H32.783C37.6863 56.405 41.6587 52.4333 41.6587 47.531V28.3004C41.6587 26.906 41.3369 25.5842 40.7626 24.4107C41.6713 23.3823 42.5485 22.3287 43.3436 21.2088C43.7601 20.6252 44.3533 19.7608 44.8676 18.8302C45.7952 20.2435 46.3316 21.9312 46.3316 23.7451Z" fill="white"/>
<path d="M93.5657 16.5525C92.9725 16.1046 92.3194 15.7292 91.6221 15.4421L95.929 28.0796L92.4898 32.9913V47.531C92.4898 50.2188 91.2939 52.6289 89.4071 54.2504C88.5615 54.9822 87.5802 55.5532 86.5011 55.9223C85.5956 56.2346 84.6269 56.405 83.6141 56.405H64.3797C63.7139 56.405 63.0639 56.3324 62.4424 56.1905C60.871 55.8435 59.4607 55.0769 58.3248 54.0138C57.7789 53.5122 57.2993 52.938 56.9017 52.3071C56.0151 50.9285 55.504 49.2913 55.504 47.531V32.6853C55.2863 33.1522 55.0654 33.6128 54.8288 34.0607C54.7846 34.1459 54.8603 34.2469 54.6678 34.2027L50.8311 28.7231V52.0831C50.8311 57.0517 54.8571 61.0738 59.8235 61.0738H88.1702C93.1366 61.0738 97.1627 57.0517 97.1627 52.0831V23.7451C97.1627 20.805 95.7491 18.1929 93.5657 16.5525ZM88.1702 14.7544H77.1868C77.13 14.9374 77.0575 15.1203 76.9723 15.3033C75.3379 18.8396 70.0717 18.2056 69.1062 14.7544H59.8235C59.3124 14.7544 58.8107 14.7986 58.3248 14.8806C57.8357 14.9594 57.3593 15.0825 56.9017 15.2434V23.5243C57.2993 22.8933 57.7789 22.3192 58.3248 21.8176C59.142 21.051 60.1012 20.439 61.1613 20.0321C61.1645 19.969 61.1708 19.9091 61.1771 19.8491C61.2371 19.2971 61.6441 18.5305 62.029 18.133C62.4708 17.6787 63.613 17.1077 63.9316 16.7103C64.2408 16.3222 64.0263 15.6061 64.8814 15.379C66.7966 14.8711 67.0648 17.5936 65.4935 17.8018C65.2726 17.8333 65.0328 17.7292 64.8814 17.7671C64.6384 17.8302 63.228 18.9879 62.7579 19.5747C63.2817 19.4769 63.8244 19.4264 64.3797 19.4264H83.4027C82.8473 18.7702 81.7083 17.8365 81.4275 17.7671C81.276 17.7292 81.0362 17.8333 80.8122 17.8018C79.244 17.5936 79.5122 14.8711 81.4275 15.379C82.2794 15.6061 82.068 16.3222 82.3772 16.7103C82.6959 17.1077 83.8349 17.6787 84.2767 18.133C84.5953 18.4611 84.933 19.0447 85.0718 19.5463C86.113 19.7166 87.0943 20.0731 87.9809 20.5747C88.4889 20.8618 88.9685 21.1993 89.4071 21.581V14.8427C89.0032 14.7828 88.5899 14.7544 88.1702 14.7544ZM50.8311 23.7451V26.7546L54.264 16.6819C52.172 18.3254 50.8311 20.8775 50.8311 23.7451Z" fill="white"/>
<path d="M139.008 14.7544H110.661C105.694 14.7544 101.668 18.7797 101.668 23.7451V52.0831C101.668 57.0517 105.694 61.0738 110.661 61.0738H139.008C143.974 61.0738 148 57.0517 148 52.0831V23.7451C148 18.7797 143.974 14.7544 139.008 14.7544ZM134.451 56.405H115.217C113.39 56.405 111.693 55.8529 110.282 54.9065H110.279C109.746 54.5469 109.254 54.1368 108.818 53.6731C108.632 53.6163 108.449 53.55 108.266 53.468C108.121 53.4049 107.569 53.181 107.594 53.0169C107.6 52.9917 107.761 52.7677 107.913 52.5721C107.726 52.304 107.556 52.0264 107.401 51.7361C107.294 51.9002 106.849 52.4049 106.742 52.3891C106.449 52.3355 105.717 51.0011 105.593 50.6856C104.959 49.0547 105.168 46.9979 106.341 45.6792V39.9599C106.073 39.5246 105.909 39.1902 105.959 39.1302C106.038 39.1775 106.177 39.2375 106.341 39.3006V38.2406L105.407 37.8084C104.865 35.7579 104.732 33.1049 105.543 31.1048C105.578 31.0197 105.492 30.9692 105.669 30.9913C105.713 30.9976 105.988 31.1238 106.341 31.2941V30.2468C106.215 30.19 106.089 30.1395 105.959 30.0954C106.076 29.843 106.202 29.5938 106.341 29.3509V28.3004C106.341 28.0512 106.351 27.8051 106.376 27.5622C106.745 23.0069 110.563 19.4264 115.217 19.4264H134.451C137.985 19.4264 141.036 21.4895 142.466 24.477C142.866 25.3193 143.141 26.2373 143.258 27.2026C143.778 28.1395 144.163 29.149 144.394 30.1774C144.034 30.2089 143.677 30.2531 143.327 30.3162V31.291C143.762 31.2184 144.198 31.1711 144.636 31.1522C144.943 33.679 144.567 36.3542 143.327 38.5908V47.531C143.327 47.8717 143.308 48.2093 143.267 48.5405C143.706 50.8213 142.56 53.3292 140.213 54.2788C139.575 54.8245 138.859 55.2819 138.083 55.6289C136.976 56.1274 135.745 56.405 134.451 56.405Z" fill="white"/>
<path d="M86.2991 26.1865C86.1476 25.5966 85.627 25.3126 85.1253 25.0603C85.0023 23.4009 85.3083 21.4734 85.1316 19.8488C85.1222 19.7542 85.1001 19.6532 85.0717 19.546C84.5984 19.4671 84.1093 19.4261 83.6139 19.4261H83.4025C83.5855 19.6438 83.7055 19.8299 83.7055 19.9435V25.1234H81.5189V22.1296C81.5189 21.8962 81.1276 20.8204 80.9982 20.5586C80.7963 20.1422 80.5344 19.7605 80.2284 19.4261C79.3922 18.4986 78.2122 17.8961 76.9564 17.71C77.884 16.8267 78.4299 15.8014 78.6602 14.7541C79.5184 10.8865 76.0792 6.694 71.4662 8.08519C70.7216 8.30917 67.8914 9.72245 69.4122 10.5679C69.9707 10.8802 70.3998 10.202 70.8415 9.93381C74.3407 7.79181 78.3478 11.1073 77.1867 14.7541C77.1299 14.9371 77.0573 15.12 76.9722 15.303C75.3377 18.8393 70.0716 18.2052 69.1061 14.7541C69.043 14.5301 68.9988 14.2967 68.9736 14.0506C68.9231 13.5585 69.1661 12.4102 68.5256 12.2178C67.3455 11.8613 67.4812 13.5112 67.5474 14.2399C67.5632 14.4134 67.5916 14.5837 67.6326 14.7541C67.8819 15.8771 68.5855 16.8835 69.3522 17.71C68.1406 17.8456 66.9606 18.4986 66.1023 19.4261C65.3987 20.1832 64.9096 21.1296 64.7897 22.1296C64.6793 23.0571 64.8718 24.177 64.7897 25.1234H62.6032V19.8488C62.6032 19.792 62.66 19.6942 62.7578 19.5744C62.2056 19.6753 61.6724 19.8299 61.1612 20.0318C61.0224 21.6154 61.3032 23.464 61.1801 25.0603C60.6816 25.3126 60.161 25.5966 60.0064 26.1865C59.8802 26.6754 59.8802 28.1234 60.0316 28.5998C60.1294 28.9058 60.751 29.5903 61.035 29.5903H62.6978L63.5529 52.0229C62.5905 51.9219 61.9374 52.5686 61.8427 53.4993C61.7576 54.3605 61.7449 55.6129 62.4422 56.1902C62.6221 56.3384 62.8493 56.4425 63.1332 56.4835C63.5182 56.5372 64.9412 56.5498 65.2914 56.4709C65.3545 56.4551 65.4145 56.4362 65.4681 56.4047C66.0045 56.1397 65.9856 55.2974 65.364 55.1081C65.0359 55.0072 63.2689 55.1807 63.2689 54.922V53.4488H83.0397V54.922C83.0397 55.0009 82.8094 55.0924 82.7116 55.0703L68.4467 55.064C67.6705 55.1334 67.478 56.0324 68.1217 56.4047C68.1469 56.4204 68.1753 56.4362 68.2069 56.4488L83.087 56.4899C83.2227 56.4741 83.3489 56.4457 83.4593 56.4047C84.5668 56.0167 84.57 54.5434 84.4627 53.4993C84.3712 52.5655 83.7149 51.9219 82.7526 52.0229L83.6076 29.5903H85.2736C85.5576 29.5903 86.1792 28.9058 86.277 28.5998C86.4253 28.1234 86.4284 26.6754 86.2991 26.1865ZM77.7641 23.4041C76.7671 23.3978 77.1015 24.4451 77.051 25.1234H73.9147V21.6059C74.9149 22.4829 76.1549 22.4987 77.0479 21.4608C77.2782 21.199 78.1144 19.6974 78.3163 19.7163C78.7612 19.7542 79.6604 21.0286 79.8245 21.4482C79.8687 21.5555 80.0927 22.2747 80.0927 22.3189V25.1234H78.4772C78.4772 24.5019 78.6539 23.4104 77.7641 23.4041ZM68.5413 23.4041C67.6547 23.4104 67.8314 24.5019 67.8314 25.1234H66.2159V22.3189C66.2159 21.9214 66.6577 21.0665 66.8975 20.7195C67.0584 20.486 67.7336 19.7384 67.9892 19.7163C68.1943 19.6974 69.0304 21.199 69.2576 21.4608C70.1537 22.4987 71.3905 22.4829 72.3939 21.6059V25.1234H69.2576C69.2071 24.4451 69.5415 23.3978 68.5413 23.4041ZM76.8617 19.1359C76.7955 19.2084 76.726 19.3094 76.6566 19.4261C76.3316 19.9561 75.9562 20.8078 75.4671 20.8236C74.8865 20.8394 74.6846 19.9782 74.448 19.4261C74.3975 19.3125 74.347 19.2147 74.2934 19.1359H76.8617ZM69.4469 19.1359H72.0121C71.9585 19.2147 71.908 19.3125 71.8575 19.4261C71.6209 19.9782 71.4189 20.8394 70.8415 20.8236C70.3493 20.8078 69.977 19.9561 69.652 19.4261C69.5826 19.3094 69.5132 19.2084 69.4469 19.1359ZM66.6892 52.0229H65.121L64.124 29.5903H66.6892V52.0229ZM81.1844 52.0229H79.6163V29.5903H82.1846L81.1844 52.0229ZM84.9392 28.1644H76.3379C76.1392 28.1644 75.7637 28.6376 75.7637 28.8774C75.7605 29.095 76.0224 29.5903 76.2433 29.5903H78.1901V52.0229H68.1154V29.5903H73.391C73.6118 29.5903 73.8737 29.095 73.8705 28.8774C73.8705 28.6376 73.4951 28.1644 73.2963 28.1644H61.3663V26.5492H84.9392V28.1644Z" fill="white"/>
<path d="M76.9406 38.3224C76.9406 40.4139 75.2431 42.1111 73.1511 42.1111C71.0592 42.1111 69.3617 40.4139 69.3617 38.3224C69.3617 36.2309 71.0592 34.5337 73.1511 34.5337C75.2431 34.5337 76.9406 36.2309 76.9406 38.3224ZM75.5113 38.3161C75.5113 37.0132 74.4574 35.9596 73.1543 35.9596C71.8512 35.9596 70.7973 37.0164 70.7973 38.3161C70.7973 39.6158 71.8512 40.6726 73.1543 40.6726C74.4574 40.6726 75.5113 39.6158 75.5113 38.3161Z" fill="white"/>
<path d="M59.2239 54.8368C58.9399 54.7863 58.615 54.8588 58.3247 54.8304V5.13554C58.3247 5.06929 58.8106 4.83585 58.9273 4.73174C60.546 3.33109 59.9118 0.280561 57.8892 0.0187262C55.343 -0.309355 54.3838 3.54876 56.5735 4.96834L56.6051 5.11345L48.8116 28.1927C48.7769 28.4956 48.941 28.6722 49.0672 28.8962C49.5278 29.7038 50.1557 30.6533 50.831 31.6124C51.7649 32.9468 52.7935 34.3064 53.576 35.3569C53.8884 35.7796 54.4153 36.7229 54.9296 36.6124C55.1221 36.5714 55.3146 36.3475 55.5039 36.0351C56.0087 35.2023 56.4978 33.7291 56.9017 33.319V54.8304C56.4347 54.8525 55.6553 54.6506 55.4313 55.2752C55.283 55.6822 55.4124 56.2595 55.7626 56.4267C56.0024 56.5434 58.7285 56.5434 59.1356 56.4866C60.0853 56.3604 60.0569 54.9882 59.2239 54.8368ZM57.599 1.6686C58.0502 1.6686 58.4162 2.09132 58.4162 2.61499C58.4162 3.13866 58.0502 3.56453 57.599 3.56453C57.1478 3.56453 56.7818 3.13866 56.7818 2.61499C56.7818 2.09132 57.1478 1.6686 57.599 1.6686ZM55.5039 32.6849C55.2862 33.1518 55.0653 33.6124 54.8287 34.0603C54.7845 34.1455 54.8602 34.2465 54.6677 34.2023L50.831 28.7227L50.3798 28.0792L50.831 26.7542L54.2639 16.6815L56.9017 8.94002V29.8458C56.3842 30.7543 55.9519 31.7259 55.5039 32.6849Z" fill="white"/>
<path d="M97.4939 28.1927L97.1626 27.2116L93.5656 16.5521L89.7036 5.11345L89.732 4.96834C91.9249 3.54876 90.9626 -0.309355 88.4194 0.0187262C86.3969 0.280561 85.7627 3.33109 87.3782 4.73174C87.4981 4.83585 87.9808 5.06929 87.9808 5.13554V54.8304C87.6906 54.8588 87.3687 54.7863 87.0848 54.8368C86.5736 54.9282 86.3654 55.4803 86.501 55.9219C86.5831 56.2027 86.8039 56.4393 87.1699 56.4866C87.5801 56.5434 90.3063 56.5434 90.5461 56.4267C90.8963 56.2595 91.0257 55.6822 90.8774 55.2752C90.6502 54.6506 89.874 54.8525 89.407 54.8304V33.319C89.9623 33.8837 90.6754 36.4642 91.379 36.6124C91.7766 36.6976 92.1836 36.1519 92.4897 35.7039C92.5812 35.5746 92.6632 35.4515 92.7326 35.3569C94.0578 33.5682 96.0457 30.9593 97.1626 29.0256C97.1879 28.9814 97.2131 28.9404 97.2383 28.8962C97.3677 28.6722 97.5286 28.4956 97.4939 28.1927ZM87.8925 2.61499C87.8925 2.09132 88.2585 1.6686 88.7097 1.6686C89.1609 1.6686 89.5269 2.09132 89.5269 2.61499C89.5269 3.13866 89.1609 3.56453 88.7097 3.56453C88.2585 3.56453 87.8925 3.13866 87.8925 2.61499ZM92.4897 32.9909L91.6409 34.2023C91.4485 34.2465 91.5242 34.1455 91.48 34.0603C90.748 32.6849 90.1769 31.1928 89.407 29.8458V8.94002L91.622 15.4417L95.9289 28.0792L92.4897 32.9909Z" fill="white"/>
<path d="M142.466 24.4766C142.866 25.3188 143.141 26.2368 143.258 27.2022C143.778 28.1391 144.163 29.1486 144.394 30.177C144.034 30.2085 143.677 30.2527 143.327 30.3158V31.2906C143.763 31.218 144.198 31.1707 144.637 31.1518C144.943 33.6786 144.567 36.3537 143.327 38.5904V40.3475C144.422 38.8112 145.186 37.0351 145.507 35.155C146.211 31.0319 144.917 27.2179 142.466 24.4766ZM144.088 47.8555C143.92 47.253 143.662 46.7041 143.327 46.212V47.5306C143.327 47.8713 143.308 48.2088 143.267 48.5401C143.706 50.8209 142.56 53.3288 140.213 54.2784C139.576 54.8241 138.859 55.2815 138.083 55.6285C141.929 55.7579 145.264 52.0922 144.088 47.8555ZM108.818 53.6727C108.632 53.6159 108.449 53.5496 108.266 53.4676C108.121 53.4045 107.569 53.1805 107.594 53.0165C107.6 52.9913 107.761 52.7673 107.913 52.5717C107.726 52.3036 107.556 52.026 107.401 51.7357C107.294 51.8998 106.849 52.4045 106.742 52.3887C106.449 52.3351 105.717 51.0007 105.594 50.6852C104.959 49.0543 105.168 46.9975 106.341 45.6788V44.2656C102.126 47.8682 104.862 54.9061 110.279 54.9061C109.746 54.5465 109.254 54.1364 108.818 53.6727ZM106.341 41.7072V39.9595C106.073 39.5242 105.909 39.1898 105.96 39.1298C106.038 39.1771 106.177 39.2371 106.341 39.3002V38.2402L105.407 37.808C104.865 35.7575 104.732 33.1045 105.543 31.1044C105.578 31.0193 105.493 30.9688 105.669 30.9909C105.713 30.9972 105.988 31.1234 106.341 31.2937V30.2464C106.215 30.1896 106.089 30.1391 105.96 30.095C106.076 29.8426 106.202 29.5934 106.341 29.3505V28.3C106.341 28.0508 106.351 27.8047 106.376 27.5618C103.448 31.483 102.918 37.1329 106.341 41.7072Z" fill="white"/>
<path d="M143.327 31.2906V30.3158C140.374 30.8142 137.717 32.3253 135.72 34.5682L133.644 32.8994L140.686 24.0885C141.721 24.934 142.598 26.0097 143.258 27.2022C143.141 26.2368 142.866 25.3188 142.466 24.4766C139.37 21.0096 134.429 19.2493 129.346 20.7131C126.759 21.4607 124.516 23.0286 122.843 25.1201C120.997 23.9056 118.906 23.0033 116.665 22.8519C112.289 22.5554 108.626 24.5491 106.376 27.5618C106.351 27.8047 106.341 28.0507 106.341 28.3V29.3505C107.168 27.8678 108.345 26.5681 109.758 25.6343C110.162 25.3693 111.008 24.8362 111.44 24.7037C111.544 24.6721 111.626 24.6122 111.74 24.6753L114.264 25.9466L113.027 29.3063L112.86 29.464L108.679 31.3947C107.846 31.1423 107.136 30.5965 106.341 30.2464V31.2937C107.076 31.6533 108.149 32.2086 108.2 32.2906L108.717 36.5714L107.537 38.7954L106.341 38.2402V39.3002C106.751 39.4705 107.307 39.6756 107.43 39.8144C107.745 40.1803 108.045 41.9343 108.32 42.4643C107.985 42.3412 106.922 40.909 106.341 39.9595V41.7071C106.354 41.7261 106.367 41.7418 106.379 41.7608C106.591 42.0415 107.723 43.1457 107.745 43.2435C107.777 43.3791 106.928 43.8113 106.745 43.9438C106.603 44.0479 106.471 44.152 106.341 44.2656V45.6788C106.48 45.5211 106.635 45.3728 106.802 45.2372C106.893 45.2529 107.247 45.6694 107.253 45.7735C107.266 45.9596 107.058 45.9249 107.023 45.9722C106.988 46.0227 107.395 46.7482 107.436 46.7703C107.528 46.824 107.685 46.6915 107.783 46.7104C107.919 46.7388 108.105 47.3161 108.077 47.3476L107.667 47.4296C107.875 47.7703 107.723 48.559 108.238 48.2435L108.32 48.8934C108.203 48.9502 107.928 48.7988 107.913 48.8114C107.881 48.8461 107.723 49.6694 107.742 49.742C107.767 49.8366 108.118 49.8272 108.156 49.8745C108.193 49.9313 107.985 50.7452 107.868 50.7672C107.767 50.7893 107.66 50.5906 107.556 50.6095C107.499 50.619 107.263 50.9376 107.121 51.1647C107.058 51.2657 107.013 51.3477 107.013 51.3761C107.045 51.436 107.187 51.477 107.294 51.5307C107.383 51.5717 107.449 51.6222 107.42 51.6979C107.417 51.7073 107.411 51.7199 107.401 51.7357C107.556 52.0259 107.726 52.3035 107.913 52.5717C108.029 52.414 108.14 52.2783 108.156 52.2657C108.348 52.1458 108.544 52.5338 108.755 52.4707C108.853 52.4424 109.276 51.7957 109.203 51.6726C109.187 51.6442 108.758 51.4392 108.739 51.4045C108.705 51.3477 109.077 50.1868 109.131 50.1489C109.26 50.0511 109.67 50.2846 109.781 50.1899C109.812 50.1647 109.964 49.4076 109.954 49.354C109.929 49.2215 109.257 49.1962 109.216 49.1395C109.194 49.1079 109.298 48.8965 109.288 48.783C109.276 48.559 109.156 48.3003 109.209 48.048C109.235 47.9659 109.705 47.947 109.825 47.9155C109.932 47.8902 109.957 47.9849 109.948 47.7987C109.935 47.5243 109.793 47.2246 109.784 46.9407L108.973 47.1047C109.026 46.8429 108.613 46.2719 108.657 46.0952C108.695 45.928 109.219 45.8334 109.219 45.6C109.219 45.5526 108.894 45.0321 108.847 44.988C108.563 44.7324 108.326 45.2561 108.127 45.2246C107.988 45.1993 107.644 44.6283 107.506 44.5021C108.869 43.7545 110.21 43.4706 111.74 43.8902C111.964 43.9532 113.176 44.3791 113.122 44.6189C113.112 44.6504 112.705 45.1425 112.671 45.1488C112.541 45.1804 112.349 44.8365 112.147 44.9406C112.065 44.9848 111.617 45.6599 111.658 45.7198C112.377 45.9501 112.046 46.0952 111.841 46.5937C111.79 46.7072 111.753 47.0069 111.737 47.0195C111.623 47.1205 111.257 46.7798 111.106 47.0795C111.077 47.1331 110.939 47.764 110.945 47.7987C110.973 47.9533 111.456 47.9502 111.494 48.0006C111.529 48.0511 111.314 48.9723 111.418 49.171L110.923 49.3445C111.099 49.742 110.97 50.4329 111.576 50.1142C111.557 50.4644 112.096 51.3161 111.91 51.5464C111.844 51.6253 111.677 51.6505 111.664 51.6695C111.601 51.761 112.03 52.3824 112.147 52.4424C112.32 52.5275 112.38 52.2625 112.554 52.3477C112.636 52.3887 113.169 53.067 113.125 53.1269C111.784 53.8777 110.263 54.1238 108.818 53.6727C109.254 54.1364 109.746 54.5465 110.279 54.9061H110.282C110.626 54.9061 110.986 54.8746 111.352 54.8146C112.731 54.5875 114.113 53.8083 114.971 52.7137C115.712 52.9124 116.397 53.2499 117.132 53.4739C121.887 54.925 126.914 54.1459 131.082 51.5023C131.243 51.3982 132.265 50.5969 132.341 50.6852C132.555 52.395 133.798 54.0291 135.3 54.8493C136.218 55.3541 137.165 55.597 138.083 55.6285C138.859 55.2815 139.576 54.8241 140.213 54.2783C139.897 54.4045 139.56 54.5055 139.2 54.5717C134.313 55.4803 131.082 49.4391 134.622 45.9249C134.682 45.8649 135.221 45.417 135.272 45.4769C135.319 45.5306 135.202 46.7009 135.18 46.8902C134.978 48.6883 134.183 50.171 135.979 51.4865C137.575 52.6537 140.661 52.2941 141.503 50.3603C142.112 48.9596 140.942 46.9186 141.216 45.3949C142.374 46.2088 143.04 47.3413 143.267 48.5401C143.308 48.2088 143.327 47.8713 143.327 47.5306V46.212C142.523 45.0227 141.295 44.1583 139.916 43.6441C141.245 42.7671 142.403 41.6409 143.327 40.3475V38.5904C143.223 38.7828 143.109 38.9721 142.993 39.155C142.775 39.4926 142.614 40.0036 142.201 39.7323C140.45 38.5872 138.377 36.6629 136.695 35.3032C136.638 35.2559 136.572 35.2181 136.493 35.2212C138.171 33.1581 140.689 31.7385 143.327 31.2906ZM139.878 23.4197L132.871 32.2906L130.555 30.4924C130.914 29.7763 131.432 29.1012 131.785 28.3599C132.849 26.1296 133.215 23.5933 132.912 21.1421C135.411 21.1673 137.878 21.9276 139.878 23.4197ZM124.115 25.0886C124.26 24.8772 124.793 24.3882 125.011 24.1926C126.639 22.7352 129.296 21.4103 131.498 21.2336C131.634 21.2241 131.892 21.1768 131.981 21.2998C132.034 21.3787 132.104 22.9844 132.094 23.2179C132.05 24.6154 131.659 26.2368 131.107 27.5208C130.962 27.8583 130.031 29.7195 129.766 29.7637L124.036 25.2904C124.004 25.1737 124.067 25.158 124.115 25.0886ZM124.074 36.1802L121.878 32.789L122.979 29.688L125.97 30.9278C126.462 32.2527 126.664 33.6723 126.63 35.0887C126.566 35.2717 124.408 36.0099 124.074 36.1802ZM126.478 36.2812L126.396 36.931L125.5 36.6471L126.478 36.2812ZM122.976 36.36C120.549 36.1361 118.208 36.6313 115.933 37.4168C115.662 37.5115 115.391 37.6661 115.132 37.7607C115.009 37.8049 115.034 37.8553 114.914 37.7039L117.028 33.8931C117.18 33.707 120.54 33.4546 121.048 33.36L122.976 36.36ZM126.301 29.2558L125.175 27.4104L129.166 30.5461C129.201 30.6849 127.45 32.3663 127.292 32.2117C127.175 31.1644 126.718 30.2054 126.301 29.2558ZM120.833 25.0349C122.704 26.016 124.44 27.6911 125.339 29.606C124.519 29.259 123.654 28.9719 122.894 28.5113L120 25.4545C120.344 24.8677 120.212 24.71 120.833 25.0349ZM112.961 24.1548C115.135 23.6122 117.347 23.7447 119.477 24.3977C119.344 24.6122 119.208 24.9971 118.943 25.0475L115.034 25.281C114.349 24.9182 113.57 24.6154 112.961 24.1548ZM115.239 26.2274L119.092 25.9561L122.086 28.994L122.13 29.2811L121.007 32.36L117.079 32.8647C115.946 31.912 115.006 30.6849 113.949 29.6312L115.239 26.2274ZM113.125 30.3694L113.33 30.4136L116.205 33.4704L114.169 37.0793L109.632 36.3506L109.137 32.2149L113.125 30.3694ZM111.576 42.7513C111.56 42.8207 111.484 42.8365 111.412 42.8397C110.995 42.8397 110.535 42.6693 110.112 42.7072C110.538 42.1425 111.03 41.6188 111.576 41.1645C111.506 41.6062 111.674 42.3507 111.576 42.7513ZM109.216 42.2213L108.351 39.4926C108.594 39.1708 109.156 37.5146 109.377 37.3758C109.661 37.1992 113.46 38.1109 114.1 38.0699C114.138 38.2244 114.05 38.2276 113.964 38.3001C113.617 38.603 112.885 38.9216 112.447 39.2244C111.2 40.0857 110.188 41.0668 109.216 42.2213ZM112.513 43.1173C112.447 43.0068 112.434 40.8175 112.469 40.5462C112.504 40.2434 113.103 39.9248 113.374 39.745C113.914 39.3916 114.561 39.0383 115.16 38.8017V45.07C114.45 44.2119 113.538 43.5494 112.513 43.1173ZM113.968 52.3887C113.841 52.4108 113.374 51.8871 113.384 51.783C113.396 51.6411 113.86 51.5307 113.857 51.2972C113.857 51.2436 113.538 50.7294 113.488 50.6852C113.251 50.4739 113.087 50.9124 112.8 50.8461C112.188 49.5022 113.008 50.0101 113.204 49.7893C113.236 49.7546 113.071 48.9281 113.04 48.8997C112.964 48.824 112.526 48.9565 112.393 48.9754V48.2435C112.582 48.1962 112.876 48.4265 113.002 48.2435C113.027 48.212 113.229 47.4643 113.207 47.4296C113.179 47.3918 112.652 47.3634 112.639 47.2278L112.879 46.5337C113.071 46.5053 113.22 46.8019 113.4 46.7672C113.463 46.7546 113.93 46.1299 113.93 46.0858C113.93 45.9974 113.513 45.8019 113.45 45.6788C113.911 45.2088 113.882 45.07 114.343 45.6C115.971 47.4738 115.785 50.7105 113.968 52.3887ZM126.604 52.4802C123.061 53.7074 119.063 53.3887 115.656 51.8998C115.586 51.8051 116.091 50.8177 116.16 50.5874C116.526 49.3666 116.432 48.0448 116.135 46.8208L116.145 38.3222C119.533 37.0856 123.178 36.9026 126.633 37.9973L126.604 52.4802ZM127.535 33.3253C128.415 32.7007 129.267 32.0067 129.939 31.1549L132.255 33.0666L128.639 37.5904C128.327 37.8017 127.674 37.2402 127.292 37.256C127.595 35.9626 127.63 34.6439 127.535 33.3253ZM130.17 50.9376C129.308 51.3572 128.475 51.9124 127.538 52.149V38.3948C127.671 38.256 129.946 39.4327 130.227 39.6756V50.8114L130.17 50.9376ZM129.491 38.1109L132.921 33.6881C133 33.6408 133.079 33.6818 133.155 33.7196C133.732 33.9941 134.451 34.9436 135.098 35.2338L135.067 35.4641C133.978 36.9184 133.243 38.644 132.912 40.4295L129.491 38.1109ZM134.376 44.8618C133.448 45.7577 132.738 46.6473 132.4 47.9344C132.287 48.3634 132.274 49.1489 132.135 49.4612C132.034 49.6884 131.432 50.0574 131.201 50.1963V40.3507C132.691 41.3885 134.107 42.8397 134.628 44.6252C134.647 44.7734 134.473 44.7703 134.376 44.8618ZM140.32 44.8271C140.226 45.3665 140.203 45.9407 140.241 46.4927C140.304 47.3981 140.724 48.4959 140.733 49.3414C140.765 51.496 136.802 51.7893 135.934 50.0638C135.521 49.2372 136.098 47.6789 136.168 46.7356C136.212 46.1142 136.13 45.458 136.177 44.8334C137.578 44.316 138.916 44.3066 140.32 44.8271ZM141.866 40.7166C141.383 41.215 140.901 41.7008 140.358 42.1362C139.916 42.4926 139.008 43.1835 138.506 43.3791C138.033 43.5621 137.411 43.5179 136.884 43.6283C136.382 43.7356 135.934 43.9911 135.436 44.092C135.196 42.9658 134.373 42.1172 133.732 41.2119C134.003 39.5462 134.593 37.9594 135.483 36.5304L135.96 35.9563L141.866 40.7166Z" fill="white"/>
<path d="M119.148 43.8493V44.7452C119.284 44.7231 119.931 44.7767 119.963 44.7452C120.149 44.5622 119.458 43.5622 120.941 43.8493V44.7452C121.076 44.7231 121.723 44.7767 121.755 44.7452C121.941 44.5622 121.25 43.5622 122.733 43.8493V44.7452H123.336L123.383 43.8493H124.361C124.386 43.9944 124.326 44.7105 124.361 44.7452C124.528 44.9124 125.45 44.2783 125.175 45.7231C125.036 45.7452 124.393 45.6916 124.361 45.7231C124.329 45.7547 124.386 46.4739 124.361 46.619H123.383L123.336 45.7231H122.73V46.619C121.745 46.6664 121.739 46.7105 121.704 45.7231H120.938V46.619H119.959V45.7231H119.193L119.145 46.619H118.167C118.142 46.4739 118.202 45.7547 118.167 45.7231C118.132 45.6916 117.549 45.7578 117.514 45.7231C117.479 45.6884 117.479 44.7799 117.514 44.7452C117.549 44.7105 118.132 44.7799 118.167 44.7452C118.353 44.5622 117.666 43.5622 119.145 43.8493H119.148Z" fill="white"/>
</g>
<defs>
<clipPath id="clip0_126_18643">
<rect width="148" height="176" fill="white"/>
</clipPath>
</defs>
</svg>
