<svg width="151" height="185" viewBox="0 0 151 185" fill="none" xmlns="http://www.w3.org/2000/svg">
<g clip-path="url(#clip0_126_18664)">
<path d="M141.84 19.8245C139.459 9.29427 129.3 10.1551 120.637 10.4349V5.98609C120.637 3.55722 117.377 0.553414 115.098 0H110.79C109.775 0.657947 108.455 0.980772 107.561 1.84471C107.212 2.17983 105.556 4.827 105.556 5.06373V10.4349H36.6235V5.06373C36.6235 4.83315 35.0815 2.3766 34.7422 2.02918C33.8201 1.07916 32.497 0.651798 31.3898 0H27.0814C25.6072 0.710214 24.318 1.1222 23.2293 2.45039C22.8469 2.91464 21.5424 5.26665 21.5424 5.67864V10.4349C16.1544 10.7639 10.4797 9.33732 5.63463 12.2151C2.07559 14.3334 0.542799 17.8076 0 21.7891V145.757C0.462613 146.944 0.360838 148.137 0.780274 149.431C2.03858 153.336 6.22986 156.702 10.3132 157.108H22.0327C22.7606 155.654 23.7876 154.049 24.6912 152.521H11.5283C8.14507 152.327 4.60146 149.289 5.07641 145.757C6.59995 147.073 8.63853 147.685 10.6062 147.915L26.6897 147.9C26.9673 146.402 26.8994 144.853 26.6897 143.288L11.2322 143.303C8.97778 143.463 4.92529 140.007 4.92529 137.932V48.1777H30.0051C32.6913 48.1777 32.6913 43.2677 30.0051 43.2677H4.92529V20.4087C4.92529 17.9952 9.23993 15.0375 11.5407 15.0375H21.5424V23.1696C21.5424 24.3471 23.6149 27.0527 24.6388 27.7506C26.9333 29.3186 32.0128 29.5246 30.8563 25.8721C30.1099 23.517 27.8771 24.7591 26.8655 23.5416C26.7483 23.4032 26.1592 22.0289 26.1592 21.9429V15.4987C26.1592 15.4648 26.5879 15.0375 26.6218 15.0375H105.096C105.127 15.0375 105.556 15.4648 105.556 15.4987V23.7814C105.556 24.5316 107.249 26.7237 107.912 27.2648C109.504 28.5684 113.92 30.0811 114.731 27.4001C115.844 23.6984 110.173 24.6085 110.173 22.5547V15.0375H130.639C132.94 15.0375 137.254 17.9952 137.254 20.4087V43.2677H38.622C37.6814 43.2677 36.568 44.8788 36.6235 45.8534C36.676 46.7573 38.1101 48.1777 38.9304 48.1777H137.254V108.78C137.254 110.197 134.944 112.122 133.627 112.527C125.96 114.898 112.403 108.936 107.854 118.129C105.587 122.707 107.268 132.484 106.799 137.941C106.558 140.727 105.093 142.741 102.244 143.22L94.7925 143.227L89.2967 143.233C88.538 144.776 87.7824 146.316 87.0175 147.844L92.4825 147.838L107.169 147.826C112.683 147.079 120.199 137.717 124.341 133.634L137.254 120.902V147.137C136.835 149.668 133.547 152.382 130.947 152.508H90.0862L84.6119 152.515C83.7792 154.08 82.928 155.617 82.046 157.114H87.5881L131.573 157.12C138.068 156.459 142.115 151.017 142.192 144.696C141.939 103.079 142.633 61.3982 141.84 19.8245ZM32.0067 10.4349H26.1592C24.7868 2.64716 33.6011 2.25055 32.0067 10.4349ZM116.02 10.4349H110.173C110.222 7.82158 109.38 4.4642 113.1 4.57796C116.403 4.67942 116.104 7.97223 116.02 10.4349ZM111.403 139.928V121.975C111.403 120.494 114.114 117.527 115.558 117.527H133.408L111.403 139.928Z" fill="white"/>
<path d="M96.9421 61.8317C96.6491 59.2491 95.0361 57.4382 92.4424 57.1123C89.9782 56.7987 83.3012 56.8017 80.8648 57.1553C78.4314 57.512 76.9511 59.1445 76.6642 61.558C76.507 62.877 76.4268 66.6187 76.5378 69.7608C78.2834 69.6409 80.0413 70.0806 81.5525 70.9476V61.9854H92.0168V72.4172H83.477C84.8062 73.7485 85.7068 75.5102 85.8486 77.5302C88.2296 77.5517 90.7863 77.4871 92.171 77.3303C94.9004 77.0229 96.6337 75.2858 96.9421 72.574C97.2104 70.1728 97.2135 64.2329 96.9421 61.8317Z" fill="white"/>
<path d="M112.255 57.1554C114.614 56.8141 121.485 56.7833 123.842 57.1031C125.68 57.3521 127.219 58.4098 127.86 60.153C128.622 62.2222 128.551 69.518 128.341 71.9684C128.15 74.1974 127.478 76.0421 125.245 76.86C123.188 77.6132 115.237 77.5702 112.794 77.3242C110.244 77.066 108.313 75.4949 108.02 72.8815C107.752 70.4988 107.712 63.2583 108.094 60.9862C108.443 58.9232 110.216 57.4536 112.255 57.1584V57.1554ZM123.407 61.9854H112.942V72.4173H123.407V61.9854Z" fill="white"/>
<path d="M112.255 86.3077C114.614 85.9664 121.485 85.9357 123.842 86.2554C125.68 86.5045 127.219 87.5621 127.86 89.3054C128.622 91.3745 128.551 98.6704 128.341 101.121C128.15 103.35 127.478 105.194 125.245 106.012C123.188 106.766 115.237 106.723 112.794 106.477C110.244 106.218 108.313 104.647 108.02 102.034C107.752 99.6511 107.712 92.4106 108.094 90.1386C108.443 88.0756 110.216 86.6059 112.255 86.3108V86.3077ZM123.407 91.1378H112.942V101.57H123.407V91.1378Z" fill="white"/>
<path d="M18.0851 57.1551C20.5123 56.7831 27.1739 56.8138 29.6659 57.109C32.13 57.4011 33.8818 59.0214 34.1625 61.524C34.4431 64.0267 34.44 70.2895 34.1625 72.8782C33.9712 74.6676 32.8456 76.2725 31.1431 76.9274C29.4407 77.5822 21.1199 77.5423 18.9302 77.324C16.8638 77.118 15.0319 76.3125 14.3133 74.2556C13.5515 72.0758 13.5515 62.3265 14.3133 60.1466C14.9023 58.4679 16.3457 57.4226 18.0851 57.1551ZM29.2372 61.9852H18.7729V72.417H29.2372V61.9852Z" fill="white"/>
<path d="M49.4749 57.1551C51.9021 56.7831 58.5668 56.8138 61.0556 57.109C63.782 57.4318 65.2778 59.1443 65.5492 61.8345C65.8206 64.5247 65.8144 69.9451 65.5492 72.5677C65.2839 75.1903 63.5322 77.0196 60.7842 77.3301C58.3756 77.6007 52.4202 77.6007 50.0115 77.3301C48.047 77.1088 46.4031 76.1311 45.7123 74.2525C44.9721 72.2387 44.9906 64.2234 45.2775 61.8684C45.5797 59.3934 46.9244 57.5487 49.478 57.1582L49.4749 57.1551ZM60.627 61.9852H50.1626V72.417H60.627V61.9852Z" fill="white"/>
<path d="M96.9359 90.3726C96.6953 87.9622 95.2643 85.9822 92.757 85.641C91.0545 85.4104 86.2588 85.3427 83.0483 85.4811L78.4684 94.0805C79.5725 94.142 80.6087 94.3849 81.5525 94.7815V90.2158H92.0168V100.955H86.7091C86.9866 102.317 86.925 103.787 86.45 105.259C87.1778 105.336 87.8779 105.484 88.5379 105.69C91.1347 105.65 93.5002 105.539 94.0831 105.321C95.1841 104.906 96.0662 103.876 96.4702 102.788C97.2258 100.752 97.1795 92.7954 96.9359 90.3726Z" fill="white"/>
<path d="M63.3934 86.4003C62.8228 86.0098 62.1474 85.7454 61.3671 85.6409C59.1003 85.3334 51.3654 85.3181 49.1603 85.687C48.0562 85.8715 46.5944 86.8215 46.0207 87.7746C45.2435 89.0597 45.0554 94.0651 45.1047 97.6315C46.7239 96.8137 48.4664 96.6169 50.1626 96.9244V90.2158H60.627V91.5901L63.3934 86.4003Z" fill="white"/>
<path d="M30.005 114.151C27.8215 113.902 19.4266 113.822 17.459 114.222C16.6109 114.394 15.0719 115.577 14.6309 116.309C13.536 118.126 13.6378 126.609 13.8537 129.028C14.0757 131.473 15.3248 133.782 17.9956 134.104C19.0781 134.234 22.2979 134.292 25.3172 134.24C25.308 133.201 25.4098 132.177 25.6842 131.177C25.8045 130.741 26.0112 130.163 26.2826 129.493H18.7728V118.753H29.2371V123.258C29.4499 122.855 29.6596 122.464 29.8663 122.089L33.1539 115.922C32.4261 114.932 31.3281 114.301 30.005 114.151Z" fill="white"/>
<path d="M17.7705 85.687C19.9726 85.3181 27.7136 85.3334 29.9804 85.6409C32.2472 85.9483 33.9126 87.8269 34.1625 90.062C34.4524 92.6262 34.4215 98.5139 34.1563 101.106C33.9342 103.289 32.6667 105.284 30.3197 105.567C27.7198 105.88 20.2871 105.88 17.6873 105.567C16.2532 105.395 14.8067 104.143 14.3071 102.8C13.5885 100.863 13.6039 92.6846 13.8815 90.4033C14.1591 88.122 15.4235 86.0805 17.7674 85.687H17.7705ZM29.2372 90.2158H18.7729V100.955H29.2372V90.2158Z" fill="white"/>
<path d="M81.5525 70.9478V72.4174H83.477C82.9095 71.8424 82.2557 71.3474 81.5525 70.9478ZM89.2966 143.233C88.538 144.776 87.7823 146.317 87.0175 147.845C86.228 149.419 85.4292 150.981 84.6119 152.515C83.7792 154.08 82.928 155.617 82.0459 157.114H87.5881C88.4423 155.605 89.272 154.067 90.0862 152.512C90.9004 150.968 91.693 149.406 92.4825 147.838C93.2566 146.304 94.0245 144.764 94.7925 143.227L89.2966 143.233Z" fill="white"/>
<path d="M101.889 129.929C99.3538 134.184 97.0624 138.694 94.7925 143.226L89.2966 143.232C90.8603 140.041 92.4239 136.844 94.0646 133.741C95.0145 131.94 95.9891 130.172 97.0099 128.453C97.2782 127.992 97.5558 127.534 97.8334 127.082C98.5211 125.446 98.0832 123.928 97.1117 122.931C95.8688 121.652 93.75 121.237 92.0168 122.547C91.6097 122.851 91.2273 123.251 90.8788 123.758C89.7099 125.462 88.7415 127.469 87.7731 129.492C86.9928 131.128 86.2125 132.776 85.3274 134.279C85.0591 134.731 84.7846 135.174 84.4947 135.595C83.2426 137.031 80.8 135.869 80.5779 134.064C80.5347 133.726 80.5718 133.363 80.7105 132.991L82.5486 129.492L88.1864 118.753L90.2157 114.885C90.2743 114.59 90.299 114.304 90.299 114.031C90.2743 110.467 85.4909 108.666 83.3258 111.759C82.8077 112.5 82.3173 113.284 81.8455 114.104C80.214 116.924 78.8015 120.14 77.3026 123.227C76.2108 125.474 75.0697 127.657 73.7713 129.569C72.183 131.414 68.8214 129.883 69.8576 127.227C72.6025 120.18 78.2803 112.727 81.4014 105.616C81.4106 105.591 81.423 105.567 81.4322 105.542C82.2032 103.771 82.5332 102.206 81.827 100.955C81.7468 100.819 81.6573 100.684 81.5525 100.555C81.1516 100.054 80.5532 99.6142 79.7113 99.2391C78.453 98.6796 77.4013 98.8333 76.5038 99.3929C75.7328 99.8756 75.0728 100.66 74.4961 101.542C71.119 106.698 68.5222 112.896 65.5307 118.615C64.5684 120.456 63.5661 122.246 62.4805 123.937C61.9932 124.496 61.2962 124.656 60.627 124.53C59.5074 124.321 58.4619 123.31 58.6038 122.04C59.1404 120.942 59.6832 119.848 60.2353 118.753C60.9631 117.293 61.7064 115.838 62.4527 114.384C68.405 102.809 74.8014 91.4022 80.8277 79.8604C81.133 78.9012 81.1516 78.0188 80.9603 77.2625C80.507 75.4424 78.857 74.3263 77.096 74.4708C76.0289 74.56 74.9279 75.1134 74.0242 76.2571L65.6602 91.9095L58.2553 105.763L53.8512 114.009L51.313 118.753L50.1657 120.902L48.5805 123.869C47.8434 124.601 46.4124 125.093 45.0924 125.127C43.3838 125.173 41.8541 124.45 42.218 122.498C42.5974 120.438 44.2659 120.795 45.2158 120.18C45.3361 120.1 45.4471 120.008 45.5396 119.891C46.2366 119.024 47.5381 116.727 48.8242 114.289C50.2521 111.586 51.6584 108.709 52.2012 107.43C52.448 106.846 52.5867 106.289 52.6299 105.766C52.9445 102.052 48.5682 100.075 46.3168 102.4C46.1564 102.566 45.996 102.766 45.8357 102.987C44.9721 104.18 44.1024 106.117 43.2111 107.98L35.2973 122.83C35.0198 123.445 34.6836 124.109 34.3197 124.788C32.9318 127.383 31.1184 130.24 30.5139 131.749C30.2487 132.407 30.1192 133.173 30.0883 134.006C29.9835 136.69 30.8686 140.121 31.4021 143.285C31.6797 144.945 31.8617 146.531 31.7506 147.896C31.6828 148.748 31.5008 149.514 31.1585 150.156L29.9002 152.518L27.4545 157.111L26.7544 158.424L66.4343 179.438C68.3372 176.004 69.9563 172.379 72.2817 169.203C74.6225 165.999 78.2525 163.177 80.3466 159.893C80.9264 158.983 81.4939 158.058 82.049 157.114H87.5911C86.9311 158.285 86.2557 159.438 85.5618 160.57C82.7645 165.148 78.3512 168.431 75.6218 172.671C74.0643 175.094 70.3079 184.114 68.2231 184.892C67.6587 185.101 67.1035 184.978 66.5792 184.735L21.6811 160.766C21.4621 160.161 21.1105 159.497 21.3141 158.836C21.4806 158.295 21.7335 157.713 22.0358 157.108C22.7636 155.654 23.7906 154.049 24.6943 152.521C25.234 151.601 25.7305 150.71 26.0883 149.892C26.372 149.24 26.5663 148.573 26.6927 147.9C26.9703 146.402 26.9025 144.853 26.6927 143.288C26.2856 140.278 25.3512 137.197 25.3203 134.239C25.3111 133.2 25.4128 132.176 25.6873 131.177C25.8076 130.741 26.0142 130.163 26.2856 129.492C26.995 127.734 28.1361 125.348 29.2402 123.257C29.453 122.855 29.6627 122.464 29.8693 122.089L33.157 115.921L38.6683 105.576L38.6929 105.588C40.1702 102.898 42.0484 99.9709 43.2049 98.9348C43.8125 98.3937 44.4478 97.9601 45.1078 97.6312C46.727 96.8133 48.4695 96.6166 50.1657 96.924C52.3092 97.3083 54.3724 98.4951 56.0132 100.254L60.63 91.5897L63.3965 86.3999L70.6718 72.7491C70.7335 72.6353 72.3742 71.2856 72.6641 71.0858C73.87 70.2741 75.2024 69.8529 76.5408 69.7606C78.2864 69.6407 80.0444 70.0804 81.5556 70.9474V72.417H83.48C84.8093 73.7483 85.7098 75.51 85.8517 77.53C85.861 77.6406 85.8671 77.7544 85.8702 77.8682C85.8795 78.2678 85.6975 80.5184 85.6173 80.666L83.0514 85.4807L78.4715 94.0801C79.5756 94.1416 80.6118 94.3845 81.5556 94.7811C84.2264 95.8971 86.1539 98.2153 86.7122 100.955C86.9897 102.317 86.9281 103.786 86.4531 105.259C87.1809 105.336 87.881 105.483 88.541 105.689C92.7169 106.975 95.4309 110.639 94.9652 114.993C95.6899 115.58 96.2112 116.42 96.5412 117.323C101.994 119.11 104.384 124.213 101.892 129.929H101.889Z" fill="white"/>
<path d="M150.941 36.2303V32.4087C151 33.7738 151.04 35.1173 150.941 36.2303Z" fill="white"/>
</g>
<defs>
<clipPath id="clip0_126_18664">
<rect width="151" height="185" fill="white"/>
</clipPath>
</defs>
</svg>
